%TF.GenerationSoftware,KiCad,Pcbnew,9.0.9-9.0.9~ubuntu24.04.1*%
%TF.CreationDate,2026-10-05T15:13:40+00:00*%
%TF.ProjectId,klickrad-abdeckung,6b6c6963-6b72-4616-942d-61626465636b,rev?*%
%TF.SameCoordinates,Original*%
%TF.FileFunction,Profile,NP*%
%FSLAX46Y46*%
G04 Gerber Fmt 4.6, Leading zero omitted, Abs format (unit mm)*
G04 Created by KiCad (PCBNEW 9.0.9-9.0.9~ubuntu24.04.1) date 2026-10-05 15:13:40*
%MOMM*%
%LPD*%
G01*
G04 APERTURE LIST*
%TA.AperFunction,Profile*%
%ADD10C,0.100000*%
%TD*%
G04 APERTURE END LIST*
D10*
X85000000Y-100000000D02*
X85000282Y-99907961D01*
X85000282Y-99907961D02*
X85001129Y-99815926D01*
X85000282Y-100092038D02*
X85000000Y-100000000D01*
X85001129Y-99815926D02*
X85002541Y-99723899D01*
X85001129Y-100184073D02*
X85000282Y-100092038D01*
X85002541Y-99723899D02*
X85004517Y-99631881D01*
X85002541Y-100276100D02*
X85001129Y-100184073D01*
X85004517Y-99631881D02*
X85007058Y-99539877D01*
X85004517Y-100368118D02*
X85002541Y-100276100D01*
X85007058Y-99539877D02*
X85010164Y-99447891D01*
X85007058Y-100460122D02*
X85004517Y-100368118D01*
X85010164Y-99447891D02*
X85013834Y-99355926D01*
X85010164Y-100552108D02*
X85007058Y-100460122D01*
X85013834Y-99355926D02*
X85018068Y-99263984D01*
X85013834Y-100644073D02*
X85010164Y-100552108D01*
X85018068Y-99263984D02*
X85022866Y-99172071D01*
X85018068Y-100736015D02*
X85013834Y-100644073D01*
X85022866Y-99172071D02*
X85028228Y-99080188D01*
X85022866Y-100827928D02*
X85018068Y-100736015D01*
X85028228Y-99080188D02*
X85034154Y-98988341D01*
X85028228Y-100919811D02*
X85022866Y-100827928D01*
X85034154Y-98988341D02*
X85040643Y-98896531D01*
X85034154Y-101011658D02*
X85028228Y-100919811D01*
X85040643Y-98896531D02*
X85047695Y-98804763D01*
X85040643Y-101103468D02*
X85034154Y-101011658D01*
X85047695Y-98804763D02*
X85055310Y-98713040D01*
X85047695Y-101195236D02*
X85040643Y-101103468D01*
X85055310Y-98713040D02*
X85063488Y-98621365D01*
X85055310Y-101286959D02*
X85047695Y-101195236D01*
X85063488Y-98621365D02*
X85072229Y-98529742D01*
X85063488Y-101378634D02*
X85055310Y-101286959D01*
X85072229Y-98529742D02*
X85081531Y-98438175D01*
X85072229Y-101470257D02*
X85063488Y-101378634D01*
X85081531Y-98438175D02*
X85091395Y-98346666D01*
X85081531Y-101561824D02*
X85072229Y-101470257D01*
X85091395Y-98346666D02*
X85101820Y-98255220D01*
X85091395Y-101653333D02*
X85081531Y-101561824D01*
X85101820Y-98255220D02*
X85112806Y-98163839D01*
X85101820Y-101744779D02*
X85091395Y-101653333D01*
X85112806Y-98163839D02*
X85124353Y-98072528D01*
X85112806Y-101836160D02*
X85101820Y-101744779D01*
X85124353Y-98072528D02*
X85136460Y-97981289D01*
X85124353Y-101927471D02*
X85112806Y-101836160D01*
X85136460Y-97981289D02*
X85149126Y-97890126D01*
X85136460Y-102018710D02*
X85124353Y-101927471D01*
X85149126Y-97890126D02*
X85162352Y-97799042D01*
X85149126Y-102109873D02*
X85136460Y-102018710D01*
X85162352Y-97799042D02*
X85176136Y-97708042D01*
X85162352Y-102200957D02*
X85149126Y-102109873D01*
X85176136Y-97708042D02*
X85190478Y-97617127D01*
X85176136Y-102291957D02*
X85162352Y-102200957D01*
X85190478Y-97617127D02*
X85205378Y-97526303D01*
X85190478Y-102382872D02*
X85176136Y-102291957D01*
X85205378Y-97526303D02*
X85220835Y-97435571D01*
X85205378Y-102473696D02*
X85190478Y-102382872D01*
X85220835Y-97435571D02*
X85236848Y-97344936D01*
X85220835Y-102564428D02*
X85205378Y-102473696D01*
X85236848Y-97344936D02*
X85253417Y-97254401D01*
X85236848Y-102655063D02*
X85220835Y-102564428D01*
X85253417Y-97254401D02*
X85270541Y-97163970D01*
X85253417Y-102745598D02*
X85236848Y-102655063D01*
X85270541Y-97163970D02*
X85288220Y-97073645D01*
X85270541Y-102836029D02*
X85253417Y-102745598D01*
X85288220Y-97073645D02*
X85306453Y-96983430D01*
X85288220Y-102926354D02*
X85270541Y-102836029D01*
X85306453Y-96983430D02*
X85325239Y-96893329D01*
X85306453Y-103016569D02*
X85288220Y-102926354D01*
X85325239Y-96893329D02*
X85344577Y-96803345D01*
X85325239Y-103106670D02*
X85306453Y-103016569D01*
X85344577Y-96803345D02*
X85364468Y-96713481D01*
X85344577Y-103196654D02*
X85325239Y-103106670D01*
X85364468Y-96713481D02*
X85384909Y-96623741D01*
X85364468Y-103286518D02*
X85344577Y-103196654D01*
X85384909Y-96623741D02*
X85405900Y-96534128D01*
X85384909Y-103376258D02*
X85364468Y-103286518D01*
X85405900Y-96534128D02*
X85427441Y-96444645D01*
X85405900Y-103465871D02*
X85384909Y-103376258D01*
X85427441Y-96444645D02*
X85449531Y-96355297D01*
X85427441Y-103555354D02*
X85405900Y-103465871D01*
X85449531Y-96355297D02*
X85472168Y-96266085D01*
X85449531Y-103644702D02*
X85427441Y-103555354D01*
X85472168Y-96266085D02*
X85495352Y-96177015D01*
X85472168Y-103733914D02*
X85449531Y-103644702D01*
X85495352Y-96177015D02*
X85519083Y-96088088D01*
X85495352Y-103822984D02*
X85472168Y-103733914D01*
X85519083Y-96088088D02*
X85543359Y-95999308D01*
X85519083Y-103911911D02*
X85495352Y-103822984D01*
X85543359Y-95999308D02*
X85568178Y-95910679D01*
X85543359Y-104000691D02*
X85519083Y-103911911D01*
X85568178Y-95910679D02*
X85593542Y-95822204D01*
X85568178Y-104089320D02*
X85543359Y-104000691D01*
X85593542Y-95822204D02*
X85619447Y-95733886D01*
X85593542Y-104177795D02*
X85568178Y-104089320D01*
X85619447Y-95733886D02*
X85645894Y-95645729D01*
X85619447Y-104266113D02*
X85593542Y-104177795D01*
X85645894Y-95645729D02*
X85672882Y-95557736D01*
X85645894Y-104354270D02*
X85619447Y-104266113D01*
X85672882Y-95557736D02*
X85700409Y-95469910D01*
X85672882Y-104442263D02*
X85645894Y-104354270D01*
X85700409Y-95469910D02*
X85728474Y-95382255D01*
X85700409Y-104530089D02*
X85672882Y-104442263D01*
X85728474Y-95382255D02*
X85757077Y-95294773D01*
X85728474Y-104617744D02*
X85700409Y-104530089D01*
X85757077Y-95294773D02*
X85786216Y-95207469D01*
X85757077Y-104705226D02*
X85728474Y-104617744D01*
X85786216Y-95207469D02*
X85815890Y-95120345D01*
X85786216Y-104792530D02*
X85757077Y-104705226D01*
X85815890Y-95120345D02*
X85846098Y-95033405D01*
X85815890Y-104879654D02*
X85786216Y-104792530D01*
X85846098Y-95033405D02*
X85876839Y-94946652D01*
X85846098Y-104966594D02*
X85815890Y-104879654D01*
X85876839Y-94946652D02*
X85908111Y-94860089D01*
X85876839Y-105053347D02*
X85846098Y-104966594D01*
X85908111Y-94860089D02*
X85939914Y-94773719D01*
X85908111Y-105139910D02*
X85876839Y-105053347D01*
X85939914Y-94773719D02*
X85972247Y-94687547D01*
X85939914Y-105226280D02*
X85908111Y-105139910D01*
X85972247Y-94687547D02*
X86005108Y-94601574D01*
X85972247Y-105312452D02*
X85939914Y-105226280D01*
X86005108Y-94601574D02*
X86038495Y-94515805D01*
X86005108Y-105398425D02*
X85972247Y-105312452D01*
X86038495Y-94515805D02*
X86072408Y-94430242D01*
X86038495Y-105484194D02*
X86005108Y-105398425D01*
X86072408Y-94430242D02*
X86106846Y-94344888D01*
X86072408Y-105569757D02*
X86038495Y-105484194D01*
X86093508Y-105622053D02*
X86072408Y-105569757D01*
X86105060Y-105613264D02*
X86093508Y-105622053D01*
X86106846Y-94344888D02*
X86141807Y-94259748D01*
X86141807Y-94259748D02*
X86177289Y-94174824D01*
X86146831Y-105583071D02*
X86105060Y-105613264D01*
X86177289Y-94174824D02*
X86213292Y-94090119D01*
X86189331Y-105553913D02*
X86146831Y-105583071D01*
X86213292Y-94090119D02*
X86249814Y-94005637D01*
X86232534Y-105525807D02*
X86189331Y-105553913D01*
X86249814Y-94005637D02*
X86286853Y-93921380D01*
X86276413Y-105498769D02*
X86232534Y-105525807D01*
X86286853Y-93921380D02*
X86324409Y-93837352D01*
X86320942Y-105472817D02*
X86276413Y-105498769D01*
X86324409Y-93837352D02*
X86362480Y-93753556D01*
X86362480Y-93753556D02*
X86401064Y-93669995D01*
X86366095Y-105447965D02*
X86320942Y-105472817D01*
X86401064Y-93669995D02*
X86440160Y-93586673D01*
X86411845Y-105424228D02*
X86366095Y-105447965D01*
X86440160Y-93586673D02*
X86479767Y-93503592D01*
X86458163Y-105401622D02*
X86411845Y-105424228D01*
X86479767Y-93503592D02*
X86519883Y-93420756D01*
X86505022Y-105380159D02*
X86458163Y-105401622D01*
X86519883Y-93420756D02*
X86560506Y-93338167D01*
X86552393Y-105359852D02*
X86505022Y-105380159D01*
X86560506Y-93338167D02*
X86601635Y-93255830D01*
X86600249Y-105340715D02*
X86552393Y-105359852D01*
X86601635Y-93255830D02*
X86643269Y-93173746D01*
X86643269Y-93173746D02*
X86685405Y-93091919D01*
X86648560Y-105322757D02*
X86600249Y-105340715D01*
X86685405Y-93091919D02*
X86728043Y-93010352D01*
X86697297Y-105305990D02*
X86648560Y-105322757D01*
X86728043Y-93010352D02*
X86771181Y-92929048D01*
X86746431Y-105290425D02*
X86697297Y-105305990D01*
X86771181Y-92929048D02*
X86814816Y-92848011D01*
X86795932Y-105276070D02*
X86746431Y-105290425D01*
X86814816Y-92848011D02*
X86858948Y-92767243D01*
X86845770Y-105262934D02*
X86795932Y-105276070D01*
X86858948Y-92767243D02*
X86903575Y-92686747D01*
X86895916Y-105251025D02*
X86845770Y-105262934D01*
X86903575Y-92686747D02*
X86948695Y-92606527D01*
X86946339Y-105240350D02*
X86895916Y-105251025D01*
X86948695Y-92606527D02*
X86994306Y-92526584D01*
X86994306Y-92526584D02*
X87040407Y-92446924D01*
X86997009Y-105230916D02*
X86946339Y-105240350D01*
X87040407Y-92446924D02*
X87086995Y-92367547D01*
X87047895Y-105222729D02*
X86997009Y-105230916D01*
X87086995Y-92367547D02*
X87134070Y-92288458D01*
X87098966Y-105215792D02*
X87047895Y-105222729D01*
X87134070Y-92288458D02*
X87181630Y-92209660D01*
X87150193Y-105210112D02*
X87098966Y-105215792D01*
X87181630Y-92209660D02*
X87229672Y-92131154D01*
X87201543Y-105205690D02*
X87150193Y-105210112D01*
X87229672Y-92131154D02*
X87278194Y-92052945D01*
X87252986Y-105202529D02*
X87201543Y-105205690D01*
X87278194Y-92052945D02*
X87327196Y-91975035D01*
X87304492Y-105200632D02*
X87252986Y-105202529D01*
X87327196Y-91975035D02*
X87376675Y-91897427D01*
X87356029Y-105200000D02*
X87304492Y-105200632D01*
X87376675Y-91897427D02*
X87426629Y-91820125D01*
X87407565Y-105200632D02*
X87356029Y-105200000D01*
X87426629Y-91820125D02*
X87477056Y-91743130D01*
X87459071Y-105202529D02*
X87407565Y-105200632D01*
X87477056Y-91743130D02*
X87527955Y-91666446D01*
X87510514Y-105205690D02*
X87459071Y-105202529D01*
X87527955Y-91666446D02*
X87579324Y-91590076D01*
X87561865Y-105210112D02*
X87510514Y-105205690D01*
X87579324Y-91590076D02*
X87631160Y-91514022D01*
X87613091Y-105215792D02*
X87561865Y-105210112D01*
X87631160Y-91514022D02*
X87683462Y-91438288D01*
X87664163Y-105222729D02*
X87613091Y-105215792D01*
X87683462Y-91438288D02*
X87736227Y-91362877D01*
X87715049Y-105230916D02*
X87664163Y-105222729D01*
X87736227Y-91362877D02*
X87789455Y-91287790D01*
X87765718Y-105240350D02*
X87715049Y-105230916D01*
X87789455Y-91287790D02*
X87843142Y-91213032D01*
X87816141Y-105251025D02*
X87765718Y-105240350D01*
X87843142Y-91213032D02*
X87897286Y-91138604D01*
X87866287Y-105262934D02*
X87816141Y-105251025D01*
X87897286Y-91138604D02*
X87951887Y-91064510D01*
X87916125Y-105276070D02*
X87866287Y-105262934D01*
X87951887Y-91064510D02*
X88006940Y-90990752D01*
X87965626Y-105290425D02*
X87916125Y-105276070D01*
X88006940Y-90990752D02*
X88062446Y-90917334D01*
X88014760Y-105305990D02*
X87965626Y-105290425D01*
X88062446Y-90917334D02*
X88118401Y-90844257D01*
X88063497Y-105322757D02*
X88014760Y-105305990D01*
X88111808Y-105340715D02*
X88063497Y-105322757D01*
X88118401Y-90844257D02*
X88174803Y-90771526D01*
X88159664Y-105359852D02*
X88111808Y-105340715D01*
X88174803Y-90771526D02*
X88231651Y-90699141D01*
X88177849Y-109232351D02*
X88207035Y-109219840D01*
X88207035Y-105380159D02*
X88159664Y-105359852D01*
X88207035Y-109219840D02*
X88253894Y-109198377D01*
X88231651Y-90699141D02*
X88288941Y-90627107D01*
X88231651Y-109300858D02*
X88177849Y-109232351D01*
X88253894Y-105401622D02*
X88207035Y-105380159D01*
X88253894Y-109198377D02*
X88300212Y-109175771D01*
X88288941Y-90627107D02*
X88346673Y-90555426D01*
X88288941Y-109372892D02*
X88231651Y-109300858D01*
X88300212Y-105424228D02*
X88253894Y-105401622D01*
X88300212Y-109175771D02*
X88345962Y-109152034D01*
X88345962Y-105447965D02*
X88300212Y-105424228D01*
X88345962Y-109152034D02*
X88391115Y-109127182D01*
X88346673Y-90555426D02*
X88404843Y-90484100D01*
X88346673Y-109444573D02*
X88288941Y-109372892D01*
X88391115Y-105472817D02*
X88345962Y-105447965D01*
X88391115Y-109127182D02*
X88435644Y-109101230D01*
X88404843Y-90484100D02*
X88463449Y-90413133D01*
X88404843Y-109515899D02*
X88346673Y-109444573D01*
X88435644Y-105498769D02*
X88391115Y-105472817D01*
X88435644Y-109101230D02*
X88479524Y-109074192D01*
X88463449Y-90413133D02*
X88522491Y-90342526D01*
X88463449Y-109586866D02*
X88404843Y-109515899D01*
X88479524Y-105525807D02*
X88435644Y-105498769D01*
X88479524Y-109074192D02*
X88522726Y-109046086D01*
X88522491Y-90342526D02*
X88581964Y-90272283D01*
X88522491Y-109657473D02*
X88463449Y-109586866D01*
X88522726Y-105553913D02*
X88479524Y-105525807D01*
X88522726Y-109046086D02*
X88565226Y-109016928D01*
X88565226Y-105583071D02*
X88522726Y-105553913D01*
X88565226Y-109016928D02*
X88606997Y-108986735D01*
X88581964Y-90272283D02*
X88641867Y-90202407D01*
X88581964Y-109727716D02*
X88522491Y-109657473D01*
X88606997Y-105613264D02*
X88565226Y-105583071D01*
X88606997Y-108986735D02*
X88648015Y-108955527D01*
X88641867Y-90202407D02*
X88702198Y-90132899D01*
X88641867Y-109797592D02*
X88581964Y-109727716D01*
X88648015Y-105644472D02*
X88606997Y-105613264D01*
X88648015Y-108955527D02*
X88688255Y-108923321D01*
X88688255Y-105676678D02*
X88648015Y-105644472D01*
X88688255Y-108923321D02*
X88727692Y-108890138D01*
X88702198Y-90132899D02*
X88762954Y-90063763D01*
X88702198Y-109867100D02*
X88641867Y-109797592D01*
X88727692Y-105709861D02*
X88688255Y-105676678D01*
X88727692Y-108890138D02*
X88766302Y-108855997D01*
X88762954Y-90063763D02*
X88824133Y-89995001D01*
X88762954Y-109936236D02*
X88702198Y-109867100D01*
X88766302Y-105744002D02*
X88727692Y-105709861D01*
X88766302Y-108855997D02*
X88804064Y-108820918D01*
X88804064Y-105779081D02*
X88766302Y-105744002D01*
X88804064Y-108820918D02*
X88840953Y-108784924D01*
X88824133Y-89995001D02*
X88885733Y-89926615D01*
X88824133Y-110004998D02*
X88762954Y-109936236D01*
X88840953Y-105815075D02*
X88804064Y-105779081D01*
X88840953Y-108784924D02*
X88876947Y-108748035D01*
X88876947Y-105851964D02*
X88840953Y-105815075D01*
X88876947Y-108748035D02*
X88912026Y-108710273D01*
X88885733Y-89926615D02*
X88947751Y-89858609D01*
X88885733Y-110073384D02*
X88824133Y-110004998D01*
X88912026Y-105889726D02*
X88876947Y-105851964D01*
X88912026Y-108710273D02*
X88946167Y-108671662D01*
X88946167Y-105928337D02*
X88912026Y-105889726D01*
X88946167Y-108671662D02*
X88979351Y-108632225D01*
X88947751Y-89858609D02*
X89010185Y-89790985D01*
X88947751Y-110141390D02*
X88885733Y-110073384D01*
X88979351Y-105967774D02*
X88946167Y-105928337D01*
X88979351Y-108632225D02*
X89011556Y-108591986D01*
X89010185Y-89790985D02*
X89073034Y-89723744D01*
X89010185Y-110209014D02*
X88947751Y-110141390D01*
X89011556Y-106008013D02*
X88979351Y-105967774D01*
X89011556Y-108591986D02*
X89042764Y-108550968D01*
X89042764Y-106049031D02*
X89011556Y-106008013D01*
X89042764Y-108550968D02*
X89072957Y-108509197D01*
X89072957Y-106090802D02*
X89042764Y-106049031D01*
X89072957Y-108509197D02*
X89102115Y-108466697D01*
X89073034Y-89723744D02*
X89136293Y-89656891D01*
X89073034Y-110276255D02*
X89010185Y-110209014D01*
X89102115Y-106133302D02*
X89072957Y-106090802D01*
X89102115Y-108466697D02*
X89130221Y-108423495D01*
X89130221Y-106176504D02*
X89102115Y-106133302D01*
X89130221Y-108423495D02*
X89157259Y-108379615D01*
X89136293Y-89656891D02*
X89199962Y-89590428D01*
X89136293Y-110343108D02*
X89073034Y-110276255D01*
X89157259Y-106220384D02*
X89130221Y-106176504D01*
X89157259Y-108379615D02*
X89183211Y-108335086D01*
X89183211Y-106264913D02*
X89157259Y-106220384D01*
X89183211Y-108335086D02*
X89208063Y-108289933D01*
X89199962Y-89590428D02*
X89264037Y-89524356D01*
X89199962Y-110409571D02*
X89136293Y-110343108D01*
X89208063Y-106310066D02*
X89183211Y-106264913D01*
X89208063Y-108289933D02*
X89231800Y-108244183D01*
X89231800Y-106355816D02*
X89208063Y-106310066D01*
X89231800Y-108244183D02*
X89254406Y-108197865D01*
X89254406Y-106402134D02*
X89231800Y-106355816D01*
X89254406Y-108197865D02*
X89275869Y-108151006D01*
X89264037Y-89524356D02*
X89328517Y-89458678D01*
X89264037Y-110475643D02*
X89199962Y-110409571D01*
X89275869Y-106448993D02*
X89254406Y-106402134D01*
X89275869Y-108151006D02*
X89296176Y-108103635D01*
X89296176Y-106496364D02*
X89275869Y-106448993D01*
X89296176Y-108103635D02*
X89315313Y-108055779D01*
X89315313Y-106544220D02*
X89296176Y-106496364D01*
X89315313Y-108055779D02*
X89333271Y-108007468D01*
X89328517Y-89458678D02*
X89393398Y-89393398D01*
X89328517Y-110541321D02*
X89264037Y-110475643D01*
X89333271Y-106592531D02*
X89315313Y-106544220D01*
X89333271Y-108007468D02*
X89350038Y-107958731D01*
X89350038Y-106641268D02*
X89333271Y-106592531D01*
X89350038Y-107958731D02*
X89365603Y-107909597D01*
X89365603Y-106690402D02*
X89350038Y-106641268D01*
X89365603Y-107909597D02*
X89379958Y-107860096D01*
X89379958Y-106739903D02*
X89365603Y-106690402D01*
X89379958Y-107860096D02*
X89393094Y-107810258D01*
X89393094Y-106789741D02*
X89379958Y-106739903D01*
X89393094Y-107810258D02*
X89405003Y-107760112D01*
X89393398Y-89393398D02*
X89458678Y-89328517D01*
X89393398Y-110606601D02*
X89328517Y-110541321D01*
X89405003Y-106839887D02*
X89393094Y-106789741D01*
X89405003Y-107760112D02*
X89415678Y-107709689D01*
X89415678Y-106890310D02*
X89405003Y-106839887D01*
X89415678Y-107709689D02*
X89425112Y-107659019D01*
X89425112Y-106940980D02*
X89415678Y-106890310D01*
X89425112Y-107659019D02*
X89433299Y-107608133D01*
X89433299Y-106991866D02*
X89425112Y-106940980D01*
X89433299Y-107608133D02*
X89440236Y-107557062D01*
X89440236Y-107042937D02*
X89433299Y-106991866D01*
X89440236Y-107557062D02*
X89445917Y-107505835D01*
X89445917Y-107094164D02*
X89440236Y-107042937D01*
X89445917Y-107505835D02*
X89450339Y-107454485D01*
X89450339Y-107145514D02*
X89445917Y-107094164D01*
X89450339Y-107454485D02*
X89453499Y-107403042D01*
X89453499Y-107196957D02*
X89450339Y-107145514D01*
X89453499Y-107403042D02*
X89455396Y-107351536D01*
X89455396Y-107248463D02*
X89453499Y-107196957D01*
X89455396Y-107351536D02*
X89456029Y-107300000D01*
X89456029Y-107300000D02*
X89455396Y-107248463D01*
X89458678Y-89328517D02*
X89524356Y-89264037D01*
X89458678Y-110671482D02*
X89393398Y-110606601D01*
X89524356Y-89264037D02*
X89590428Y-89199962D01*
X89524356Y-110735962D02*
X89458678Y-110671482D01*
X89590428Y-89199962D02*
X89656891Y-89136293D01*
X89590428Y-110800037D02*
X89524356Y-110735962D01*
X89656891Y-89136293D02*
X89723744Y-89073034D01*
X89656891Y-110863706D02*
X89590428Y-110800037D01*
X89723744Y-89073034D02*
X89790985Y-89010185D01*
X89723744Y-110926965D02*
X89656891Y-110863706D01*
X89790985Y-89010185D02*
X89858609Y-88947751D01*
X89790985Y-110989814D02*
X89723744Y-110926965D01*
X89858609Y-88947751D02*
X89926615Y-88885733D01*
X89858609Y-111052248D02*
X89790985Y-110989814D01*
X89926615Y-88885733D02*
X89995001Y-88824133D01*
X89926615Y-111114266D02*
X89858609Y-111052248D01*
X89995001Y-88824133D02*
X90063763Y-88762954D01*
X89995001Y-111175866D02*
X89926615Y-111114266D01*
X90063763Y-88762954D02*
X90132899Y-88702198D01*
X90063763Y-111237045D02*
X89995001Y-111175866D01*
X90132899Y-88702198D02*
X90202407Y-88641867D01*
X90132899Y-111297801D02*
X90063763Y-111237045D01*
X90202407Y-88641867D02*
X90272283Y-88581964D01*
X90202407Y-111358132D02*
X90132899Y-111297801D01*
X90272283Y-88581964D02*
X90342526Y-88522491D01*
X90272283Y-111418035D02*
X90202407Y-111358132D01*
X90342526Y-88522491D02*
X90413133Y-88463449D01*
X90342526Y-111477508D02*
X90272283Y-111418035D01*
X90413133Y-88463449D02*
X90484100Y-88404843D01*
X90413133Y-111536550D02*
X90342526Y-111477508D01*
X90484100Y-88404843D02*
X90555426Y-88346673D01*
X90484100Y-111595156D02*
X90413133Y-111536550D01*
X90555426Y-88346673D02*
X90627107Y-88288941D01*
X90555426Y-111653326D02*
X90484100Y-111595156D01*
X90627107Y-88288941D02*
X90699141Y-88231651D01*
X90627107Y-111711058D02*
X90555426Y-111653326D01*
X90699141Y-88231651D02*
X90771526Y-88174803D01*
X90699141Y-111768348D02*
X90627107Y-111711058D01*
X90771526Y-88174803D02*
X90844257Y-88118401D01*
X90771526Y-111825196D02*
X90699141Y-111768348D01*
X90844257Y-88118401D02*
X90917334Y-88062446D01*
X90844257Y-111881598D02*
X90771526Y-111825196D01*
X90917334Y-88062446D02*
X90990752Y-88006940D01*
X90917334Y-111937553D02*
X90844257Y-111881598D01*
X90990752Y-88006940D02*
X91064510Y-87951887D01*
X90990752Y-111993059D02*
X90917334Y-111937553D01*
X91064510Y-87951887D02*
X91138604Y-87897286D01*
X91064510Y-112048112D02*
X90990752Y-111993059D01*
X91138604Y-87897286D02*
X91213032Y-87843142D01*
X91138604Y-112102713D02*
X91064510Y-112048112D01*
X91213032Y-87843142D02*
X91287790Y-87789455D01*
X91213032Y-112156857D02*
X91138604Y-112102713D01*
X91287790Y-87789455D02*
X91362877Y-87736227D01*
X91287790Y-112210544D02*
X91213032Y-112156857D01*
X91362877Y-87736227D02*
X91438288Y-87683462D01*
X91362877Y-112263772D02*
X91287790Y-112210544D01*
X91438288Y-87683462D02*
X91514022Y-87631160D01*
X91438288Y-112316537D02*
X91362877Y-112263772D01*
X91514022Y-87631160D02*
X91590076Y-87579324D01*
X91514022Y-112368839D02*
X91438288Y-112316537D01*
X91590076Y-87579324D02*
X91666446Y-87527955D01*
X91590076Y-112420675D02*
X91514022Y-112368839D01*
X91666446Y-87527955D02*
X91743130Y-87477056D01*
X91666446Y-112472044D02*
X91590076Y-112420675D01*
X91743130Y-87477056D02*
X91820125Y-87426629D01*
X91743130Y-112522943D02*
X91666446Y-112472044D01*
X91820125Y-87426629D02*
X91897427Y-87376675D01*
X91820125Y-112573370D02*
X91743130Y-112522943D01*
X91897427Y-87376675D02*
X91975035Y-87327196D01*
X91897427Y-112623324D02*
X91820125Y-112573370D01*
X91975035Y-87327196D02*
X92052945Y-87278194D01*
X91975035Y-112672803D02*
X91897427Y-112623324D01*
X92052945Y-87278194D02*
X92131154Y-87229672D01*
X92052945Y-112721805D02*
X91975035Y-112672803D01*
X92131154Y-87229672D02*
X92209660Y-87181630D01*
X92131154Y-112770327D02*
X92052945Y-112721805D01*
X92209660Y-87181630D02*
X92288458Y-87134070D01*
X92209660Y-112818369D02*
X92131154Y-112770327D01*
X92288458Y-87134070D02*
X92367547Y-87086995D01*
X92288458Y-112865929D02*
X92209660Y-112818369D01*
X92367547Y-87086995D02*
X92446924Y-87040407D01*
X92367547Y-112913004D02*
X92288458Y-112865929D01*
X92446924Y-87040407D02*
X92526584Y-86994306D01*
X92446924Y-112959592D02*
X92367547Y-112913004D01*
X92526584Y-86994306D02*
X92606527Y-86948695D01*
X92526584Y-113005693D02*
X92446924Y-112959592D01*
X92606527Y-86948695D02*
X92686747Y-86903575D01*
X92606527Y-113051304D02*
X92526584Y-113005693D01*
X92686747Y-86903575D02*
X92767243Y-86858948D01*
X92686747Y-113096424D02*
X92606527Y-113051304D01*
X92767243Y-86858948D02*
X92848011Y-86814816D01*
X92767243Y-113141051D02*
X92686747Y-113096424D01*
X92848011Y-86814816D02*
X92929048Y-86771181D01*
X92848011Y-113185183D02*
X92767243Y-113141051D01*
X92929048Y-86771181D02*
X93010352Y-86728043D01*
X92929048Y-113228818D02*
X92848011Y-113185183D01*
X93010352Y-86728043D02*
X93091919Y-86685405D01*
X93010352Y-113271956D02*
X92929048Y-113228818D01*
X93091919Y-86685405D02*
X93173746Y-86643269D01*
X93091919Y-113314594D02*
X93010352Y-113271956D01*
X93173746Y-86643269D02*
X93255830Y-86601635D01*
X93173746Y-113356730D02*
X93091919Y-113314594D01*
X93255830Y-86601635D02*
X93338167Y-86560506D01*
X93255830Y-113398364D02*
X93173746Y-113356730D01*
X93338167Y-86560506D02*
X93420756Y-86519883D01*
X93338167Y-113439493D02*
X93255830Y-113398364D01*
X93420756Y-86519883D02*
X93503592Y-86479767D01*
X93420756Y-113480116D02*
X93338167Y-113439493D01*
X93503592Y-86479767D02*
X93586673Y-86440160D01*
X93503592Y-113520232D02*
X93420756Y-113480116D01*
X93586673Y-86440160D02*
X93669995Y-86401064D01*
X93586673Y-113559839D02*
X93503592Y-113520232D01*
X93669995Y-86401064D02*
X93753556Y-86362480D01*
X93669995Y-113598935D02*
X93586673Y-113559839D01*
X93753556Y-86362480D02*
X93837352Y-86324409D01*
X93753556Y-113637519D02*
X93669995Y-113598935D01*
X93837352Y-86324409D02*
X93921380Y-86286853D01*
X93837352Y-113675590D02*
X93753556Y-113637519D01*
X93921380Y-86286853D02*
X94005637Y-86249814D01*
X93921380Y-113713146D02*
X93837352Y-113675590D01*
X94005637Y-86249814D02*
X94090119Y-86213292D01*
X94005637Y-113750185D02*
X93921380Y-113713146D01*
X94090119Y-86213292D02*
X94174824Y-86177289D01*
X94090119Y-113786707D02*
X94005637Y-113750185D01*
X94174824Y-86177289D02*
X94259748Y-86141807D01*
X94174824Y-113822710D02*
X94090119Y-113786707D01*
X94259748Y-86141807D02*
X94344888Y-86106846D01*
X94259748Y-113858192D02*
X94174824Y-113822710D01*
X94344888Y-86106846D02*
X94430242Y-86072408D01*
X94344888Y-113893153D02*
X94259748Y-113858192D01*
X94430242Y-86072408D02*
X94515805Y-86038495D01*
X94430242Y-113927591D02*
X94344888Y-113893153D01*
X94515805Y-86038495D02*
X94601574Y-86005108D01*
X94515805Y-113961504D02*
X94430242Y-113927591D01*
X94601574Y-86005108D02*
X94687547Y-85972247D01*
X94601574Y-113994891D02*
X94515805Y-113961504D01*
X94687547Y-85972247D02*
X94773719Y-85939914D01*
X94687547Y-114027752D02*
X94601574Y-113994891D01*
X94773719Y-85939914D02*
X94860089Y-85908111D01*
X94773719Y-114060085D02*
X94687547Y-114027752D01*
X94860089Y-85908111D02*
X94946652Y-85876839D01*
X94860089Y-114091888D02*
X94773719Y-114060085D01*
X94946652Y-85876839D02*
X95033405Y-85846098D01*
X94946652Y-114123160D02*
X94860089Y-114091888D01*
X95033405Y-85846098D02*
X95120345Y-85815890D01*
X95033405Y-114153901D02*
X94946652Y-114123160D01*
X95120345Y-85815890D02*
X95207469Y-85786216D01*
X95120345Y-114184109D02*
X95033405Y-114153901D01*
X95207469Y-85786216D02*
X95294773Y-85757077D01*
X95207469Y-114213783D02*
X95120345Y-114184109D01*
X95294773Y-85757077D02*
X95382255Y-85728474D01*
X95294773Y-114242922D02*
X95207469Y-114213783D01*
X95382255Y-85728474D02*
X95469910Y-85700409D01*
X95382255Y-114271525D02*
X95294773Y-114242922D01*
X95469910Y-85700409D02*
X95557736Y-85672882D01*
X95469910Y-114299590D02*
X95382255Y-114271525D01*
X95557736Y-85672882D02*
X95645729Y-85645894D01*
X95557736Y-114327117D02*
X95469910Y-114299590D01*
X95645729Y-85645894D02*
X95733886Y-85619447D01*
X95645729Y-114354105D02*
X95557736Y-114327117D01*
X95733886Y-85619447D02*
X95822204Y-85593542D01*
X95733886Y-114380552D02*
X95645729Y-114354105D01*
X95822204Y-85593542D02*
X95910679Y-85568178D01*
X95822204Y-114406457D02*
X95733886Y-114380552D01*
X95910679Y-85568178D02*
X95999308Y-85543359D01*
X95910679Y-114431821D02*
X95822204Y-114406457D01*
X95999308Y-85543359D02*
X96088088Y-85519083D01*
X95999308Y-114456640D02*
X95910679Y-114431821D01*
X96088088Y-85519083D02*
X96177015Y-85495352D01*
X96088088Y-114480916D02*
X95999308Y-114456640D01*
X96177015Y-85495352D02*
X96266085Y-85472168D01*
X96177015Y-114504647D02*
X96088088Y-114480916D01*
X96266085Y-85472168D02*
X96355297Y-85449531D01*
X96266085Y-114527831D02*
X96177015Y-114504647D01*
X96355297Y-85449531D02*
X96444645Y-85427441D01*
X96355297Y-114550468D02*
X96266085Y-114527831D01*
X96444645Y-85427441D02*
X96534128Y-85405900D01*
X96444645Y-114572558D02*
X96355297Y-114550468D01*
X96534128Y-85405900D02*
X96623741Y-85384909D01*
X96534128Y-114594099D02*
X96444645Y-114572558D01*
X96623741Y-85384909D02*
X96713481Y-85364468D01*
X96623741Y-114615090D02*
X96534128Y-114594099D01*
X96713481Y-85364468D02*
X96803345Y-85344577D01*
X96713481Y-114635531D02*
X96623741Y-114615090D01*
X96803345Y-85344577D02*
X96893329Y-85325239D01*
X96803345Y-114655422D02*
X96713481Y-114635531D01*
X96893329Y-85325239D02*
X96983430Y-85306453D01*
X96893329Y-114674760D02*
X96803345Y-114655422D01*
X96983430Y-85306453D02*
X97073645Y-85288220D01*
X96983430Y-114693546D02*
X96893329Y-114674760D01*
X97073645Y-85288220D02*
X97163970Y-85270541D01*
X97073645Y-114711779D02*
X96983430Y-114693546D01*
X97163970Y-85270541D02*
X97254401Y-85253417D01*
X97163970Y-114729458D02*
X97073645Y-114711779D01*
X97254401Y-85253417D02*
X97344936Y-85236848D01*
X97254401Y-114746582D02*
X97163970Y-114729458D01*
X97344936Y-85236848D02*
X97435571Y-85220835D01*
X97344936Y-114763151D02*
X97254401Y-114746582D01*
X97435571Y-85220835D02*
X97526303Y-85205378D01*
X97435571Y-114779164D02*
X97344936Y-114763151D01*
X97526303Y-85205378D02*
X97617127Y-85190478D01*
X97526303Y-114794621D02*
X97435571Y-114779164D01*
X97617127Y-85190478D02*
X97708042Y-85176136D01*
X97617127Y-114809521D02*
X97526303Y-114794621D01*
X97708042Y-85176136D02*
X97799042Y-85162352D01*
X97708042Y-114823863D02*
X97617127Y-114809521D01*
X97799042Y-85162352D02*
X97890126Y-85149126D01*
X97799042Y-114837647D02*
X97708042Y-114823863D01*
X97890126Y-85149126D02*
X97915497Y-85145601D01*
X97890126Y-114850873D02*
X97799042Y-114837647D01*
X97900000Y-85400000D02*
X97900632Y-85451536D01*
X97900632Y-85348463D02*
X97900000Y-85400000D01*
X97900632Y-85451536D02*
X97902529Y-85503042D01*
X97902529Y-85296957D02*
X97900632Y-85348463D01*
X97902529Y-85503042D02*
X97905690Y-85554485D01*
X97905690Y-85245514D02*
X97902529Y-85296957D01*
X97905690Y-85554485D02*
X97910112Y-85605835D01*
X97910112Y-85194164D02*
X97905690Y-85245514D01*
X97910112Y-85605835D02*
X97915792Y-85657062D01*
X97915497Y-85145601D02*
X97910112Y-85194164D01*
X97915792Y-85657062D02*
X97922729Y-85708133D01*
X97922729Y-85708133D02*
X97930916Y-85759019D01*
X97930916Y-85759019D02*
X97940350Y-85809689D01*
X97940350Y-85809689D02*
X97951025Y-85860112D01*
X97951025Y-85860112D02*
X97962934Y-85910258D01*
X97962934Y-85910258D02*
X97976070Y-85960096D01*
X97976070Y-85960096D02*
X97990425Y-86009597D01*
X97981289Y-114863539D02*
X97890126Y-114850873D01*
X97990425Y-86009597D02*
X98005990Y-86058731D01*
X98005990Y-86058731D02*
X98022757Y-86107468D01*
X98022757Y-86107468D02*
X98040715Y-86155779D01*
X98040715Y-86155779D02*
X98059852Y-86203635D01*
X98059852Y-86203635D02*
X98080159Y-86251006D01*
X98072528Y-114875646D02*
X97981289Y-114863539D01*
X98080159Y-86251006D02*
X98101622Y-86297865D01*
X98101622Y-86297865D02*
X98124228Y-86344183D01*
X98124228Y-86344183D02*
X98147965Y-86389933D01*
X98147965Y-86389933D02*
X98172817Y-86435086D01*
X98163839Y-114887193D02*
X98072528Y-114875646D01*
X98172817Y-86435086D02*
X98198769Y-86479615D01*
X98198769Y-86479615D02*
X98225807Y-86523495D01*
X98225807Y-86523495D02*
X98253913Y-86566697D01*
X98253913Y-86566697D02*
X98283071Y-86609197D01*
X98255220Y-114898179D02*
X98163839Y-114887193D01*
X98283071Y-86609197D02*
X98313264Y-86650968D01*
X98313264Y-86650968D02*
X98344472Y-86691986D01*
X98344472Y-86691986D02*
X98376678Y-86732225D01*
X98346666Y-114908604D02*
X98255220Y-114898179D01*
X98376678Y-86732225D02*
X98409861Y-86771662D01*
X98409861Y-86771662D02*
X98444002Y-86810273D01*
X98438175Y-114918468D02*
X98346666Y-114908604D01*
X98444002Y-86810273D02*
X98479081Y-86848035D01*
X98479081Y-86848035D02*
X98515075Y-86884924D01*
X98515075Y-86884924D02*
X98551964Y-86920918D01*
X98529742Y-114927770D02*
X98438175Y-114918468D01*
X98551964Y-86920918D02*
X98589726Y-86955997D01*
X98589726Y-86955997D02*
X98628337Y-86990138D01*
X98621365Y-114936511D02*
X98529742Y-114927770D01*
X98628337Y-86990138D02*
X98667774Y-87023321D01*
X98667774Y-87023321D02*
X98708013Y-87055527D01*
X98708013Y-87055527D02*
X98749031Y-87086735D01*
X98713040Y-114944689D02*
X98621365Y-114936511D01*
X98749031Y-87086735D02*
X98790802Y-87116928D01*
X98790802Y-87116928D02*
X98833302Y-87146086D01*
X98804763Y-114952304D02*
X98713040Y-114944689D01*
X98833302Y-87146086D02*
X98876504Y-87174192D01*
X98876504Y-87174192D02*
X98920384Y-87201230D01*
X98896531Y-114959356D02*
X98804763Y-114952304D01*
X98920384Y-87201230D02*
X98964913Y-87227182D01*
X98964913Y-87227182D02*
X99010066Y-87252034D01*
X98988341Y-114965845D02*
X98896531Y-114959356D01*
X99010066Y-87252034D02*
X99055816Y-87275771D01*
X99055816Y-87275771D02*
X99102134Y-87298377D01*
X99080188Y-114971771D02*
X98988341Y-114965845D01*
X99102134Y-87298377D02*
X99148993Y-87319840D01*
X99148993Y-87319840D02*
X99196364Y-87340147D01*
X99172071Y-114977133D02*
X99080188Y-114971771D01*
X99196364Y-87340147D02*
X99244220Y-87359284D01*
X99244220Y-87359284D02*
X99292531Y-87377242D01*
X99263984Y-114981931D02*
X99172071Y-114977133D01*
X99292531Y-87377242D02*
X99341268Y-87394009D01*
X99341268Y-87394009D02*
X99390402Y-87409574D01*
X99355926Y-114986165D02*
X99263984Y-114981931D01*
X99390402Y-87409574D02*
X99439903Y-87423929D01*
X99439903Y-87423929D02*
X99489741Y-87437065D01*
X99447891Y-114989835D02*
X99355926Y-114986165D01*
X99489741Y-87437065D02*
X99539887Y-87448974D01*
X99539877Y-114992941D02*
X99447891Y-114989835D01*
X99539887Y-87448974D02*
X99590310Y-87459649D01*
X99590310Y-87459649D02*
X99640980Y-87469083D01*
X99631881Y-114995482D02*
X99539877Y-114992941D01*
X99640980Y-87469083D02*
X99691866Y-87477270D01*
X99691866Y-87477270D02*
X99742937Y-87484207D01*
X99723899Y-114997458D02*
X99631881Y-114995482D01*
X99742937Y-87484207D02*
X99794164Y-87489887D01*
X99794164Y-87489887D02*
X99845514Y-87494309D01*
X99815926Y-114998870D02*
X99723899Y-114997458D01*
X99845514Y-87494309D02*
X99896957Y-87497470D01*
X99896957Y-87497470D02*
X99948463Y-87499367D01*
X99907961Y-114999717D02*
X99815926Y-114998870D01*
X99948463Y-87499367D02*
X100000000Y-87500000D01*
X100000000Y-87500000D02*
X100051536Y-87499367D01*
X100000000Y-115000000D02*
X99907961Y-114999717D01*
X100051536Y-87499367D02*
X100103042Y-87497470D01*
X100092038Y-114999717D02*
X100000000Y-115000000D01*
X100103042Y-87497470D02*
X100154485Y-87494309D01*
X100154485Y-87494309D02*
X100205835Y-87489887D01*
X100184073Y-114998870D02*
X100092038Y-114999717D01*
X100205835Y-87489887D02*
X100257062Y-87484207D01*
X100257062Y-87484207D02*
X100308133Y-87477270D01*
X100276100Y-114997458D02*
X100184073Y-114998870D01*
X100308133Y-87477270D02*
X100359019Y-87469083D01*
X100359019Y-87469083D02*
X100409689Y-87459649D01*
X100368118Y-114995482D02*
X100276100Y-114997458D01*
X100409689Y-87459649D02*
X100460112Y-87448974D01*
X100460112Y-87448974D02*
X100510258Y-87437065D01*
X100460122Y-114992941D02*
X100368118Y-114995482D01*
X100510258Y-87437065D02*
X100560096Y-87423929D01*
X100552108Y-114989835D02*
X100460122Y-114992941D01*
X100560096Y-87423929D02*
X100609597Y-87409574D01*
X100609597Y-87409574D02*
X100658731Y-87394009D01*
X100644073Y-114986165D02*
X100552108Y-114989835D01*
X100658731Y-87394009D02*
X100707468Y-87377242D01*
X100707468Y-87377242D02*
X100755779Y-87359284D01*
X100736015Y-114981931D02*
X100644073Y-114986165D01*
X100755779Y-87359284D02*
X100803635Y-87340147D01*
X100803635Y-87340147D02*
X100851006Y-87319840D01*
X100827928Y-114977133D02*
X100736015Y-114981931D01*
X100851006Y-87319840D02*
X100897865Y-87298377D01*
X100897865Y-87298377D02*
X100944183Y-87275771D01*
X100919811Y-114971771D02*
X100827928Y-114977133D01*
X100944183Y-87275771D02*
X100989933Y-87252034D01*
X100989933Y-87252034D02*
X101035086Y-87227182D01*
X101011658Y-114965845D02*
X100919811Y-114971771D01*
X101035086Y-87227182D02*
X101079615Y-87201230D01*
X101079615Y-87201230D02*
X101123495Y-87174192D01*
X101103468Y-114959356D02*
X101011658Y-114965845D01*
X101123495Y-87174192D02*
X101166697Y-87146086D01*
X101166697Y-87146086D02*
X101209197Y-87116928D01*
X101195236Y-114952304D02*
X101103468Y-114959356D01*
X101209197Y-87116928D02*
X101250968Y-87086735D01*
X101250968Y-87086735D02*
X101291986Y-87055527D01*
X101286959Y-114944689D02*
X101195236Y-114952304D01*
X101291986Y-87055527D02*
X101332225Y-87023321D01*
X101332225Y-87023321D02*
X101371662Y-86990138D01*
X101371662Y-86990138D02*
X101410273Y-86955997D01*
X101378634Y-114936511D02*
X101286959Y-114944689D01*
X101410273Y-86955997D02*
X101448035Y-86920918D01*
X101448035Y-86920918D02*
X101484924Y-86884924D01*
X101470257Y-114927770D02*
X101378634Y-114936511D01*
X101484924Y-86884924D02*
X101520918Y-86848035D01*
X101520918Y-86848035D02*
X101555997Y-86810273D01*
X101555997Y-86810273D02*
X101590138Y-86771662D01*
X101561824Y-114918468D02*
X101470257Y-114927770D01*
X101590138Y-86771662D02*
X101623321Y-86732225D01*
X101623321Y-86732225D02*
X101655527Y-86691986D01*
X101653333Y-114908604D02*
X101561824Y-114918468D01*
X101655527Y-86691986D02*
X101686735Y-86650968D01*
X101686735Y-86650968D02*
X101716928Y-86609197D01*
X101716928Y-86609197D02*
X101746086Y-86566697D01*
X101744779Y-114898179D02*
X101653333Y-114908604D01*
X101746086Y-86566697D02*
X101774192Y-86523495D01*
X101774192Y-86523495D02*
X101801230Y-86479615D01*
X101801230Y-86479615D02*
X101827182Y-86435086D01*
X101827182Y-86435086D02*
X101852034Y-86389933D01*
X101836160Y-114887193D02*
X101744779Y-114898179D01*
X101852034Y-86389933D02*
X101875771Y-86344183D01*
X101875771Y-86344183D02*
X101898377Y-86297865D01*
X101898377Y-86297865D02*
X101919840Y-86251006D01*
X101919840Y-86251006D02*
X101940147Y-86203635D01*
X101927471Y-114875646D02*
X101836160Y-114887193D01*
X101940147Y-86203635D02*
X101959284Y-86155779D01*
X101959284Y-86155779D02*
X101977242Y-86107468D01*
X101977242Y-86107468D02*
X101994009Y-86058731D01*
X101994009Y-86058731D02*
X102009574Y-86009597D01*
X102009574Y-86009597D02*
X102023929Y-85960096D01*
X102018710Y-114863539D02*
X101927471Y-114875646D01*
X102023929Y-85960096D02*
X102037065Y-85910258D01*
X102037065Y-85910258D02*
X102048974Y-85860112D01*
X102048974Y-85860112D02*
X102059649Y-85809689D01*
X102059649Y-85809689D02*
X102069083Y-85759019D01*
X102069083Y-85759019D02*
X102077270Y-85708133D01*
X102077270Y-85708133D02*
X102084207Y-85657062D01*
X102084207Y-85657062D02*
X102089887Y-85605835D01*
X102084502Y-85145601D02*
X102109873Y-85149126D01*
X102089887Y-85194164D02*
X102084502Y-85145601D01*
X102089887Y-85605835D02*
X102094309Y-85554485D01*
X102094309Y-85245514D02*
X102089887Y-85194164D01*
X102094309Y-85554485D02*
X102097470Y-85503042D01*
X102097470Y-85296957D02*
X102094309Y-85245514D01*
X102097470Y-85503042D02*
X102099367Y-85451536D01*
X102099367Y-85348463D02*
X102097470Y-85296957D01*
X102099367Y-85451536D02*
X102100000Y-85400000D01*
X102100000Y-85400000D02*
X102099367Y-85348463D01*
X102109873Y-85149126D02*
X102200957Y-85162352D01*
X102109873Y-114850873D02*
X102018710Y-114863539D01*
X102200957Y-85162352D02*
X102291957Y-85176136D01*
X102200957Y-114837647D02*
X102109873Y-114850873D01*
X102291957Y-85176136D02*
X102382872Y-85190478D01*
X102291957Y-114823863D02*
X102200957Y-114837647D01*
X102382872Y-85190478D02*
X102473696Y-85205378D01*
X102382872Y-114809521D02*
X102291957Y-114823863D01*
X102473696Y-85205378D02*
X102564428Y-85220835D01*
X102473696Y-114794621D02*
X102382872Y-114809521D01*
X102564428Y-85220835D02*
X102655063Y-85236848D01*
X102564428Y-114779164D02*
X102473696Y-114794621D01*
X102655063Y-85236848D02*
X102745598Y-85253417D01*
X102655063Y-114763151D02*
X102564428Y-114779164D01*
X102745598Y-85253417D02*
X102836029Y-85270541D01*
X102745598Y-114746582D02*
X102655063Y-114763151D01*
X102836029Y-85270541D02*
X102926354Y-85288220D01*
X102836029Y-114729458D02*
X102745598Y-114746582D01*
X102926354Y-85288220D02*
X103016569Y-85306453D01*
X102926354Y-114711779D02*
X102836029Y-114729458D01*
X103016569Y-85306453D02*
X103106670Y-85325239D01*
X103016569Y-114693546D02*
X102926354Y-114711779D01*
X103106670Y-85325239D02*
X103196654Y-85344577D01*
X103106670Y-114674760D02*
X103016569Y-114693546D01*
X103196654Y-85344577D02*
X103286518Y-85364468D01*
X103196654Y-114655422D02*
X103106670Y-114674760D01*
X103286518Y-85364468D02*
X103376258Y-85384909D01*
X103286518Y-114635531D02*
X103196654Y-114655422D01*
X103376258Y-85384909D02*
X103465871Y-85405900D01*
X103376258Y-114615090D02*
X103286518Y-114635531D01*
X103465871Y-85405900D02*
X103555354Y-85427441D01*
X103465871Y-114594099D02*
X103376258Y-114615090D01*
X103555354Y-85427441D02*
X103644702Y-85449531D01*
X103555354Y-114572558D02*
X103465871Y-114594099D01*
X103644702Y-85449531D02*
X103733914Y-85472168D01*
X103644702Y-114550468D02*
X103555354Y-114572558D01*
X103733914Y-85472168D02*
X103822984Y-85495352D01*
X103733914Y-114527831D02*
X103644702Y-114550468D01*
X103822984Y-85495352D02*
X103911911Y-85519083D01*
X103822984Y-114504647D02*
X103733914Y-114527831D01*
X103911911Y-85519083D02*
X104000691Y-85543359D01*
X103911911Y-114480916D02*
X103822984Y-114504647D01*
X104000691Y-85543359D02*
X104089320Y-85568178D01*
X104000691Y-114456640D02*
X103911911Y-114480916D01*
X104089320Y-85568178D02*
X104177795Y-85593542D01*
X104089320Y-114431821D02*
X104000691Y-114456640D01*
X104177795Y-85593542D02*
X104266113Y-85619447D01*
X104177795Y-114406457D02*
X104089320Y-114431821D01*
X104266113Y-85619447D02*
X104354270Y-85645894D01*
X104266113Y-114380552D02*
X104177795Y-114406457D01*
X104354270Y-85645894D02*
X104442263Y-85672882D01*
X104354270Y-114354105D02*
X104266113Y-114380552D01*
X104442263Y-85672882D02*
X104530089Y-85700409D01*
X104442263Y-114327117D02*
X104354270Y-114354105D01*
X104530089Y-85700409D02*
X104617744Y-85728474D01*
X104530089Y-114299590D02*
X104442263Y-114327117D01*
X104617744Y-85728474D02*
X104705226Y-85757077D01*
X104617744Y-114271525D02*
X104530089Y-114299590D01*
X104705226Y-85757077D02*
X104792530Y-85786216D01*
X104705226Y-114242922D02*
X104617744Y-114271525D01*
X104792530Y-85786216D02*
X104879654Y-85815890D01*
X104792530Y-114213783D02*
X104705226Y-114242922D01*
X104879654Y-85815890D02*
X104966594Y-85846098D01*
X104879654Y-114184109D02*
X104792530Y-114213783D01*
X104966594Y-85846098D02*
X105053347Y-85876839D01*
X104966594Y-114153901D02*
X104879654Y-114184109D01*
X105053347Y-85876839D02*
X105139910Y-85908111D01*
X105053347Y-114123160D02*
X104966594Y-114153901D01*
X105139910Y-85908111D02*
X105226280Y-85939914D01*
X105139910Y-114091888D02*
X105053347Y-114123160D01*
X105226280Y-85939914D02*
X105312452Y-85972247D01*
X105226280Y-114060085D02*
X105139910Y-114091888D01*
X105312452Y-85972247D02*
X105398425Y-86005108D01*
X105312452Y-114027752D02*
X105226280Y-114060085D01*
X105398425Y-86005108D02*
X105484194Y-86038495D01*
X105398425Y-113994891D02*
X105312452Y-114027752D01*
X105484194Y-86038495D02*
X105569757Y-86072408D01*
X105484194Y-113961504D02*
X105398425Y-113994891D01*
X105569757Y-86072408D02*
X105655111Y-86106846D01*
X105569757Y-113927591D02*
X105484194Y-113961504D01*
X105655111Y-86106846D02*
X105740251Y-86141807D01*
X105655111Y-113893153D02*
X105569757Y-113927591D01*
X105740251Y-86141807D02*
X105825175Y-86177289D01*
X105740251Y-113858192D02*
X105655111Y-113893153D01*
X105825175Y-86177289D02*
X105909880Y-86213292D01*
X105825175Y-113822710D02*
X105740251Y-113858192D01*
X105909880Y-86213292D02*
X105994362Y-86249814D01*
X105909880Y-113786707D02*
X105825175Y-113822710D01*
X105994362Y-86249814D02*
X106078619Y-86286853D01*
X105994362Y-113750185D02*
X105909880Y-113786707D01*
X106078619Y-86286853D02*
X106162647Y-86324409D01*
X106078619Y-113713146D02*
X105994362Y-113750185D01*
X106162647Y-86324409D02*
X106246443Y-86362480D01*
X106162647Y-113675590D02*
X106078619Y-113713146D01*
X106246443Y-86362480D02*
X106330004Y-86401064D01*
X106246443Y-113637519D02*
X106162647Y-113675590D01*
X106330004Y-86401064D02*
X106413326Y-86440160D01*
X106330004Y-113598935D02*
X106246443Y-113637519D01*
X106413326Y-86440160D02*
X106496407Y-86479767D01*
X106413326Y-113559839D02*
X106330004Y-113598935D01*
X106496407Y-86479767D02*
X106579243Y-86519883D01*
X106496407Y-113520232D02*
X106413326Y-113559839D01*
X106579243Y-86519883D02*
X106661832Y-86560506D01*
X106579243Y-113480116D02*
X106496407Y-113520232D01*
X106661832Y-86560506D02*
X106744169Y-86601635D01*
X106661832Y-113439493D02*
X106579243Y-113480116D01*
X106744169Y-86601635D02*
X106826253Y-86643269D01*
X106744169Y-113398364D02*
X106661832Y-113439493D01*
X106826253Y-86643269D02*
X106908080Y-86685405D01*
X106826253Y-113356730D02*
X106744169Y-113398364D01*
X106908080Y-86685405D02*
X106989647Y-86728043D01*
X106908080Y-113314594D02*
X106826253Y-113356730D01*
X106989647Y-86728043D02*
X107070951Y-86771181D01*
X106989647Y-113271956D02*
X106908080Y-113314594D01*
X107070951Y-86771181D02*
X107151988Y-86814816D01*
X107070951Y-113228818D02*
X106989647Y-113271956D01*
X107151988Y-86814816D02*
X107232756Y-86858948D01*
X107151988Y-113185183D02*
X107070951Y-113228818D01*
X107232756Y-86858948D02*
X107313252Y-86903575D01*
X107232756Y-113141051D02*
X107151988Y-113185183D01*
X107313252Y-86903575D02*
X107393472Y-86948695D01*
X107313252Y-113096424D02*
X107232756Y-113141051D01*
X107393472Y-86948695D02*
X107473415Y-86994306D01*
X107393472Y-113051304D02*
X107313252Y-113096424D01*
X107473415Y-86994306D02*
X107553075Y-87040407D01*
X107473415Y-113005693D02*
X107393472Y-113051304D01*
X107553075Y-87040407D02*
X107632452Y-87086995D01*
X107553075Y-112959592D02*
X107473415Y-113005693D01*
X107632452Y-87086995D02*
X107711541Y-87134070D01*
X107632452Y-112913004D02*
X107553075Y-112959592D01*
X107711541Y-87134070D02*
X107790339Y-87181630D01*
X107711541Y-112865929D02*
X107632452Y-112913004D01*
X107790339Y-87181630D02*
X107868845Y-87229672D01*
X107790339Y-112818369D02*
X107711541Y-112865929D01*
X107868845Y-87229672D02*
X107947054Y-87278194D01*
X107868845Y-112770327D02*
X107790339Y-112818369D01*
X107947054Y-87278194D02*
X108024964Y-87327196D01*
X107947054Y-112721805D02*
X107868845Y-112770327D01*
X108024964Y-87327196D02*
X108102572Y-87376675D01*
X108024964Y-112672803D02*
X107947054Y-112721805D01*
X108102572Y-87376675D02*
X108179874Y-87426629D01*
X108102572Y-112623324D02*
X108024964Y-112672803D01*
X108179874Y-87426629D02*
X108256869Y-87477056D01*
X108179874Y-112573370D02*
X108102572Y-112623324D01*
X108256869Y-87477056D02*
X108333553Y-87527955D01*
X108256869Y-112522943D02*
X108179874Y-112573370D01*
X108333553Y-87527955D02*
X108409923Y-87579324D01*
X108333553Y-112472044D02*
X108256869Y-112522943D01*
X108409923Y-87579324D02*
X108485977Y-87631160D01*
X108409923Y-112420675D02*
X108333553Y-112472044D01*
X108485977Y-87631160D02*
X108561711Y-87683462D01*
X108485977Y-112368839D02*
X108409923Y-112420675D01*
X108561711Y-87683462D02*
X108637122Y-87736227D01*
X108561711Y-112316537D02*
X108485977Y-112368839D01*
X108637122Y-87736227D02*
X108712209Y-87789455D01*
X108637122Y-112263772D02*
X108561711Y-112316537D01*
X108712209Y-87789455D02*
X108786967Y-87843142D01*
X108712209Y-112210544D02*
X108637122Y-112263772D01*
X108786967Y-87843142D02*
X108861395Y-87897286D01*
X108786967Y-112156857D02*
X108712209Y-112210544D01*
X108861395Y-87897286D02*
X108935489Y-87951887D01*
X108861395Y-112102713D02*
X108786967Y-112156857D01*
X108935489Y-87951887D02*
X109009247Y-88006940D01*
X108935489Y-112048112D02*
X108861395Y-112102713D01*
X109009247Y-88006940D02*
X109082665Y-88062446D01*
X109009247Y-111993059D02*
X108935489Y-112048112D01*
X109082665Y-88062446D02*
X109155742Y-88118401D01*
X109082665Y-111937553D02*
X109009247Y-111993059D01*
X109155742Y-88118401D02*
X109228473Y-88174803D01*
X109155742Y-111881598D02*
X109082665Y-111937553D01*
X109228473Y-88174803D02*
X109300858Y-88231651D01*
X109228473Y-111825196D02*
X109155742Y-111881598D01*
X109300858Y-88231651D02*
X109372892Y-88288941D01*
X109300858Y-111768348D02*
X109228473Y-111825196D01*
X109372892Y-88288941D02*
X109444573Y-88346673D01*
X109372892Y-111711058D02*
X109300858Y-111768348D01*
X109444573Y-88346673D02*
X109515899Y-88404843D01*
X109444573Y-111653326D02*
X109372892Y-111711058D01*
X109515899Y-88404843D02*
X109586866Y-88463449D01*
X109515899Y-111595156D02*
X109444573Y-111653326D01*
X109586866Y-88463449D02*
X109657473Y-88522491D01*
X109586866Y-111536550D02*
X109515899Y-111595156D01*
X109657473Y-88522491D02*
X109727716Y-88581964D01*
X109657473Y-111477508D02*
X109586866Y-111536550D01*
X109727716Y-88581964D02*
X109797592Y-88641867D01*
X109727716Y-111418035D02*
X109657473Y-111477508D01*
X109797592Y-88641867D02*
X109867100Y-88702198D01*
X109797592Y-111358132D02*
X109727716Y-111418035D01*
X109867100Y-88702198D02*
X109936236Y-88762954D01*
X109867100Y-111297801D02*
X109797592Y-111358132D01*
X109936236Y-88762954D02*
X110004998Y-88824133D01*
X109936236Y-111237045D02*
X109867100Y-111297801D01*
X110004998Y-88824133D02*
X110073384Y-88885733D01*
X110004998Y-111175866D02*
X109936236Y-111237045D01*
X110073384Y-88885733D02*
X110141390Y-88947751D01*
X110073384Y-111114266D02*
X110004998Y-111175866D01*
X110141390Y-88947751D02*
X110209014Y-89010185D01*
X110141390Y-111052248D02*
X110073384Y-111114266D01*
X110209014Y-89010185D02*
X110276255Y-89073034D01*
X110209014Y-110989814D02*
X110141390Y-111052248D01*
X110276255Y-89073034D02*
X110343108Y-89136293D01*
X110276255Y-110926965D02*
X110209014Y-110989814D01*
X110343108Y-89136293D02*
X110409571Y-89199962D01*
X110343108Y-110863706D02*
X110276255Y-110926965D01*
X110409571Y-89199962D02*
X110475643Y-89264037D01*
X110409571Y-110800037D02*
X110343108Y-110863706D01*
X110475643Y-89264037D02*
X110541321Y-89328517D01*
X110475643Y-110735962D02*
X110409571Y-110800037D01*
X110541321Y-89328517D02*
X110606601Y-89393398D01*
X110541321Y-110671482D02*
X110475643Y-110735962D01*
X110543970Y-107300000D02*
X110544603Y-107351536D01*
X110544603Y-107248463D02*
X110543970Y-107300000D01*
X110544603Y-107351536D02*
X110546500Y-107403042D01*
X110546500Y-107196957D02*
X110544603Y-107248463D01*
X110546500Y-107403042D02*
X110549660Y-107454485D01*
X110549660Y-107145514D02*
X110546500Y-107196957D01*
X110549660Y-107454485D02*
X110554082Y-107505835D01*
X110554082Y-107094164D02*
X110549660Y-107145514D01*
X110554082Y-107505835D02*
X110559763Y-107557062D01*
X110559763Y-107042937D02*
X110554082Y-107094164D01*
X110559763Y-107557062D02*
X110566700Y-107608133D01*
X110566700Y-106991866D02*
X110559763Y-107042937D01*
X110566700Y-107608133D02*
X110574887Y-107659019D01*
X110574887Y-106940980D02*
X110566700Y-106991866D01*
X110574887Y-107659019D02*
X110584321Y-107709689D01*
X110584321Y-106890310D02*
X110574887Y-106940980D01*
X110584321Y-107709689D02*
X110594996Y-107760112D01*
X110594996Y-106839887D02*
X110584321Y-106890310D01*
X110594996Y-107760112D02*
X110606905Y-107810258D01*
X110606601Y-89393398D02*
X110671482Y-89458678D01*
X110606601Y-110606601D02*
X110541321Y-110671482D01*
X110606905Y-106789741D02*
X110594996Y-106839887D01*
X110606905Y-107810258D02*
X110620041Y-107860096D01*
X110620041Y-106739903D02*
X110606905Y-106789741D01*
X110620041Y-107860096D02*
X110634396Y-107909597D01*
X110634396Y-106690402D02*
X110620041Y-106739903D01*
X110634396Y-107909597D02*
X110649961Y-107958731D01*
X110649961Y-106641268D02*
X110634396Y-106690402D01*
X110649961Y-107958731D02*
X110666728Y-108007468D01*
X110666728Y-106592531D02*
X110649961Y-106641268D01*
X110666728Y-108007468D02*
X110684686Y-108055779D01*
X110671482Y-89458678D02*
X110735962Y-89524356D01*
X110671482Y-110541321D02*
X110606601Y-110606601D01*
X110684686Y-106544220D02*
X110666728Y-106592531D01*
X110684686Y-108055779D02*
X110703823Y-108103635D01*
X110703823Y-106496364D02*
X110684686Y-106544220D01*
X110703823Y-108103635D02*
X110724130Y-108151006D01*
X110724130Y-106448993D02*
X110703823Y-106496364D01*
X110724130Y-108151006D02*
X110745593Y-108197865D01*
X110735962Y-89524356D02*
X110800037Y-89590428D01*
X110735962Y-110475643D02*
X110671482Y-110541321D01*
X110745593Y-106402134D02*
X110724130Y-106448993D01*
X110745593Y-108197865D02*
X110768199Y-108244183D01*
X110768199Y-106355816D02*
X110745593Y-106402134D01*
X110768199Y-108244183D02*
X110791936Y-108289933D01*
X110791936Y-106310066D02*
X110768199Y-106355816D01*
X110791936Y-108289933D02*
X110816788Y-108335086D01*
X110800037Y-89590428D02*
X110863706Y-89656891D01*
X110800037Y-110409571D02*
X110735962Y-110475643D01*
X110816788Y-106264913D02*
X110791936Y-106310066D01*
X110816788Y-108335086D02*
X110842740Y-108379615D01*
X110842740Y-106220384D02*
X110816788Y-106264913D01*
X110842740Y-108379615D02*
X110869778Y-108423495D01*
X110863706Y-89656891D02*
X110926965Y-89723744D01*
X110863706Y-110343108D02*
X110800037Y-110409571D01*
X110869778Y-106176504D02*
X110842740Y-106220384D01*
X110869778Y-108423495D02*
X110897884Y-108466697D01*
X110897884Y-106133302D02*
X110869778Y-106176504D01*
X110897884Y-108466697D02*
X110927042Y-108509197D01*
X110926965Y-89723744D02*
X110989814Y-89790985D01*
X110926965Y-110276255D02*
X110863706Y-110343108D01*
X110927042Y-106090802D02*
X110897884Y-106133302D01*
X110927042Y-108509197D02*
X110957235Y-108550968D01*
X110957235Y-106049031D02*
X110927042Y-106090802D01*
X110957235Y-108550968D02*
X110988443Y-108591986D01*
X110988443Y-106008013D02*
X110957235Y-106049031D01*
X110988443Y-108591986D02*
X111020648Y-108632225D01*
X110989814Y-89790985D02*
X111052248Y-89858609D01*
X110989814Y-110209014D02*
X110926965Y-110276255D01*
X111020648Y-105967774D02*
X110988443Y-106008013D01*
X111020648Y-108632225D02*
X111053832Y-108671662D01*
X111052248Y-89858609D02*
X111114266Y-89926615D01*
X111052248Y-110141390D02*
X110989814Y-110209014D01*
X111053832Y-105928337D02*
X111020648Y-105967774D01*
X111053832Y-108671662D02*
X111087973Y-108710273D01*
X111087973Y-105889726D02*
X111053832Y-105928337D01*
X111087973Y-108710273D02*
X111123052Y-108748035D01*
X111114266Y-89926615D02*
X111175866Y-89995001D01*
X111114266Y-110073384D02*
X111052248Y-110141390D01*
X111123052Y-105851964D02*
X111087973Y-105889726D01*
X111123052Y-108748035D02*
X111159046Y-108784924D01*
X111159046Y-105815075D02*
X111123052Y-105851964D01*
X111159046Y-108784924D02*
X111195935Y-108820918D01*
X111175866Y-89995001D02*
X111237045Y-90063763D01*
X111175866Y-110004998D02*
X111114266Y-110073384D01*
X111195935Y-105779081D02*
X111159046Y-105815075D01*
X111195935Y-108820918D02*
X111233697Y-108855997D01*
X111233697Y-105744002D02*
X111195935Y-105779081D01*
X111233697Y-108855997D02*
X111272307Y-108890138D01*
X111237045Y-90063763D02*
X111297801Y-90132899D01*
X111237045Y-109936236D02*
X111175866Y-110004998D01*
X111272307Y-105709861D02*
X111233697Y-105744002D01*
X111272307Y-108890138D02*
X111311744Y-108923321D01*
X111297801Y-90132899D02*
X111358132Y-90202407D01*
X111297801Y-109867100D02*
X111237045Y-109936236D01*
X111311744Y-105676678D02*
X111272307Y-105709861D01*
X111311744Y-108923321D02*
X111351984Y-108955527D01*
X111351984Y-105644472D02*
X111311744Y-105676678D01*
X111351984Y-108955527D02*
X111393002Y-108986735D01*
X111358132Y-90202407D02*
X111418035Y-90272283D01*
X111358132Y-109797592D02*
X111297801Y-109867100D01*
X111393002Y-105613264D02*
X111351984Y-105644472D01*
X111393002Y-108986735D02*
X111434773Y-109016928D01*
X111418035Y-90272283D02*
X111477508Y-90342526D01*
X111418035Y-109727716D02*
X111358132Y-109797592D01*
X111434773Y-105583071D02*
X111393002Y-105613264D01*
X111434773Y-109016928D02*
X111477273Y-109046086D01*
X111477273Y-105553913D02*
X111434773Y-105583071D01*
X111477273Y-109046086D02*
X111520475Y-109074192D01*
X111477508Y-90342526D02*
X111536550Y-90413133D01*
X111477508Y-109657473D02*
X111418035Y-109727716D01*
X111520475Y-105525807D02*
X111477273Y-105553913D01*
X111520475Y-109074192D02*
X111564355Y-109101230D01*
X111536550Y-90413133D02*
X111595156Y-90484100D01*
X111536550Y-109586866D02*
X111477508Y-109657473D01*
X111564355Y-105498769D02*
X111520475Y-105525807D01*
X111564355Y-109101230D02*
X111608884Y-109127182D01*
X111595156Y-90484100D02*
X111653326Y-90555426D01*
X111595156Y-109515899D02*
X111536550Y-109586866D01*
X111608884Y-105472817D02*
X111564355Y-105498769D01*
X111608884Y-109127182D02*
X111654037Y-109152034D01*
X111653326Y-90555426D02*
X111711058Y-90627107D01*
X111653326Y-109444573D02*
X111595156Y-109515899D01*
X111654037Y-105447965D02*
X111608884Y-105472817D01*
X111654037Y-109152034D02*
X111699787Y-109175771D01*
X111699787Y-105424228D02*
X111654037Y-105447965D01*
X111699787Y-109175771D02*
X111746105Y-109198377D01*
X111711058Y-90627107D02*
X111768348Y-90699141D01*
X111711058Y-109372892D02*
X111653326Y-109444573D01*
X111746105Y-105401622D02*
X111699787Y-105424228D01*
X111746105Y-109198377D02*
X111792964Y-109219840D01*
X111768348Y-90699141D02*
X111825196Y-90771526D01*
X111768348Y-109300858D02*
X111711058Y-109372892D01*
X111792964Y-105380159D02*
X111746105Y-105401622D01*
X111792964Y-109219840D02*
X111822150Y-109232351D01*
X111822150Y-109232351D02*
X111768348Y-109300858D01*
X111825196Y-90771526D02*
X111881598Y-90844257D01*
X111840335Y-105359852D02*
X111792964Y-105380159D01*
X111881598Y-90844257D02*
X111937553Y-90917334D01*
X111888191Y-105340715D02*
X111840335Y-105359852D01*
X111936502Y-105322757D02*
X111888191Y-105340715D01*
X111937553Y-90917334D02*
X111993059Y-90990752D01*
X111985239Y-105305990D02*
X111936502Y-105322757D01*
X111993059Y-90990752D02*
X112048112Y-91064510D01*
X112034373Y-105290425D02*
X111985239Y-105305990D01*
X112048112Y-91064510D02*
X112102713Y-91138604D01*
X112083874Y-105276070D02*
X112034373Y-105290425D01*
X112102713Y-91138604D02*
X112156857Y-91213032D01*
X112133712Y-105262934D02*
X112083874Y-105276070D01*
X112156857Y-91213032D02*
X112210544Y-91287790D01*
X112183858Y-105251025D02*
X112133712Y-105262934D01*
X112210544Y-91287790D02*
X112263772Y-91362877D01*
X112234281Y-105240350D02*
X112183858Y-105251025D01*
X112263772Y-91362877D02*
X112316537Y-91438288D01*
X112284950Y-105230916D02*
X112234281Y-105240350D01*
X112316537Y-91438288D02*
X112368839Y-91514022D01*
X112335836Y-105222729D02*
X112284950Y-105230916D01*
X112368839Y-91514022D02*
X112420675Y-91590076D01*
X112386908Y-105215792D02*
X112335836Y-105222729D01*
X112420675Y-91590076D02*
X112472044Y-91666446D01*
X112438134Y-105210112D02*
X112386908Y-105215792D01*
X112472044Y-91666446D02*
X112522943Y-91743130D01*
X112489485Y-105205690D02*
X112438134Y-105210112D01*
X112522943Y-91743130D02*
X112573370Y-91820125D01*
X112540928Y-105202529D02*
X112489485Y-105205690D01*
X112573370Y-91820125D02*
X112623324Y-91897427D01*
X112592434Y-105200632D02*
X112540928Y-105202529D01*
X112623324Y-91897427D02*
X112672803Y-91975035D01*
X112643970Y-105200000D02*
X112592434Y-105200632D01*
X112672803Y-91975035D02*
X112721805Y-92052945D01*
X112695507Y-105200632D02*
X112643970Y-105200000D01*
X112721805Y-92052945D02*
X112770327Y-92131154D01*
X112747013Y-105202529D02*
X112695507Y-105200632D01*
X112770327Y-92131154D02*
X112818369Y-92209660D01*
X112798456Y-105205690D02*
X112747013Y-105202529D01*
X112818369Y-92209660D02*
X112865929Y-92288458D01*
X112849806Y-105210112D02*
X112798456Y-105205690D01*
X112865929Y-92288458D02*
X112913004Y-92367547D01*
X112901033Y-105215792D02*
X112849806Y-105210112D01*
X112913004Y-92367547D02*
X112959592Y-92446924D01*
X112952104Y-105222729D02*
X112901033Y-105215792D01*
X112959592Y-92446924D02*
X113005693Y-92526584D01*
X113002990Y-105230916D02*
X112952104Y-105222729D01*
X113005693Y-92526584D02*
X113051304Y-92606527D01*
X113051304Y-92606527D02*
X113096424Y-92686747D01*
X113053660Y-105240350D02*
X113002990Y-105230916D01*
X113096424Y-92686747D02*
X113141051Y-92767243D01*
X113104083Y-105251025D02*
X113053660Y-105240350D01*
X113141051Y-92767243D02*
X113185183Y-92848011D01*
X113154229Y-105262934D02*
X113104083Y-105251025D01*
X113185183Y-92848011D02*
X113228818Y-92929048D01*
X113204067Y-105276070D02*
X113154229Y-105262934D01*
X113228818Y-92929048D02*
X113271956Y-93010352D01*
X113253568Y-105290425D02*
X113204067Y-105276070D01*
X113271956Y-93010352D02*
X113314594Y-93091919D01*
X113302702Y-105305990D02*
X113253568Y-105290425D01*
X113314594Y-93091919D02*
X113356730Y-93173746D01*
X113351439Y-105322757D02*
X113302702Y-105305990D01*
X113356730Y-93173746D02*
X113398364Y-93255830D01*
X113398364Y-93255830D02*
X113439493Y-93338167D01*
X113399750Y-105340715D02*
X113351439Y-105322757D01*
X113439493Y-93338167D02*
X113480116Y-93420756D01*
X113447606Y-105359852D02*
X113399750Y-105340715D01*
X113480116Y-93420756D02*
X113520232Y-93503592D01*
X113494977Y-105380159D02*
X113447606Y-105359852D01*
X113520232Y-93503592D02*
X113559839Y-93586673D01*
X113541836Y-105401622D02*
X113494977Y-105380159D01*
X113559839Y-93586673D02*
X113598935Y-93669995D01*
X113588154Y-105424228D02*
X113541836Y-105401622D01*
X113598935Y-93669995D02*
X113637519Y-93753556D01*
X113633904Y-105447965D02*
X113588154Y-105424228D01*
X113637519Y-93753556D02*
X113675590Y-93837352D01*
X113675590Y-93837352D02*
X113713146Y-93921380D01*
X113679057Y-105472817D02*
X113633904Y-105447965D01*
X113713146Y-93921380D02*
X113750185Y-94005637D01*
X113723586Y-105498769D02*
X113679057Y-105472817D01*
X113750185Y-94005637D02*
X113786707Y-94090119D01*
X113767465Y-105525807D02*
X113723586Y-105498769D01*
X113786707Y-94090119D02*
X113822710Y-94174824D01*
X113810668Y-105553913D02*
X113767465Y-105525807D01*
X113822710Y-94174824D02*
X113858192Y-94259748D01*
X113853168Y-105583071D02*
X113810668Y-105553913D01*
X113858192Y-94259748D02*
X113893153Y-94344888D01*
X113893153Y-94344888D02*
X113927591Y-94430242D01*
X113894939Y-105613264D02*
X113853168Y-105583071D01*
X113906491Y-105622053D02*
X113894939Y-105613264D01*
X113927591Y-94430242D02*
X113961504Y-94515805D01*
X113927591Y-105569757D02*
X113906491Y-105622053D01*
X113961504Y-94515805D02*
X113994891Y-94601574D01*
X113961504Y-105484194D02*
X113927591Y-105569757D01*
X113994891Y-94601574D02*
X114027752Y-94687547D01*
X113994891Y-105398425D02*
X113961504Y-105484194D01*
X114027752Y-94687547D02*
X114060085Y-94773719D01*
X114027752Y-105312452D02*
X113994891Y-105398425D01*
X114060085Y-94773719D02*
X114091888Y-94860089D01*
X114060085Y-105226280D02*
X114027752Y-105312452D01*
X114091888Y-94860089D02*
X114123160Y-94946652D01*
X114091888Y-105139910D02*
X114060085Y-105226280D01*
X114123160Y-94946652D02*
X114153901Y-95033405D01*
X114123160Y-105053347D02*
X114091888Y-105139910D01*
X114153901Y-95033405D02*
X114184109Y-95120345D01*
X114153901Y-104966594D02*
X114123160Y-105053347D01*
X114184109Y-95120345D02*
X114213783Y-95207469D01*
X114184109Y-104879654D02*
X114153901Y-104966594D01*
X114213783Y-95207469D02*
X114242922Y-95294773D01*
X114213783Y-104792530D02*
X114184109Y-104879654D01*
X114242922Y-95294773D02*
X114271525Y-95382255D01*
X114242922Y-104705226D02*
X114213783Y-104792530D01*
X114271525Y-95382255D02*
X114299590Y-95469910D01*
X114271525Y-104617744D02*
X114242922Y-104705226D01*
X114299590Y-95469910D02*
X114327117Y-95557736D01*
X114299590Y-104530089D02*
X114271525Y-104617744D01*
X114327117Y-95557736D02*
X114354105Y-95645729D01*
X114327117Y-104442263D02*
X114299590Y-104530089D01*
X114354105Y-95645729D02*
X114380552Y-95733886D01*
X114354105Y-104354270D02*
X114327117Y-104442263D01*
X114380552Y-95733886D02*
X114406457Y-95822204D01*
X114380552Y-104266113D02*
X114354105Y-104354270D01*
X114406457Y-95822204D02*
X114431821Y-95910679D01*
X114406457Y-104177795D02*
X114380552Y-104266113D01*
X114431821Y-95910679D02*
X114456640Y-95999308D01*
X114431821Y-104089320D02*
X114406457Y-104177795D01*
X114456640Y-95999308D02*
X114480916Y-96088088D01*
X114456640Y-104000691D02*
X114431821Y-104089320D01*
X114480916Y-96088088D02*
X114504647Y-96177015D01*
X114480916Y-103911911D02*
X114456640Y-104000691D01*
X114504647Y-96177015D02*
X114527831Y-96266085D01*
X114504647Y-103822984D02*
X114480916Y-103911911D01*
X114527831Y-96266085D02*
X114550468Y-96355297D01*
X114527831Y-103733914D02*
X114504647Y-103822984D01*
X114550468Y-96355297D02*
X114572558Y-96444645D01*
X114550468Y-103644702D02*
X114527831Y-103733914D01*
X114572558Y-96444645D02*
X114594099Y-96534128D01*
X114572558Y-103555354D02*
X114550468Y-103644702D01*
X114594099Y-96534128D02*
X114615090Y-96623741D01*
X114594099Y-103465871D02*
X114572558Y-103555354D01*
X114615090Y-96623741D02*
X114635531Y-96713481D01*
X114615090Y-103376258D02*
X114594099Y-103465871D01*
X114635531Y-96713481D02*
X114655422Y-96803345D01*
X114635531Y-103286518D02*
X114615090Y-103376258D01*
X114655422Y-96803345D02*
X114674760Y-96893329D01*
X114655422Y-103196654D02*
X114635531Y-103286518D01*
X114674760Y-96893329D02*
X114693546Y-96983430D01*
X114674760Y-103106670D02*
X114655422Y-103196654D01*
X114693546Y-96983430D02*
X114711779Y-97073645D01*
X114693546Y-103016569D02*
X114674760Y-103106670D01*
X114711779Y-97073645D02*
X114729458Y-97163970D01*
X114711779Y-102926354D02*
X114693546Y-103016569D01*
X114729458Y-97163970D02*
X114746582Y-97254401D01*
X114729458Y-102836029D02*
X114711779Y-102926354D01*
X114746582Y-97254401D02*
X114763151Y-97344936D01*
X114746582Y-102745598D02*
X114729458Y-102836029D01*
X114763151Y-97344936D02*
X114779164Y-97435571D01*
X114763151Y-102655063D02*
X114746582Y-102745598D01*
X114779164Y-97435571D02*
X114794621Y-97526303D01*
X114779164Y-102564428D02*
X114763151Y-102655063D01*
X114794621Y-97526303D02*
X114809521Y-97617127D01*
X114794621Y-102473696D02*
X114779164Y-102564428D01*
X114809521Y-97617127D02*
X114823863Y-97708042D01*
X114809521Y-102382872D02*
X114794621Y-102473696D01*
X114823863Y-97708042D02*
X114837647Y-97799042D01*
X114823863Y-102291957D02*
X114809521Y-102382872D01*
X114837647Y-97799042D02*
X114850873Y-97890126D01*
X114837647Y-102200957D02*
X114823863Y-102291957D01*
X114850873Y-97890126D02*
X114863539Y-97981289D01*
X114850873Y-102109873D02*
X114837647Y-102200957D01*
X114863539Y-97981289D02*
X114875646Y-98072528D01*
X114863539Y-102018710D02*
X114850873Y-102109873D01*
X114875646Y-98072528D02*
X114887193Y-98163839D01*
X114875646Y-101927471D02*
X114863539Y-102018710D01*
X114887193Y-98163839D02*
X114898179Y-98255220D01*
X114887193Y-101836160D02*
X114875646Y-101927471D01*
X114898179Y-98255220D02*
X114908604Y-98346666D01*
X114898179Y-101744779D02*
X114887193Y-101836160D01*
X114908604Y-98346666D02*
X114918468Y-98438175D01*
X114908604Y-101653333D02*
X114898179Y-101744779D01*
X114918468Y-98438175D02*
X114927770Y-98529742D01*
X114918468Y-101561824D02*
X114908604Y-101653333D01*
X114927770Y-98529742D02*
X114936511Y-98621365D01*
X114927770Y-101470257D02*
X114918468Y-101561824D01*
X114936511Y-98621365D02*
X114944689Y-98713040D01*
X114936511Y-101378634D02*
X114927770Y-101470257D01*
X114944689Y-98713040D02*
X114952304Y-98804763D01*
X114944689Y-101286959D02*
X114936511Y-101378634D01*
X114952304Y-98804763D02*
X114959356Y-98896531D01*
X114952304Y-101195236D02*
X114944689Y-101286959D01*
X114959356Y-98896531D02*
X114965845Y-98988341D01*
X114959356Y-101103468D02*
X114952304Y-101195236D01*
X114965845Y-98988341D02*
X114971771Y-99080188D01*
X114965845Y-101011658D02*
X114959356Y-101103468D01*
X114971771Y-99080188D02*
X114977133Y-99172071D01*
X114971771Y-100919811D02*
X114965845Y-101011658D01*
X114977133Y-99172071D02*
X114981931Y-99263984D01*
X114977133Y-100827928D02*
X114971771Y-100919811D01*
X114981931Y-99263984D02*
X114986165Y-99355926D01*
X114981931Y-100736015D02*
X114977133Y-100827928D01*
X114986165Y-99355926D02*
X114989835Y-99447891D01*
X114986165Y-100644073D02*
X114981931Y-100736015D01*
X114989835Y-99447891D02*
X114992941Y-99539877D01*
X114989835Y-100552108D02*
X114986165Y-100644073D01*
X114992941Y-99539877D02*
X114995482Y-99631881D01*
X114992941Y-100460122D02*
X114989835Y-100552108D01*
X114995482Y-99631881D02*
X114997458Y-99723899D01*
X114995482Y-100368118D02*
X114992941Y-100460122D01*
X114997458Y-99723899D02*
X114998870Y-99815926D01*
X114997458Y-100276100D02*
X114995482Y-100368118D01*
X114998870Y-99815926D02*
X114999717Y-99907961D01*
X114998870Y-100184073D02*
X114997458Y-100276100D01*
X114999717Y-99907961D02*
X115000000Y-100000000D01*
X114999717Y-100092038D02*
X114998870Y-100184073D01*
X115000000Y-100000000D02*
X114999717Y-100092038D01*
M02*
