M48
; DRILL file {KiCad 9.0.9-9.0.9~ubuntu24.04.1} date 2026-10-05T15:13:31+0000
; FORMAT={-:-/ absolute / metric / decimal}
; #@! TF.CreationDate,2026-10-05T15:13:31+00:00
; #@! TF.GenerationSoftware,Kicad,Pcbnew,9.0.9-9.0.9~ubuntu24.04.1
; #@! TF.FileFunction,Plated,1,2,PTH
FMAT,2
METRIC
; #@! TA.AperFunction,Plated,PTH,ViaDrill
T1C0.300
%
G90
G05
T1
X-12.3Y7.1
X-7.18Y1.01
X-4.7Y1.1
X-3.25Y-4.75
X-1.2Y1.8
X-1.0Y-5.35
X-0.4Y-3.75
X-0.2Y-5.75
X1.25Y-5.05
X1.5Y-2.55
X2.4Y-2.3
X2.55Y-1.5
X3.4Y-3.15
X3.5Y-1.5
X3.6Y-4.55
X4.039Y-3.731
X4.13Y5.9
X4.55Y-3.05
X5.7Y1.05
X8.17Y1.44
M30
