%TF.GenerationSoftware,KiCad,Pcbnew,9.0.9-9.0.9~ubuntu24.04.1*%
%TF.CreationDate,2026-10-04T10:42:00+00:00*%
%TF.ProjectId,klickrad,6b6c6963-6b72-4616-942e-6b696361645f,rev?*%
%TF.SameCoordinates,Original*%
%TF.FileFunction,Drillmap*%
%TF.FilePolarity,Positive*%
%FSLAX45Y45*%
G04 Gerber Fmt 4.5, Leading zero omitted, Abs format (unit mm)*
G04 Created by KiCad (PCBNEW 9.0.9-9.0.9~ubuntu24.04.1) date 2026-10-04 10:42:00*
%MOMM*%
%LPD*%
G01*
G04 APERTURE LIST*
%ADD10C,0.100000*%
%ADD11C,0.200000*%
%ADD12C,0.220000*%
G04 APERTURE END LIST*
D10*
X11600000Y-10000000D02*
G75*
G02*
X8400000Y-10000000I-1600000J0D01*
G01*
X8400000Y-10000000D02*
G75*
G02*
X11600000Y-10000000I1600000J0D01*
G01*
D11*
D12*
X8625600Y-10620000D02*
X8845600Y-10840000D01*
X8845600Y-10620000D02*
X8625600Y-10840000D01*
X9890000Y-8430000D02*
X10110000Y-8650000D01*
X10110000Y-8430000D02*
X9890000Y-8650000D01*
X11154400Y-10620000D02*
X11374400Y-10840000D01*
X11374400Y-10620000D02*
X11154400Y-10840000D01*
D11*
X8655777Y-11916484D02*
X8655777Y-11716484D01*
X8655777Y-11716484D02*
X8703396Y-11716484D01*
X8703396Y-11716484D02*
X8731967Y-11726008D01*
X8731967Y-11726008D02*
X8751015Y-11745055D01*
X8751015Y-11745055D02*
X8760539Y-11764103D01*
X8760539Y-11764103D02*
X8770063Y-11802198D01*
X8770063Y-11802198D02*
X8770063Y-11830769D01*
X8770063Y-11830769D02*
X8760539Y-11868865D01*
X8760539Y-11868865D02*
X8751015Y-11887912D01*
X8751015Y-11887912D02*
X8731967Y-11906960D01*
X8731967Y-11906960D02*
X8703396Y-11916484D01*
X8703396Y-11916484D02*
X8655777Y-11916484D01*
X8855777Y-11916484D02*
X8855777Y-11783150D01*
X8855777Y-11821246D02*
X8865301Y-11802198D01*
X8865301Y-11802198D02*
X8874824Y-11792674D01*
X8874824Y-11792674D02*
X8893872Y-11783150D01*
X8893872Y-11783150D02*
X8912920Y-11783150D01*
X8979586Y-11916484D02*
X8979586Y-11783150D01*
X8979586Y-11716484D02*
X8970063Y-11726008D01*
X8970063Y-11726008D02*
X8979586Y-11735531D01*
X8979586Y-11735531D02*
X8989110Y-11726008D01*
X8989110Y-11726008D02*
X8979586Y-11716484D01*
X8979586Y-11716484D02*
X8979586Y-11735531D01*
X9103396Y-11916484D02*
X9084348Y-11906960D01*
X9084348Y-11906960D02*
X9074824Y-11887912D01*
X9074824Y-11887912D02*
X9074824Y-11716484D01*
X9208158Y-11916484D02*
X9189110Y-11906960D01*
X9189110Y-11906960D02*
X9179586Y-11887912D01*
X9179586Y-11887912D02*
X9179586Y-11716484D01*
X9436729Y-11916484D02*
X9436729Y-11716484D01*
X9436729Y-11716484D02*
X9503396Y-11859341D01*
X9503396Y-11859341D02*
X9570063Y-11716484D01*
X9570063Y-11716484D02*
X9570063Y-11916484D01*
X9751015Y-11916484D02*
X9751015Y-11811722D01*
X9751015Y-11811722D02*
X9741491Y-11792674D01*
X9741491Y-11792674D02*
X9722444Y-11783150D01*
X9722444Y-11783150D02*
X9684348Y-11783150D01*
X9684348Y-11783150D02*
X9665301Y-11792674D01*
X9751015Y-11906960D02*
X9731967Y-11916484D01*
X9731967Y-11916484D02*
X9684348Y-11916484D01*
X9684348Y-11916484D02*
X9665301Y-11906960D01*
X9665301Y-11906960D02*
X9655777Y-11887912D01*
X9655777Y-11887912D02*
X9655777Y-11868865D01*
X9655777Y-11868865D02*
X9665301Y-11849817D01*
X9665301Y-11849817D02*
X9684348Y-11840293D01*
X9684348Y-11840293D02*
X9731967Y-11840293D01*
X9731967Y-11840293D02*
X9751015Y-11830769D01*
X9846253Y-11783150D02*
X9846253Y-11983150D01*
X9846253Y-11792674D02*
X9865301Y-11783150D01*
X9865301Y-11783150D02*
X9903396Y-11783150D01*
X9903396Y-11783150D02*
X9922444Y-11792674D01*
X9922444Y-11792674D02*
X9931967Y-11802198D01*
X9931967Y-11802198D02*
X9941491Y-11821246D01*
X9941491Y-11821246D02*
X9941491Y-11878388D01*
X9941491Y-11878388D02*
X9931967Y-11897436D01*
X9931967Y-11897436D02*
X9922444Y-11906960D01*
X9922444Y-11906960D02*
X9903396Y-11916484D01*
X9903396Y-11916484D02*
X9865301Y-11916484D01*
X9865301Y-11916484D02*
X9846253Y-11906960D01*
X10027205Y-11897436D02*
X10036729Y-11906960D01*
X10036729Y-11906960D02*
X10027205Y-11916484D01*
X10027205Y-11916484D02*
X10017682Y-11906960D01*
X10017682Y-11906960D02*
X10027205Y-11897436D01*
X10027205Y-11897436D02*
X10027205Y-11916484D01*
X10027205Y-11792674D02*
X10036729Y-11802198D01*
X10036729Y-11802198D02*
X10027205Y-11811722D01*
X10027205Y-11811722D02*
X10017682Y-11802198D01*
X10017682Y-11802198D02*
X10027205Y-11792674D01*
X10027205Y-11792674D02*
X10027205Y-11811722D01*
X8195000Y-12145000D02*
X8395000Y-12345000D01*
X8395000Y-12145000D02*
X8195000Y-12345000D01*
X8646253Y-12155531D02*
X8655777Y-12146008D01*
X8655777Y-12146008D02*
X8674824Y-12136484D01*
X8674824Y-12136484D02*
X8722444Y-12136484D01*
X8722444Y-12136484D02*
X8741491Y-12146008D01*
X8741491Y-12146008D02*
X8751015Y-12155531D01*
X8751015Y-12155531D02*
X8760539Y-12174579D01*
X8760539Y-12174579D02*
X8760539Y-12193627D01*
X8760539Y-12193627D02*
X8751015Y-12222198D01*
X8751015Y-12222198D02*
X8636729Y-12336484D01*
X8636729Y-12336484D02*
X8760539Y-12336484D01*
X8846253Y-12317436D02*
X8855777Y-12326960D01*
X8855777Y-12326960D02*
X8846253Y-12336484D01*
X8846253Y-12336484D02*
X8836729Y-12326960D01*
X8836729Y-12326960D02*
X8846253Y-12317436D01*
X8846253Y-12317436D02*
X8846253Y-12336484D01*
X8931967Y-12155531D02*
X8941491Y-12146008D01*
X8941491Y-12146008D02*
X8960539Y-12136484D01*
X8960539Y-12136484D02*
X9008158Y-12136484D01*
X9008158Y-12136484D02*
X9027205Y-12146008D01*
X9027205Y-12146008D02*
X9036729Y-12155531D01*
X9036729Y-12155531D02*
X9046253Y-12174579D01*
X9046253Y-12174579D02*
X9046253Y-12193627D01*
X9046253Y-12193627D02*
X9036729Y-12222198D01*
X9036729Y-12222198D02*
X8922444Y-12336484D01*
X8922444Y-12336484D02*
X9046253Y-12336484D01*
X9170063Y-12136484D02*
X9189110Y-12136484D01*
X9189110Y-12136484D02*
X9208158Y-12146008D01*
X9208158Y-12146008D02*
X9217682Y-12155531D01*
X9217682Y-12155531D02*
X9227205Y-12174579D01*
X9227205Y-12174579D02*
X9236729Y-12212674D01*
X9236729Y-12212674D02*
X9236729Y-12260293D01*
X9236729Y-12260293D02*
X9227205Y-12298388D01*
X9227205Y-12298388D02*
X9217682Y-12317436D01*
X9217682Y-12317436D02*
X9208158Y-12326960D01*
X9208158Y-12326960D02*
X9189110Y-12336484D01*
X9189110Y-12336484D02*
X9170063Y-12336484D01*
X9170063Y-12336484D02*
X9151015Y-12326960D01*
X9151015Y-12326960D02*
X9141491Y-12317436D01*
X9141491Y-12317436D02*
X9131967Y-12298388D01*
X9131967Y-12298388D02*
X9122444Y-12260293D01*
X9122444Y-12260293D02*
X9122444Y-12212674D01*
X9122444Y-12212674D02*
X9131967Y-12174579D01*
X9131967Y-12174579D02*
X9141491Y-12155531D01*
X9141491Y-12155531D02*
X9151015Y-12146008D01*
X9151015Y-12146008D02*
X9170063Y-12136484D01*
X9360539Y-12136484D02*
X9379586Y-12136484D01*
X9379586Y-12136484D02*
X9398634Y-12146008D01*
X9398634Y-12146008D02*
X9408158Y-12155531D01*
X9408158Y-12155531D02*
X9417682Y-12174579D01*
X9417682Y-12174579D02*
X9427205Y-12212674D01*
X9427205Y-12212674D02*
X9427205Y-12260293D01*
X9427205Y-12260293D02*
X9417682Y-12298388D01*
X9417682Y-12298388D02*
X9408158Y-12317436D01*
X9408158Y-12317436D02*
X9398634Y-12326960D01*
X9398634Y-12326960D02*
X9379586Y-12336484D01*
X9379586Y-12336484D02*
X9360539Y-12336484D01*
X9360539Y-12336484D02*
X9341491Y-12326960D01*
X9341491Y-12326960D02*
X9331967Y-12317436D01*
X9331967Y-12317436D02*
X9322444Y-12298388D01*
X9322444Y-12298388D02*
X9312920Y-12260293D01*
X9312920Y-12260293D02*
X9312920Y-12212674D01*
X9312920Y-12212674D02*
X9322444Y-12174579D01*
X9322444Y-12174579D02*
X9331967Y-12155531D01*
X9331967Y-12155531D02*
X9341491Y-12146008D01*
X9341491Y-12146008D02*
X9360539Y-12136484D01*
X9512920Y-12336484D02*
X9512920Y-12203150D01*
X9512920Y-12222198D02*
X9522444Y-12212674D01*
X9522444Y-12212674D02*
X9541491Y-12203150D01*
X9541491Y-12203150D02*
X9570063Y-12203150D01*
X9570063Y-12203150D02*
X9589110Y-12212674D01*
X9589110Y-12212674D02*
X9598634Y-12231722D01*
X9598634Y-12231722D02*
X9598634Y-12336484D01*
X9598634Y-12231722D02*
X9608158Y-12212674D01*
X9608158Y-12212674D02*
X9627205Y-12203150D01*
X9627205Y-12203150D02*
X9655777Y-12203150D01*
X9655777Y-12203150D02*
X9674825Y-12212674D01*
X9674825Y-12212674D02*
X9684348Y-12231722D01*
X9684348Y-12231722D02*
X9684348Y-12336484D01*
X9779586Y-12336484D02*
X9779586Y-12203150D01*
X9779586Y-12222198D02*
X9789110Y-12212674D01*
X9789110Y-12212674D02*
X9808158Y-12203150D01*
X9808158Y-12203150D02*
X9836729Y-12203150D01*
X9836729Y-12203150D02*
X9855777Y-12212674D01*
X9855777Y-12212674D02*
X9865301Y-12231722D01*
X9865301Y-12231722D02*
X9865301Y-12336484D01*
X9865301Y-12231722D02*
X9874825Y-12212674D01*
X9874825Y-12212674D02*
X9893872Y-12203150D01*
X9893872Y-12203150D02*
X9922444Y-12203150D01*
X9922444Y-12203150D02*
X9941491Y-12212674D01*
X9941491Y-12212674D02*
X9951015Y-12231722D01*
X9951015Y-12231722D02*
X9951015Y-12336484D01*
X10341491Y-12126960D02*
X10170063Y-12384103D01*
X10598634Y-12136484D02*
X10617682Y-12136484D01*
X10617682Y-12136484D02*
X10636729Y-12146008D01*
X10636729Y-12146008D02*
X10646253Y-12155531D01*
X10646253Y-12155531D02*
X10655777Y-12174579D01*
X10655777Y-12174579D02*
X10665301Y-12212674D01*
X10665301Y-12212674D02*
X10665301Y-12260293D01*
X10665301Y-12260293D02*
X10655777Y-12298388D01*
X10655777Y-12298388D02*
X10646253Y-12317436D01*
X10646253Y-12317436D02*
X10636729Y-12326960D01*
X10636729Y-12326960D02*
X10617682Y-12336484D01*
X10617682Y-12336484D02*
X10598634Y-12336484D01*
X10598634Y-12336484D02*
X10579587Y-12326960D01*
X10579587Y-12326960D02*
X10570063Y-12317436D01*
X10570063Y-12317436D02*
X10560539Y-12298388D01*
X10560539Y-12298388D02*
X10551015Y-12260293D01*
X10551015Y-12260293D02*
X10551015Y-12212674D01*
X10551015Y-12212674D02*
X10560539Y-12174579D01*
X10560539Y-12174579D02*
X10570063Y-12155531D01*
X10570063Y-12155531D02*
X10579587Y-12146008D01*
X10579587Y-12146008D02*
X10598634Y-12136484D01*
X10751015Y-12317436D02*
X10760539Y-12326960D01*
X10760539Y-12326960D02*
X10751015Y-12336484D01*
X10751015Y-12336484D02*
X10741491Y-12326960D01*
X10741491Y-12326960D02*
X10751015Y-12317436D01*
X10751015Y-12317436D02*
X10751015Y-12336484D01*
X10884348Y-12136484D02*
X10903396Y-12136484D01*
X10903396Y-12136484D02*
X10922444Y-12146008D01*
X10922444Y-12146008D02*
X10931968Y-12155531D01*
X10931968Y-12155531D02*
X10941491Y-12174579D01*
X10941491Y-12174579D02*
X10951015Y-12212674D01*
X10951015Y-12212674D02*
X10951015Y-12260293D01*
X10951015Y-12260293D02*
X10941491Y-12298388D01*
X10941491Y-12298388D02*
X10931968Y-12317436D01*
X10931968Y-12317436D02*
X10922444Y-12326960D01*
X10922444Y-12326960D02*
X10903396Y-12336484D01*
X10903396Y-12336484D02*
X10884348Y-12336484D01*
X10884348Y-12336484D02*
X10865301Y-12326960D01*
X10865301Y-12326960D02*
X10855777Y-12317436D01*
X10855777Y-12317436D02*
X10846253Y-12298388D01*
X10846253Y-12298388D02*
X10836729Y-12260293D01*
X10836729Y-12260293D02*
X10836729Y-12212674D01*
X10836729Y-12212674D02*
X10846253Y-12174579D01*
X10846253Y-12174579D02*
X10855777Y-12155531D01*
X10855777Y-12155531D02*
X10865301Y-12146008D01*
X10865301Y-12146008D02*
X10884348Y-12136484D01*
X11065301Y-12222198D02*
X11046253Y-12212674D01*
X11046253Y-12212674D02*
X11036729Y-12203150D01*
X11036729Y-12203150D02*
X11027206Y-12184103D01*
X11027206Y-12184103D02*
X11027206Y-12174579D01*
X11027206Y-12174579D02*
X11036729Y-12155531D01*
X11036729Y-12155531D02*
X11046253Y-12146008D01*
X11046253Y-12146008D02*
X11065301Y-12136484D01*
X11065301Y-12136484D02*
X11103396Y-12136484D01*
X11103396Y-12136484D02*
X11122444Y-12146008D01*
X11122444Y-12146008D02*
X11131968Y-12155531D01*
X11131968Y-12155531D02*
X11141491Y-12174579D01*
X11141491Y-12174579D02*
X11141491Y-12184103D01*
X11141491Y-12184103D02*
X11131968Y-12203150D01*
X11131968Y-12203150D02*
X11122444Y-12212674D01*
X11122444Y-12212674D02*
X11103396Y-12222198D01*
X11103396Y-12222198D02*
X11065301Y-12222198D01*
X11065301Y-12222198D02*
X11046253Y-12231722D01*
X11046253Y-12231722D02*
X11036729Y-12241246D01*
X11036729Y-12241246D02*
X11027206Y-12260293D01*
X11027206Y-12260293D02*
X11027206Y-12298388D01*
X11027206Y-12298388D02*
X11036729Y-12317436D01*
X11036729Y-12317436D02*
X11046253Y-12326960D01*
X11046253Y-12326960D02*
X11065301Y-12336484D01*
X11065301Y-12336484D02*
X11103396Y-12336484D01*
X11103396Y-12336484D02*
X11122444Y-12326960D01*
X11122444Y-12326960D02*
X11131968Y-12317436D01*
X11131968Y-12317436D02*
X11141491Y-12298388D01*
X11141491Y-12298388D02*
X11141491Y-12260293D01*
X11141491Y-12260293D02*
X11131968Y-12241246D01*
X11131968Y-12241246D02*
X11122444Y-12231722D01*
X11122444Y-12231722D02*
X11103396Y-12222198D01*
X11312920Y-12136484D02*
X11274825Y-12136484D01*
X11274825Y-12136484D02*
X11255777Y-12146008D01*
X11255777Y-12146008D02*
X11246253Y-12155531D01*
X11246253Y-12155531D02*
X11227206Y-12184103D01*
X11227206Y-12184103D02*
X11217682Y-12222198D01*
X11217682Y-12222198D02*
X11217682Y-12298388D01*
X11217682Y-12298388D02*
X11227206Y-12317436D01*
X11227206Y-12317436D02*
X11236729Y-12326960D01*
X11236729Y-12326960D02*
X11255777Y-12336484D01*
X11255777Y-12336484D02*
X11293872Y-12336484D01*
X11293872Y-12336484D02*
X11312920Y-12326960D01*
X11312920Y-12326960D02*
X11322444Y-12317436D01*
X11322444Y-12317436D02*
X11331967Y-12298388D01*
X11331967Y-12298388D02*
X11331967Y-12250769D01*
X11331967Y-12250769D02*
X11322444Y-12231722D01*
X11322444Y-12231722D02*
X11312920Y-12222198D01*
X11312920Y-12222198D02*
X11293872Y-12212674D01*
X11293872Y-12212674D02*
X11255777Y-12212674D01*
X11255777Y-12212674D02*
X11236729Y-12222198D01*
X11236729Y-12222198D02*
X11227206Y-12231722D01*
X11227206Y-12231722D02*
X11217682Y-12250769D01*
X11503396Y-12136484D02*
X11465301Y-12136484D01*
X11465301Y-12136484D02*
X11446253Y-12146008D01*
X11446253Y-12146008D02*
X11436729Y-12155531D01*
X11436729Y-12155531D02*
X11417682Y-12184103D01*
X11417682Y-12184103D02*
X11408158Y-12222198D01*
X11408158Y-12222198D02*
X11408158Y-12298388D01*
X11408158Y-12298388D02*
X11417682Y-12317436D01*
X11417682Y-12317436D02*
X11427206Y-12326960D01*
X11427206Y-12326960D02*
X11446253Y-12336484D01*
X11446253Y-12336484D02*
X11484348Y-12336484D01*
X11484348Y-12336484D02*
X11503396Y-12326960D01*
X11503396Y-12326960D02*
X11512920Y-12317436D01*
X11512920Y-12317436D02*
X11522444Y-12298388D01*
X11522444Y-12298388D02*
X11522444Y-12250769D01*
X11522444Y-12250769D02*
X11512920Y-12231722D01*
X11512920Y-12231722D02*
X11503396Y-12222198D01*
X11503396Y-12222198D02*
X11484348Y-12212674D01*
X11484348Y-12212674D02*
X11446253Y-12212674D01*
X11446253Y-12212674D02*
X11427206Y-12222198D01*
X11427206Y-12222198D02*
X11417682Y-12231722D01*
X11417682Y-12231722D02*
X11408158Y-12250769D01*
X11598634Y-12136484D02*
X11598634Y-12174579D01*
X11674825Y-12136484D02*
X11674825Y-12174579D01*
X11970063Y-12412674D02*
X11960539Y-12403150D01*
X11960539Y-12403150D02*
X11941491Y-12374579D01*
X11941491Y-12374579D02*
X11931968Y-12355531D01*
X11931968Y-12355531D02*
X11922444Y-12326960D01*
X11922444Y-12326960D02*
X11912920Y-12279341D01*
X11912920Y-12279341D02*
X11912920Y-12241246D01*
X11912920Y-12241246D02*
X11922444Y-12193627D01*
X11922444Y-12193627D02*
X11931968Y-12165055D01*
X11931968Y-12165055D02*
X11941491Y-12146008D01*
X11941491Y-12146008D02*
X11960539Y-12117436D01*
X11960539Y-12117436D02*
X11970063Y-12107912D01*
X12027206Y-12136484D02*
X12151015Y-12136484D01*
X12151015Y-12136484D02*
X12084348Y-12212674D01*
X12084348Y-12212674D02*
X12112920Y-12212674D01*
X12112920Y-12212674D02*
X12131968Y-12222198D01*
X12131968Y-12222198D02*
X12141491Y-12231722D01*
X12141491Y-12231722D02*
X12151015Y-12250769D01*
X12151015Y-12250769D02*
X12151015Y-12298388D01*
X12151015Y-12298388D02*
X12141491Y-12317436D01*
X12141491Y-12317436D02*
X12131968Y-12326960D01*
X12131968Y-12326960D02*
X12112920Y-12336484D01*
X12112920Y-12336484D02*
X12055777Y-12336484D01*
X12055777Y-12336484D02*
X12036729Y-12326960D01*
X12036729Y-12326960D02*
X12027206Y-12317436D01*
X12389110Y-12336484D02*
X12389110Y-12136484D01*
X12474825Y-12336484D02*
X12474825Y-12231722D01*
X12474825Y-12231722D02*
X12465301Y-12212674D01*
X12465301Y-12212674D02*
X12446253Y-12203150D01*
X12446253Y-12203150D02*
X12417682Y-12203150D01*
X12417682Y-12203150D02*
X12398634Y-12212674D01*
X12398634Y-12212674D02*
X12389110Y-12222198D01*
X12598634Y-12336484D02*
X12579587Y-12326960D01*
X12579587Y-12326960D02*
X12570063Y-12317436D01*
X12570063Y-12317436D02*
X12560539Y-12298388D01*
X12560539Y-12298388D02*
X12560539Y-12241246D01*
X12560539Y-12241246D02*
X12570063Y-12222198D01*
X12570063Y-12222198D02*
X12579587Y-12212674D01*
X12579587Y-12212674D02*
X12598634Y-12203150D01*
X12598634Y-12203150D02*
X12627206Y-12203150D01*
X12627206Y-12203150D02*
X12646253Y-12212674D01*
X12646253Y-12212674D02*
X12655777Y-12222198D01*
X12655777Y-12222198D02*
X12665301Y-12241246D01*
X12665301Y-12241246D02*
X12665301Y-12298388D01*
X12665301Y-12298388D02*
X12655777Y-12317436D01*
X12655777Y-12317436D02*
X12646253Y-12326960D01*
X12646253Y-12326960D02*
X12627206Y-12336484D01*
X12627206Y-12336484D02*
X12598634Y-12336484D01*
X12779587Y-12336484D02*
X12760539Y-12326960D01*
X12760539Y-12326960D02*
X12751015Y-12307912D01*
X12751015Y-12307912D02*
X12751015Y-12136484D01*
X12931968Y-12326960D02*
X12912920Y-12336484D01*
X12912920Y-12336484D02*
X12874825Y-12336484D01*
X12874825Y-12336484D02*
X12855777Y-12326960D01*
X12855777Y-12326960D02*
X12846253Y-12307912D01*
X12846253Y-12307912D02*
X12846253Y-12231722D01*
X12846253Y-12231722D02*
X12855777Y-12212674D01*
X12855777Y-12212674D02*
X12874825Y-12203150D01*
X12874825Y-12203150D02*
X12912920Y-12203150D01*
X12912920Y-12203150D02*
X12931968Y-12212674D01*
X12931968Y-12212674D02*
X12941491Y-12231722D01*
X12941491Y-12231722D02*
X12941491Y-12250769D01*
X12941491Y-12250769D02*
X12846253Y-12269817D01*
X13017682Y-12326960D02*
X13036730Y-12336484D01*
X13036730Y-12336484D02*
X13074825Y-12336484D01*
X13074825Y-12336484D02*
X13093872Y-12326960D01*
X13093872Y-12326960D02*
X13103396Y-12307912D01*
X13103396Y-12307912D02*
X13103396Y-12298388D01*
X13103396Y-12298388D02*
X13093872Y-12279341D01*
X13093872Y-12279341D02*
X13074825Y-12269817D01*
X13074825Y-12269817D02*
X13046253Y-12269817D01*
X13046253Y-12269817D02*
X13027206Y-12260293D01*
X13027206Y-12260293D02*
X13017682Y-12241246D01*
X13017682Y-12241246D02*
X13017682Y-12231722D01*
X13017682Y-12231722D02*
X13027206Y-12212674D01*
X13027206Y-12212674D02*
X13046253Y-12203150D01*
X13046253Y-12203150D02*
X13074825Y-12203150D01*
X13074825Y-12203150D02*
X13093872Y-12212674D01*
X13170063Y-12412674D02*
X13179587Y-12403150D01*
X13179587Y-12403150D02*
X13198634Y-12374579D01*
X13198634Y-12374579D02*
X13208158Y-12355531D01*
X13208158Y-12355531D02*
X13217682Y-12326960D01*
X13217682Y-12326960D02*
X13227206Y-12279341D01*
X13227206Y-12279341D02*
X13227206Y-12241246D01*
X13227206Y-12241246D02*
X13217682Y-12193627D01*
X13217682Y-12193627D02*
X13208158Y-12165055D01*
X13208158Y-12165055D02*
X13198634Y-12146008D01*
X13198634Y-12146008D02*
X13179587Y-12117436D01*
X13179587Y-12117436D02*
X13170063Y-12107912D01*
X13531968Y-12412674D02*
X13522444Y-12403150D01*
X13522444Y-12403150D02*
X13503396Y-12374579D01*
X13503396Y-12374579D02*
X13493872Y-12355531D01*
X13493872Y-12355531D02*
X13484349Y-12326960D01*
X13484349Y-12326960D02*
X13474825Y-12279341D01*
X13474825Y-12279341D02*
X13474825Y-12241246D01*
X13474825Y-12241246D02*
X13484349Y-12193627D01*
X13484349Y-12193627D02*
X13493872Y-12165055D01*
X13493872Y-12165055D02*
X13503396Y-12146008D01*
X13503396Y-12146008D02*
X13522444Y-12117436D01*
X13522444Y-12117436D02*
X13531968Y-12107912D01*
X13608158Y-12203150D02*
X13608158Y-12336484D01*
X13608158Y-12222198D02*
X13617682Y-12212674D01*
X13617682Y-12212674D02*
X13636730Y-12203150D01*
X13636730Y-12203150D02*
X13665301Y-12203150D01*
X13665301Y-12203150D02*
X13684349Y-12212674D01*
X13684349Y-12212674D02*
X13693872Y-12231722D01*
X13693872Y-12231722D02*
X13693872Y-12336484D01*
X13817682Y-12336484D02*
X13798634Y-12326960D01*
X13798634Y-12326960D02*
X13789111Y-12317436D01*
X13789111Y-12317436D02*
X13779587Y-12298388D01*
X13779587Y-12298388D02*
X13779587Y-12241246D01*
X13779587Y-12241246D02*
X13789111Y-12222198D01*
X13789111Y-12222198D02*
X13798634Y-12212674D01*
X13798634Y-12212674D02*
X13817682Y-12203150D01*
X13817682Y-12203150D02*
X13846253Y-12203150D01*
X13846253Y-12203150D02*
X13865301Y-12212674D01*
X13865301Y-12212674D02*
X13874825Y-12222198D01*
X13874825Y-12222198D02*
X13884349Y-12241246D01*
X13884349Y-12241246D02*
X13884349Y-12298388D01*
X13884349Y-12298388D02*
X13874825Y-12317436D01*
X13874825Y-12317436D02*
X13865301Y-12326960D01*
X13865301Y-12326960D02*
X13846253Y-12336484D01*
X13846253Y-12336484D02*
X13817682Y-12336484D01*
X13941492Y-12203150D02*
X14017682Y-12203150D01*
X13970063Y-12136484D02*
X13970063Y-12307912D01*
X13970063Y-12307912D02*
X13979587Y-12326960D01*
X13979587Y-12326960D02*
X13998634Y-12336484D01*
X13998634Y-12336484D02*
X14017682Y-12336484D01*
X14236730Y-12203150D02*
X14236730Y-12403150D01*
X14236730Y-12212674D02*
X14255777Y-12203150D01*
X14255777Y-12203150D02*
X14293873Y-12203150D01*
X14293873Y-12203150D02*
X14312920Y-12212674D01*
X14312920Y-12212674D02*
X14322444Y-12222198D01*
X14322444Y-12222198D02*
X14331968Y-12241246D01*
X14331968Y-12241246D02*
X14331968Y-12298388D01*
X14331968Y-12298388D02*
X14322444Y-12317436D01*
X14322444Y-12317436D02*
X14312920Y-12326960D01*
X14312920Y-12326960D02*
X14293873Y-12336484D01*
X14293873Y-12336484D02*
X14255777Y-12336484D01*
X14255777Y-12336484D02*
X14236730Y-12326960D01*
X14446253Y-12336484D02*
X14427206Y-12326960D01*
X14427206Y-12326960D02*
X14417682Y-12307912D01*
X14417682Y-12307912D02*
X14417682Y-12136484D01*
X14608158Y-12336484D02*
X14608158Y-12231722D01*
X14608158Y-12231722D02*
X14598634Y-12212674D01*
X14598634Y-12212674D02*
X14579587Y-12203150D01*
X14579587Y-12203150D02*
X14541492Y-12203150D01*
X14541492Y-12203150D02*
X14522444Y-12212674D01*
X14608158Y-12326960D02*
X14589111Y-12336484D01*
X14589111Y-12336484D02*
X14541492Y-12336484D01*
X14541492Y-12336484D02*
X14522444Y-12326960D01*
X14522444Y-12326960D02*
X14512920Y-12307912D01*
X14512920Y-12307912D02*
X14512920Y-12288865D01*
X14512920Y-12288865D02*
X14522444Y-12269817D01*
X14522444Y-12269817D02*
X14541492Y-12260293D01*
X14541492Y-12260293D02*
X14589111Y-12260293D01*
X14589111Y-12260293D02*
X14608158Y-12250769D01*
X14674825Y-12203150D02*
X14751015Y-12203150D01*
X14703396Y-12136484D02*
X14703396Y-12307912D01*
X14703396Y-12307912D02*
X14712920Y-12326960D01*
X14712920Y-12326960D02*
X14731968Y-12336484D01*
X14731968Y-12336484D02*
X14751015Y-12336484D01*
X14893873Y-12326960D02*
X14874825Y-12336484D01*
X14874825Y-12336484D02*
X14836730Y-12336484D01*
X14836730Y-12336484D02*
X14817682Y-12326960D01*
X14817682Y-12326960D02*
X14808158Y-12307912D01*
X14808158Y-12307912D02*
X14808158Y-12231722D01*
X14808158Y-12231722D02*
X14817682Y-12212674D01*
X14817682Y-12212674D02*
X14836730Y-12203150D01*
X14836730Y-12203150D02*
X14874825Y-12203150D01*
X14874825Y-12203150D02*
X14893873Y-12212674D01*
X14893873Y-12212674D02*
X14903396Y-12231722D01*
X14903396Y-12231722D02*
X14903396Y-12250769D01*
X14903396Y-12250769D02*
X14808158Y-12269817D01*
X15074825Y-12336484D02*
X15074825Y-12136484D01*
X15074825Y-12326960D02*
X15055777Y-12336484D01*
X15055777Y-12336484D02*
X15017682Y-12336484D01*
X15017682Y-12336484D02*
X14998634Y-12326960D01*
X14998634Y-12326960D02*
X14989111Y-12317436D01*
X14989111Y-12317436D02*
X14979587Y-12298388D01*
X14979587Y-12298388D02*
X14979587Y-12241246D01*
X14979587Y-12241246D02*
X14989111Y-12222198D01*
X14989111Y-12222198D02*
X14998634Y-12212674D01*
X14998634Y-12212674D02*
X15017682Y-12203150D01*
X15017682Y-12203150D02*
X15055777Y-12203150D01*
X15055777Y-12203150D02*
X15074825Y-12212674D01*
X15151015Y-12412674D02*
X15160539Y-12403150D01*
X15160539Y-12403150D02*
X15179587Y-12374579D01*
X15179587Y-12374579D02*
X15189111Y-12355531D01*
X15189111Y-12355531D02*
X15198634Y-12326960D01*
X15198634Y-12326960D02*
X15208158Y-12279341D01*
X15208158Y-12279341D02*
X15208158Y-12241246D01*
X15208158Y-12241246D02*
X15198634Y-12193627D01*
X15198634Y-12193627D02*
X15189111Y-12165055D01*
X15189111Y-12165055D02*
X15179587Y-12146008D01*
X15179587Y-12146008D02*
X15160539Y-12117436D01*
X15160539Y-12117436D02*
X15151015Y-12107912D01*
M02*
