%TF.GenerationSoftware,KiCad,Pcbnew,9.0.9-9.0.9~ubuntu24.04.1*%
%TF.CreationDate,2026-10-04T19:23:48+00:00*%
%TF.ProjectId,klickrad,6b6c6963-6b72-4616-942e-6b696361645f,rev?*%
%TF.SameCoordinates,Original*%
%TF.FileFunction,Soldermask,Bot*%
%TF.FilePolarity,Negative*%
%FSLAX46Y46*%
G04 Gerber Fmt 4.6, Leading zero omitted, Abs format (unit mm)*
G04 Created by KiCad (PCBNEW 9.0.9-9.0.9~ubuntu24.04.1) date 2026-10-04 19:23:48*
%MOMM*%
%LPD*%
G01*
G04 APERTURE LIST*
G04 Aperture macros list*
%AMRoundRect*
0 Rectangle with rounded corners*
0 $1 Rounding radius*
0 $2 $3 $4 $5 $6 $7 $8 $9 X,Y pos of 4 corners*
0 Add a 4 corners polygon primitive as box body*
4,1,4,$2,$3,$4,$5,$6,$7,$8,$9,$2,$3,0*
0 Add four circle primitives for the rounded corners*
1,1,$1+$1,$2,$3*
1,1,$1+$1,$4,$5*
1,1,$1+$1,$6,$7*
1,1,$1+$1,$8,$9*
0 Add four rect primitives between the rounded corners*
20,1,$1+$1,$2,$3,$4,$5,0*
20,1,$1+$1,$4,$5,$6,$7,0*
20,1,$1+$1,$6,$7,$8,$9,0*
20,1,$1+$1,$8,$9,$2,$3,0*%
%AMFreePoly0*
4,1,14,0.410355,0.110355,0.425000,0.075000,0.425000,0.045711,0.410355,0.010356,0.289644,-0.110355,0.254289,-0.125000,-0.375000,-0.125000,-0.410355,-0.110355,-0.425000,-0.075000,-0.425000,0.075000,-0.410355,0.110355,-0.375000,0.125000,0.375000,0.125000,0.410355,0.110355,0.410355,0.110355,$1*%
%AMFreePoly1*
4,1,14,0.289644,0.110355,0.410355,-0.010356,0.425000,-0.045711,0.425000,-0.075000,0.410355,-0.110355,0.375000,-0.125000,-0.375000,-0.125000,-0.410355,-0.110355,-0.425000,-0.075000,-0.425000,0.075000,-0.410355,0.110355,-0.375000,0.125000,0.254289,0.125000,0.289644,0.110355,0.289644,0.110355,$1*%
%AMFreePoly2*
4,1,14,0.110355,0.410355,0.125000,0.375000,0.125000,-0.375000,0.110355,-0.410355,0.075000,-0.425000,0.045711,-0.425000,0.010356,-0.410355,-0.110355,-0.289644,-0.125000,-0.254289,-0.125000,0.375000,-0.110355,0.410355,-0.075000,0.425000,0.075000,0.425000,0.110355,0.410355,0.110355,0.410355,$1*%
%AMFreePoly3*
4,1,14,0.110355,0.410355,0.125000,0.375000,0.125000,-0.254289,0.110355,-0.289644,-0.010356,-0.410355,-0.045711,-0.425000,-0.075000,-0.425000,-0.110355,-0.410355,-0.125000,-0.375000,-0.125000,0.375000,-0.110355,0.410355,-0.075000,0.425000,0.075000,0.425000,0.110355,0.410355,0.110355,0.410355,$1*%
%AMFreePoly4*
4,1,14,0.410355,0.110355,0.425000,0.075000,0.425000,-0.075000,0.410355,-0.110355,0.375000,-0.125000,-0.375000,-0.125000,-0.410355,-0.110355,-0.425000,-0.075000,-0.425000,-0.045711,-0.410355,-0.010356,-0.289644,0.110355,-0.254289,0.125000,0.375000,0.125000,0.410355,0.110355,0.410355,0.110355,$1*%
%AMFreePoly5*
4,1,14,0.410355,0.110355,0.425000,0.075000,0.425000,-0.075000,0.410355,-0.110355,0.375000,-0.125000,-0.254289,-0.125000,-0.289644,-0.110355,-0.410355,0.010356,-0.425000,0.045711,-0.425000,0.075000,-0.410355,0.110355,-0.375000,0.125000,0.375000,0.125000,0.410355,0.110355,0.410355,0.110355,$1*%
%AMFreePoly6*
4,1,14,-0.010356,0.410355,0.110355,0.289644,0.125000,0.254289,0.125000,-0.375000,0.110355,-0.410355,0.075000,-0.425000,-0.075000,-0.425000,-0.110355,-0.410355,-0.125000,-0.375000,-0.125000,0.375000,-0.110355,0.410355,-0.075000,0.425000,-0.045711,0.425000,-0.010356,0.410355,-0.010356,0.410355,$1*%
%AMFreePoly7*
4,1,14,0.110355,0.410355,0.125000,0.375000,0.125000,-0.375000,0.110355,-0.410355,0.075000,-0.425000,-0.075000,-0.425000,-0.110355,-0.410355,-0.125000,-0.375000,-0.125000,0.254289,-0.110355,0.289644,0.010356,0.410355,0.045711,0.425000,0.075000,0.425000,0.110355,0.410355,0.110355,0.410355,$1*%
G04 Aperture macros list end*
%ADD10C,2.200000*%
%ADD11R,0.300000X1.300000*%
%ADD12R,1.800000X2.200000*%
%ADD13RoundRect,0.250000X-0.750000X0.250000X-0.750000X-0.250000X0.750000X-0.250000X0.750000X0.250000X0*%
%ADD14RoundRect,0.140000X0.170000X-0.140000X0.170000X0.140000X-0.170000X0.140000X-0.170000X-0.140000X0*%
%ADD15RoundRect,0.135000X0.135000X0.185000X-0.135000X0.185000X-0.135000X-0.185000X0.135000X-0.185000X0*%
%ADD16RoundRect,0.135000X-0.185000X0.135000X-0.185000X-0.135000X0.185000X-0.135000X0.185000X0.135000X0*%
%ADD17FreePoly0,270.000000*%
%ADD18RoundRect,0.062500X-0.062500X0.362500X-0.062500X-0.362500X0.062500X-0.362500X0.062500X0.362500X0*%
%ADD19FreePoly1,270.000000*%
%ADD20FreePoly2,270.000000*%
%ADD21RoundRect,0.062500X-0.362500X0.062500X-0.362500X-0.062500X0.362500X-0.062500X0.362500X0.062500X0*%
%ADD22FreePoly3,270.000000*%
%ADD23FreePoly4,270.000000*%
%ADD24FreePoly5,270.000000*%
%ADD25FreePoly6,270.000000*%
%ADD26FreePoly7,270.000000*%
%ADD27R,1.550000X1.550000*%
%ADD28RoundRect,0.135000X-0.135000X-0.185000X0.135000X-0.185000X0.135000X0.185000X-0.135000X0.185000X0*%
%ADD29RoundRect,0.135000X0.185000X-0.135000X0.185000X0.135000X-0.185000X0.135000X-0.185000X-0.135000X0*%
%ADD30RoundRect,0.075000X-0.650000X-0.075000X0.650000X-0.075000X0.650000X0.075000X-0.650000X0.075000X0*%
%ADD31RoundRect,0.140000X-0.170000X0.140000X-0.170000X-0.140000X0.170000X-0.140000X0.170000X0.140000X0*%
%ADD32RoundRect,0.140000X-0.140000X-0.170000X0.140000X-0.170000X0.140000X0.170000X-0.140000X0.170000X0*%
G04 APERTURE END LIST*
D10*
%TO.C,H2*%
X-12643971Y-7300000D03*
%TD*%
%TO.C,H3*%
X12643970Y-7300000D03*
%TD*%
%TO.C,H1*%
X0Y14600000D03*
%TD*%
D11*
%TO.C,J1*%
X1250000Y-8950000D03*
X750000Y-8950000D03*
X250000Y-8950000D03*
X-250000Y-8950000D03*
X-750000Y-8950000D03*
X-1250000Y-8950000D03*
D12*
X3150000Y-12200000D03*
X-3150000Y-12200000D03*
%TD*%
D13*
%TO.C,TP1*%
X13100000Y-2400000D03*
%TD*%
D14*
%TO.C,C2*%
X2600000Y-4220000D03*
X2600000Y-3260000D03*
%TD*%
D15*
%TO.C,R5*%
X-2090000Y300000D03*
X-3110000Y300000D03*
%TD*%
D16*
%TO.C,R7*%
X6400000Y-290000D03*
X6400000Y-1310000D03*
%TD*%
D17*
%TO.C,U1*%
X-900000Y-50000D03*
D18*
X-450000Y-50000D03*
X0Y-50000D03*
X450000Y-50000D03*
D19*
X900000Y-50000D03*
D20*
X1450000Y-600000D03*
D21*
X1450000Y-1050000D03*
X1450000Y-1500000D03*
X1450000Y-1950000D03*
D22*
X1450000Y-2400000D03*
D23*
X900000Y-2950000D03*
D18*
X450000Y-2950000D03*
X0Y-2950000D03*
X-450000Y-2950000D03*
D24*
X-900000Y-2950000D03*
D25*
X-1450000Y-2400000D03*
D21*
X-1450000Y-1950000D03*
X-1450000Y-1500000D03*
X-1450000Y-1050000D03*
D26*
X-1450000Y-600000D03*
D27*
X0Y-1500000D03*
%TD*%
D28*
%TO.C,R1*%
X4290000Y-1400000D03*
X5310000Y-1400000D03*
%TD*%
D29*
%TO.C,R6*%
X450000Y-5110000D03*
X450000Y-4090000D03*
%TD*%
D13*
%TO.C,TP2*%
X13100000Y-4800000D03*
%TD*%
D30*
%TO.C,U2*%
X6300000Y-4600000D03*
X6300000Y-4100000D03*
X6300000Y-3600000D03*
X6300000Y-3100000D03*
X6300000Y-2600000D03*
X10700000Y-2600000D03*
X10700000Y-3100000D03*
X10700000Y-3600000D03*
X10700000Y-4100000D03*
X10700000Y-4600000D03*
%TD*%
D28*
%TO.C,R2*%
X4290000Y-200000D03*
X5310000Y-200000D03*
%TD*%
D31*
%TO.C,C1*%
X2600000Y-4520000D03*
X2600000Y-5480000D03*
%TD*%
D15*
%TO.C,R8*%
X-2090000Y-6300000D03*
X-3110000Y-6300000D03*
%TD*%
D32*
%TO.C,C3*%
X9720000Y-7600000D03*
X10680000Y-7600000D03*
%TD*%
D28*
%TO.C,R9*%
X-1820000Y-6300000D03*
X-800000Y-6300000D03*
%TD*%
%TO.C,R3*%
X2390000Y0D03*
X3410000Y0D03*
%TD*%
%TO.C,R4*%
X1390000Y950000D03*
X2410000Y950000D03*
%TD*%
D31*
%TO.C,C4*%
X4500000Y-5720000D03*
X4500000Y-6680000D03*
%TD*%
M02*
