M48
; DRILL file {KiCad 9.0.9-9.0.9~ubuntu24.04.1} date 2026-10-04T10:42:00+0000
; FORMAT={-:-/ absolute / metric / decimal}
; #@! TF.CreationDate,2026-10-04T10:42:00+00:00
; #@! TF.GenerationSoftware,Kicad,Pcbnew,9.0.9-9.0.9~ubuntu24.04.1
; #@! TF.FileFunction,Plated,1,4,PTH
FMAT,2
METRIC
; #@! TA.AperFunction,Plated,PTH,ViaDrill
T1C0.300
%
G90
G05
T1
X86.744Y-104.647
X87.284Y-105.369
X88.325Y-108.967
X90.156Y-110.812
X93.835Y-112.379
X95.5Y-100.0
X95.505Y-100.882
X95.662Y-98.803
X96.06Y-97.826
X97.0Y-104.6
X98.213Y-96.76
X98.7Y-104.4
X98.785Y-103.45
X99.0Y-102.5
X99.016Y-96.433
X99.3Y-105.0
X100.0Y-96.3
X100.148Y-100.148
X100.9Y-105.7
X100.984Y-96.433
X101.1Y-103.3
X101.7Y-98.6
X101.726Y-102.235
X101.787Y-96.76
X102.744Y-105.058
X103.24Y-98.213
X103.567Y-99.016
X103.567Y-100.984
X103.7Y-100.0
X104.045Y-102.531
X107.853Y-111.717
M30
