%TF.GenerationSoftware,KiCad,Pcbnew,9.0.9-9.0.9~ubuntu24.04.1*%
%TF.CreationDate,2026-10-04T10:41:59+00:00*%
%TF.ProjectId,klickrad,6b6c6963-6b72-4616-942e-6b696361645f,rev?*%
%TF.SameCoordinates,Original*%
%TF.FileFunction,Copper,L1,Top*%
%TF.FilePolarity,Positive*%
%FSLAX46Y46*%
G04 Gerber Fmt 4.6, Leading zero omitted, Abs format (unit mm)*
G04 Created by KiCad (PCBNEW 9.0.9-9.0.9~ubuntu24.04.1) date 2026-10-04 10:41:59*
%MOMM*%
%LPD*%
G01*
G04 APERTURE LIST*
G04 Aperture macros list*
%AMFreePoly0*
4,1,23,1.597300,5.360900,2.149600,4.981400,2.681200,4.573400,3.190800,4.138200,3.676900,3.676900,4.138200,3.190800,4.573400,2.681200,4.981400,2.149600,5.360900,1.597300,5.606500,1.196500,0.150700,-1.953400,0.077400,-1.833800,-0.115300,-1.553400,-0.322500,-1.283400,-0.543500,-1.024600,-0.777800,-0.777800,-1.024600,-0.543500,-1.283400,-0.322500,-1.553400,-0.115300,-1.833800,0.077400,
-1.953400,0.150700,1.196500,5.606500,1.597300,5.360900,1.597300,5.360900,$1*%
%AMFreePoly1*
4,1,23,4.257100,-3.839500,3.844000,-4.063800,3.239200,-4.352300,2.620100,-4.608700,1.988400,-4.832400,1.345800,-5.022700,0.694200,-5.179200,0.035300,-5.301300,-0.629100,-5.388800,-1.297100,-5.441400,-1.767000,-5.453700,-1.767000,0.846200,-1.626800,0.849900,-1.287600,0.876600,-0.950200,0.921000,-0.615600,0.983000,-0.284700,1.062500,0.041600,1.159100,0.362400,1.272700,0.676800,1.402900,
0.983900,1.549400,1.107200,1.616300,4.257100,-3.839500,4.257100,-3.839500,$1*%
%AMFreePoly2*
4,1,23,4.063800,3.844000,4.352300,3.239200,4.608700,2.620100,4.832400,1.988400,5.022700,1.345800,5.179200,0.694200,5.301300,0.035300,5.388800,-0.629100,5.441400,-1.297100,5.453700,-1.767000,-0.846200,-1.767000,-0.849900,-1.626800,-0.876600,-1.287600,-0.921000,-0.950200,-0.983000,-0.615600,-1.062500,-0.284700,-1.159100,0.041600,-1.272700,0.362400,-1.402900,0.676800,-1.549400,0.983900,
-1.616300,1.107200,3.839500,4.257100,4.063800,3.844000,4.063800,3.844000,$1*%
%AMFreePoly3*
4,1,23,0.849900,1.626800,0.876600,1.287600,0.921000,0.950200,0.983000,0.615600,1.062500,0.284700,1.159100,-0.041600,1.272700,-0.362400,1.402900,-0.676800,1.549400,-0.983900,1.616300,-1.107200,-3.839500,-4.257100,-4.063800,-3.844000,-4.352300,-3.239200,-4.608700,-2.620100,-4.832400,-1.988400,-5.022700,-1.345800,-5.179200,-0.694200,-5.301300,-0.035300,-5.388800,0.629100,-5.441400,1.297100,
-5.453700,1.767000,0.846200,1.767000,0.849900,1.626800,0.849900,1.626800,$1*%
%AMFreePoly4*
4,1,23,5.441400,1.297100,5.388800,0.629100,5.301300,-0.035300,5.179200,-0.694200,5.022700,-1.345800,4.832400,-1.988400,4.608700,-2.620100,4.352300,-3.239200,4.063800,-3.844000,3.839500,-4.257100,-1.616300,-1.107200,-1.549400,-0.983900,-1.402900,-0.676800,-1.272700,-0.362400,-1.159100,-0.041600,-1.062500,0.284700,-0.983000,0.615600,-0.921000,0.950200,-0.876600,1.287600,-0.849900,1.626800,
-0.846200,1.767000,5.453700,1.767000,5.441400,1.297100,5.441400,1.297100,$1*%
%AMFreePoly5*
4,1,23,1.616300,1.107200,1.549400,0.983900,1.402900,0.676800,1.272700,0.362400,1.159100,0.041600,1.062500,-0.284700,0.983000,-0.615600,0.921000,-0.950200,0.876600,-1.287600,0.849900,-1.626800,0.846200,-1.767000,-5.453700,-1.767000,-5.441400,-1.297100,-5.388800,-0.629100,-5.301300,0.035300,-5.179200,0.694200,-5.022700,1.345800,-4.832400,1.988400,-4.608700,2.620100,-4.352300,3.239200,
-4.063800,3.844000,-3.839500,4.257100,1.616300,1.107200,1.616300,1.107200,$1*%
%AMFreePoly6*
4,1,23,1.767000,-0.846200,1.626800,-0.849900,1.287600,-0.876600,0.950200,-0.921000,0.615600,-0.983000,0.284700,-1.062500,-0.041600,-1.159100,-0.362400,-1.272700,-0.676800,-1.402900,-0.983900,-1.549400,-1.107200,-1.616300,-4.257100,3.839500,-3.844000,4.063800,-3.239200,4.352300,-2.620100,4.608700,-1.988400,4.832400,-1.345800,5.022700,-0.694200,5.179200,-0.035300,5.301300,0.629100,5.388800,
1.297100,5.441400,1.767000,5.453700,1.767000,-0.846200,1.767000,-0.846200,$1*%
%AMFreePoly7*
4,1,23,-1.297100,5.441400,-0.629100,5.388800,0.035300,5.301300,0.694200,5.179200,1.345800,5.022700,1.988400,4.832400,2.620100,4.608700,3.239200,4.352300,3.844000,4.063800,4.257100,3.839500,1.107200,-1.616300,0.983900,-1.549400,0.676800,-1.402900,0.362400,-1.272700,0.041600,-1.159100,-0.284700,-1.062500,-0.615600,-0.983000,-0.950200,-0.921000,-1.287600,-0.876600,-1.626800,-0.849900,
-1.767000,-0.846200,-1.767000,5.453700,-1.297100,5.441400,-1.297100,5.441400,$1*%
%AMFreePoly8*
4,1,23,5.606500,-1.196500,5.360900,-1.597300,4.981400,-2.149600,4.573400,-2.681200,4.138200,-3.190800,3.676900,-3.676900,3.190800,-4.138200,2.681200,-4.573400,2.149600,-4.981400,1.597300,-5.360900,1.196500,-5.606500,-1.953400,-0.150700,-1.833800,-0.077400,-1.553400,0.115300,-1.283400,0.322500,-1.024600,0.543500,-0.777800,0.777800,-0.543500,1.024600,-0.322500,1.283400,-0.115300,1.553400,
0.077400,1.833800,0.150700,1.953400,5.606500,-1.196500,5.606500,-1.196500,$1*%
%AMFreePoly9*
4,1,23,1.953400,0.150700,1.833800,0.077400,1.553400,-0.115300,1.283400,-0.322500,1.024600,-0.543500,0.777800,-0.777800,0.543500,-1.024600,0.322500,-1.283400,0.115300,-1.553400,-0.077400,-1.833800,-0.150700,-1.953400,-5.606500,1.196500,-5.360900,1.597300,-4.981400,2.149600,-4.573400,2.681200,-4.138200,3.190800,-3.676900,3.676900,-3.190800,4.138200,-2.681200,4.573400,-2.149600,4.981400,
-1.597300,5.360900,-1.196500,5.606500,1.953400,0.150700,1.953400,0.150700,$1*%
%AMFreePoly10*
4,1,23,-0.077400,1.833800,0.115300,1.553400,0.322500,1.283400,0.543500,1.024600,0.777800,0.777800,1.024600,0.543500,1.283400,0.322500,1.553400,0.115300,1.833800,-0.077400,1.953400,-0.150700,-1.196500,-5.606500,-1.597300,-5.360900,-2.149600,-4.981400,-2.681200,-4.573400,-3.190800,-4.138200,-3.676900,-3.676900,-4.138200,-3.190800,-4.573400,-2.681200,-4.981400,-2.149600,-5.360900,-1.597300,
-5.606500,-1.196500,-0.150700,1.953400,-0.077400,1.833800,-0.077400,1.833800,$1*%
%AMFreePoly11*
4,1,23,-0.983900,1.549400,-0.676800,1.402900,-0.362400,1.272700,-0.041600,1.159100,0.284700,1.062500,0.615600,0.983000,0.950200,0.921000,1.287600,0.876600,1.626800,0.849900,1.767000,0.846200,1.767000,-5.453700,1.297100,-5.441400,0.629100,-5.388800,-0.035300,-5.301300,-0.694200,-5.179200,-1.345800,-5.022700,-1.988400,-4.832400,-2.620100,-4.608700,-3.239200,-4.352300,-3.844000,-4.063800,
-4.257100,-3.839500,-1.107200,1.616300,-0.983900,1.549400,-0.983900,1.549400,$1*%
G04 Aperture macros list end*
%TA.AperFunction,SMDPad,CuDef*%
%ADD10FreePoly0,0.000000*%
%TD*%
%TA.AperFunction,SMDPad,CuDef*%
%ADD11FreePoly1,0.000000*%
%TD*%
%TA.AperFunction,SMDPad,CuDef*%
%ADD12FreePoly2,0.000000*%
%TD*%
%TA.AperFunction,SMDPad,CuDef*%
%ADD13FreePoly3,0.000000*%
%TD*%
%TA.AperFunction,SMDPad,CuDef*%
%ADD14FreePoly4,0.000000*%
%TD*%
%TA.AperFunction,SMDPad,CuDef*%
%ADD15FreePoly5,0.000000*%
%TD*%
%TA.AperFunction,SMDPad,CuDef*%
%ADD16R,0.900000X1.700000*%
%TD*%
%TA.AperFunction,SMDPad,CuDef*%
%ADD17FreePoly6,0.000000*%
%TD*%
%TA.AperFunction,SMDPad,CuDef*%
%ADD18FreePoly7,0.000000*%
%TD*%
%TA.AperFunction,SMDPad,CuDef*%
%ADD19FreePoly8,0.000000*%
%TD*%
%TA.AperFunction,SMDPad,CuDef*%
%ADD20FreePoly9,0.000000*%
%TD*%
%TA.AperFunction,SMDPad,CuDef*%
%ADD21FreePoly10,0.000000*%
%TD*%
%TA.AperFunction,SMDPad,CuDef*%
%ADD22FreePoly11,0.000000*%
%TD*%
%TA.AperFunction,ViaPad*%
%ADD23C,0.600000*%
%TD*%
%TA.AperFunction,Conductor*%
%ADD24C,0.200000*%
%TD*%
%TA.AperFunction,Conductor*%
%ADD25C,0.150000*%
%TD*%
%TA.AperFunction,Conductor*%
%ADD26C,0.250000*%
%TD*%
G04 APERTURE END LIST*
D10*
%TO.P,SEG2,1*%
%TO.N,ELE7*%
X105374000Y-94626000D03*
%TD*%
D11*
%TO.P,SEG10,1*%
%TO.N,ELE11*%
X101967000Y-107341000D03*
%TD*%
D12*
%TO.P,SEG1,1*%
%TO.N,ELE8*%
X107341000Y-98033000D03*
%TD*%
D13*
%TO.P,SEG7,1*%
%TO.N,ELE2*%
X92659000Y-101967000D03*
%TD*%
D14*
%TO.P,SEG12,1*%
%TO.N,ELE9*%
X107341000Y-101967000D03*
%TD*%
D15*
%TO.P,SEG6,1*%
%TO.N,ELE3*%
X92659000Y-98033000D03*
%TD*%
D16*
%TO.P,SW1,1*%
%TO.N,BTN*%
X98300000Y-100000000D03*
%TO.P,SW1,2*%
%TO.N,GND*%
X101700000Y-100000000D03*
%TD*%
D17*
%TO.P,SEG4,1*%
%TO.N,ELE5*%
X98033000Y-92659000D03*
%TD*%
D18*
%TO.P,SEG3,1*%
%TO.N,ELE6*%
X101967000Y-92659000D03*
%TD*%
D19*
%TO.P,SEG11,1*%
%TO.N,ELE10*%
X105374000Y-105374000D03*
%TD*%
D20*
%TO.P,SEG5,1*%
%TO.N,ELE4*%
X94626000Y-94626000D03*
%TD*%
D21*
%TO.P,SEG8,1*%
%TO.N,ELE1*%
X94626000Y-105374000D03*
%TD*%
D22*
%TO.P,SEG9,1*%
%TO.N,ELE0*%
X98033000Y-107341000D03*
%TD*%
D23*
%TO.N,ELE8*%
X103240000Y-98212600D03*
%TO.N,ELE7*%
X101787000Y-96760400D03*
%TO.N,ELE6*%
X100984000Y-96433200D03*
%TO.N,ELE5*%
X100000000Y-96300000D03*
%TO.N,ELE4*%
X99016100Y-96433200D03*
%TO.N,ELE3*%
X98212600Y-96760400D03*
%TO.N,ELE2*%
X96059900Y-97826200D03*
%TO.N,ELE1*%
X95662000Y-98803300D03*
%TO.N,ELE0*%
X95500000Y-100000000D03*
%TO.N,ELE11*%
X103567000Y-100984000D03*
%TO.N,ELE10*%
X103700000Y-100000000D03*
%TO.N,ELE9*%
X103567000Y-99016100D03*
%TO.N,INT*%
X101100000Y-103300000D03*
X98700000Y-104400000D03*
%TO.N,SDA*%
X100900000Y-105700000D03*
X99300000Y-105000000D03*
%TO.N,3V3*%
X99000000Y-102500000D03*
X90155700Y-110812200D03*
X104045500Y-102530800D03*
X86744100Y-104646600D03*
X102743800Y-105057900D03*
%TO.N,GND*%
X95505500Y-100881700D03*
X93835200Y-112379200D03*
X101700000Y-98600000D03*
X100147800Y-100147800D03*
X101726400Y-102235000D03*
X88324600Y-108967000D03*
X107852600Y-111717400D03*
X98784600Y-103450000D03*
X87283700Y-105368700D03*
%TO.N,BTN*%
X97000000Y-104600000D03*
%TD*%
D24*
%TO.N,ELE8*%
X103419600Y-98033000D02*
X107341000Y-98033000D01*
X103240000Y-98212600D02*
X103419600Y-98033000D01*
%TO.N,ELE7*%
X101787000Y-96760400D02*
X103239600Y-96760400D01*
X103239600Y-96760400D02*
X105374000Y-94626000D01*
%TO.N,ELE6*%
X101967000Y-95450200D02*
X101967000Y-92659000D01*
X100984000Y-96433200D02*
X101967000Y-95450200D01*
%TO.N,ELE5*%
X98033000Y-92659000D02*
X100000000Y-94626000D01*
X100000000Y-94626000D02*
X100000000Y-96300000D01*
%TO.N,ELE4*%
X94626000Y-94626000D02*
X97208900Y-94626000D01*
X97208900Y-94626000D02*
X99016100Y-96433200D01*
%TO.N,ELE3*%
X98212600Y-96760400D02*
X95181000Y-96760400D01*
X93908400Y-98033000D02*
X92659000Y-98033000D01*
X95181000Y-96760400D02*
X93908400Y-98033000D01*
%TO.N,ELE2*%
X94575300Y-99285900D02*
X92659000Y-101202200D01*
X96059900Y-97826200D02*
X95779300Y-97826200D01*
X94575300Y-99030200D02*
X94575300Y-99285900D01*
X92659000Y-101202200D02*
X92659000Y-101967000D01*
X95779300Y-97826200D02*
X94575300Y-99030200D01*
%TO.N,ELE1*%
X94626000Y-99839300D02*
X95662000Y-98803300D01*
X94626000Y-105374000D02*
X94626000Y-99839300D01*
%TO.N,ELE0*%
X96261400Y-100761400D02*
X95500000Y-100000000D01*
X96261400Y-104850700D02*
X96261400Y-100761400D01*
X98033000Y-107341000D02*
X98033000Y-106622300D01*
X98033000Y-106622300D02*
X96261400Y-104850700D01*
%TO.N,ELE11*%
X103567000Y-101174600D02*
X103567000Y-100984000D01*
X101967000Y-107341000D02*
X101967000Y-102774600D01*
X101967000Y-102774600D02*
X103567000Y-101174600D01*
%TO.N,ELE10*%
X105374000Y-105374000D02*
X105374000Y-101674000D01*
X105374000Y-101674000D02*
X103700000Y-100000000D01*
%TO.N,ELE9*%
X107341000Y-101967000D02*
X104390100Y-99016100D01*
X104390100Y-99016100D02*
X103567000Y-99016100D01*
D25*
%TO.N,INT*%
X101100000Y-103300000D02*
X98700000Y-104400000D01*
%TO.N,SDA*%
X99300000Y-105000000D02*
X100900000Y-105700000D01*
D26*
%TO.N,GND*%
X101700000Y-100000000D02*
X101700000Y-98600000D01*
D25*
%TO.N,BTN*%
X98300000Y-101600000D02*
X97000000Y-104600000D01*
X98300000Y-100000000D02*
X98300000Y-101600000D01*
%TD*%
M02*
