%TF.GenerationSoftware,KiCad,Pcbnew,9.0.9-9.0.9~ubuntu24.04.1*%
%TF.CreationDate,2026-10-04T10:41:59+00:00*%
%TF.ProjectId,klickrad,6b6c6963-6b72-4616-942e-6b696361645f,rev?*%
%TF.SameCoordinates,Original*%
%TF.FileFunction,Copper,L3,Inr*%
%TF.FilePolarity,Positive*%
%FSLAX46Y46*%
G04 Gerber Fmt 4.6, Leading zero omitted, Abs format (unit mm)*
G04 Created by KiCad (PCBNEW 9.0.9-9.0.9~ubuntu24.04.1) date 2026-10-04 10:41:59*
%MOMM*%
%LPD*%
G01*
G04 APERTURE LIST*
%TA.AperFunction,ViaPad*%
%ADD10C,0.600000*%
%TD*%
G04 APERTURE END LIST*
D10*
%TO.N,ELE8*%
X103240000Y-98212600D03*
%TO.N,ELE7*%
X101787000Y-96760400D03*
%TO.N,ELE6*%
X100984000Y-96433200D03*
%TO.N,ELE5*%
X100000000Y-96300000D03*
%TO.N,ELE4*%
X99016100Y-96433200D03*
%TO.N,ELE3*%
X98212600Y-96760400D03*
%TO.N,ELE2*%
X96059900Y-97826200D03*
%TO.N,ELE1*%
X95662000Y-98803300D03*
%TO.N,ELE0*%
X95500000Y-100000000D03*
%TO.N,ELE11*%
X103567000Y-100984000D03*
%TO.N,ELE10*%
X103700000Y-100000000D03*
%TO.N,ELE9*%
X103567000Y-99016100D03*
%TO.N,INT*%
X101100000Y-103300000D03*
X98700000Y-104400000D03*
%TO.N,SDA*%
X100900000Y-105700000D03*
X99300000Y-105000000D03*
%TO.N,3V3*%
X99000000Y-102500000D03*
X90155700Y-110812200D03*
X104045500Y-102530800D03*
X86744100Y-104646600D03*
X102743800Y-105057900D03*
%TO.N,GND*%
X95505500Y-100881700D03*
X93835200Y-112379200D03*
X101700000Y-98600000D03*
X100147800Y-100147800D03*
X101726400Y-102235000D03*
X88324600Y-108967000D03*
X107852600Y-111717400D03*
X98784600Y-103450000D03*
X87283700Y-105368700D03*
%TO.N,BTN*%
X97000000Y-104600000D03*
%TD*%
%TA.AperFunction,Conductor*%
%TO.N,3V3*%
G36*
X101958031Y-84626189D02*
G01*
X101962793Y-84626777D01*
X102208901Y-84663284D01*
X102210383Y-84663515D01*
X102866497Y-84771840D01*
X102869610Y-84772407D01*
X103176169Y-84833385D01*
X103179292Y-84834060D01*
X103826802Y-84985038D01*
X103828285Y-84985397D01*
X104069736Y-85045877D01*
X104074310Y-85047143D01*
X104919651Y-85303574D01*
X104924240Y-85305090D01*
X105158524Y-85388918D01*
X105159995Y-85389457D01*
X105782270Y-85623666D01*
X105785240Y-85624839D01*
X106005895Y-85716238D01*
X106073964Y-85744433D01*
X106076933Y-85745719D01*
X106682640Y-86020162D01*
X106683913Y-86020752D01*
X106908917Y-86127170D01*
X106913191Y-86129322D01*
X107692252Y-86545739D01*
X107696480Y-86548134D01*
X107909899Y-86676052D01*
X107911158Y-86676820D01*
X108260316Y-86893941D01*
X108475838Y-87027962D01*
X108478560Y-87029717D01*
X108574440Y-87093781D01*
X108738410Y-87203343D01*
X108741009Y-87205142D01*
X109281552Y-87592489D01*
X109282673Y-87593306D01*
X109482596Y-87741580D01*
X109486410Y-87744556D01*
X110169246Y-88304944D01*
X110172902Y-88308097D01*
X110356627Y-88474616D01*
X110357222Y-88475155D01*
X110358413Y-88476252D01*
X110843682Y-88930755D01*
X110846010Y-88933008D01*
X111066989Y-89153987D01*
X111069242Y-89156315D01*
X111523749Y-89641587D01*
X111524816Y-89642746D01*
X111691888Y-89827082D01*
X111695041Y-89830737D01*
X111913123Y-90096470D01*
X112255444Y-90513591D01*
X112258433Y-90517422D01*
X112406593Y-90717192D01*
X112407548Y-90718501D01*
X112794852Y-91258984D01*
X112796695Y-91261647D01*
X112970276Y-91521428D01*
X112972016Y-91524127D01*
X113323165Y-92088821D01*
X113324009Y-92090204D01*
X113451855Y-92303503D01*
X113454250Y-92307731D01*
X113870663Y-93086783D01*
X113872848Y-93091123D01*
X113979187Y-93315957D01*
X113979868Y-93317427D01*
X114254283Y-93923076D01*
X114255571Y-93926048D01*
X114375144Y-94214721D01*
X114376335Y-94217734D01*
X114610541Y-94840004D01*
X114611099Y-94841525D01*
X114694899Y-95075733D01*
X114696423Y-95080347D01*
X114952843Y-95925647D01*
X114954139Y-95930330D01*
X115014579Y-96171622D01*
X115014960Y-96173196D01*
X115165938Y-96820706D01*
X115166622Y-96823873D01*
X115227579Y-97130327D01*
X115228159Y-97133514D01*
X115336472Y-97789551D01*
X115336722Y-97791152D01*
X115373216Y-98037177D01*
X115373811Y-98041999D01*
X115460393Y-98921081D01*
X115460751Y-98925927D01*
X115472959Y-99174409D01*
X115473025Y-99176028D01*
X115494779Y-99840516D01*
X115494832Y-99843755D01*
X115494832Y-100156243D01*
X115494779Y-100159482D01*
X115473025Y-100823971D01*
X115472959Y-100825590D01*
X115460751Y-101074069D01*
X115460393Y-101078915D01*
X115373809Y-101958020D01*
X115373214Y-101962842D01*
X115336733Y-102208776D01*
X115336483Y-102210377D01*
X115228158Y-102866489D01*
X115227578Y-102869676D01*
X115166625Y-103176111D01*
X115165941Y-103179278D01*
X115014953Y-103826829D01*
X115014572Y-103828403D01*
X114954140Y-104069662D01*
X114952844Y-104074345D01*
X114696421Y-104919656D01*
X114694897Y-104924270D01*
X114611106Y-105158452D01*
X114610548Y-105159973D01*
X114376331Y-105782274D01*
X114375140Y-105785287D01*
X114255576Y-106073939D01*
X114254288Y-106076911D01*
X114001381Y-106635090D01*
X113960143Y-106680291D01*
X113900213Y-106692620D01*
X113844481Y-106667368D01*
X113822995Y-106639177D01*
X113799051Y-106592184D01*
X113799049Y-106592180D01*
X113674108Y-106420213D01*
X113674106Y-106420211D01*
X113674104Y-106420208D01*
X113523792Y-106269896D01*
X113523788Y-106269893D01*
X113523786Y-106269891D01*
X113351819Y-106144950D01*
X113351815Y-106144948D01*
X113162412Y-106048443D01*
X112960238Y-105982752D01*
X112750290Y-105949500D01*
X112750287Y-105949500D01*
X112537713Y-105949500D01*
X112537710Y-105949500D01*
X112327761Y-105982752D01*
X112125587Y-106048443D01*
X111936184Y-106144948D01*
X111936180Y-106144950D01*
X111764213Y-106269891D01*
X111613891Y-106420213D01*
X111488950Y-106592180D01*
X111488948Y-106592184D01*
X111392443Y-106781587D01*
X111326752Y-106983761D01*
X111293500Y-107193709D01*
X111293500Y-107406290D01*
X111326752Y-107616238D01*
X111392443Y-107818412D01*
X111488948Y-108007815D01*
X111488950Y-108007819D01*
X111613891Y-108179786D01*
X111613893Y-108179788D01*
X111613896Y-108179792D01*
X111764208Y-108330104D01*
X111764211Y-108330106D01*
X111764213Y-108330108D01*
X111936180Y-108455049D01*
X111936184Y-108455051D01*
X112125588Y-108551557D01*
X112327757Y-108617246D01*
X112327758Y-108617246D01*
X112327761Y-108617247D01*
X112537710Y-108650500D01*
X112666977Y-108650500D01*
X112725168Y-108669407D01*
X112761132Y-108718907D01*
X112761132Y-108780093D01*
X112747449Y-108807165D01*
X112407555Y-109281486D01*
X112406601Y-109282795D01*
X112258432Y-109482579D01*
X112255442Y-109486410D01*
X111695044Y-110169258D01*
X111691870Y-110172937D01*
X111524874Y-110357188D01*
X111523777Y-110358380D01*
X111069227Y-110843698D01*
X111066974Y-110846026D01*
X110846026Y-111066974D01*
X110843698Y-111069227D01*
X110358380Y-111523777D01*
X110357188Y-111524874D01*
X110172937Y-111691870D01*
X110169258Y-111695044D01*
X109486410Y-112255442D01*
X109482579Y-112258432D01*
X109282795Y-112406601D01*
X109281486Y-112407555D01*
X108741013Y-112794853D01*
X108738349Y-112796697D01*
X108478589Y-112970263D01*
X108475867Y-112972018D01*
X107911172Y-113323169D01*
X107909789Y-113324013D01*
X107696496Y-113451855D01*
X107692268Y-113454250D01*
X106913207Y-113870666D01*
X106908867Y-113872851D01*
X106684064Y-113979176D01*
X106682594Y-113979857D01*
X106076911Y-114254288D01*
X106073939Y-114255576D01*
X105785287Y-114375140D01*
X105782274Y-114376331D01*
X105159973Y-114610548D01*
X105158452Y-114611106D01*
X104924270Y-114694897D01*
X104919656Y-114696421D01*
X104074345Y-114952844D01*
X104069662Y-114954140D01*
X103828403Y-115014572D01*
X103826829Y-115014953D01*
X103179278Y-115165941D01*
X103176111Y-115166625D01*
X102869676Y-115227578D01*
X102866489Y-115228158D01*
X102210377Y-115336483D01*
X102208776Y-115336733D01*
X101962842Y-115373214D01*
X101958020Y-115373809D01*
X101078915Y-115460393D01*
X101074069Y-115460751D01*
X100825590Y-115472959D01*
X100823971Y-115473025D01*
X100174847Y-115494276D01*
X100159482Y-115494779D01*
X100156245Y-115494832D01*
X99843755Y-115494832D01*
X99840516Y-115494779D01*
X99176028Y-115473025D01*
X99174409Y-115472959D01*
X98925927Y-115460751D01*
X98921081Y-115460393D01*
X98041999Y-115373811D01*
X98037177Y-115373216D01*
X97791152Y-115336722D01*
X97789551Y-115336472D01*
X97133514Y-115228159D01*
X97130327Y-115227579D01*
X96823873Y-115166622D01*
X96820706Y-115165938D01*
X96173196Y-115014960D01*
X96171622Y-115014579D01*
X95930330Y-114954139D01*
X95925647Y-114952843D01*
X95080347Y-114696423D01*
X95075733Y-114694899D01*
X94841525Y-114611099D01*
X94840004Y-114610541D01*
X94217734Y-114376335D01*
X94214721Y-114375144D01*
X93926048Y-114255571D01*
X93923076Y-114254283D01*
X93317427Y-113979868D01*
X93315957Y-113979187D01*
X93091123Y-113872848D01*
X93086783Y-113870663D01*
X92307731Y-113454250D01*
X92303503Y-113451855D01*
X92090204Y-113324009D01*
X92088821Y-113323165D01*
X91524127Y-112972016D01*
X91521409Y-112970263D01*
X91261647Y-112796695D01*
X91258984Y-112794852D01*
X90718501Y-112407548D01*
X90717191Y-112406593D01*
X90689878Y-112386336D01*
X90591411Y-112313308D01*
X93334700Y-112313308D01*
X93334700Y-112445092D01*
X93364779Y-112557351D01*
X93368809Y-112572390D01*
X93434696Y-112686509D01*
X93434698Y-112686511D01*
X93434700Y-112686514D01*
X93527886Y-112779700D01*
X93527888Y-112779701D01*
X93527890Y-112779703D01*
X93642010Y-112845590D01*
X93642008Y-112845590D01*
X93642012Y-112845591D01*
X93642014Y-112845592D01*
X93769308Y-112879700D01*
X93769310Y-112879700D01*
X93901090Y-112879700D01*
X93901092Y-112879700D01*
X94028386Y-112845592D01*
X94028388Y-112845590D01*
X94028390Y-112845590D01*
X94142509Y-112779703D01*
X94142509Y-112779702D01*
X94142514Y-112779700D01*
X94235700Y-112686514D01*
X94301592Y-112572386D01*
X94335700Y-112445092D01*
X94335700Y-112313308D01*
X94301592Y-112186014D01*
X94301590Y-112186011D01*
X94301590Y-112186009D01*
X94235703Y-112071890D01*
X94235701Y-112071888D01*
X94235700Y-112071886D01*
X94142514Y-111978700D01*
X94142511Y-111978698D01*
X94142509Y-111978696D01*
X94028389Y-111912809D01*
X94028391Y-111912809D01*
X93978999Y-111899575D01*
X93901092Y-111878700D01*
X93769308Y-111878700D01*
X93691400Y-111899575D01*
X93642009Y-111912809D01*
X93527890Y-111978696D01*
X93434696Y-112071890D01*
X93368809Y-112186009D01*
X93368808Y-112186014D01*
X93334700Y-112313308D01*
X90591411Y-112313308D01*
X90517422Y-112258434D01*
X90517419Y-112258432D01*
X90517417Y-112258430D01*
X90513591Y-112255444D01*
X90176371Y-111978696D01*
X89830737Y-111695041D01*
X89827084Y-111691890D01*
X89782529Y-111651508D01*
X107352100Y-111651508D01*
X107352100Y-111783292D01*
X107377664Y-111878700D01*
X107386209Y-111910590D01*
X107452096Y-112024709D01*
X107452098Y-112024711D01*
X107452100Y-112024714D01*
X107545286Y-112117900D01*
X107545288Y-112117901D01*
X107545290Y-112117903D01*
X107659410Y-112183790D01*
X107659408Y-112183790D01*
X107659412Y-112183791D01*
X107659414Y-112183792D01*
X107786708Y-112217900D01*
X107786710Y-112217900D01*
X107918490Y-112217900D01*
X107918492Y-112217900D01*
X108045786Y-112183792D01*
X108045788Y-112183790D01*
X108045790Y-112183790D01*
X108159909Y-112117903D01*
X108159909Y-112117902D01*
X108159914Y-112117900D01*
X108253100Y-112024714D01*
X108279669Y-111978696D01*
X108318990Y-111910590D01*
X108318990Y-111910588D01*
X108318992Y-111910586D01*
X108353100Y-111783292D01*
X108353100Y-111651508D01*
X108318992Y-111524214D01*
X108318990Y-111524211D01*
X108318990Y-111524209D01*
X108253103Y-111410090D01*
X108253101Y-111410088D01*
X108253100Y-111410086D01*
X108159914Y-111316900D01*
X108159911Y-111316898D01*
X108159909Y-111316896D01*
X108045789Y-111251009D01*
X108045791Y-111251009D01*
X107996399Y-111237775D01*
X107918492Y-111216900D01*
X107786708Y-111216900D01*
X107708800Y-111237775D01*
X107659409Y-111251009D01*
X107545290Y-111316896D01*
X107452096Y-111410090D01*
X107386209Y-111524209D01*
X107386031Y-111524874D01*
X107352100Y-111651508D01*
X89782529Y-111651508D01*
X89642772Y-111524840D01*
X89641587Y-111523749D01*
X89156315Y-111069242D01*
X89153987Y-111066989D01*
X88933008Y-110846010D01*
X88930755Y-110843682D01*
X88476252Y-110358413D01*
X88475155Y-110357222D01*
X88474616Y-110356627D01*
X88308097Y-110172902D01*
X88304944Y-110169246D01*
X87744556Y-109486410D01*
X87741580Y-109482596D01*
X87593306Y-109282673D01*
X87592489Y-109281552D01*
X87252547Y-108807163D01*
X87234022Y-108748852D01*
X87253310Y-108690786D01*
X87303044Y-108655147D01*
X87333020Y-108650500D01*
X87462290Y-108650500D01*
X87672244Y-108617246D01*
X87767134Y-108586414D01*
X87828319Y-108586413D01*
X87877819Y-108622377D01*
X87896727Y-108680567D01*
X87883464Y-108730067D01*
X87858209Y-108773810D01*
X87858208Y-108773814D01*
X87824100Y-108901108D01*
X87824100Y-109032892D01*
X87854179Y-109145151D01*
X87858209Y-109160190D01*
X87924096Y-109274309D01*
X87924098Y-109274311D01*
X87924100Y-109274314D01*
X88017286Y-109367500D01*
X88017288Y-109367501D01*
X88017290Y-109367503D01*
X88131410Y-109433390D01*
X88131408Y-109433390D01*
X88131412Y-109433391D01*
X88131414Y-109433392D01*
X88258708Y-109467500D01*
X88258710Y-109467500D01*
X88390490Y-109467500D01*
X88390492Y-109467500D01*
X88517786Y-109433392D01*
X88517788Y-109433390D01*
X88517790Y-109433390D01*
X88631909Y-109367503D01*
X88631909Y-109367502D01*
X88631914Y-109367500D01*
X88725100Y-109274314D01*
X88790992Y-109160186D01*
X88825100Y-109032892D01*
X88825100Y-108901108D01*
X88790992Y-108773814D01*
X88790990Y-108773810D01*
X88790990Y-108773809D01*
X88725103Y-108659690D01*
X88725101Y-108659688D01*
X88725100Y-108659686D01*
X88631914Y-108566500D01*
X88631911Y-108566498D01*
X88631909Y-108566496D01*
X88517789Y-108500609D01*
X88517791Y-108500609D01*
X88468399Y-108487375D01*
X88390492Y-108466500D01*
X88338403Y-108466500D01*
X88280212Y-108447593D01*
X88244248Y-108398093D01*
X88244248Y-108336907D01*
X88268397Y-108297498D01*
X88386104Y-108179792D01*
X88511051Y-108007816D01*
X88607557Y-107818412D01*
X88673246Y-107616243D01*
X88673247Y-107616238D01*
X88706500Y-107406290D01*
X88706500Y-107193709D01*
X88673247Y-106983761D01*
X88673246Y-106983757D01*
X88607557Y-106781588D01*
X88511051Y-106592184D01*
X88511049Y-106592180D01*
X88386108Y-106420213D01*
X88386106Y-106420211D01*
X88386104Y-106420208D01*
X88235792Y-106269896D01*
X88235788Y-106269893D01*
X88235786Y-106269891D01*
X88063819Y-106144950D01*
X88063815Y-106144948D01*
X87874412Y-106048443D01*
X87672238Y-105982752D01*
X87594367Y-105970419D01*
X87539850Y-105942641D01*
X87512073Y-105888125D01*
X87521644Y-105827693D01*
X87560352Y-105786902D01*
X87591014Y-105769200D01*
X87684200Y-105676014D01*
X87708395Y-105634108D01*
X100399500Y-105634108D01*
X100399500Y-105765892D01*
X100418042Y-105835092D01*
X100433609Y-105893190D01*
X100499496Y-106007309D01*
X100499498Y-106007311D01*
X100499500Y-106007314D01*
X100592686Y-106100500D01*
X100592688Y-106100501D01*
X100592690Y-106100503D01*
X100706810Y-106166390D01*
X100706808Y-106166390D01*
X100706812Y-106166391D01*
X100706814Y-106166392D01*
X100834108Y-106200500D01*
X100834110Y-106200500D01*
X100965890Y-106200500D01*
X100965892Y-106200500D01*
X101093186Y-106166392D01*
X101093188Y-106166390D01*
X101093190Y-106166390D01*
X101207309Y-106100503D01*
X101207309Y-106100502D01*
X101207314Y-106100500D01*
X101300500Y-106007314D01*
X101314681Y-105982752D01*
X101366390Y-105893190D01*
X101366390Y-105893188D01*
X101366392Y-105893186D01*
X101400500Y-105765892D01*
X101400500Y-105634108D01*
X101366392Y-105506814D01*
X101366390Y-105506811D01*
X101366390Y-105506809D01*
X101300503Y-105392690D01*
X101300501Y-105392688D01*
X101300500Y-105392686D01*
X101207314Y-105299500D01*
X101207311Y-105299498D01*
X101207309Y-105299496D01*
X101093189Y-105233609D01*
X101093191Y-105233609D01*
X101043799Y-105220375D01*
X100965892Y-105199500D01*
X100834108Y-105199500D01*
X100756200Y-105220375D01*
X100706809Y-105233609D01*
X100592690Y-105299496D01*
X100499496Y-105392690D01*
X100433609Y-105506809D01*
X100414539Y-105577978D01*
X100399500Y-105634108D01*
X87708395Y-105634108D01*
X87740721Y-105578119D01*
X87748320Y-105564954D01*
X87750092Y-105561886D01*
X87784200Y-105434592D01*
X87784200Y-105302808D01*
X87750092Y-105175514D01*
X87750090Y-105175511D01*
X87750090Y-105175509D01*
X87684203Y-105061390D01*
X87684201Y-105061388D01*
X87684200Y-105061386D01*
X87591014Y-104968200D01*
X87591011Y-104968198D01*
X87591009Y-104968196D01*
X87476889Y-104902309D01*
X87476891Y-104902309D01*
X87424226Y-104888198D01*
X87349592Y-104868200D01*
X87217808Y-104868200D01*
X87143174Y-104888198D01*
X87090509Y-104902309D01*
X86976390Y-104968196D01*
X86883196Y-105061390D01*
X86817309Y-105175509D01*
X86817308Y-105175514D01*
X86783200Y-105302808D01*
X86783200Y-105434592D01*
X86791721Y-105466392D01*
X86817309Y-105561890D01*
X86883196Y-105676009D01*
X86883198Y-105676011D01*
X86883200Y-105676014D01*
X86976386Y-105769200D01*
X86976388Y-105769201D01*
X86976390Y-105769203D01*
X87043323Y-105807847D01*
X87084264Y-105853316D01*
X87090660Y-105914166D01*
X87060067Y-105967154D01*
X87024416Y-105987737D01*
X86837594Y-106048439D01*
X86837591Y-106048441D01*
X86648184Y-106144948D01*
X86648180Y-106144950D01*
X86476213Y-106269891D01*
X86325891Y-106420213D01*
X86200950Y-106592180D01*
X86200948Y-106592184D01*
X86177004Y-106639179D01*
X86133739Y-106682444D01*
X86073307Y-106692015D01*
X86018791Y-106664238D01*
X85998618Y-106635092D01*
X85745721Y-106076936D01*
X85744433Y-106073964D01*
X85708717Y-105987737D01*
X85624839Y-105785240D01*
X85623657Y-105782248D01*
X85618747Y-105769203D01*
X85389457Y-105159995D01*
X85388911Y-105158505D01*
X85368156Y-105100500D01*
X85305090Y-104924240D01*
X85303570Y-104919638D01*
X85298313Y-104902309D01*
X85186621Y-104534108D01*
X96499500Y-104534108D01*
X96499500Y-104665892D01*
X96510598Y-104707309D01*
X96533609Y-104793190D01*
X96599496Y-104907309D01*
X96599498Y-104907311D01*
X96599500Y-104907314D01*
X96692686Y-105000500D01*
X96692688Y-105000501D01*
X96692690Y-105000503D01*
X96806810Y-105066390D01*
X96806808Y-105066390D01*
X96806812Y-105066391D01*
X96806814Y-105066392D01*
X96934108Y-105100500D01*
X96934110Y-105100500D01*
X97065890Y-105100500D01*
X97065892Y-105100500D01*
X97193186Y-105066392D01*
X97193188Y-105066390D01*
X97193190Y-105066390D01*
X97307309Y-105000503D01*
X97307309Y-105000502D01*
X97307314Y-105000500D01*
X97400500Y-104907314D01*
X97423083Y-104868200D01*
X97466390Y-104793190D01*
X97466390Y-104793188D01*
X97466392Y-104793186D01*
X97500500Y-104665892D01*
X97500500Y-104534108D01*
X97466392Y-104406814D01*
X97424415Y-104334108D01*
X98199500Y-104334108D01*
X98199500Y-104465892D01*
X98211801Y-104511801D01*
X98233609Y-104593190D01*
X98299496Y-104707309D01*
X98299498Y-104707311D01*
X98299500Y-104707314D01*
X98392686Y-104800500D01*
X98392688Y-104800501D01*
X98392690Y-104800503D01*
X98506810Y-104866390D01*
X98506808Y-104866390D01*
X98506812Y-104866391D01*
X98506814Y-104866392D01*
X98634108Y-104900500D01*
X98634110Y-104900500D01*
X98700500Y-104900500D01*
X98758691Y-104919407D01*
X98794655Y-104968907D01*
X98799500Y-104999500D01*
X98799500Y-105065892D01*
X98808773Y-105100500D01*
X98833609Y-105193190D01*
X98899496Y-105307309D01*
X98899498Y-105307311D01*
X98899500Y-105307314D01*
X98992686Y-105400500D01*
X98992688Y-105400501D01*
X98992690Y-105400503D01*
X99106810Y-105466390D01*
X99106808Y-105466390D01*
X99106812Y-105466391D01*
X99106814Y-105466392D01*
X99234108Y-105500500D01*
X99234110Y-105500500D01*
X99365890Y-105500500D01*
X99365892Y-105500500D01*
X99493186Y-105466392D01*
X99493188Y-105466390D01*
X99493190Y-105466390D01*
X99607309Y-105400503D01*
X99607309Y-105400502D01*
X99607314Y-105400500D01*
X99700500Y-105307314D01*
X99703102Y-105302808D01*
X99766390Y-105193190D01*
X99766390Y-105193188D01*
X99766392Y-105193186D01*
X99800500Y-105065892D01*
X99800500Y-104934108D01*
X99766392Y-104806814D01*
X99766390Y-104806811D01*
X99766390Y-104806809D01*
X99700503Y-104692690D01*
X99700501Y-104692688D01*
X99700500Y-104692686D01*
X99607314Y-104599500D01*
X99607311Y-104599498D01*
X99607309Y-104599496D01*
X99493189Y-104533609D01*
X99493191Y-104533609D01*
X99411800Y-104511801D01*
X99365892Y-104499500D01*
X99299500Y-104499500D01*
X99241309Y-104480593D01*
X99205345Y-104431093D01*
X99200500Y-104400500D01*
X99200500Y-104334109D01*
X99189401Y-104292686D01*
X99166392Y-104206814D01*
X99166390Y-104206811D01*
X99166390Y-104206809D01*
X99100503Y-104092690D01*
X99100501Y-104092688D01*
X99100500Y-104092686D01*
X99035045Y-104027231D01*
X99007270Y-103972717D01*
X99016841Y-103912285D01*
X99055550Y-103871494D01*
X99091914Y-103850500D01*
X99185100Y-103757314D01*
X99250992Y-103643186D01*
X99285100Y-103515892D01*
X99285100Y-103384108D01*
X99250992Y-103256814D01*
X99250989Y-103256808D01*
X99237883Y-103234108D01*
X100599500Y-103234108D01*
X100599500Y-103365892D01*
X100607557Y-103395960D01*
X100633609Y-103493190D01*
X100699496Y-103607309D01*
X100699498Y-103607311D01*
X100699500Y-103607314D01*
X100792686Y-103700500D01*
X100792688Y-103700501D01*
X100792690Y-103700503D01*
X100906810Y-103766390D01*
X100906808Y-103766390D01*
X100906812Y-103766391D01*
X100906814Y-103766392D01*
X101034108Y-103800500D01*
X101034110Y-103800500D01*
X101165890Y-103800500D01*
X101165892Y-103800500D01*
X101293186Y-103766392D01*
X101293188Y-103766390D01*
X101293190Y-103766390D01*
X101407309Y-103700503D01*
X101407309Y-103700502D01*
X101407314Y-103700500D01*
X101500500Y-103607314D01*
X101566392Y-103493186D01*
X101600500Y-103365892D01*
X101600500Y-103234108D01*
X101566392Y-103106814D01*
X101566390Y-103106811D01*
X101566390Y-103106809D01*
X101500503Y-102992690D01*
X101500501Y-102992688D01*
X101500500Y-102992686D01*
X101407314Y-102899500D01*
X101407311Y-102899498D01*
X101407309Y-102899496D01*
X101293189Y-102833609D01*
X101293191Y-102833609D01*
X101243799Y-102820375D01*
X101165892Y-102799500D01*
X101034108Y-102799500D01*
X100956200Y-102820375D01*
X100906809Y-102833609D01*
X100792690Y-102899496D01*
X100699496Y-102992690D01*
X100633609Y-103106809D01*
X100633608Y-103106814D01*
X100599500Y-103234108D01*
X99237883Y-103234108D01*
X99185103Y-103142690D01*
X99185101Y-103142688D01*
X99185100Y-103142686D01*
X99091914Y-103049500D01*
X99091911Y-103049498D01*
X99091909Y-103049496D01*
X98977789Y-102983609D01*
X98977791Y-102983609D01*
X98928399Y-102970375D01*
X98850492Y-102949500D01*
X98718708Y-102949500D01*
X98640800Y-102970375D01*
X98591409Y-102983609D01*
X98477290Y-103049496D01*
X98384096Y-103142690D01*
X98318209Y-103256809D01*
X98318208Y-103256814D01*
X98284100Y-103384108D01*
X98284100Y-103515892D01*
X98314179Y-103628151D01*
X98318209Y-103643190D01*
X98384096Y-103757309D01*
X98384098Y-103757311D01*
X98384100Y-103757314D01*
X98449553Y-103822767D01*
X98477329Y-103877282D01*
X98467758Y-103937714D01*
X98429049Y-103978505D01*
X98392688Y-103999498D01*
X98299496Y-104092690D01*
X98233609Y-104206809D01*
X98233608Y-104206814D01*
X98199500Y-104334108D01*
X97424415Y-104334108D01*
X97400500Y-104292686D01*
X97307314Y-104199500D01*
X97307311Y-104199498D01*
X97307309Y-104199496D01*
X97193189Y-104133609D01*
X97193191Y-104133609D01*
X97143799Y-104120375D01*
X97065892Y-104099500D01*
X96934108Y-104099500D01*
X96856200Y-104120375D01*
X96806809Y-104133609D01*
X96692690Y-104199496D01*
X96599496Y-104292690D01*
X96533609Y-104406809D01*
X96517779Y-104465890D01*
X96499500Y-104534108D01*
X85186621Y-104534108D01*
X85047143Y-104074310D01*
X85045877Y-104069736D01*
X84985397Y-103828286D01*
X84985027Y-103826756D01*
X84984096Y-103822765D01*
X84834057Y-103179278D01*
X84833381Y-103176147D01*
X84826726Y-103142690D01*
X84772407Y-102869610D01*
X84771839Y-102866489D01*
X84663515Y-102210377D01*
X84663286Y-102208915D01*
X84657381Y-102169108D01*
X101225900Y-102169108D01*
X101225900Y-102300892D01*
X101255979Y-102413151D01*
X101260009Y-102428190D01*
X101325896Y-102542309D01*
X101325898Y-102542311D01*
X101325900Y-102542314D01*
X101419086Y-102635500D01*
X101419088Y-102635501D01*
X101419090Y-102635503D01*
X101533210Y-102701390D01*
X101533208Y-102701390D01*
X101533212Y-102701391D01*
X101533214Y-102701392D01*
X101660508Y-102735500D01*
X101660510Y-102735500D01*
X101792290Y-102735500D01*
X101792292Y-102735500D01*
X101919586Y-102701392D01*
X101919588Y-102701390D01*
X101919590Y-102701390D01*
X102033709Y-102635503D01*
X102033709Y-102635502D01*
X102033714Y-102635500D01*
X102126900Y-102542314D01*
X102192792Y-102428186D01*
X102226900Y-102300892D01*
X102226900Y-102169108D01*
X102192792Y-102041814D01*
X102192790Y-102041811D01*
X102192790Y-102041809D01*
X102126903Y-101927690D01*
X102126901Y-101927688D01*
X102126900Y-101927686D01*
X102033714Y-101834500D01*
X102033711Y-101834498D01*
X102033709Y-101834496D01*
X101919589Y-101768609D01*
X101919591Y-101768609D01*
X101870199Y-101755375D01*
X101792292Y-101734500D01*
X101660508Y-101734500D01*
X101582600Y-101755375D01*
X101533209Y-101768609D01*
X101419090Y-101834496D01*
X101325896Y-101927690D01*
X101260009Y-102041809D01*
X101260008Y-102041814D01*
X101225900Y-102169108D01*
X84657381Y-102169108D01*
X84626777Y-101962793D01*
X84626189Y-101958031D01*
X84539604Y-101078920D01*
X84539248Y-101074089D01*
X84539247Y-101074069D01*
X84527026Y-100825309D01*
X84526979Y-100824154D01*
X84505221Y-100159482D01*
X84505168Y-100156249D01*
X84505168Y-99934108D01*
X94999500Y-99934108D01*
X94999500Y-100065892D01*
X95003792Y-100081909D01*
X95033609Y-100193190D01*
X95099496Y-100307309D01*
X95099498Y-100307311D01*
X95099500Y-100307314D01*
X95165784Y-100373598D01*
X95193560Y-100428113D01*
X95183989Y-100488545D01*
X95165785Y-100513600D01*
X95131086Y-100548300D01*
X95104997Y-100574389D01*
X95104996Y-100574390D01*
X95039109Y-100688509D01*
X95039108Y-100688514D01*
X95005000Y-100815808D01*
X95005000Y-100947592D01*
X95032410Y-101049890D01*
X95039109Y-101074890D01*
X95104996Y-101189009D01*
X95104998Y-101189011D01*
X95105000Y-101189014D01*
X95198186Y-101282200D01*
X95198188Y-101282201D01*
X95198190Y-101282203D01*
X95312310Y-101348090D01*
X95312308Y-101348090D01*
X95312312Y-101348091D01*
X95312314Y-101348092D01*
X95439608Y-101382200D01*
X95439610Y-101382200D01*
X95571390Y-101382200D01*
X95571392Y-101382200D01*
X95698686Y-101348092D01*
X95698688Y-101348090D01*
X95698690Y-101348090D01*
X95812809Y-101282203D01*
X95812809Y-101282202D01*
X95812814Y-101282200D01*
X95906000Y-101189014D01*
X95971892Y-101074886D01*
X96006000Y-100947592D01*
X96006000Y-100815808D01*
X95971892Y-100688514D01*
X95971890Y-100688511D01*
X95971890Y-100688509D01*
X95906003Y-100574390D01*
X95906001Y-100574388D01*
X95906000Y-100574386D01*
X95839715Y-100508101D01*
X95811940Y-100453587D01*
X95821511Y-100393155D01*
X95839714Y-100368099D01*
X95900500Y-100307314D01*
X95966392Y-100193186D01*
X95996209Y-100081908D01*
X99647300Y-100081908D01*
X99647300Y-100213692D01*
X99672384Y-100307309D01*
X99681409Y-100340990D01*
X99747296Y-100455109D01*
X99747298Y-100455111D01*
X99747300Y-100455114D01*
X99840486Y-100548300D01*
X99840488Y-100548301D01*
X99840490Y-100548303D01*
X99954610Y-100614190D01*
X99954608Y-100614190D01*
X99954612Y-100614191D01*
X99954614Y-100614192D01*
X100081908Y-100648300D01*
X100081910Y-100648300D01*
X100213690Y-100648300D01*
X100213692Y-100648300D01*
X100340986Y-100614192D01*
X100340988Y-100614190D01*
X100340990Y-100614190D01*
X100455109Y-100548303D01*
X100455109Y-100548302D01*
X100455114Y-100548300D01*
X100548300Y-100455114D01*
X100557452Y-100439262D01*
X100614190Y-100340990D01*
X100614190Y-100340988D01*
X100614192Y-100340986D01*
X100648300Y-100213692D01*
X100648300Y-100081908D01*
X100614192Y-99954614D01*
X100614190Y-99954611D01*
X100614190Y-99954609D01*
X100548303Y-99840490D01*
X100548301Y-99840488D01*
X100548300Y-99840486D01*
X100455114Y-99747300D01*
X100455111Y-99747298D01*
X100455109Y-99747296D01*
X100340989Y-99681409D01*
X100340991Y-99681409D01*
X100291599Y-99668175D01*
X100213692Y-99647300D01*
X100081908Y-99647300D01*
X100004000Y-99668175D01*
X99954609Y-99681409D01*
X99840490Y-99747296D01*
X99747296Y-99840490D01*
X99681409Y-99954609D01*
X99681408Y-99954614D01*
X99647300Y-100081908D01*
X95996209Y-100081908D01*
X96000500Y-100065892D01*
X96000500Y-99934108D01*
X95966392Y-99806814D01*
X95966390Y-99806811D01*
X95966390Y-99806809D01*
X95900503Y-99692690D01*
X95900501Y-99692688D01*
X95900500Y-99692686D01*
X95807314Y-99599500D01*
X95807311Y-99599498D01*
X95807309Y-99599496D01*
X95693189Y-99533609D01*
X95693190Y-99533609D01*
X95565954Y-99499516D01*
X95565949Y-99499515D01*
X95565892Y-99499500D01*
X95434108Y-99499500D01*
X95356200Y-99520375D01*
X95306809Y-99533609D01*
X95192690Y-99599496D01*
X95099496Y-99692690D01*
X95033609Y-99806809D01*
X95023711Y-99843749D01*
X94999500Y-99934108D01*
X84505168Y-99934108D01*
X84505168Y-99843749D01*
X84505221Y-99840510D01*
X84510429Y-99681409D01*
X84526979Y-99175848D01*
X84527026Y-99174688D01*
X84539249Y-98925881D01*
X84539605Y-98921081D01*
X84557695Y-98737408D01*
X95161500Y-98737408D01*
X95161500Y-98869192D01*
X95176697Y-98925907D01*
X95195609Y-98996490D01*
X95261496Y-99110609D01*
X95261498Y-99110611D01*
X95261500Y-99110614D01*
X95354686Y-99203800D01*
X95354688Y-99203801D01*
X95354690Y-99203803D01*
X95468810Y-99269690D01*
X95468808Y-99269690D01*
X95468812Y-99269691D01*
X95468814Y-99269692D01*
X95596108Y-99303800D01*
X95596176Y-99303800D01*
X95727890Y-99303800D01*
X95727892Y-99303800D01*
X95855186Y-99269692D01*
X95855188Y-99269690D01*
X95855190Y-99269690D01*
X95969309Y-99203803D01*
X95969309Y-99203802D01*
X95969314Y-99203800D01*
X96062500Y-99110614D01*
X96128392Y-98996486D01*
X96162500Y-98869192D01*
X96162500Y-98737408D01*
X96128392Y-98610114D01*
X96128390Y-98610111D01*
X96128390Y-98610109D01*
X96110072Y-98578381D01*
X96110054Y-98578353D01*
X96084509Y-98534108D01*
X101199500Y-98534108D01*
X101199500Y-98665892D01*
X101218663Y-98737409D01*
X101233609Y-98793190D01*
X101299496Y-98907309D01*
X101299498Y-98907311D01*
X101299500Y-98907314D01*
X101392686Y-99000500D01*
X101392688Y-99000501D01*
X101392690Y-99000503D01*
X101506810Y-99066390D01*
X101506808Y-99066390D01*
X101506812Y-99066391D01*
X101506814Y-99066392D01*
X101634108Y-99100500D01*
X101634110Y-99100500D01*
X101765890Y-99100500D01*
X101765892Y-99100500D01*
X101893186Y-99066392D01*
X101893188Y-99066390D01*
X101893190Y-99066390D01*
X102007309Y-99000503D01*
X102007309Y-99000502D01*
X102007314Y-99000500D01*
X102100500Y-98907314D01*
X102122511Y-98869190D01*
X102166390Y-98793190D01*
X102166390Y-98793188D01*
X102166392Y-98793186D01*
X102200500Y-98665892D01*
X102200500Y-98534108D01*
X102166392Y-98406814D01*
X102166390Y-98406811D01*
X102166390Y-98406809D01*
X102100503Y-98292690D01*
X102100501Y-98292688D01*
X102100500Y-98292686D01*
X102007314Y-98199500D01*
X102007311Y-98199498D01*
X102007309Y-98199496D01*
X101915877Y-98146708D01*
X102739500Y-98146708D01*
X102739500Y-98278492D01*
X102766901Y-98380755D01*
X102773609Y-98405790D01*
X102839496Y-98519909D01*
X102839498Y-98519911D01*
X102839500Y-98519914D01*
X102932686Y-98613100D01*
X103046814Y-98678992D01*
X103046816Y-98678992D01*
X103046817Y-98678993D01*
X103052807Y-98681474D01*
X103051576Y-98684446D01*
X103091918Y-98710520D01*
X103113969Y-98767594D01*
X103102266Y-98816578D01*
X103103091Y-98816920D01*
X103100951Y-98822085D01*
X103100856Y-98822485D01*
X103100608Y-98822913D01*
X103088208Y-98869192D01*
X103066500Y-98950208D01*
X103066500Y-99081992D01*
X103091263Y-99174409D01*
X103100609Y-99209290D01*
X103166496Y-99323409D01*
X103166498Y-99323411D01*
X103166500Y-99323414D01*
X103259686Y-99416600D01*
X103348225Y-99467718D01*
X103389165Y-99513187D01*
X103395561Y-99574037D01*
X103368728Y-99623457D01*
X103299500Y-99692685D01*
X103299496Y-99692690D01*
X103233609Y-99806809D01*
X103223711Y-99843749D01*
X103199500Y-99934108D01*
X103199500Y-100065892D01*
X103203792Y-100081909D01*
X103233609Y-100193190D01*
X103299496Y-100307309D01*
X103299498Y-100307311D01*
X103299500Y-100307314D01*
X103368792Y-100376606D01*
X103396568Y-100431121D01*
X103386997Y-100491553D01*
X103348288Y-100532344D01*
X103259688Y-100583498D01*
X103166496Y-100676690D01*
X103100609Y-100790809D01*
X103091303Y-100825541D01*
X103066500Y-100918108D01*
X103066500Y-101049892D01*
X103096579Y-101162151D01*
X103100609Y-101177190D01*
X103166496Y-101291309D01*
X103166498Y-101291311D01*
X103166500Y-101291314D01*
X103259686Y-101384500D01*
X103259688Y-101384501D01*
X103259690Y-101384503D01*
X103373810Y-101450390D01*
X103373808Y-101450390D01*
X103373812Y-101450391D01*
X103373814Y-101450392D01*
X103501108Y-101484500D01*
X103501110Y-101484500D01*
X103632890Y-101484500D01*
X103632892Y-101484500D01*
X103760186Y-101450392D01*
X103760188Y-101450390D01*
X103760190Y-101450390D01*
X103874309Y-101384503D01*
X103874309Y-101384502D01*
X103874314Y-101384500D01*
X103967500Y-101291314D01*
X104033392Y-101177186D01*
X104067500Y-101049892D01*
X104067500Y-100918108D01*
X104033392Y-100790814D01*
X104033390Y-100790811D01*
X104033390Y-100790809D01*
X103967503Y-100676690D01*
X103967501Y-100676688D01*
X103967500Y-100676686D01*
X103898206Y-100607392D01*
X103870431Y-100552878D01*
X103880002Y-100492446D01*
X103918710Y-100451655D01*
X104007314Y-100400500D01*
X104100500Y-100307314D01*
X104166392Y-100193186D01*
X104200500Y-100065892D01*
X104200500Y-99934108D01*
X104166392Y-99806814D01*
X104166390Y-99806811D01*
X104166390Y-99806809D01*
X104100503Y-99692690D01*
X104100501Y-99692688D01*
X104100500Y-99692686D01*
X104007314Y-99599500D01*
X104007311Y-99599498D01*
X104007309Y-99599496D01*
X103918775Y-99548381D01*
X103877834Y-99502912D01*
X103871438Y-99442062D01*
X103898270Y-99392643D01*
X103967500Y-99323414D01*
X103978835Y-99303782D01*
X104033390Y-99209290D01*
X104033390Y-99209288D01*
X104033392Y-99209286D01*
X104067500Y-99081992D01*
X104067500Y-98950208D01*
X104033392Y-98822914D01*
X104033390Y-98822911D01*
X104033390Y-98822909D01*
X103967503Y-98708790D01*
X103967501Y-98708788D01*
X103967500Y-98708786D01*
X103874314Y-98615600D01*
X103874311Y-98615598D01*
X103874309Y-98615596D01*
X103760189Y-98549709D01*
X103754194Y-98547226D01*
X103755400Y-98544311D01*
X103714861Y-98517905D01*
X103693013Y-98460754D01*
X103704725Y-98412122D01*
X103703908Y-98411784D01*
X103706055Y-98406599D01*
X103706150Y-98406204D01*
X103706392Y-98405786D01*
X103740500Y-98278492D01*
X103740500Y-98146708D01*
X103706392Y-98019414D01*
X103706390Y-98019411D01*
X103706390Y-98019409D01*
X103640503Y-97905290D01*
X103640501Y-97905288D01*
X103640500Y-97905286D01*
X103547314Y-97812100D01*
X103547311Y-97812098D01*
X103547309Y-97812096D01*
X103433189Y-97746209D01*
X103433191Y-97746209D01*
X103383799Y-97732975D01*
X103305892Y-97712100D01*
X103174108Y-97712100D01*
X103096200Y-97732975D01*
X103046809Y-97746209D01*
X102932690Y-97812096D01*
X102839496Y-97905290D01*
X102773609Y-98019409D01*
X102773608Y-98019414D01*
X102739500Y-98146708D01*
X101915877Y-98146708D01*
X101893189Y-98133609D01*
X101893191Y-98133609D01*
X101843799Y-98120375D01*
X101765892Y-98099500D01*
X101634108Y-98099500D01*
X101556200Y-98120375D01*
X101506809Y-98133609D01*
X101392690Y-98199496D01*
X101299496Y-98292690D01*
X101233609Y-98406809D01*
X101230553Y-98418215D01*
X101199500Y-98534108D01*
X96084509Y-98534108D01*
X96062500Y-98495986D01*
X96054032Y-98487518D01*
X96047958Y-98477669D01*
X96043331Y-98458637D01*
X96034440Y-98441187D01*
X96036273Y-98429608D01*
X96033504Y-98418215D01*
X96040947Y-98400098D01*
X96044011Y-98380755D01*
X96052301Y-98372464D01*
X96056757Y-98361620D01*
X96073427Y-98351338D01*
X96087276Y-98337490D01*
X96101367Y-98334107D01*
X96108834Y-98329502D01*
X96117737Y-98330177D01*
X96119644Y-98329719D01*
X96119358Y-98327547D01*
X96125789Y-98326700D01*
X96125792Y-98326700D01*
X96253086Y-98292592D01*
X96253088Y-98292590D01*
X96253090Y-98292590D01*
X96367209Y-98226703D01*
X96367209Y-98226702D01*
X96367214Y-98226700D01*
X96460400Y-98133514D01*
X96480038Y-98099500D01*
X96526290Y-98019390D01*
X96526290Y-98019388D01*
X96526292Y-98019386D01*
X96560400Y-97892092D01*
X96560400Y-97760308D01*
X96526292Y-97633014D01*
X96526290Y-97633011D01*
X96526290Y-97633009D01*
X96460403Y-97518890D01*
X96460401Y-97518888D01*
X96460400Y-97518886D01*
X96367214Y-97425700D01*
X96367211Y-97425698D01*
X96367209Y-97425696D01*
X96253089Y-97359809D01*
X96253091Y-97359809D01*
X96203699Y-97346575D01*
X96125792Y-97325700D01*
X95994008Y-97325700D01*
X95916100Y-97346575D01*
X95866709Y-97359809D01*
X95752590Y-97425696D01*
X95659396Y-97518890D01*
X95593509Y-97633009D01*
X95593508Y-97633014D01*
X95559400Y-97760308D01*
X95559400Y-97892092D01*
X95582835Y-97979554D01*
X95593509Y-98019390D01*
X95659396Y-98133509D01*
X95659398Y-98133511D01*
X95659400Y-98133514D01*
X95659684Y-98133798D01*
X95659814Y-98134053D01*
X95663349Y-98138660D01*
X95662495Y-98139315D01*
X95687460Y-98188313D01*
X95677889Y-98248745D01*
X95634624Y-98292010D01*
X95602255Y-98299780D01*
X95602542Y-98301953D01*
X95596110Y-98302799D01*
X95468809Y-98336909D01*
X95354690Y-98402796D01*
X95261496Y-98495990D01*
X95195609Y-98610109D01*
X95195608Y-98610114D01*
X95161500Y-98737408D01*
X84557695Y-98737408D01*
X84626188Y-98041986D01*
X84626779Y-98037197D01*
X84648303Y-97892092D01*
X84663288Y-97791070D01*
X84663526Y-97789551D01*
X84771843Y-97133485D01*
X84772401Y-97130416D01*
X84833402Y-96823746D01*
X84834041Y-96820789D01*
X84863486Y-96694508D01*
X97712100Y-96694508D01*
X97712100Y-96826292D01*
X97734043Y-96908185D01*
X97746209Y-96953590D01*
X97812096Y-97067709D01*
X97812098Y-97067711D01*
X97812100Y-97067714D01*
X97905286Y-97160900D01*
X97905288Y-97160901D01*
X97905290Y-97160903D01*
X98019410Y-97226790D01*
X98019408Y-97226790D01*
X98019412Y-97226791D01*
X98019414Y-97226792D01*
X98146708Y-97260900D01*
X98146710Y-97260900D01*
X98278490Y-97260900D01*
X98278492Y-97260900D01*
X98405786Y-97226792D01*
X98405788Y-97226790D01*
X98405790Y-97226790D01*
X98519909Y-97160903D01*
X98519909Y-97160902D01*
X98519914Y-97160900D01*
X98613100Y-97067714D01*
X98678992Y-96953586D01*
X98678993Y-96953580D01*
X98681474Y-96947594D01*
X98684361Y-96948790D01*
X98710721Y-96908185D01*
X98767838Y-96886248D01*
X98816569Y-96897943D01*
X98816916Y-96897108D01*
X98822189Y-96899292D01*
X98822539Y-96899376D01*
X98822910Y-96899590D01*
X98822911Y-96899590D01*
X98822914Y-96899592D01*
X98950208Y-96933700D01*
X98950210Y-96933700D01*
X99081990Y-96933700D01*
X99081992Y-96933700D01*
X99209286Y-96899592D01*
X99209288Y-96899590D01*
X99209290Y-96899590D01*
X99323409Y-96833703D01*
X99323409Y-96833702D01*
X99323414Y-96833700D01*
X99416600Y-96740514D01*
X99467791Y-96651847D01*
X99513259Y-96610907D01*
X99574109Y-96604511D01*
X99623528Y-96631342D01*
X99692686Y-96700500D01*
X99692688Y-96700501D01*
X99692690Y-96700503D01*
X99806810Y-96766390D01*
X99806808Y-96766390D01*
X99806812Y-96766391D01*
X99806814Y-96766392D01*
X99934108Y-96800500D01*
X99934110Y-96800500D01*
X100065890Y-96800500D01*
X100065892Y-96800500D01*
X100193186Y-96766392D01*
X100193188Y-96766390D01*
X100193190Y-96766390D01*
X100307309Y-96700503D01*
X100307309Y-96700502D01*
X100307314Y-96700500D01*
X100376533Y-96631280D01*
X100431047Y-96603504D01*
X100491479Y-96613075D01*
X100532271Y-96651785D01*
X100583496Y-96740509D01*
X100583498Y-96740511D01*
X100583500Y-96740514D01*
X100676686Y-96833700D01*
X100676688Y-96833701D01*
X100676690Y-96833703D01*
X100790810Y-96899590D01*
X100790808Y-96899590D01*
X100790812Y-96899591D01*
X100790814Y-96899592D01*
X100918108Y-96933700D01*
X100918110Y-96933700D01*
X101049890Y-96933700D01*
X101049892Y-96933700D01*
X101177186Y-96899592D01*
X101177188Y-96899590D01*
X101177191Y-96899590D01*
X101183184Y-96897108D01*
X101183653Y-96898240D01*
X101236967Y-96886902D01*
X101292865Y-96911783D01*
X101315632Y-96948626D01*
X101318126Y-96947594D01*
X101320609Y-96953589D01*
X101386496Y-97067709D01*
X101386498Y-97067711D01*
X101386500Y-97067714D01*
X101479686Y-97160900D01*
X101479688Y-97160901D01*
X101479690Y-97160903D01*
X101593810Y-97226790D01*
X101593808Y-97226790D01*
X101593812Y-97226791D01*
X101593814Y-97226792D01*
X101721108Y-97260900D01*
X101721110Y-97260900D01*
X101852890Y-97260900D01*
X101852892Y-97260900D01*
X101980186Y-97226792D01*
X101980188Y-97226790D01*
X101980190Y-97226790D01*
X102094309Y-97160903D01*
X102094309Y-97160902D01*
X102094314Y-97160900D01*
X102187500Y-97067714D01*
X102253392Y-96953586D01*
X102287500Y-96826292D01*
X102287500Y-96694508D01*
X102253392Y-96567214D01*
X102253390Y-96567211D01*
X102253390Y-96567209D01*
X102187503Y-96453090D01*
X102187501Y-96453088D01*
X102187500Y-96453086D01*
X102094314Y-96359900D01*
X102094311Y-96359898D01*
X102094309Y-96359896D01*
X101980189Y-96294009D01*
X101980191Y-96294009D01*
X101930799Y-96280775D01*
X101852892Y-96259900D01*
X101721108Y-96259900D01*
X101593814Y-96294008D01*
X101593813Y-96294008D01*
X101593811Y-96294009D01*
X101587820Y-96296491D01*
X101587352Y-96295362D01*
X101534017Y-96306696D01*
X101478122Y-96281807D01*
X101455527Y-96244906D01*
X101452874Y-96246006D01*
X101450390Y-96240010D01*
X101384503Y-96125890D01*
X101384501Y-96125888D01*
X101384500Y-96125886D01*
X101291314Y-96032700D01*
X101291311Y-96032698D01*
X101291309Y-96032696D01*
X101177189Y-95966809D01*
X101177191Y-95966809D01*
X101127799Y-95953575D01*
X101049892Y-95932700D01*
X100918108Y-95932700D01*
X100840200Y-95953575D01*
X100790809Y-95966809D01*
X100676690Y-96032696D01*
X100676685Y-96032700D01*
X100607467Y-96101918D01*
X100552950Y-96129695D01*
X100492518Y-96120123D01*
X100451728Y-96081414D01*
X100400503Y-95992690D01*
X100400501Y-95992688D01*
X100400500Y-95992686D01*
X100307314Y-95899500D01*
X100307311Y-95899498D01*
X100307309Y-95899496D01*
X100193189Y-95833609D01*
X100193191Y-95833609D01*
X100143799Y-95820375D01*
X100065892Y-95799500D01*
X99934108Y-95799500D01*
X99856200Y-95820375D01*
X99806809Y-95833609D01*
X99692690Y-95899496D01*
X99599496Y-95992690D01*
X99548308Y-96081351D01*
X99502839Y-96122292D01*
X99441988Y-96128688D01*
X99392570Y-96101856D01*
X99323414Y-96032700D01*
X99323411Y-96032698D01*
X99323409Y-96032696D01*
X99209289Y-95966809D01*
X99209291Y-95966809D01*
X99159899Y-95953575D01*
X99081992Y-95932700D01*
X98950208Y-95932700D01*
X98872300Y-95953575D01*
X98822909Y-95966809D01*
X98708790Y-96032696D01*
X98615596Y-96125890D01*
X98549709Y-96240010D01*
X98547226Y-96246006D01*
X98544392Y-96244832D01*
X98517729Y-96285616D01*
X98460541Y-96307368D01*
X98412125Y-96295666D01*
X98411784Y-96296492D01*
X98406521Y-96294312D01*
X98406164Y-96294226D01*
X98405788Y-96294009D01*
X98405787Y-96294008D01*
X98405786Y-96294008D01*
X98278492Y-96259900D01*
X98146708Y-96259900D01*
X98068800Y-96280775D01*
X98019409Y-96294009D01*
X97905290Y-96359896D01*
X97812096Y-96453090D01*
X97746209Y-96567209D01*
X97733920Y-96613075D01*
X97712100Y-96694508D01*
X84863486Y-96694508D01*
X84985057Y-96173115D01*
X84985374Y-96171803D01*
X85045879Y-95930254D01*
X85047143Y-95925686D01*
X85303578Y-95080334D01*
X85305081Y-95075784D01*
X85388983Y-94841293D01*
X85389415Y-94840116D01*
X85623694Y-94217651D01*
X85624798Y-94214859D01*
X85744480Y-93925920D01*
X85745682Y-93923148D01*
X86020198Y-93317279D01*
X86020688Y-93316220D01*
X86127187Y-93091048D01*
X86129312Y-93086825D01*
X86545758Y-92307711D01*
X86548113Y-92303553D01*
X86676128Y-92089973D01*
X86676758Y-92088941D01*
X87028009Y-91524084D01*
X87029652Y-91521536D01*
X87203397Y-91261508D01*
X87205106Y-91259039D01*
X87592457Y-90718491D01*
X87593280Y-90717361D01*
X87741632Y-90517332D01*
X87744523Y-90513628D01*
X88304989Y-89830698D01*
X88308053Y-89827145D01*
X88475322Y-89642593D01*
X88476164Y-89641678D01*
X88930801Y-89156267D01*
X88932933Y-89154064D01*
X89154064Y-88932933D01*
X89156267Y-88930801D01*
X89641678Y-88476164D01*
X89642593Y-88475322D01*
X89827145Y-88308053D01*
X89830698Y-88304989D01*
X90513628Y-87744523D01*
X90517332Y-87741632D01*
X90717356Y-87593284D01*
X90718514Y-87592441D01*
X91259039Y-87205106D01*
X91261508Y-87203397D01*
X91521536Y-87029652D01*
X91524084Y-87028009D01*
X92088941Y-86676758D01*
X92089973Y-86676128D01*
X92303553Y-86548113D01*
X92307711Y-86545758D01*
X93086825Y-86129312D01*
X93091048Y-86127187D01*
X93316220Y-86020688D01*
X93317279Y-86020198D01*
X93923148Y-85745682D01*
X93925920Y-85744480D01*
X94214859Y-85624798D01*
X94217651Y-85623694D01*
X94840116Y-85389415D01*
X94841293Y-85388983D01*
X95075784Y-85305081D01*
X95080334Y-85303578D01*
X95925686Y-85047143D01*
X95930254Y-85045879D01*
X96171803Y-84985374D01*
X96173115Y-84985057D01*
X96820789Y-84834041D01*
X96823746Y-84833402D01*
X97130416Y-84772401D01*
X97133485Y-84771843D01*
X97789624Y-84663514D01*
X97791069Y-84663288D01*
X97886114Y-84649189D01*
X98037198Y-84626779D01*
X98041991Y-84626187D01*
X98742730Y-84557170D01*
X98802491Y-84570282D01*
X98843134Y-84616019D01*
X98849131Y-84676910D01*
X98840641Y-84700638D01*
X98748443Y-84881587D01*
X98682752Y-85083761D01*
X98649500Y-85293709D01*
X98649500Y-85506290D01*
X98682752Y-85716238D01*
X98748443Y-85918412D01*
X98844948Y-86107815D01*
X98844950Y-86107819D01*
X98969891Y-86279786D01*
X98969893Y-86279788D01*
X98969896Y-86279792D01*
X99120208Y-86430104D01*
X99120211Y-86430106D01*
X99120213Y-86430108D01*
X99292180Y-86555049D01*
X99292184Y-86555051D01*
X99481588Y-86651557D01*
X99683757Y-86717246D01*
X99683758Y-86717246D01*
X99683761Y-86717247D01*
X99893710Y-86750500D01*
X99893713Y-86750500D01*
X100106290Y-86750500D01*
X100316238Y-86717247D01*
X100316239Y-86717246D01*
X100316243Y-86717246D01*
X100518412Y-86651557D01*
X100707816Y-86555051D01*
X100879792Y-86430104D01*
X101030104Y-86279792D01*
X101155051Y-86107816D01*
X101251557Y-85918412D01*
X101317246Y-85716243D01*
X101317247Y-85716238D01*
X101350500Y-85506290D01*
X101350500Y-85293709D01*
X101317247Y-85083761D01*
X101305349Y-85047143D01*
X101251557Y-84881588D01*
X101159357Y-84700636D01*
X101149787Y-84640206D01*
X101177564Y-84585690D01*
X101232081Y-84557912D01*
X101257263Y-84557170D01*
X101958031Y-84626189D01*
G37*
%TD.AperFunction*%
%TD*%
M02*
