%TF.GenerationSoftware,KiCad,Pcbnew,9.0.9-9.0.9~ubuntu24.04.1*%
%TF.CreationDate,2026-10-04T10:41:59+00:00*%
%TF.ProjectId,klickrad,6b6c6963-6b72-4616-942e-6b696361645f,rev?*%
%TF.SameCoordinates,Original*%
%TF.FileFunction,Copper,L4,Bot*%
%TF.FilePolarity,Positive*%
%FSLAX46Y46*%
G04 Gerber Fmt 4.6, Leading zero omitted, Abs format (unit mm)*
G04 Created by KiCad (PCBNEW 9.0.9-9.0.9~ubuntu24.04.1) date 2026-10-04 10:41:59*
%MOMM*%
%LPD*%
G01*
G04 APERTURE LIST*
G04 Aperture macros list*
%AMRoundRect*
0 Rectangle with rounded corners*
0 $1 Rounding radius*
0 $2 $3 $4 $5 $6 $7 $8 $9 X,Y pos of 4 corners*
0 Add a 4 corners polygon primitive as box body*
4,1,4,$2,$3,$4,$5,$6,$7,$8,$9,$2,$3,0*
0 Add four circle primitives for the rounded corners*
1,1,$1+$1,$2,$3*
1,1,$1+$1,$4,$5*
1,1,$1+$1,$6,$7*
1,1,$1+$1,$8,$9*
0 Add four rect primitives between the rounded corners*
20,1,$1+$1,$2,$3,$4,$5,0*
20,1,$1+$1,$4,$5,$6,$7,0*
20,1,$1+$1,$6,$7,$8,$9,0*
20,1,$1+$1,$8,$9,$2,$3,0*%
G04 Aperture macros list end*
%TA.AperFunction,SMDPad,CuDef*%
%ADD10RoundRect,0.225000X-0.250000X0.225000X-0.250000X-0.225000X0.250000X-0.225000X0.250000X0.225000X0*%
%TD*%
%TA.AperFunction,SMDPad,CuDef*%
%ADD11RoundRect,0.140000X0.140000X0.170000X-0.140000X0.170000X-0.140000X-0.170000X0.140000X-0.170000X0*%
%TD*%
%TA.AperFunction,SMDPad,CuDef*%
%ADD12RoundRect,0.135000X0.135000X0.185000X-0.135000X0.185000X-0.135000X-0.185000X0.135000X-0.185000X0*%
%TD*%
%TA.AperFunction,SMDPad,CuDef*%
%ADD13RoundRect,0.250000X-0.750000X0.250000X-0.750000X-0.250000X0.750000X-0.250000X0.750000X0.250000X0*%
%TD*%
%TA.AperFunction,SMDPad,CuDef*%
%ADD14RoundRect,0.150000X0.150000X0.625000X-0.150000X0.625000X-0.150000X-0.625000X0.150000X-0.625000X0*%
%TD*%
%TA.AperFunction,SMDPad,CuDef*%
%ADD15RoundRect,0.250000X0.350000X0.650000X-0.350000X0.650000X-0.350000X-0.650000X0.350000X-0.650000X0*%
%TD*%
%TA.AperFunction,SMDPad,CuDef*%
%ADD16RoundRect,0.050000X0.050000X-0.375000X0.050000X0.375000X-0.050000X0.375000X-0.050000X-0.375000X0*%
%TD*%
%TA.AperFunction,SMDPad,CuDef*%
%ADD17RoundRect,0.050000X0.375000X-0.050000X0.375000X0.050000X-0.375000X0.050000X-0.375000X-0.050000X0*%
%TD*%
%TA.AperFunction,SMDPad,CuDef*%
%ADD18RoundRect,0.140000X-0.170000X0.140000X-0.170000X-0.140000X0.170000X-0.140000X0.170000X0.140000X0*%
%TD*%
%TA.AperFunction,SMDPad,CuDef*%
%ADD19RoundRect,0.087500X0.725000X0.087500X-0.725000X0.087500X-0.725000X-0.087500X0.725000X-0.087500X0*%
%TD*%
%TA.AperFunction,ViaPad*%
%ADD20C,0.600000*%
%TD*%
%TA.AperFunction,Conductor*%
%ADD21C,0.150000*%
%TD*%
%TA.AperFunction,Conductor*%
%ADD22C,0.200000*%
%TD*%
G04 APERTURE END LIST*
D10*
%TO.P,C6,1*%
%TO.N,3V3*%
X90000000Y-103125000D03*
%TO.P,C6,2*%
%TO.N,GND*%
X90000000Y-104675000D03*
%TD*%
D11*
%TO.P,C3,1*%
%TO.N,3V3*%
X103480000Y-103200000D03*
%TO.P,C3,2*%
%TO.N,GND*%
X102520000Y-103200000D03*
%TD*%
D12*
%TO.P,R1,1*%
%TO.N,REXT*%
X97260000Y-100750000D03*
%TO.P,R1,2*%
%TO.N,GND*%
X96240000Y-100750000D03*
%TD*%
D13*
%TO.P,TP2,1*%
%TO.N,LRA_N*%
X87700000Y-100400000D03*
%TD*%
D14*
%TO.P,J1,1*%
%TO.N,3V3*%
X102500000Y-109400000D03*
%TO.P,J1,2*%
%TO.N,GND*%
X101500000Y-109400000D03*
%TO.P,J1,3*%
%TO.N,SDA*%
X100500000Y-109400000D03*
%TO.P,J1,4*%
%TO.N,SCL*%
X99500000Y-109400000D03*
%TO.P,J1,5*%
%TO.N,INT*%
X98500000Y-109400000D03*
%TO.P,J1,6*%
%TO.N,BTN*%
X97500000Y-109400000D03*
D15*
%TO.P,J1,MP*%
%TO.N,N/C*%
X103800000Y-113275000D03*
X96200000Y-113275000D03*
%TD*%
D11*
%TO.P,C1,1*%
%TO.N,3V3*%
X103480000Y-101800000D03*
%TO.P,C1,2*%
%TO.N,GND*%
X102520000Y-101800000D03*
%TD*%
%TO.P,C5,1*%
%TO.N,REG*%
X93280000Y-106600000D03*
%TO.P,C5,2*%
%TO.N,GND*%
X92320000Y-106600000D03*
%TD*%
D16*
%TO.P,U1,1*%
%TO.N,INT*%
X100800000Y-101450000D03*
%TO.P,U1,2*%
%TO.N,SCL*%
X100400000Y-101450000D03*
%TO.P,U1,3*%
%TO.N,SDA*%
X100000000Y-101450000D03*
%TO.P,U1,4*%
%TO.N,3V3*%
X99600000Y-101450000D03*
%TO.P,U1,5*%
%TO.N,VREG*%
X99200000Y-101450000D03*
D17*
%TO.P,U1,6*%
%TO.N,GND*%
X98550000Y-100800000D03*
%TO.P,U1,7*%
%TO.N,REXT*%
X98550000Y-100400000D03*
%TO.P,U1,8*%
%TO.N,ELE0*%
X98550000Y-100000000D03*
%TO.P,U1,9*%
%TO.N,ELE1*%
X98550000Y-99600000D03*
%TO.P,U1,10*%
%TO.N,ELE2*%
X98550000Y-99200000D03*
D16*
%TO.P,U1,11*%
%TO.N,ELE3*%
X99200000Y-98550000D03*
%TO.P,U1,12*%
%TO.N,ELE4*%
X99600000Y-98550000D03*
%TO.P,U1,13*%
%TO.N,ELE5*%
X100000000Y-98550000D03*
%TO.P,U1,14*%
%TO.N,ELE6*%
X100400000Y-98550000D03*
%TO.P,U1,15*%
%TO.N,ELE7*%
X100800000Y-98550000D03*
D17*
%TO.P,U1,16*%
%TO.N,ELE8*%
X101450000Y-99200000D03*
%TO.P,U1,17*%
%TO.N,ELE9*%
X101450000Y-99600000D03*
%TO.P,U1,18*%
%TO.N,ELE10*%
X101450000Y-100000000D03*
%TO.P,U1,19*%
%TO.N,ELE11*%
X101450000Y-100400000D03*
%TO.P,U1,20*%
%TO.N,3V3*%
X101450000Y-100800000D03*
%TD*%
D18*
%TO.P,C2,1*%
%TO.N,VREG*%
X98000000Y-102720000D03*
%TO.P,C2,2*%
%TO.N,GND*%
X98000000Y-103680000D03*
%TD*%
%TO.P,C4,1*%
%TO.N,3V3*%
X89800000Y-105820000D03*
%TO.P,C4,2*%
%TO.N,GND*%
X89800000Y-106780000D03*
%TD*%
D19*
%TO.P,U2,1*%
%TO.N,REG*%
X94012500Y-107500000D03*
%TO.P,U2,2*%
%TO.N,SCL*%
X94012500Y-108000000D03*
%TO.P,U2,3*%
%TO.N,SDA*%
X94012500Y-108500000D03*
%TO.P,U2,4*%
%TO.N,GND*%
X94012500Y-109000000D03*
%TO.P,U2,5*%
%TO.N,3V3*%
X94012500Y-109500000D03*
%TO.P,U2,6*%
X89787500Y-109500000D03*
%TO.P,U2,7*%
%TO.N,LRA_P*%
X89787500Y-109000000D03*
%TO.P,U2,8*%
%TO.N,GND*%
X89787500Y-108500000D03*
%TO.P,U2,9*%
%TO.N,LRA_N*%
X89787500Y-108000000D03*
%TO.P,U2,10*%
%TO.N,3V3*%
X89787500Y-107500000D03*
%TD*%
D12*
%TO.P,R2,1*%
%TO.N,3V3*%
X102010000Y-107000000D03*
%TO.P,R2,2*%
%TO.N,SDA*%
X100990000Y-107000000D03*
%TD*%
D13*
%TO.P,TP1,1*%
%TO.N,LRA_P*%
X87700000Y-103000000D03*
%TD*%
D12*
%TO.P,R3,1*%
%TO.N,3V3*%
X101710000Y-104600000D03*
%TO.P,R3,2*%
%TO.N,SCL*%
X100690000Y-104600000D03*
%TD*%
D20*
%TO.N,ELE8*%
X103240000Y-98212600D03*
%TO.N,ELE7*%
X101787000Y-96760400D03*
%TO.N,ELE6*%
X100984000Y-96433200D03*
%TO.N,ELE5*%
X100000000Y-96300000D03*
%TO.N,ELE4*%
X99016100Y-96433200D03*
%TO.N,ELE3*%
X98212600Y-96760400D03*
%TO.N,ELE2*%
X96059900Y-97826200D03*
%TO.N,ELE1*%
X95662000Y-98803300D03*
%TO.N,ELE0*%
X95500000Y-100000000D03*
%TO.N,ELE11*%
X103567000Y-100984000D03*
%TO.N,ELE10*%
X103700000Y-100000000D03*
%TO.N,ELE9*%
X103567000Y-99016100D03*
%TO.N,INT*%
X101100000Y-103300000D03*
X98700000Y-104400000D03*
%TO.N,SDA*%
X100900000Y-105700000D03*
X99300000Y-105000000D03*
%TO.N,3V3*%
X99000000Y-102500000D03*
X90155700Y-110812200D03*
X104045500Y-102530800D03*
X86744100Y-104646600D03*
X102743800Y-105057900D03*
%TO.N,GND*%
X95505500Y-100881700D03*
X93835200Y-112379200D03*
X101700000Y-98600000D03*
X100147800Y-100147800D03*
X101726400Y-102235000D03*
X88324600Y-108967000D03*
X107852600Y-111717400D03*
X98784600Y-103450000D03*
X87283700Y-105368700D03*
%TO.N,BTN*%
X97000000Y-104600000D03*
%TD*%
D21*
%TO.N,ELE8*%
X101450000Y-99200000D02*
X102200000Y-99200000D01*
X102200000Y-99200000D02*
X103240000Y-98212600D01*
%TO.N,ELE7*%
X100800000Y-98550000D02*
X100800000Y-97800000D01*
X100800000Y-97800000D02*
X101787000Y-96760400D01*
%TO.N,ELE6*%
X100400000Y-98550000D02*
X100400000Y-97800000D01*
X100400000Y-97800000D02*
X100984000Y-96433200D01*
%TO.N,ELE5*%
X100000000Y-98550000D02*
X100000000Y-96300000D01*
%TO.N,ELE4*%
X99600000Y-98550000D02*
X99600000Y-97800000D01*
X99600000Y-97800000D02*
X99016100Y-96433200D01*
%TO.N,ELE3*%
X99200000Y-98550000D02*
X99200000Y-97800000D01*
X99200000Y-97800000D02*
X98212600Y-96760400D01*
%TO.N,ELE2*%
X98550000Y-99200000D02*
X97800000Y-99200000D01*
X97800000Y-99200000D02*
X96059900Y-97826200D01*
%TO.N,ELE1*%
X98550000Y-99600000D02*
X97800000Y-99600000D01*
X97800000Y-99600000D02*
X95662000Y-98803300D01*
%TO.N,ELE0*%
X98550000Y-100000000D02*
X95500000Y-100000000D01*
%TO.N,ELE11*%
X102200000Y-100400000D02*
X103567000Y-100984000D01*
X101450000Y-100400000D02*
X102200000Y-100400000D01*
%TO.N,ELE10*%
X101450000Y-100000000D02*
X103700000Y-100000000D01*
%TO.N,ELE9*%
X102200000Y-99600000D02*
X103567000Y-99016100D01*
X101450000Y-99600000D02*
X102200000Y-99600000D01*
%TO.N,INT*%
X100800000Y-101450000D02*
X100800000Y-102000000D01*
X98700000Y-108000000D02*
X98500000Y-109400000D01*
X98700000Y-104400000D02*
X98700000Y-108000000D01*
X100800000Y-102000000D02*
X101100000Y-103300000D01*
%TO.N,SCL*%
X99500000Y-110900000D02*
X96500000Y-110900000D01*
X100112000Y-104600000D02*
X99500000Y-108000000D01*
X99500000Y-109400000D02*
X99500000Y-110900000D01*
X100400000Y-103000000D02*
X100112000Y-104600000D01*
X96500000Y-108000000D02*
X94012500Y-108000000D01*
X100112000Y-104600000D02*
X100690000Y-104600000D01*
X100400000Y-101450000D02*
X100400000Y-103000000D01*
X96500000Y-110900000D02*
X96500000Y-108000000D01*
X99500000Y-108000000D02*
X99500000Y-109400000D01*
%TO.N,SDA*%
X100767000Y-107000000D02*
X100990000Y-107000000D01*
X100000000Y-101450000D02*
X100000000Y-103000000D01*
X96100000Y-108500000D02*
X94012500Y-108500000D01*
X100900000Y-106500000D02*
X100767000Y-107000000D01*
X96100000Y-111400000D02*
X96100000Y-108500000D01*
X100767000Y-107000000D02*
X100500000Y-108000000D01*
X99300000Y-103700000D02*
X99300000Y-105000000D01*
X100500000Y-111400000D02*
X96100000Y-111400000D01*
X100500000Y-109400000D02*
X100500000Y-111400000D01*
X100000000Y-103000000D02*
X99300000Y-103700000D01*
X100900000Y-105700000D02*
X100900000Y-106500000D01*
X100500000Y-108000000D02*
X100500000Y-109400000D01*
D22*
%TO.N,3V3*%
X103480000Y-101800000D02*
X102685900Y-101005900D01*
X101655900Y-101005900D02*
X101450000Y-100800000D01*
X90764500Y-105113400D02*
X90057900Y-105820000D01*
X102010000Y-105791700D02*
X102010000Y-107000000D01*
X90155700Y-110812200D02*
X90155700Y-109684100D01*
X89929200Y-103436700D02*
X90120500Y-103245400D01*
X90155700Y-109684100D02*
X93828400Y-109684100D01*
X90379900Y-106399900D02*
X90379900Y-107129800D01*
X89929200Y-103436700D02*
X90764500Y-104272000D01*
X102685900Y-101005900D02*
X101655900Y-101005900D01*
D21*
X99600000Y-101900000D02*
X99000000Y-102500000D01*
X99600000Y-101450000D02*
X99600000Y-101900000D01*
D22*
X90000000Y-103125000D02*
X90120500Y-103245400D01*
X93828400Y-109684100D02*
X94012500Y-109500000D01*
X102743800Y-105057900D02*
X102010000Y-105791700D01*
X89787500Y-109500000D02*
X89971600Y-109684100D01*
X89800000Y-105820000D02*
X90379900Y-106399900D01*
X102743800Y-105057900D02*
X102167900Y-105057900D01*
X104045500Y-102530800D02*
X103480000Y-101965300D01*
X104045500Y-102530800D02*
X103480000Y-103096300D01*
X89971600Y-109684100D02*
X90155700Y-109684100D01*
X86744100Y-104646600D02*
X88719300Y-104646600D01*
X102500000Y-107490000D02*
X102500000Y-109400000D01*
X102167900Y-105057900D02*
X101710000Y-104600000D01*
X88719300Y-104646600D02*
X89929200Y-103436700D01*
X90379900Y-107129800D02*
X90009700Y-107500000D01*
X90057900Y-105820000D02*
X89800000Y-105820000D01*
X103480000Y-103096300D02*
X103480000Y-103200000D01*
X90009700Y-107500000D02*
X89787500Y-107500000D01*
X103480000Y-101965300D02*
X103480000Y-101800000D01*
X90764500Y-104272000D02*
X90764500Y-105113400D01*
X102010000Y-107000000D02*
X102500000Y-107490000D01*
D21*
%TO.N,VREG*%
X98000000Y-101700000D02*
X98000000Y-102720000D01*
X99200000Y-101450000D02*
X99200000Y-101700000D01*
X99200000Y-101700000D02*
X98000000Y-101700000D01*
D22*
%TO.N,GND*%
X89215200Y-106195200D02*
X89800000Y-106780000D01*
X100147800Y-100147800D02*
X99533100Y-100762500D01*
X101726400Y-102235000D02*
X102085000Y-102235000D01*
X92320000Y-108176000D02*
X92320000Y-106600000D01*
X93835200Y-112379200D02*
X95154800Y-111059600D01*
X98587500Y-100762500D02*
X98550000Y-100800000D01*
X94012500Y-109000000D02*
X93144000Y-109000000D01*
X95154800Y-111059600D02*
X95154800Y-109319800D01*
X98784600Y-103450000D02*
X98230000Y-103450000D01*
X87673500Y-105370200D02*
X88109000Y-105370200D01*
X102085000Y-102235000D02*
X102520000Y-101800000D01*
X107852600Y-111717400D02*
X103398100Y-111717400D01*
X88109000Y-105370200D02*
X88110500Y-105368700D01*
X94835000Y-109000000D02*
X94012500Y-109000000D01*
X96108300Y-100881700D02*
X96240000Y-100750000D01*
X99533100Y-100762500D02*
X98587500Y-100762500D01*
X89124100Y-105368700D02*
X89215200Y-105459800D01*
X88324600Y-108967000D02*
X88791600Y-108500000D01*
X88791600Y-108500000D02*
X89787500Y-108500000D01*
X101500000Y-109819300D02*
X101500000Y-109400000D01*
X98230000Y-103450000D02*
X98000000Y-103680000D01*
X95154800Y-109319800D02*
X94835000Y-109000000D01*
X102520000Y-101800000D02*
X102520000Y-103200000D01*
X95505500Y-100881700D02*
X96108300Y-100881700D01*
X103398100Y-111717400D02*
X101500000Y-109819300D01*
X93144000Y-109000000D02*
X92320000Y-108176000D01*
X88110500Y-105368700D02*
X89124100Y-105368700D01*
X90000000Y-104675000D02*
X89215200Y-105459800D01*
X89215200Y-105459800D02*
X89215200Y-106195200D01*
X87672000Y-105368700D02*
X87673500Y-105370200D01*
X87283700Y-105368700D02*
X87672000Y-105368700D01*
D21*
%TO.N,REXT*%
X97260000Y-100400000D02*
X97260000Y-100750000D01*
X98550000Y-100400000D02*
X97260000Y-100400000D01*
D22*
%TO.N,REG*%
X93280000Y-106767500D02*
X93280000Y-106600000D01*
X94012500Y-107500000D02*
X93280000Y-106767500D01*
%TO.N,LRA_P*%
X88644400Y-102055600D02*
X87700000Y-103000000D01*
X90619900Y-109000000D02*
X91516100Y-108103800D01*
X90605800Y-102055600D02*
X88644400Y-102055600D01*
X91516100Y-102965900D02*
X90605800Y-102055600D01*
X91516100Y-108103800D02*
X91516100Y-102965900D01*
X89787500Y-109000000D02*
X90619900Y-109000000D01*
%TO.N,LRA_N*%
X88703600Y-103783000D02*
X86715000Y-103783000D01*
X86445200Y-101654800D02*
X87700000Y-100400000D01*
X89787500Y-108000000D02*
X90620700Y-108000000D01*
X86715000Y-103783000D02*
X86445200Y-103513200D01*
X91164400Y-103111500D02*
X90460200Y-102407300D01*
X90460200Y-102407300D02*
X89525100Y-102407300D01*
X91164400Y-107456300D02*
X91164400Y-103111500D01*
X89525100Y-102407300D02*
X89080600Y-102851800D01*
X89080600Y-102851800D02*
X89080600Y-103406000D01*
X86445200Y-103513200D02*
X86445200Y-101654800D01*
X90620700Y-108000000D02*
X91164400Y-107456300D01*
X89080600Y-103406000D02*
X88703600Y-103783000D01*
D21*
%TO.N,BTN*%
X97000000Y-108000000D02*
X97500000Y-109400000D01*
X97000000Y-104600000D02*
X97000000Y-108000000D01*
%TD*%
M02*
