%TF.GenerationSoftware,KiCad,Pcbnew,9.0.9-9.0.9~ubuntu24.04.1*%
%TF.CreationDate,2026-10-04T19:23:48+00:00*%
%TF.ProjectId,klickrad,6b6c6963-6b72-4616-942e-6b696361645f,rev?*%
%TF.SameCoordinates,Original*%
%TF.FileFunction,Legend,Bot*%
%TF.FilePolarity,Positive*%
%FSLAX46Y46*%
G04 Gerber Fmt 4.6, Leading zero omitted, Abs format (unit mm)*
G04 Created by KiCad (PCBNEW 9.0.9-9.0.9~ubuntu24.04.1) date 2026-10-04 19:23:48*
%MOMM*%
%LPD*%
G01*
G04 APERTURE LIST*
%ADD10C,0.150000*%
%ADD11C,0.166666*%
%ADD12C,0.120000*%
G04 APERTURE END LIST*
D10*
X-8000000Y9000000D02*
X-8000000Y3000000D01*
X-8000000Y3000000D02*
X8000000Y3000000D01*
X8000000Y9000000D02*
X-8000000Y9000000D01*
X8000000Y3000000D02*
X8000000Y9000000D01*
X1257142Y14437705D02*
X1104761Y14437705D01*
X1104761Y14437705D02*
X1028571Y14399610D01*
X1028571Y14399610D02*
X952380Y14323420D01*
X952380Y14323420D02*
X914285Y14171039D01*
X914285Y14171039D02*
X914285Y13904372D01*
X914285Y13904372D02*
X952380Y13751991D01*
X952380Y13751991D02*
X1028571Y13675800D01*
X1028571Y13675800D02*
X1104761Y13637705D01*
X1104761Y13637705D02*
X1257142Y13637705D01*
X1257142Y13637705D02*
X1333333Y13675800D01*
X1333333Y13675800D02*
X1409523Y13751991D01*
X1409523Y13751991D02*
X1447619Y13904372D01*
X1447619Y13904372D02*
X1447619Y14171039D01*
X1447619Y14171039D02*
X1409523Y14323420D01*
X1409523Y14323420D02*
X1333333Y14399610D01*
X1333333Y14399610D02*
X1257142Y14437705D01*
X304762Y14056753D02*
X190476Y14018658D01*
X190476Y14018658D02*
X152381Y13980562D01*
X152381Y13980562D02*
X114285Y13904372D01*
X114285Y13904372D02*
X114285Y13790086D01*
X114285Y13790086D02*
X152381Y13713896D01*
X152381Y13713896D02*
X190476Y13675800D01*
X190476Y13675800D02*
X266666Y13637705D01*
X266666Y13637705D02*
X571428Y13637705D01*
X571428Y13637705D02*
X571428Y14437705D01*
X571428Y14437705D02*
X304762Y14437705D01*
X304762Y14437705D02*
X228571Y14399610D01*
X228571Y14399610D02*
X190476Y14361515D01*
X190476Y14361515D02*
X152381Y14285324D01*
X152381Y14285324D02*
X152381Y14209134D01*
X152381Y14209134D02*
X190476Y14132943D01*
X190476Y14132943D02*
X228571Y14094848D01*
X228571Y14094848D02*
X304762Y14056753D01*
X304762Y14056753D02*
X571428Y14056753D01*
X-228572Y14056753D02*
X-495238Y14056753D01*
X-609524Y13637705D02*
X-228572Y13637705D01*
X-228572Y13637705D02*
X-228572Y14437705D01*
X-228572Y14437705D02*
X-609524Y14437705D01*
X-952382Y13637705D02*
X-952382Y14437705D01*
X-952382Y14437705D02*
X-1409525Y13637705D01*
X-1409525Y13637705D02*
X-1409525Y14437705D01*
X9923811Y5637705D02*
X10304763Y5637705D01*
X10304763Y5637705D02*
X10304763Y6437705D01*
X9200001Y5637705D02*
X9466668Y6018658D01*
X9657144Y5637705D02*
X9657144Y6437705D01*
X9657144Y6437705D02*
X9352382Y6437705D01*
X9352382Y6437705D02*
X9276192Y6399610D01*
X9276192Y6399610D02*
X9238097Y6361515D01*
X9238097Y6361515D02*
X9200001Y6285324D01*
X9200001Y6285324D02*
X9200001Y6171039D01*
X9200001Y6171039D02*
X9238097Y6094848D01*
X9238097Y6094848D02*
X9276192Y6056753D01*
X9276192Y6056753D02*
X9352382Y6018658D01*
X9352382Y6018658D02*
X9657144Y6018658D01*
X8895240Y5866277D02*
X8514287Y5866277D01*
X8971430Y5637705D02*
X8704763Y6437705D01*
X8704763Y6437705D02*
X8438097Y5637705D01*
X7561906Y5637705D02*
X7561906Y6437705D01*
X7561906Y6132943D02*
X7485716Y6171039D01*
X7485716Y6171039D02*
X7333335Y6171039D01*
X7333335Y6171039D02*
X7257144Y6132943D01*
X7257144Y6132943D02*
X7219049Y6094848D01*
X7219049Y6094848D02*
X7180954Y6018658D01*
X7180954Y6018658D02*
X7180954Y5790086D01*
X7180954Y5790086D02*
X7219049Y5713896D01*
X7219049Y5713896D02*
X7257144Y5675800D01*
X7257144Y5675800D02*
X7333335Y5637705D01*
X7333335Y5637705D02*
X7485716Y5637705D01*
X7485716Y5637705D02*
X7561906Y5675800D01*
X6838096Y5637705D02*
X6838096Y6171039D01*
X6838096Y6437705D02*
X6876192Y6399610D01*
X6876192Y6399610D02*
X6838096Y6361515D01*
X6838096Y6361515D02*
X6800001Y6399610D01*
X6800001Y6399610D02*
X6838096Y6437705D01*
X6838096Y6437705D02*
X6838096Y6361515D01*
X6495240Y5675800D02*
X6419049Y5637705D01*
X6419049Y5637705D02*
X6266668Y5637705D01*
X6266668Y5637705D02*
X6190478Y5675800D01*
X6190478Y5675800D02*
X6152382Y5751991D01*
X6152382Y5751991D02*
X6152382Y5790086D01*
X6152382Y5790086D02*
X6190478Y5866277D01*
X6190478Y5866277D02*
X6266668Y5904372D01*
X6266668Y5904372D02*
X6380954Y5904372D01*
X6380954Y5904372D02*
X6457144Y5942467D01*
X6457144Y5942467D02*
X6495240Y6018658D01*
X6495240Y6018658D02*
X6495240Y6056753D01*
X6495240Y6056753D02*
X6457144Y6132943D01*
X6457144Y6132943D02*
X6380954Y6171039D01*
X6380954Y6171039D02*
X6266668Y6171039D01*
X6266668Y6171039D02*
X6190478Y6132943D01*
X5276192Y6437705D02*
X4780954Y6437705D01*
X4780954Y6437705D02*
X5047620Y6132943D01*
X5047620Y6132943D02*
X4933335Y6132943D01*
X4933335Y6132943D02*
X4857144Y6094848D01*
X4857144Y6094848D02*
X4819049Y6056753D01*
X4819049Y6056753D02*
X4780954Y5980562D01*
X4780954Y5980562D02*
X4780954Y5790086D01*
X4780954Y5790086D02*
X4819049Y5713896D01*
X4819049Y5713896D02*
X4857144Y5675800D01*
X4857144Y5675800D02*
X4933335Y5637705D01*
X4933335Y5637705D02*
X5161906Y5637705D01*
X5161906Y5637705D02*
X5238097Y5675800D01*
X5238097Y5675800D02*
X5276192Y5713896D01*
X3828572Y5637705D02*
X3828572Y6171039D01*
X3828572Y6094848D02*
X3790477Y6132943D01*
X3790477Y6132943D02*
X3714287Y6171039D01*
X3714287Y6171039D02*
X3600001Y6171039D01*
X3600001Y6171039D02*
X3523810Y6132943D01*
X3523810Y6132943D02*
X3485715Y6056753D01*
X3485715Y6056753D02*
X3485715Y5637705D01*
X3485715Y6056753D02*
X3447620Y6132943D01*
X3447620Y6132943D02*
X3371429Y6171039D01*
X3371429Y6171039D02*
X3257144Y6171039D01*
X3257144Y6171039D02*
X3180953Y6132943D01*
X3180953Y6132943D02*
X3142858Y6056753D01*
X3142858Y6056753D02*
X3142858Y5637705D01*
X2761905Y5637705D02*
X2761905Y6171039D01*
X2761905Y6094848D02*
X2723810Y6132943D01*
X2723810Y6132943D02*
X2647620Y6171039D01*
X2647620Y6171039D02*
X2533334Y6171039D01*
X2533334Y6171039D02*
X2457143Y6132943D01*
X2457143Y6132943D02*
X2419048Y6056753D01*
X2419048Y6056753D02*
X2419048Y5637705D01*
X2419048Y6056753D02*
X2380953Y6132943D01*
X2380953Y6132943D02*
X2304762Y6171039D01*
X2304762Y6171039D02*
X2190477Y6171039D01*
X2190477Y6171039D02*
X2114286Y6132943D01*
X2114286Y6132943D02*
X2076191Y6056753D01*
X2076191Y6056753D02*
X2076191Y5637705D01*
X1085714Y5637705D02*
X1085714Y6437705D01*
X742857Y5637705D02*
X742857Y6056753D01*
X742857Y6056753D02*
X780952Y6132943D01*
X780952Y6132943D02*
X857143Y6171039D01*
X857143Y6171039D02*
X971429Y6171039D01*
X971429Y6171039D02*
X1047619Y6132943D01*
X1047619Y6132943D02*
X1085714Y6094848D01*
X247619Y5637705D02*
X323809Y5675800D01*
X323809Y5675800D02*
X361904Y5713896D01*
X361904Y5713896D02*
X400000Y5790086D01*
X400000Y5790086D02*
X400000Y6018658D01*
X400000Y6018658D02*
X361904Y6094848D01*
X361904Y6094848D02*
X323809Y6132943D01*
X323809Y6132943D02*
X247619Y6171039D01*
X247619Y6171039D02*
X133333Y6171039D01*
X133333Y6171039D02*
X57142Y6132943D01*
X57142Y6132943D02*
X19047Y6094848D01*
X19047Y6094848D02*
X-19048Y6018658D01*
X-19048Y6018658D02*
X-19048Y5790086D01*
X-19048Y5790086D02*
X19047Y5713896D01*
X19047Y5713896D02*
X57142Y5675800D01*
X57142Y5675800D02*
X133333Y5637705D01*
X133333Y5637705D02*
X247619Y5637705D01*
X-704763Y5675800D02*
X-628572Y5637705D01*
X-628572Y5637705D02*
X-476191Y5637705D01*
X-476191Y5637705D02*
X-400001Y5675800D01*
X-400001Y5675800D02*
X-361906Y5713896D01*
X-361906Y5713896D02*
X-323810Y5790086D01*
X-323810Y5790086D02*
X-323810Y6018658D01*
X-323810Y6018658D02*
X-361906Y6094848D01*
X-361906Y6094848D02*
X-400001Y6132943D01*
X-400001Y6132943D02*
X-476191Y6171039D01*
X-476191Y6171039D02*
X-628572Y6171039D01*
X-628572Y6171039D02*
X-704763Y6132943D01*
X-1047620Y5637705D02*
X-1047620Y6437705D01*
X-1390477Y5637705D02*
X-1390477Y6056753D01*
X-1390477Y6056753D02*
X-1352382Y6132943D01*
X-1352382Y6132943D02*
X-1276191Y6171039D01*
X-1276191Y6171039D02*
X-1161905Y6171039D01*
X-1161905Y6171039D02*
X-1085715Y6132943D01*
X-1085715Y6132943D02*
X-1047620Y6094848D01*
X-1771430Y5713896D02*
X-1809525Y5675800D01*
X-1809525Y5675800D02*
X-1771430Y5637705D01*
X-1771430Y5637705D02*
X-1733334Y5675800D01*
X-1733334Y5675800D02*
X-1771430Y5713896D01*
X-1771430Y5713896D02*
X-1771430Y5637705D01*
X-1771430Y6132943D02*
X-1809525Y6094848D01*
X-1809525Y6094848D02*
X-1771430Y6056753D01*
X-1771430Y6056753D02*
X-1733334Y6094848D01*
X-1733334Y6094848D02*
X-1771430Y6132943D01*
X-1771430Y6132943D02*
X-1771430Y6056753D01*
X-3180953Y5637705D02*
X-2723810Y5637705D01*
X-2952382Y5637705D02*
X-2952382Y6437705D01*
X-2952382Y6437705D02*
X-2876191Y6323420D01*
X-2876191Y6323420D02*
X-2800001Y6247229D01*
X-2800001Y6247229D02*
X-2723810Y6209134D01*
X-3485715Y6361515D02*
X-3523811Y6399610D01*
X-3523811Y6399610D02*
X-3600001Y6437705D01*
X-3600001Y6437705D02*
X-3790477Y6437705D01*
X-3790477Y6437705D02*
X-3866668Y6399610D01*
X-3866668Y6399610D02*
X-3904763Y6361515D01*
X-3904763Y6361515D02*
X-3942858Y6285324D01*
X-3942858Y6285324D02*
X-3942858Y6209134D01*
X-3942858Y6209134D02*
X-3904763Y6094848D01*
X-3904763Y6094848D02*
X-3447620Y5637705D01*
X-3447620Y5637705D02*
X-3942858Y5637705D01*
X-4209525Y5637705D02*
X-4628573Y6171039D01*
X-4209525Y6171039D02*
X-4628573Y5637705D01*
X-5276192Y6437705D02*
X-5123811Y6437705D01*
X-5123811Y6437705D02*
X-5047620Y6399610D01*
X-5047620Y6399610D02*
X-5009525Y6361515D01*
X-5009525Y6361515D02*
X-4933335Y6247229D01*
X-4933335Y6247229D02*
X-4895239Y6094848D01*
X-4895239Y6094848D02*
X-4895239Y5790086D01*
X-4895239Y5790086D02*
X-4933335Y5713896D01*
X-4933335Y5713896D02*
X-4971430Y5675800D01*
X-4971430Y5675800D02*
X-5047620Y5637705D01*
X-5047620Y5637705D02*
X-5200001Y5637705D01*
X-5200001Y5637705D02*
X-5276192Y5675800D01*
X-5276192Y5675800D02*
X-5314287Y5713896D01*
X-5314287Y5713896D02*
X-5352382Y5790086D01*
X-5352382Y5790086D02*
X-5352382Y5980562D01*
X-5352382Y5980562D02*
X-5314287Y6056753D01*
X-5314287Y6056753D02*
X-5276192Y6094848D01*
X-5276192Y6094848D02*
X-5200001Y6132943D01*
X-5200001Y6132943D02*
X-5047620Y6132943D01*
X-5047620Y6132943D02*
X-4971430Y6094848D01*
X-4971430Y6094848D02*
X-4933335Y6056753D01*
X-4933335Y6056753D02*
X-4895239Y5980562D01*
X-6876192Y6475800D02*
X-6190478Y5447229D01*
X-8171430Y5637705D02*
X-7714287Y5637705D01*
X-7942859Y5637705D02*
X-7942859Y6437705D01*
X-7942859Y6437705D02*
X-7866668Y6323420D01*
X-7866668Y6323420D02*
X-7790478Y6247229D01*
X-7790478Y6247229D02*
X-7714287Y6209134D01*
X-8857145Y6437705D02*
X-8704764Y6437705D01*
X-8704764Y6437705D02*
X-8628573Y6399610D01*
X-8628573Y6399610D02*
X-8590478Y6361515D01*
X-8590478Y6361515D02*
X-8514288Y6247229D01*
X-8514288Y6247229D02*
X-8476192Y6094848D01*
X-8476192Y6094848D02*
X-8476192Y5790086D01*
X-8476192Y5790086D02*
X-8514288Y5713896D01*
X-8514288Y5713896D02*
X-8552383Y5675800D01*
X-8552383Y5675800D02*
X-8628573Y5637705D01*
X-8628573Y5637705D02*
X-8780954Y5637705D01*
X-8780954Y5637705D02*
X-8857145Y5675800D01*
X-8857145Y5675800D02*
X-8895240Y5713896D01*
X-8895240Y5713896D02*
X-8933335Y5790086D01*
X-8933335Y5790086D02*
X-8933335Y5980562D01*
X-8933335Y5980562D02*
X-8895240Y6056753D01*
X-8895240Y6056753D02*
X-8857145Y6094848D01*
X-8857145Y6094848D02*
X-8780954Y6132943D01*
X-8780954Y6132943D02*
X-8628573Y6132943D01*
X-8628573Y6132943D02*
X-8552383Y6094848D01*
X-8552383Y6094848D02*
X-8514288Y6056753D01*
X-8514288Y6056753D02*
X-8476192Y5980562D01*
X-9200002Y5637705D02*
X-9619050Y6171039D01*
X-9200002Y6171039D02*
X-9619050Y5637705D01*
X-10266669Y6437705D02*
X-10114288Y6437705D01*
X-10114288Y6437705D02*
X-10038097Y6399610D01*
X-10038097Y6399610D02*
X-10000002Y6361515D01*
X-10000002Y6361515D02*
X-9923812Y6247229D01*
X-9923812Y6247229D02*
X-9885716Y6094848D01*
X-9885716Y6094848D02*
X-9885716Y5790086D01*
X-9885716Y5790086D02*
X-9923812Y5713896D01*
X-9923812Y5713896D02*
X-9961907Y5675800D01*
X-9961907Y5675800D02*
X-10038097Y5637705D01*
X-10038097Y5637705D02*
X-10190478Y5637705D01*
X-10190478Y5637705D02*
X-10266669Y5675800D01*
X-10266669Y5675800D02*
X-10304764Y5713896D01*
X-10304764Y5713896D02*
X-10342859Y5790086D01*
X-10342859Y5790086D02*
X-10342859Y5980562D01*
X-10342859Y5980562D02*
X-10304764Y6056753D01*
X-10304764Y6056753D02*
X-10266669Y6094848D01*
X-10266669Y6094848D02*
X-10190478Y6132943D01*
X-10190478Y6132943D02*
X-10038097Y6132943D01*
X-10038097Y6132943D02*
X-9961907Y6094848D01*
X-9961907Y6094848D02*
X-9923812Y6056753D01*
X-9923812Y6056753D02*
X-9885716Y5980562D01*
X6800000Y-13438485D02*
X6876190Y-13400390D01*
X6876190Y-13400390D02*
X6952381Y-13324200D01*
X6952381Y-13324200D02*
X7066667Y-13209914D01*
X7066667Y-13209914D02*
X7142857Y-13171819D01*
X7142857Y-13171819D02*
X7219048Y-13171819D01*
X7180952Y-13362295D02*
X7257143Y-13324200D01*
X7257143Y-13324200D02*
X7333333Y-13248009D01*
X7333333Y-13248009D02*
X7371429Y-13095628D01*
X7371429Y-13095628D02*
X7371429Y-12828961D01*
X7371429Y-12828961D02*
X7333333Y-12676580D01*
X7333333Y-12676580D02*
X7257143Y-12600390D01*
X7257143Y-12600390D02*
X7180952Y-12562295D01*
X7180952Y-12562295D02*
X7028571Y-12562295D01*
X7028571Y-12562295D02*
X6952381Y-12600390D01*
X6952381Y-12600390D02*
X6876190Y-12676580D01*
X6876190Y-12676580D02*
X6838095Y-12828961D01*
X6838095Y-12828961D02*
X6838095Y-13095628D01*
X6838095Y-13095628D02*
X6876190Y-13248009D01*
X6876190Y-13248009D02*
X6952381Y-13324200D01*
X6952381Y-13324200D02*
X7028571Y-13362295D01*
X7028571Y-13362295D02*
X7180952Y-13362295D01*
X6609524Y-12562295D02*
X6152381Y-12562295D01*
X6380953Y-13362295D02*
X6380953Y-12562295D01*
X5923810Y-12638485D02*
X5885714Y-12600390D01*
X5885714Y-12600390D02*
X5809524Y-12562295D01*
X5809524Y-12562295D02*
X5619048Y-12562295D01*
X5619048Y-12562295D02*
X5542857Y-12600390D01*
X5542857Y-12600390D02*
X5504762Y-12638485D01*
X5504762Y-12638485D02*
X5466667Y-12714676D01*
X5466667Y-12714676D02*
X5466667Y-12790866D01*
X5466667Y-12790866D02*
X5504762Y-12905152D01*
X5504762Y-12905152D02*
X5961905Y-13362295D01*
X5961905Y-13362295D02*
X5466667Y-13362295D01*
X4704762Y-13362295D02*
X5161905Y-13362295D01*
X4933333Y-13362295D02*
X4933333Y-12562295D01*
X4933333Y-12562295D02*
X5009524Y-12676580D01*
X5009524Y-12676580D02*
X5085714Y-12752771D01*
X5085714Y-12752771D02*
X5161905Y-12790866D01*
X4400000Y-12638485D02*
X4361904Y-12600390D01*
X4361904Y-12600390D02*
X4285714Y-12562295D01*
X4285714Y-12562295D02*
X4095238Y-12562295D01*
X4095238Y-12562295D02*
X4019047Y-12600390D01*
X4019047Y-12600390D02*
X3980952Y-12638485D01*
X3980952Y-12638485D02*
X3942857Y-12714676D01*
X3942857Y-12714676D02*
X3942857Y-12790866D01*
X3942857Y-12790866D02*
X3980952Y-12905152D01*
X3980952Y-12905152D02*
X4438095Y-13362295D01*
X4438095Y-13362295D02*
X3942857Y-13362295D01*
X3447618Y-12562295D02*
X3371428Y-12562295D01*
X3371428Y-12562295D02*
X3295237Y-12600390D01*
X3295237Y-12600390D02*
X3257142Y-12638485D01*
X3257142Y-12638485D02*
X3219047Y-12714676D01*
X3219047Y-12714676D02*
X3180952Y-12867057D01*
X3180952Y-12867057D02*
X3180952Y-13057533D01*
X3180952Y-13057533D02*
X3219047Y-13209914D01*
X3219047Y-13209914D02*
X3257142Y-13286104D01*
X3257142Y-13286104D02*
X3295237Y-13324200D01*
X3295237Y-13324200D02*
X3371428Y-13362295D01*
X3371428Y-13362295D02*
X3447618Y-13362295D01*
X3447618Y-13362295D02*
X3523809Y-13324200D01*
X3523809Y-13324200D02*
X3561904Y-13286104D01*
X3561904Y-13286104D02*
X3599999Y-13209914D01*
X3599999Y-13209914D02*
X3638095Y-13057533D01*
X3638095Y-13057533D02*
X3638095Y-12867057D01*
X3638095Y-12867057D02*
X3599999Y-12714676D01*
X3599999Y-12714676D02*
X3561904Y-12638485D01*
X3561904Y-12638485D02*
X3523809Y-12600390D01*
X3523809Y-12600390D02*
X3447618Y-12562295D01*
X2076189Y-12562295D02*
X1999999Y-12562295D01*
X1999999Y-12562295D02*
X1923808Y-12600390D01*
X1923808Y-12600390D02*
X1885713Y-12638485D01*
X1885713Y-12638485D02*
X1847618Y-12714676D01*
X1847618Y-12714676D02*
X1809523Y-12867057D01*
X1809523Y-12867057D02*
X1809523Y-13057533D01*
X1809523Y-13057533D02*
X1847618Y-13209914D01*
X1847618Y-13209914D02*
X1885713Y-13286104D01*
X1885713Y-13286104D02*
X1923808Y-13324200D01*
X1923808Y-13324200D02*
X1999999Y-13362295D01*
X1999999Y-13362295D02*
X2076189Y-13362295D01*
X2076189Y-13362295D02*
X2152380Y-13324200D01*
X2152380Y-13324200D02*
X2190475Y-13286104D01*
X2190475Y-13286104D02*
X2228570Y-13209914D01*
X2228570Y-13209914D02*
X2266666Y-13057533D01*
X2266666Y-13057533D02*
X2266666Y-12867057D01*
X2266666Y-12867057D02*
X2228570Y-12714676D01*
X2228570Y-12714676D02*
X2190475Y-12638485D01*
X2190475Y-12638485D02*
X2152380Y-12600390D01*
X2152380Y-12600390D02*
X2076189Y-12562295D01*
X1542856Y-13362295D02*
X1123808Y-12828961D01*
X1542856Y-12828961D02*
X1123808Y-13362295D01*
X399999Y-13362295D02*
X857142Y-13362295D01*
X628570Y-13362295D02*
X628570Y-12562295D01*
X628570Y-12562295D02*
X704761Y-12676580D01*
X704761Y-12676580D02*
X780951Y-12752771D01*
X780951Y-12752771D02*
X857142Y-12790866D01*
X-400002Y-13286104D02*
X-361906Y-13324200D01*
X-361906Y-13324200D02*
X-247621Y-13362295D01*
X-247621Y-13362295D02*
X-171430Y-13362295D01*
X-171430Y-13362295D02*
X-57144Y-13324200D01*
X-57144Y-13324200D02*
X19046Y-13248009D01*
X19046Y-13248009D02*
X57141Y-13171819D01*
X57141Y-13171819D02*
X95237Y-13019438D01*
X95237Y-13019438D02*
X95237Y-12905152D01*
X95237Y-12905152D02*
X57141Y-12752771D01*
X57141Y-12752771D02*
X19046Y-12676580D01*
X19046Y-12676580D02*
X-57144Y-12600390D01*
X-57144Y-12600390D02*
X-171430Y-12562295D01*
X-171430Y-12562295D02*
X-247621Y-12562295D01*
X-247621Y-12562295D02*
X-361906Y-12600390D01*
X-361906Y-12600390D02*
X-400002Y-12638485D01*
X-1961907Y-13362295D02*
X-1961907Y-12562295D01*
X-1961907Y-12562295D02*
X-2152383Y-12562295D01*
X-2152383Y-12562295D02*
X-2266669Y-12600390D01*
X-2266669Y-12600390D02*
X-2342859Y-12676580D01*
X-2342859Y-12676580D02*
X-2380954Y-12752771D01*
X-2380954Y-12752771D02*
X-2419050Y-12905152D01*
X-2419050Y-12905152D02*
X-2419050Y-13019438D01*
X-2419050Y-13019438D02*
X-2380954Y-13171819D01*
X-2380954Y-13171819D02*
X-2342859Y-13248009D01*
X-2342859Y-13248009D02*
X-2266669Y-13324200D01*
X-2266669Y-13324200D02*
X-2152383Y-13362295D01*
X-2152383Y-13362295D02*
X-1961907Y-13362295D01*
X-3219050Y-13362295D02*
X-2952383Y-12981342D01*
X-2761907Y-13362295D02*
X-2761907Y-12562295D01*
X-2761907Y-12562295D02*
X-3066669Y-12562295D01*
X-3066669Y-12562295D02*
X-3142859Y-12600390D01*
X-3142859Y-12600390D02*
X-3180954Y-12638485D01*
X-3180954Y-12638485D02*
X-3219050Y-12714676D01*
X-3219050Y-12714676D02*
X-3219050Y-12828961D01*
X-3219050Y-12828961D02*
X-3180954Y-12905152D01*
X-3180954Y-12905152D02*
X-3142859Y-12943247D01*
X-3142859Y-12943247D02*
X-3066669Y-12981342D01*
X-3066669Y-12981342D02*
X-2761907Y-12981342D01*
X-3447621Y-12562295D02*
X-3714288Y-13362295D01*
X-3714288Y-13362295D02*
X-3980954Y-12562295D01*
X-5009526Y-12562295D02*
X-5085716Y-12562295D01*
X-5085716Y-12562295D02*
X-5161907Y-12600390D01*
X-5161907Y-12600390D02*
X-5200002Y-12638485D01*
X-5200002Y-12638485D02*
X-5238097Y-12714676D01*
X-5238097Y-12714676D02*
X-5276192Y-12867057D01*
X-5276192Y-12867057D02*
X-5276192Y-13057533D01*
X-5276192Y-13057533D02*
X-5238097Y-13209914D01*
X-5238097Y-13209914D02*
X-5200002Y-13286104D01*
X-5200002Y-13286104D02*
X-5161907Y-13324200D01*
X-5161907Y-13324200D02*
X-5085716Y-13362295D01*
X-5085716Y-13362295D02*
X-5009526Y-13362295D01*
X-5009526Y-13362295D02*
X-4933335Y-13324200D01*
X-4933335Y-13324200D02*
X-4895240Y-13286104D01*
X-4895240Y-13286104D02*
X-4857145Y-13209914D01*
X-4857145Y-13209914D02*
X-4819049Y-13057533D01*
X-4819049Y-13057533D02*
X-4819049Y-12867057D01*
X-4819049Y-12867057D02*
X-4857145Y-12714676D01*
X-4857145Y-12714676D02*
X-4895240Y-12638485D01*
X-4895240Y-12638485D02*
X-4933335Y-12600390D01*
X-4933335Y-12600390D02*
X-5009526Y-12562295D01*
X-5542859Y-13362295D02*
X-5961907Y-12828961D01*
X-5542859Y-12828961D02*
X-5961907Y-13362295D01*
X-6647621Y-12562295D02*
X-6266669Y-12562295D01*
X-6266669Y-12562295D02*
X-6228573Y-12943247D01*
X-6228573Y-12943247D02*
X-6266669Y-12905152D01*
X-6266669Y-12905152D02*
X-6342859Y-12867057D01*
X-6342859Y-12867057D02*
X-6533335Y-12867057D01*
X-6533335Y-12867057D02*
X-6609526Y-12905152D01*
X-6609526Y-12905152D02*
X-6647621Y-12943247D01*
X-6647621Y-12943247D02*
X-6685716Y-13019438D01*
X-6685716Y-13019438D02*
X-6685716Y-13209914D01*
X-6685716Y-13209914D02*
X-6647621Y-13286104D01*
X-6647621Y-13286104D02*
X-6609526Y-13324200D01*
X-6609526Y-13324200D02*
X-6533335Y-13362295D01*
X-6533335Y-13362295D02*
X-6342859Y-13362295D01*
X-6342859Y-13362295D02*
X-6266669Y-13324200D01*
X-6266669Y-13324200D02*
X-6228573Y-13286104D01*
X-6990478Y-13133723D02*
X-7371431Y-13133723D01*
X-6914288Y-13362295D02*
X-7180955Y-12562295D01*
X-7180955Y-12562295D02*
X-7447621Y-13362295D01*
X12990475Y-8162295D02*
X13371427Y-8162295D01*
X13371427Y-8162295D02*
X13371427Y-7362295D01*
X12266665Y-8162295D02*
X12533332Y-7781342D01*
X12723808Y-8162295D02*
X12723808Y-7362295D01*
X12723808Y-7362295D02*
X12419046Y-7362295D01*
X12419046Y-7362295D02*
X12342856Y-7400390D01*
X12342856Y-7400390D02*
X12304761Y-7438485D01*
X12304761Y-7438485D02*
X12266665Y-7514676D01*
X12266665Y-7514676D02*
X12266665Y-7628961D01*
X12266665Y-7628961D02*
X12304761Y-7705152D01*
X12304761Y-7705152D02*
X12342856Y-7743247D01*
X12342856Y-7743247D02*
X12419046Y-7781342D01*
X12419046Y-7781342D02*
X12723808Y-7781342D01*
X11961904Y-7933723D02*
X11580951Y-7933723D01*
X12038094Y-8162295D02*
X11771427Y-7362295D01*
X11771427Y-7362295D02*
X11504761Y-8162295D01*
X11238094Y-7857533D02*
X10628571Y-7857533D01*
X14090475Y-762295D02*
X14471427Y-762295D01*
X14471427Y-762295D02*
X14471427Y37705D01*
X13366665Y-762295D02*
X13633332Y-381342D01*
X13823808Y-762295D02*
X13823808Y37705D01*
X13823808Y37705D02*
X13519046Y37705D01*
X13519046Y37705D02*
X13442856Y-390D01*
X13442856Y-390D02*
X13404761Y-38485D01*
X13404761Y-38485D02*
X13366665Y-114676D01*
X13366665Y-114676D02*
X13366665Y-228961D01*
X13366665Y-228961D02*
X13404761Y-305152D01*
X13404761Y-305152D02*
X13442856Y-343247D01*
X13442856Y-343247D02*
X13519046Y-381342D01*
X13519046Y-381342D02*
X13823808Y-381342D01*
X13061904Y-533723D02*
X12680951Y-533723D01*
X13138094Y-762295D02*
X12871427Y37705D01*
X12871427Y37705D02*
X12604761Y-762295D01*
X12338094Y-457533D02*
X11728571Y-457533D01*
X12033332Y-762295D02*
X12033332Y-152771D01*
X-582943Y-6504762D02*
X-621039Y-6466667D01*
X-621039Y-6466667D02*
X-735324Y-6390476D01*
X-735324Y-6390476D02*
X-811515Y-6352381D01*
X-811515Y-6352381D02*
X-925800Y-6314286D01*
X-925800Y-6314286D02*
X-1116277Y-6276191D01*
X-1116277Y-6276191D02*
X-1268658Y-6276191D01*
X-1268658Y-6276191D02*
X-1459134Y-6314286D01*
X-1459134Y-6314286D02*
X-1573420Y-6352381D01*
X-1573420Y-6352381D02*
X-1649610Y-6390476D01*
X-1649610Y-6390476D02*
X-1763896Y-6466667D01*
X-1763896Y-6466667D02*
X-1801991Y-6504762D01*
X-1687705Y-7152381D02*
X-1687705Y-7000000D01*
X-1687705Y-7000000D02*
X-1649610Y-6923809D01*
X-1649610Y-6923809D02*
X-1611515Y-6885714D01*
X-1611515Y-6885714D02*
X-1497229Y-6809524D01*
X-1497229Y-6809524D02*
X-1344848Y-6771428D01*
X-1344848Y-6771428D02*
X-1040086Y-6771428D01*
X-1040086Y-6771428D02*
X-963896Y-6809524D01*
X-963896Y-6809524D02*
X-925800Y-6847619D01*
X-925800Y-6847619D02*
X-887705Y-6923809D01*
X-887705Y-6923809D02*
X-887705Y-7076190D01*
X-887705Y-7076190D02*
X-925800Y-7152381D01*
X-925800Y-7152381D02*
X-963896Y-7190476D01*
X-963896Y-7190476D02*
X-1040086Y-7228571D01*
X-1040086Y-7228571D02*
X-1230562Y-7228571D01*
X-1230562Y-7228571D02*
X-1306753Y-7190476D01*
X-1306753Y-7190476D02*
X-1344848Y-7152381D01*
X-1344848Y-7152381D02*
X-1382943Y-7076190D01*
X-1382943Y-7076190D02*
X-1382943Y-6923809D01*
X-1382943Y-6923809D02*
X-1344848Y-6847619D01*
X-1344848Y-6847619D02*
X-1306753Y-6809524D01*
X-1306753Y-6809524D02*
X-1230562Y-6771428D01*
X-582943Y-7495238D02*
X-621039Y-7533333D01*
X-621039Y-7533333D02*
X-735324Y-7609524D01*
X-735324Y-7609524D02*
X-811515Y-7647619D01*
X-811515Y-7647619D02*
X-925800Y-7685714D01*
X-925800Y-7685714D02*
X-1116277Y-7723810D01*
X-1116277Y-7723810D02*
X-1268658Y-7723810D01*
X-1268658Y-7723810D02*
X-1459134Y-7685714D01*
X-1459134Y-7685714D02*
X-1573420Y-7647619D01*
X-1573420Y-7647619D02*
X-1649610Y-7609524D01*
X-1649610Y-7609524D02*
X-1763896Y-7533333D01*
X-1763896Y-7533333D02*
X-1801991Y-7495238D01*
X-463896Y-5028572D02*
X-425800Y-4990476D01*
X-425800Y-4990476D02*
X-387705Y-4876191D01*
X-387705Y-4876191D02*
X-387705Y-4800000D01*
X-387705Y-4800000D02*
X-425800Y-4685714D01*
X-425800Y-4685714D02*
X-501991Y-4609524D01*
X-501991Y-4609524D02*
X-578181Y-4571429D01*
X-578181Y-4571429D02*
X-730562Y-4533333D01*
X-730562Y-4533333D02*
X-844848Y-4533333D01*
X-844848Y-4533333D02*
X-997229Y-4571429D01*
X-997229Y-4571429D02*
X-1073420Y-4609524D01*
X-1073420Y-4609524D02*
X-1149610Y-4685714D01*
X-1149610Y-4685714D02*
X-1187705Y-4800000D01*
X-1187705Y-4800000D02*
X-1187705Y-4876191D01*
X-1187705Y-4876191D02*
X-1149610Y-4990476D01*
X-1149610Y-4990476D02*
X-1111515Y-5028572D01*
X-387705Y-5371429D02*
X-1187705Y-5371429D01*
X-806753Y-5371429D02*
X-806753Y-5828572D01*
X-387705Y-5828572D02*
X-1187705Y-5828572D01*
X-1149610Y-6628571D02*
X-1187705Y-6552381D01*
X-1187705Y-6552381D02*
X-1187705Y-6438095D01*
X-1187705Y-6438095D02*
X-1149610Y-6323809D01*
X-1149610Y-6323809D02*
X-1073420Y-6247619D01*
X-1073420Y-6247619D02*
X-997229Y-6209524D01*
X-997229Y-6209524D02*
X-844848Y-6171428D01*
X-844848Y-6171428D02*
X-730562Y-6171428D01*
X-730562Y-6171428D02*
X-578181Y-6209524D01*
X-578181Y-6209524D02*
X-501991Y-6247619D01*
X-501991Y-6247619D02*
X-425800Y-6323809D01*
X-425800Y-6323809D02*
X-387705Y-6438095D01*
X-387705Y-6438095D02*
X-387705Y-6514286D01*
X-387705Y-6514286D02*
X-425800Y-6628571D01*
X-425800Y-6628571D02*
X-463896Y-6666667D01*
X-463896Y-6666667D02*
X-730562Y-6666667D01*
X-730562Y-6666667D02*
X-730562Y-6514286D01*
X74200Y-6047618D02*
X112295Y-6161904D01*
X112295Y-6161904D02*
X112295Y-6352380D01*
X112295Y-6352380D02*
X74200Y-6428571D01*
X74200Y-6428571D02*
X36104Y-6466666D01*
X36104Y-6466666D02*
X-40086Y-6504761D01*
X-40086Y-6504761D02*
X-116277Y-6504761D01*
X-116277Y-6504761D02*
X-192467Y-6466666D01*
X-192467Y-6466666D02*
X-230562Y-6428571D01*
X-230562Y-6428571D02*
X-268658Y-6352380D01*
X-268658Y-6352380D02*
X-306753Y-6199999D01*
X-306753Y-6199999D02*
X-344848Y-6123809D01*
X-344848Y-6123809D02*
X-382943Y-6085714D01*
X-382943Y-6085714D02*
X-459134Y-6047618D01*
X-459134Y-6047618D02*
X-535324Y-6047618D01*
X-535324Y-6047618D02*
X-611515Y-6085714D01*
X-611515Y-6085714D02*
X-649610Y-6123809D01*
X-649610Y-6123809D02*
X-687705Y-6199999D01*
X-687705Y-6199999D02*
X-687705Y-6390476D01*
X-687705Y-6390476D02*
X-649610Y-6504761D01*
X36104Y-7304762D02*
X74200Y-7266666D01*
X74200Y-7266666D02*
X112295Y-7152381D01*
X112295Y-7152381D02*
X112295Y-7076190D01*
X112295Y-7076190D02*
X74200Y-6961904D01*
X74200Y-6961904D02*
X-1991Y-6885714D01*
X-1991Y-6885714D02*
X-78181Y-6847619D01*
X-78181Y-6847619D02*
X-230562Y-6809523D01*
X-230562Y-6809523D02*
X-344848Y-6809523D01*
X-344848Y-6809523D02*
X-497229Y-6847619D01*
X-497229Y-6847619D02*
X-573420Y-6885714D01*
X-573420Y-6885714D02*
X-649610Y-6961904D01*
X-649610Y-6961904D02*
X-687705Y-7076190D01*
X-687705Y-7076190D02*
X-687705Y-7152381D01*
X-687705Y-7152381D02*
X-649610Y-7266666D01*
X-649610Y-7266666D02*
X-611515Y-7304762D01*
X112295Y-8028571D02*
X112295Y-7647619D01*
X112295Y-7647619D02*
X-687705Y-7647619D01*
X574200Y-4628571D02*
X612295Y-4742857D01*
X612295Y-4742857D02*
X612295Y-4933333D01*
X612295Y-4933333D02*
X574200Y-5009524D01*
X574200Y-5009524D02*
X536104Y-5047619D01*
X536104Y-5047619D02*
X459914Y-5085714D01*
X459914Y-5085714D02*
X383723Y-5085714D01*
X383723Y-5085714D02*
X307533Y-5047619D01*
X307533Y-5047619D02*
X269438Y-5009524D01*
X269438Y-5009524D02*
X231342Y-4933333D01*
X231342Y-4933333D02*
X193247Y-4780952D01*
X193247Y-4780952D02*
X155152Y-4704762D01*
X155152Y-4704762D02*
X117057Y-4666667D01*
X117057Y-4666667D02*
X40866Y-4628571D01*
X40866Y-4628571D02*
X-35324Y-4628571D01*
X-35324Y-4628571D02*
X-111515Y-4666667D01*
X-111515Y-4666667D02*
X-149610Y-4704762D01*
X-149610Y-4704762D02*
X-187705Y-4780952D01*
X-187705Y-4780952D02*
X-187705Y-4971429D01*
X-187705Y-4971429D02*
X-149610Y-5085714D01*
X612295Y-5428572D02*
X-187705Y-5428572D01*
X-187705Y-5428572D02*
X-187705Y-5619048D01*
X-187705Y-5619048D02*
X-149610Y-5733334D01*
X-149610Y-5733334D02*
X-73420Y-5809524D01*
X-73420Y-5809524D02*
X2771Y-5847619D01*
X2771Y-5847619D02*
X155152Y-5885715D01*
X155152Y-5885715D02*
X269438Y-5885715D01*
X269438Y-5885715D02*
X421819Y-5847619D01*
X421819Y-5847619D02*
X498009Y-5809524D01*
X498009Y-5809524D02*
X574200Y-5733334D01*
X574200Y-5733334D02*
X612295Y-5619048D01*
X612295Y-5619048D02*
X612295Y-5428572D01*
X383723Y-6190476D02*
X383723Y-6571429D01*
X612295Y-6114286D02*
X-187705Y-6380953D01*
X-187705Y-6380953D02*
X612295Y-6647619D01*
X350390Y-6390476D02*
X312295Y-6314286D01*
X312295Y-6314286D02*
X312295Y-6200000D01*
X312295Y-6200000D02*
X350390Y-6085714D01*
X350390Y-6085714D02*
X426580Y-6009524D01*
X426580Y-6009524D02*
X502771Y-5971429D01*
X502771Y-5971429D02*
X655152Y-5933333D01*
X655152Y-5933333D02*
X769438Y-5933333D01*
X769438Y-5933333D02*
X921819Y-5971429D01*
X921819Y-5971429D02*
X998009Y-6009524D01*
X998009Y-6009524D02*
X1074200Y-6085714D01*
X1074200Y-6085714D02*
X1112295Y-6200000D01*
X1112295Y-6200000D02*
X1112295Y-6276191D01*
X1112295Y-6276191D02*
X1074200Y-6390476D01*
X1074200Y-6390476D02*
X1036104Y-6428572D01*
X1036104Y-6428572D02*
X769438Y-6428572D01*
X769438Y-6428572D02*
X769438Y-6276191D01*
X1112295Y-6771429D02*
X312295Y-6771429D01*
X312295Y-6771429D02*
X1112295Y-7228572D01*
X1112295Y-7228572D02*
X312295Y-7228572D01*
X1112295Y-7609524D02*
X312295Y-7609524D01*
X312295Y-7609524D02*
X312295Y-7800000D01*
X312295Y-7800000D02*
X350390Y-7914286D01*
X350390Y-7914286D02*
X426580Y-7990476D01*
X426580Y-7990476D02*
X502771Y-8028571D01*
X502771Y-8028571D02*
X655152Y-8066667D01*
X655152Y-8066667D02*
X769438Y-8066667D01*
X769438Y-8066667D02*
X921819Y-8028571D01*
X921819Y-8028571D02*
X998009Y-7990476D01*
X998009Y-7990476D02*
X1074200Y-7914286D01*
X1074200Y-7914286D02*
X1112295Y-7800000D01*
X1112295Y-7800000D02*
X1112295Y-7609524D01*
X812295Y-4609523D02*
X812295Y-5104761D01*
X812295Y-5104761D02*
X1117057Y-4838095D01*
X1117057Y-4838095D02*
X1117057Y-4952380D01*
X1117057Y-4952380D02*
X1155152Y-5028571D01*
X1155152Y-5028571D02*
X1193247Y-5066666D01*
X1193247Y-5066666D02*
X1269438Y-5104761D01*
X1269438Y-5104761D02*
X1459914Y-5104761D01*
X1459914Y-5104761D02*
X1536104Y-5066666D01*
X1536104Y-5066666D02*
X1574200Y-5028571D01*
X1574200Y-5028571D02*
X1612295Y-4952380D01*
X1612295Y-4952380D02*
X1612295Y-4723809D01*
X1612295Y-4723809D02*
X1574200Y-4647618D01*
X1574200Y-4647618D02*
X1536104Y-4609523D01*
X812295Y-5333333D02*
X1612295Y-5600000D01*
X1612295Y-5600000D02*
X812295Y-5866666D01*
X812295Y-6057142D02*
X812295Y-6552380D01*
X812295Y-6552380D02*
X1117057Y-6285714D01*
X1117057Y-6285714D02*
X1117057Y-6399999D01*
X1117057Y-6399999D02*
X1155152Y-6476190D01*
X1155152Y-6476190D02*
X1193247Y-6514285D01*
X1193247Y-6514285D02*
X1269438Y-6552380D01*
X1269438Y-6552380D02*
X1459914Y-6552380D01*
X1459914Y-6552380D02*
X1536104Y-6514285D01*
X1536104Y-6514285D02*
X1574200Y-6476190D01*
X1574200Y-6476190D02*
X1612295Y-6399999D01*
X1612295Y-6399999D02*
X1612295Y-6171428D01*
X1612295Y-6171428D02*
X1574200Y-6095237D01*
X1574200Y-6095237D02*
X1536104Y-6057142D01*
D11*
X4571428Y12146048D02*
X4571428Y13146048D01*
X4000000Y12146048D02*
X4428571Y12717477D01*
X4000000Y13146048D02*
X4571428Y12574620D01*
X3095238Y12146048D02*
X3571428Y12146048D01*
X3571428Y12146048D02*
X3571428Y13146048D01*
X2761904Y12146048D02*
X2761904Y13146048D01*
X1714286Y12241287D02*
X1761905Y12193667D01*
X1761905Y12193667D02*
X1904762Y12146048D01*
X1904762Y12146048D02*
X2000000Y12146048D01*
X2000000Y12146048D02*
X2142857Y12193667D01*
X2142857Y12193667D02*
X2238095Y12288906D01*
X2238095Y12288906D02*
X2285714Y12384144D01*
X2285714Y12384144D02*
X2333333Y12574620D01*
X2333333Y12574620D02*
X2333333Y12717477D01*
X2333333Y12717477D02*
X2285714Y12907953D01*
X2285714Y12907953D02*
X2238095Y13003191D01*
X2238095Y13003191D02*
X2142857Y13098429D01*
X2142857Y13098429D02*
X2000000Y13146048D01*
X2000000Y13146048D02*
X1904762Y13146048D01*
X1904762Y13146048D02*
X1761905Y13098429D01*
X1761905Y13098429D02*
X1714286Y13050810D01*
X1285714Y12146048D02*
X1285714Y13146048D01*
X714286Y12146048D02*
X1142857Y12717477D01*
X714286Y13146048D02*
X1285714Y12574620D01*
X-285714Y12146048D02*
X47619Y12622239D01*
X285714Y12146048D02*
X285714Y13146048D01*
X285714Y13146048D02*
X-95238Y13146048D01*
X-95238Y13146048D02*
X-190476Y13098429D01*
X-190476Y13098429D02*
X-238095Y13050810D01*
X-238095Y13050810D02*
X-285714Y12955572D01*
X-285714Y12955572D02*
X-285714Y12812715D01*
X-285714Y12812715D02*
X-238095Y12717477D01*
X-238095Y12717477D02*
X-190476Y12669858D01*
X-190476Y12669858D02*
X-95238Y12622239D01*
X-95238Y12622239D02*
X285714Y12622239D01*
X-666667Y12431763D02*
X-1142857Y12431763D01*
X-571429Y12146048D02*
X-904762Y13146048D01*
X-904762Y13146048D02*
X-1238095Y12146048D01*
X-1571429Y12146048D02*
X-1571429Y13146048D01*
X-1571429Y13146048D02*
X-1809524Y13146048D01*
X-1809524Y13146048D02*
X-1952381Y13098429D01*
X-1952381Y13098429D02*
X-2047619Y13003191D01*
X-2047619Y13003191D02*
X-2095238Y12907953D01*
X-2095238Y12907953D02*
X-2142857Y12717477D01*
X-2142857Y12717477D02*
X-2142857Y12574620D01*
X-2142857Y12574620D02*
X-2095238Y12384144D01*
X-2095238Y12384144D02*
X-2047619Y12288906D01*
X-2047619Y12288906D02*
X-1952381Y12193667D01*
X-1952381Y12193667D02*
X-1809524Y12146048D01*
X-1809524Y12146048D02*
X-1571429Y12146048D01*
X-3238096Y12812715D02*
X-3476191Y12146048D01*
X-3476191Y12146048D02*
X-3714286Y12812715D01*
X-4047620Y13050810D02*
X-4095239Y13098429D01*
X-4095239Y13098429D02*
X-4190477Y13146048D01*
X-4190477Y13146048D02*
X-4428572Y13146048D01*
X-4428572Y13146048D02*
X-4523810Y13098429D01*
X-4523810Y13098429D02*
X-4571429Y13050810D01*
X-4571429Y13050810D02*
X-4619048Y12955572D01*
X-4619048Y12955572D02*
X-4619048Y12860334D01*
X-4619048Y12860334D02*
X-4571429Y12717477D01*
X-4571429Y12717477D02*
X-4000001Y12146048D01*
X-4000001Y12146048D02*
X-4619048Y12146048D01*
D12*
%TO.C,J1*%
X-3150000Y-9500000D02*
X-3150000Y-10840000D01*
X-3150000Y-15300000D02*
X-3150000Y-13560000D01*
X-1660000Y-9500000D02*
X-3150000Y-9500000D01*
X1660000Y-9500000D02*
X1660000Y-8300000D01*
X1660000Y-9500000D02*
X3150000Y-9500000D01*
X3150000Y-9500000D02*
X3150000Y-10840000D01*
X3150000Y-13560000D02*
X3150000Y-15300000D01*
X3150000Y-15300000D02*
X-3150000Y-15300000D01*
%TO.C,C2*%
X2240000Y-3847836D02*
X2240000Y-3632164D01*
X2960000Y-3847836D02*
X2960000Y-3632164D01*
%TO.C,R5*%
X-2446359Y680000D02*
X-2753641Y680000D01*
X-2446359Y-80000D02*
X-2753641Y-80000D01*
%TO.C,R7*%
X6020000Y-646359D02*
X6020000Y-953641D01*
X6780000Y-646359D02*
X6780000Y-953641D01*
%TO.C,U1*%
X-1610000Y110000D02*
X-1610000Y-215000D01*
X-1610000Y-2785000D02*
X-1610000Y-3110000D01*
X-1610000Y-3110000D02*
X-1285000Y-3110000D01*
X-1285000Y110000D02*
X-1610000Y110000D01*
X1285000Y-3110000D02*
X1610000Y-3110000D01*
X1610000Y110000D02*
X1285000Y110000D01*
X1610000Y-215000D02*
X1610000Y110000D01*
X1610000Y-3110000D02*
X1610000Y-2785000D01*
X-900000Y640000D02*
X-1140000Y970000D01*
X-660000Y970000D01*
X-900000Y640000D01*
G36*
X-900000Y640000D02*
G01*
X-1140000Y970000D01*
X-660000Y970000D01*
X-900000Y640000D01*
G37*
%TO.C,R1*%
X4646359Y-1020000D02*
X4953641Y-1020000D01*
X4646359Y-1780000D02*
X4953641Y-1780000D01*
%TO.C,R6*%
X70000Y-4753641D02*
X70000Y-4446359D01*
X830000Y-4753641D02*
X830000Y-4446359D01*
%TO.C,U2*%
X6890000Y-1990000D02*
X6890000Y-2190000D01*
X6890000Y-5010000D02*
X6890000Y-5210000D01*
X6890000Y-5210000D02*
X10110000Y-5210000D01*
X10110000Y-1990000D02*
X6890000Y-1990000D01*
X10110000Y-2190000D02*
X10110000Y-1990000D01*
X10110000Y-5210000D02*
X10110000Y-5010000D01*
X6540000Y-5340000D02*
X6060000Y-5340000D01*
X6300000Y-5010000D01*
X6540000Y-5340000D01*
G36*
X6540000Y-5340000D02*
G01*
X6060000Y-5340000D01*
X6300000Y-5010000D01*
X6540000Y-5340000D01*
G37*
%TO.C,R2*%
X4646359Y180000D02*
X4953641Y180000D01*
X4646359Y-580000D02*
X4953641Y-580000D01*
%TO.C,C1*%
X2240000Y-4892164D02*
X2240000Y-5107836D01*
X2960000Y-4892164D02*
X2960000Y-5107836D01*
%TO.C,R8*%
X-2446359Y-5920000D02*
X-2753641Y-5920000D01*
X-2446359Y-6680000D02*
X-2753641Y-6680000D01*
%TO.C,C3*%
X10092164Y-7240000D02*
X10307836Y-7240000D01*
X10092164Y-7960000D02*
X10307836Y-7960000D01*
%TO.C,R9*%
X-1463641Y-5920000D02*
X-1156359Y-5920000D01*
X-1463641Y-6680000D02*
X-1156359Y-6680000D01*
%TO.C,R3*%
X2746359Y380000D02*
X3053641Y380000D01*
X2746359Y-380000D02*
X3053641Y-380000D01*
%TO.C,R4*%
X1746359Y1330000D02*
X2053641Y1330000D01*
X1746359Y570000D02*
X2053641Y570000D01*
%TO.C,C4*%
X4140000Y-6092164D02*
X4140000Y-6307836D01*
X4860000Y-6092164D02*
X4860000Y-6307836D01*
%TD*%
M02*
