%TF.GenerationSoftware,KiCad,Pcbnew,9.0.9-9.0.9~ubuntu24.04.1*%
%TF.CreationDate,2026-10-04T19:23:48+00:00*%
%TF.ProjectId,klickrad,6b6c6963-6b72-4616-942e-6b696361645f,rev?*%
%TF.SameCoordinates,Original*%
%TF.FileFunction,Copper,L1,Top*%
%TF.FilePolarity,Positive*%
%FSLAX46Y46*%
G04 Gerber Fmt 4.6, Leading zero omitted, Abs format (unit mm)*
G04 Created by KiCad (PCBNEW 9.0.9-9.0.9~ubuntu24.04.1) date 2026-10-04 19:23:48*
%MOMM*%
%LPD*%
G01*
G04 APERTURE LIST*
G04 Aperture macros list*
%AMFreePoly0*
4,1,534,10.152000,8.140600,10.173400,8.120900,10.180200,8.092600,10.123800,7.822500,10.100700,7.554300,10.102700,7.391700,10.123900,7.176900,10.166000,6.965100,10.228700,6.758600,10.311100,6.559700,10.433000,6.336100,10.438000,6.312100,10.425100,6.280600,10.399900,6.265600,10.036800,6.208700,10.142500,5.638400,10.718100,5.722800,11.191800,5.772400,11.666400,5.804500,12.299700,5.820000,
12.775900,5.811200,13.408200,5.772400,13.881900,5.722800,14.457500,5.638400,14.563200,6.208700,14.200100,6.265600,14.171800,6.284400,14.162000,6.312100,14.167000,6.336100,14.288600,6.559100,14.352700,6.708500,14.420400,6.913500,14.467700,7.124200,14.497300,7.391700,14.497300,7.608300,14.476100,7.823100,14.419700,8.097500,14.432300,8.128800,14.462000,8.145000,14.933100,8.073200,
15.489200,7.966100,15.858600,7.883200,16.407700,7.742100,16.950600,7.581000,17.310100,7.462300,17.842100,7.268200,18.367200,7.054500,18.712700,6.901300,19.054400,6.739700,19.392000,6.569800,19.725400,6.391600,20.054200,6.205300,20.378400,6.011000,20.697700,5.808800,21.012000,5.598800,21.321000,5.381200,21.624600,5.156100,21.922600,4.923500,22.214800,4.683800,22.501000,4.436900,
22.781000,4.183100,23.054800,3.922500,23.322000,3.655200,23.582700,3.381500,23.836500,3.101400,24.083400,2.815200,24.323200,2.523100,24.555700,2.225100,24.780900,1.921500,24.998500,1.612500,25.208500,1.298300,25.410700,0.978900,25.605000,0.654800,25.791300,0.325900,25.969500,-0.007400,26.139500,-0.345000,26.301100,-0.686700,26.454200,-1.032200,26.598900,-1.381400,26.734900,-1.734100,
26.862300,-2.089900,26.980800,-2.448800,27.090500,-2.810500,27.191400,-3.174800,27.283200,-3.541400,27.366000,-3.910200,27.439800,-4.280900,27.504400,-4.653300,27.559900,-5.027200,27.606100,-5.402300,27.643200,-5.778400,27.681500,-6.344700,27.695400,-6.722400,27.700000,-7.100300,27.695400,-7.478200,27.681400,-7.855900,27.658200,-8.233200,27.625800,-8.609800,27.584100,-8.985400,27.533300,-9.360000,
27.473200,-9.733100,27.404000,-10.104700,27.283300,-10.658000,27.191500,-11.024600,27.090700,-11.388900,26.981000,-11.750600,26.799900,-12.287800,26.668000,-12.642700,26.588900,-12.842300,26.572500,-12.860600,26.544500,-12.869000,26.512600,-12.857300,26.339900,-12.699600,26.166000,-12.570600,25.980800,-12.459600,25.785600,-12.367400,25.582900,-12.294800,25.425700,-12.253400,25.159300,-12.210600,24.998300,-12.200700,
24.865100,-12.200600,24.838700,-12.187500,24.824300,-12.161800,24.826800,-12.132400,24.954100,-11.803500,25.118600,-11.334800,25.218600,-11.019000,25.310900,-10.700800,25.395400,-10.380400,25.471900,-10.058000,25.540600,-9.733900,25.601200,-9.408100,25.653900,-9.081000,25.698500,-8.752400,25.735000,-8.423100,25.763400,-8.093000,25.783700,-7.762300,25.799000,-7.265800,25.799000,-6.934500,25.790800,-6.602900,
25.774600,-6.272000,25.735000,-5.776900,25.698500,-5.447300,25.653900,-5.119000,25.601200,-4.791900,25.507300,-4.304100,25.434700,-3.980900,25.354200,-3.659500,25.265900,-3.340100,25.169600,-3.022800,25.065600,-2.708200,24.954000,-2.396200,24.772400,-1.933900,24.641900,-1.629400,24.503900,-1.328100,24.358600,-1.030400,24.126900,-0.590400,23.963600,-0.302100,23.793400,-0.018200,23.616100,0.261800,
23.432000,0.537300,23.143200,0.942100,22.942600,1.205700,22.735700,1.464200,22.413200,1.842700,22.190900,2.088000,21.962500,2.328000,21.728200,2.562300,21.488200,2.790700,21.117700,3.122400,20.864200,3.335700,20.605700,3.542600,20.342100,3.743200,20.073500,3.937300,19.661800,4.216100,19.381800,4.393400,19.097900,4.563600,18.663700,4.806000,18.369600,4.958600,18.072100,5.103800,
17.770900,5.241800,17.466400,5.372300,17.158700,5.495300,16.848200,5.610800,16.534800,5.718600,16.219000,5.818600,15.900800,5.910900,15.580400,5.995400,14.956600,6.135800,14.823800,5.419700,14.806900,5.390600,14.780200,5.379100,14.166300,5.482300,13.546600,5.558800,12.924300,5.604700,12.300200,5.620000,11.676000,5.604700,11.053400,5.558800,10.433700,5.482300,9.819800,5.379100,
9.793100,5.390600,9.776200,5.419700,9.643400,6.135800,9.019600,5.995400,8.699200,5.910900,8.381000,5.818600,8.065200,5.718600,7.752100,5.610900,7.441600,5.495500,7.133900,5.372400,6.829400,5.241900,6.528100,5.103900,6.230400,4.958600,5.936300,4.806000,5.646000,4.646200,5.359700,4.479400,5.077700,4.305600,4.799900,4.124900,4.526700,3.937500,4.258200,3.743400,
3.994500,3.542800,3.735800,3.335700,3.482300,3.122400,3.234100,2.902900,2.991300,2.677400,2.754200,2.446000,2.522800,2.208900,2.297300,1.966200,2.077800,1.717900,1.864500,1.464400,1.657400,1.205700,1.456800,0.942100,1.262700,0.673500,1.075200,0.400300,0.894600,0.122600,0.720700,-0.159500,0.553900,-0.445700,0.394100,-0.736000,0.241500,-1.030100,0.096200,-1.327900,
-0.108100,-1.781200,-0.234900,-2.087400,-0.354100,-2.396500,-0.465600,-2.708200,-0.569600,-3.022800,-0.665800,-3.339800,-0.754100,-3.659200,-0.872000,-4.142300,-0.940600,-4.466400,-1.001200,-4.791900,-1.077200,-5.283300,-1.117800,-5.612200,-1.150200,-5.941900,-1.174600,-6.272300,-1.190800,-6.602900,-1.200000,-7.100200,-1.195900,-7.431500,-1.183700,-7.762300,-1.150200,-8.258400,-1.117700,-8.588200,
-1.077200,-8.917000,-1.028600,-9.244400,-0.972000,-9.570900,-0.871900,-10.058000,-0.795500,-10.380100,-0.711000,-10.700500,-0.618700,-11.018700,-0.518700,-11.334600,-0.490700,-11.417200,0.195700,-11.174200,0.224700,-11.172900,0.252700,-11.191700,0.489500,-11.823300,0.735300,-12.396800,1.009200,-12.957900,1.310200,-13.504900,1.637700,-14.036400,1.990900,-14.551200,2.368900,-15.048100,2.730700,-15.483100,
2.736900,-15.511400,2.723100,-15.542200,2.166500,-16.019500,2.522600,-16.408700,2.871800,-16.762300,3.234100,-17.102900,3.608400,-17.429900,3.864500,-17.640000,4.125500,-17.843700,4.526500,-18.137300,4.938000,-18.415900,5.359500,-18.679300,5.790700,-18.927000,6.082600,-19.083100,6.378500,-19.232000,6.829100,-19.441800,7.287400,-19.634900,7.596500,-19.754100,7.908200,-19.865600,8.381300,-20.018700,
8.699200,-20.110900,9.019600,-20.195400,9.503800,-20.307300,9.991900,-20.401200,10.483300,-20.477200,10.811800,-20.517700,11.141600,-20.550200,11.637700,-20.583700,11.968500,-20.595900,12.299800,-20.600000,12.796700,-20.590900,13.293300,-20.563400,13.788200,-20.517700,14.117000,-20.477200,14.444700,-20.428500,14.771200,-20.371900,15.096200,-20.307300,15.419400,-20.234700,15.740800,-20.154100,16.060200,-20.065800,
16.377200,-19.969600,16.691800,-19.865600,17.003800,-19.754000,17.312900,-19.634800,17.619000,-19.508000,17.921900,-19.373700,18.221500,-19.232000,18.517400,-19.083100,18.809600,-18.926900,19.097900,-18.763600,19.382100,-18.593200,19.662000,-18.415900,19.937500,-18.231900,20.208400,-18.041100,20.474500,-17.843700,20.735700,-17.639900,20.991800,-17.429700,21.242700,-17.213200,21.488200,-16.990700,21.728200,-16.762300,
21.962500,-16.528000,22.190900,-16.288000,22.413400,-16.042500,22.629900,-15.791600,22.921800,-15.432100,22.945700,-15.415500,22.974800,-15.415000,22.999200,-15.430900,23.145500,-15.667000,23.313700,-15.877200,23.427200,-15.993600,23.590700,-16.134500,23.767200,-16.258800,23.955100,-16.365200,24.151900,-16.452500,24.392600,-16.529900,24.415800,-16.547700,24.425100,-16.575500,24.417200,-16.603700,24.083400,-17.015200,
23.836500,-17.301400,23.583100,-17.581000,23.189700,-17.989200,22.781500,-18.382700,22.501000,-18.636900,22.069400,-19.004600,21.624600,-19.356100,21.167700,-19.690600,20.698300,-20.008500,20.378400,-20.211000,19.890400,-20.499500,19.392000,-20.769800,18.884600,-21.021300,18.540400,-21.179000,18.018600,-21.398900,17.665900,-21.534900,17.310100,-21.662300,16.951200,-21.780800,16.589500,-21.890500,16.225200,-21.991400,
15.858600,-22.083200,15.489800,-22.166000,15.119100,-22.239800,14.746100,-22.304500,14.372200,-22.359900,13.997100,-22.406200,13.621000,-22.443200,13.244000,-22.471000,12.866500,-22.489600,12.488700,-22.498800,12.110700,-22.498800,11.732900,-22.489600,11.355400,-22.471000,10.978400,-22.443200,10.602300,-22.406100,10.227200,-22.359900,9.853300,-22.304400,9.480900,-22.239800,9.110200,-22.166000,8.741400,-22.083200,
8.374800,-21.991400,8.010500,-21.890500,7.648800,-21.780800,7.289900,-21.662300,6.934100,-21.534900,6.581400,-21.398900,6.232200,-21.254200,5.715900,-21.021600,5.375700,-20.855500,4.874600,-20.591600,4.545200,-20.405000,4.061300,-20.110900,3.744000,-19.904500,3.279000,-19.581200,2.974900,-19.355700,2.530600,-19.004600,2.240900,-18.760800,1.819000,-18.383100,1.544800,-18.122000,1.146800,-17.719100,
0.889100,-17.441800,0.516600,-17.015200,0.182800,-16.603700,0.176100,-16.565700,0.198600,-16.534200,0.447500,-16.452700,0.645400,-16.365000,0.878000,-16.229400,1.051900,-16.100400,1.211400,-15.955800,1.356500,-15.795900,1.485100,-15.622500,1.597800,-15.434800,1.611800,-15.421100,1.644700,-15.413400,1.675000,-15.428400,1.905900,-15.714300,2.346900,-15.337600,2.018000,-14.923400,1.736600,-14.539200,
1.384700,-14.012400,1.137300,-13.605400,0.831800,-13.050400,0.620300,-12.623700,0.424900,-12.190100,0.189300,-11.600900,-0.357400,-11.794400,-0.225200,-12.137100,-0.227300,-12.171200,-0.246500,-12.193600,-0.270000,-12.201100,-0.506100,-12.206000,-0.719800,-12.232300,-0.931000,-12.279800,-1.136000,-12.347500,-1.380800,-12.459600,-1.566000,-12.570600,-1.739900,-12.699600,-1.908900,-12.853900,-1.929800,-12.866700,
-1.954300,-12.868100,-1.976500,-12.857600,-1.991000,-12.837900,-2.135100,-12.465400,-2.322600,-11.931000,-2.437000,-11.570100,-2.591400,-11.025200,-2.683300,-10.658000,-2.766100,-10.289200,-2.873200,-9.733100,-2.933300,-9.360000,-2.984100,-8.985400,-3.025800,-8.609800,-3.058200,-8.233200,-3.081400,-7.855900,-3.095400,-7.478200,-3.100000,-7.099700,-3.095400,-6.721800,-3.081400,-6.344100,-3.058200,-5.966800,
-3.025800,-5.590200,-2.984100,-5.214600,-2.933300,-4.840000,-2.873200,-4.466900,-2.766100,-3.910800,-2.683300,-3.542000,-2.591500,-3.175400,-2.490700,-2.811100,-2.381000,-2.449400,-2.262500,-2.090500,-2.135100,-1.734600,-1.999100,-1.382000,-1.854500,-1.032800,-1.701300,-0.687300,-1.539700,-0.345600,-1.369800,-0.008000,-1.191600,0.325400,-1.005300,0.654200,-0.811000,0.978400,-0.608800,1.297700,
-0.398800,1.612000,-0.181200,1.921000,0.043900,2.224600,0.276500,2.522600,0.516200,2.814800,0.763100,3.101000,1.016900,3.381000,1.277500,3.654800,1.544800,3.922000,1.818500,4.182700,2.098600,4.436500,2.384800,4.683400,2.676900,4.923200,2.974900,5.155700,3.278500,5.380900,3.587500,5.598500,3.901700,5.808500,4.221100,6.010700,4.545200,6.205000,4.874100,6.391300,
5.207400,6.569500,5.545000,6.739500,5.886700,6.901100,6.232200,7.054200,6.581400,7.198900,6.934600,7.335100,7.469000,7.522600,7.829900,7.637000,8.374800,7.791400,8.742000,7.883300,9.295900,8.004200,9.853900,8.104500,10.123300,8.145100,10.152000,8.140600,10.152000,8.140600,$1*%
%AMFreePoly1*
4,1,257,1.261400,0.699200,1.322700,0.697000,1.383900,0.693200,1.445000,0.688000,1.506000,0.681200,1.566800,0.672900,1.627400,0.663200,1.687700,0.652000,1.747800,0.639300,1.807500,0.625100,1.866800,0.609400,1.925700,0.592400,1.984200,0.573800,2.042200,0.553900,2.099700,0.532500,2.156700,0.509700,2.213100,0.485500,2.268900,0.460000,2.324000,0.433100,2.378500,0.404800,
2.432200,0.375200,2.485300,0.344300,2.537500,0.312100,2.588900,0.278700,2.639500,0.244000,2.689200,0.208000,2.738100,0.170900,2.786000,0.132500,2.832900,0.093000,2.878900,0.052400,2.923900,0.010600,2.967800,-0.032200,3.010600,-0.076100,3.052400,-0.121100,3.093000,-0.167100,3.132500,-0.214000,3.170900,-0.261900,3.208000,-0.310800,3.244000,-0.360500,3.278700,-0.411100,
3.312100,-0.462500,3.344300,-0.514700,3.375200,-0.567800,3.404800,-0.621500,3.433100,-0.676000,3.460000,-0.731100,3.485500,-0.786900,3.509700,-0.843300,3.532500,-0.900300,3.553900,-0.957800,3.573800,-1.015800,3.592400,-1.074300,3.609400,-1.133200,3.625100,-1.192500,3.639300,-1.252200,3.652000,-1.312300,3.663200,-1.372600,3.672900,-1.433200,3.681200,-1.494000,3.688000,-1.555000,
3.693200,-1.616100,3.697000,-1.677300,3.699200,-1.738600,3.700000,-1.800000,3.699200,-1.861400,3.697000,-1.922700,3.693200,-1.983900,3.688000,-2.045000,3.681200,-2.106000,3.672900,-2.166800,3.663200,-2.227400,3.652000,-2.287700,3.639300,-2.347800,3.625100,-2.407500,3.609400,-2.466800,3.592400,-2.525700,3.573800,-2.584200,3.553900,-2.642200,3.532500,-2.699700,3.509700,-2.756700,
3.485500,-2.813100,3.460000,-2.868900,3.433100,-2.924000,3.404800,-2.978500,3.375200,-3.032200,3.344300,-3.085300,3.312100,-3.137500,3.278700,-3.188900,3.244000,-3.239500,3.208000,-3.289200,3.170900,-3.338100,3.132500,-3.386000,3.093000,-3.432900,3.052400,-3.478900,3.010600,-3.523900,2.967800,-3.567800,2.923900,-3.610600,2.878900,-3.652400,2.832900,-3.693000,2.786000,-3.732500,
2.738100,-3.770900,2.689200,-3.808000,2.639500,-3.844000,2.588900,-3.878700,2.537500,-3.912100,2.485300,-3.944300,2.432200,-3.975200,2.378500,-4.004800,2.324000,-4.033100,2.268900,-4.060000,2.213100,-4.085500,2.156700,-4.109700,2.099700,-4.132500,2.042200,-4.153900,1.984200,-4.173800,1.925700,-4.192400,1.866800,-4.209400,1.807500,-4.225100,1.747800,-4.239300,1.687700,-4.252000,
1.627400,-4.263200,1.566800,-4.272900,1.506000,-4.281200,1.445000,-4.288000,1.383900,-4.293200,1.322700,-4.297000,1.261400,-4.299200,1.200000,-4.300000,1.138600,-4.299200,1.077300,-4.297000,1.016100,-4.293200,0.955000,-4.288000,0.894000,-4.281200,0.833200,-4.272900,0.772600,-4.263200,0.712300,-4.252000,0.652200,-4.239300,0.592500,-4.225100,0.533200,-4.209400,0.474300,-4.192400,
0.415800,-4.173800,0.357800,-4.153900,0.300300,-4.132500,0.243300,-4.109700,0.186900,-4.085500,0.131100,-4.060000,0.076000,-4.033100,0.021500,-4.004800,-0.032200,-3.975200,-0.085300,-3.944300,-0.137500,-3.912100,-0.188900,-3.878700,-0.239500,-3.844000,-0.289200,-3.808000,-0.338100,-3.770900,-0.386000,-3.732500,-0.432900,-3.693000,-0.478900,-3.652400,-0.523900,-3.610600,-0.567800,-3.567800,
-0.610600,-3.523900,-0.652400,-3.478900,-0.693000,-3.432900,-0.732500,-3.386000,-0.770900,-3.338100,-0.808000,-3.289200,-0.844000,-3.239500,-0.878700,-3.188900,-0.912100,-3.137500,-0.944300,-3.085300,-0.975200,-3.032200,-1.004800,-2.978500,-1.033100,-2.924000,-1.060000,-2.868900,-1.085500,-2.813100,-1.109700,-2.756700,-1.132500,-2.699700,-1.153900,-2.642200,-1.173800,-2.584200,-1.192400,-2.525700,
-1.209400,-2.466800,-1.225100,-2.407500,-1.239300,-2.347800,-1.252000,-2.287700,-1.263200,-2.227400,-1.272900,-2.166800,-1.281200,-2.106000,-1.288000,-2.045000,-1.293200,-1.983900,-1.297000,-1.922700,-1.299200,-1.861400,-1.300000,-1.800000,-1.299200,-1.738600,-1.297000,-1.677300,-1.293200,-1.616100,-1.288000,-1.555000,-1.281200,-1.494000,-1.272900,-1.433200,-1.263200,-1.372600,-1.252000,-1.312300,
-1.239300,-1.252200,-1.225100,-1.192500,-1.209400,-1.133200,-1.192400,-1.074300,-1.173800,-1.015800,-1.153900,-0.957800,-1.132500,-0.900300,-1.109700,-0.843300,-1.085500,-0.786900,-1.060000,-0.731100,-1.033100,-0.676000,-1.004800,-0.621500,-0.975200,-0.567800,-0.944300,-0.514700,-0.912100,-0.462500,-0.878700,-0.411100,-0.844000,-0.360500,-0.808000,-0.310800,-0.770900,-0.261900,-0.732500,-0.214000,
-0.693000,-0.167100,-0.652400,-0.121100,-0.610600,-0.076100,-0.567800,-0.032200,-0.523900,0.010600,-0.478900,0.052400,-0.432900,0.093000,-0.386000,0.132500,-0.338100,0.170900,-0.289200,0.208000,-0.239500,0.244000,-0.188900,0.278700,-0.137500,0.312100,-0.085300,0.344300,-0.032200,0.375200,0.021500,0.404800,0.076000,0.433100,0.131100,0.460000,0.186900,0.485500,0.243300,0.509700,
0.300300,0.532500,0.357800,0.553900,0.415800,0.573800,0.474300,0.592400,0.533200,0.609400,0.592500,0.625100,0.652200,0.639300,0.712300,0.652000,0.772600,0.663200,0.833200,0.672900,0.894000,0.681200,0.955000,0.688000,1.016100,0.693200,1.077300,0.697000,1.138600,0.699200,1.200000,0.700000,1.261400,0.699200,1.261400,0.699200,$1*%
%AMFreePoly2*
4,1,722,4.535100,10.003100,4.561300,9.990100,4.582600,9.970200,4.597300,9.944900,4.604000,9.916500,4.602200,9.887300,4.589600,9.855700,4.570900,9.833300,4.546500,9.817300,4.149600,9.698200,3.742300,9.559800,3.332200,9.402300,2.937100,9.232500,2.546800,9.046400,2.158600,8.842200,1.785000,8.626600,1.419100,8.395800,1.067600,8.154500,0.723200,7.897700,0.387900,7.626800,
0.061800,7.341400,-0.250300,7.045700,-0.546200,6.742700,-0.832300,6.425900,-1.106700,6.097100,-1.369400,5.755800,-1.616400,5.407300,-1.846200,5.054900,-2.063900,4.690900,-2.270000,4.313000,-2.458300,3.933200,-2.629400,3.551200,-2.786800,3.159800,-2.929200,2.761100,-3.056900,2.354000,-3.165800,1.952200,-3.259700,1.543100,-3.337800,1.129400,-3.400100,0.709500,-3.445100,0.293900,
-3.473700,-0.119700,-3.486300,-0.541300,-3.482300,-0.959600,-3.462300,-1.371000,-3.426000,-1.784700,-3.372800,-2.202900,-3.305000,-2.607500,-3.220900,-3.012500,-3.120700,-3.415200,-3.003700,-3.816900,-2.873100,-4.207600,-2.728300,-4.590300,-2.703700,-4.629700,-2.665400,-4.657900,-2.619300,-4.669800,-2.572100,-4.663500,-2.311800,-4.545800,-2.272500,-4.501100,-2.258500,-4.444500,-2.263900,-4.406600,
-2.376000,-4.030200,-2.471500,-3.657100,-2.553900,-3.273500,-2.620600,-2.891300,-2.671800,-2.511200,-2.708600,-2.126200,-2.730500,-1.736600,-2.737100,-1.354800,-2.728900,-0.969700,-2.705500,-0.581900,-2.667300,-0.199700,-2.614500,0.180100,-2.546900,0.557100,-2.464900,0.930700,-2.368600,1.300200,-2.259400,1.661500,-2.135200,2.021500,-1.997200,2.375800,-1.844200,2.727600,-1.679500,3.069100,
-1.503800,3.400100,-1.313800,3.726900,-1.111500,4.045700,-0.895000,4.359000,-0.671500,4.657000,-0.434500,4.948800,-0.184100,5.233500,0.074200,5.505100,0.339600,5.763400,0.617300,6.013400,0.907100,6.254600,1.199400,6.479200,1.503000,6.694300,1.814200,6.897200,2.135900,7.089400,2.457600,7.265000,2.788900,7.429500,3.129300,7.582300,3.471400,7.720100,3.814300,7.843000,
4.165000,7.953500,4.522900,8.051200,4.846100,8.125900,4.894900,8.122500,4.939600,8.092800,4.955300,8.067800,4.963100,8.039300,4.954900,7.986200,4.938900,7.961400,4.916300,7.942400,4.586700,7.835100,4.257200,7.717100,3.924100,7.583100,3.600500,7.438000,3.288300,7.283500,2.979400,7.115500,2.675900,6.935100,2.377000,6.741100,2.094000,6.541700,1.816300,6.329600,
1.542900,6.103600,1.282500,5.870700,1.031000,5.627600,0.793400,5.379600,0.563200,5.120200,0.342400,4.851100,0.130700,4.571800,-0.068000,4.287200,-0.252300,4.000600,-0.427100,3.704300,-0.593300,3.396000,-0.744500,3.087100,-0.881700,2.777500,-1.008100,2.459900,-1.122700,2.136300,-1.225600,1.805400,-1.313000,1.480500,-1.388600,1.149400,-1.451700,0.814100,-1.502200,0.473500,
-1.538800,0.137400,-1.562300,-0.196400,-1.573100,-0.538100,-1.570600,-0.876500,-1.555400,-1.208200,-1.527300,-1.542400,-1.485500,-1.881400,-1.432500,-2.207500,-1.366300,-2.534600,-1.286300,-2.864000,-1.196200,-3.181200,-1.093200,-3.496900,-0.973600,-3.819300,-0.945300,-3.857800,-0.913500,-3.879200,-0.868300,-3.890700,-0.820900,-3.884500,-0.559600,-3.766100,-0.524800,-3.728200,-0.507400,-3.670700,
-0.511200,-3.633100,-0.592300,-3.332600,-0.661400,-3.031600,-0.719500,-2.724900,-0.764700,-2.424300,-0.798800,-2.118900,-0.821400,-1.809200,-0.831900,-1.507000,-0.830900,-1.201300,-0.818000,-0.892600,-0.794100,-0.592800,-0.758400,-0.290800,-0.711200,0.009000,-0.652800,0.306300,-0.583200,0.600600,-0.502600,0.891600,-0.411100,1.178700,-0.307500,1.465200,-0.194700,1.743500,-0.071500,2.016800,
0.061700,2.284700,0.203000,2.543500,0.355600,2.799700,0.517600,3.049300,0.691000,3.295300,0.868600,3.527900,1.057100,3.756200,1.256300,3.979500,1.461000,4.191900,1.670400,4.393400,1.889700,4.588900,2.118900,4.778000,2.348700,4.953200,2.587700,5.121500,2.832400,5.280300,3.085900,5.431200,3.337700,5.568400,3.597600,5.697500,3.865100,5.817800,4.133100,5.926100,
4.400900,6.022700,4.675300,6.110100,4.952300,6.186800,5.198400,6.245000,5.251700,6.242900,5.278000,6.230000,5.299500,6.210100,5.320500,6.161000,5.320100,6.131700,5.311200,6.103800,5.275900,6.063800,4.772100,5.876300,4.516100,5.766000,4.268400,5.647900,4.030800,5.523500,3.795100,5.388700,3.563500,5.244400,3.334900,5.089600,3.120300,4.932200,2.909200,4.764800,
2.700700,4.586300,2.502900,4.403500,2.311900,4.213100,2.132400,4.020200,1.958100,3.818400,1.790600,3.609000,1.629800,3.391600,1.479300,3.171000,1.340500,2.950100,1.208300,2.721500,1.082100,2.482600,0.967700,2.244700,0.864400,2.007400,0.768900,1.763500,0.682100,1.514800,0.603900,1.260000,0.537900,1.012000,0.480500,0.758500,0.432400,0.501700,0.393700,0.240100,
0.365500,-0.016700,0.347200,-0.271000,0.338300,-0.533700,0.339300,-0.790400,0.349700,-1.043600,0.370300,-1.304100,0.399600,-1.553700,0.438600,-1.805300,0.488300,-2.061200,0.545200,-2.304400,0.611900,-2.548500,0.689300,-2.794700,0.778000,-3.041200,0.797500,-3.070400,0.824300,-3.092900,0.882600,-3.111700,0.931500,-3.105000,1.121300,-3.024300,1.173900,-3.029000,1.216700,-3.059900,
1.231500,-3.084900,1.392700,-3.499500,1.556600,-3.850200,1.664900,-4.055300,1.780400,-4.255700,1.990000,-4.581200,2.124600,-4.769300,2.266400,-4.952900,2.517800,-5.247200,2.676900,-5.415900,2.841700,-5.578300,3.130500,-5.836100,3.433500,-6.075000,3.751200,-6.295200,4.015200,-6.457400,4.354600,-6.640900,4.634900,-6.773000,4.992500,-6.918000,5.285600,-7.018400,5.657000,-7.123100,
5.959400,-7.190600,6.340700,-7.253800,6.725100,-7.293600,7.110700,-7.309600,7.497100,-7.302000,7.882400,-7.270700,8.189300,-7.228600,8.568700,-7.155000,8.943000,-7.058300,9.164400,-6.989300,9.382500,-6.912400,9.740300,-6.766300,10.089000,-6.598200,10.292800,-6.487300,10.491700,-6.369300,10.814100,-6.156200,11.122900,-5.923600,11.445400,-5.652100,11.473500,-5.643400,11.502800,-5.643200,
11.531000,-5.651500,11.555500,-5.667700,11.574300,-5.690200,11.585700,-5.717300,11.588400,-5.751400,11.581400,-5.779900,11.563300,-5.808900,11.444000,-5.929600,11.265200,-6.097100,11.082600,-6.255800,10.891000,-6.410200,10.693200,-6.557600,10.486400,-6.699800,10.277100,-6.832300,10.065900,-6.955300,9.843000,-7.074000,9.618700,-7.182800,9.393400,-7.281800,9.157100,-7.375200,8.920400,-7.458600,
8.683900,-7.532000,8.437100,-7.598600,8.191000,-7.655100,7.946200,-7.701700,7.691800,-7.740300,7.439300,-7.768800,7.189200,-7.787700,6.930600,-7.797400,6.674900,-7.797300,6.422700,-7.787700,6.166700,-7.768500,5.907400,-7.739000,5.652600,-7.700200,5.402600,-7.652600,5.146700,-7.593700,4.896400,-7.526000,4.648300,-7.448800,4.406200,-7.363500,4.163600,-7.267600,3.920800,-7.160800,
3.685200,-7.046300,3.453600,-6.922800,3.226300,-6.790400,3.003700,-6.649200,2.789300,-6.501700,2.577000,-6.343700,2.370500,-6.177400,2.167100,-6.000700,1.973000,-5.818600,1.788100,-5.631600,1.604900,-5.431900,1.431500,-5.227800,1.267800,-5.020000,1.109500,-4.802700,0.956100,-4.574700,0.922500,-4.541500,0.875300,-4.522400,0.824400,-4.523800,0.562400,-4.638700,0.526900,-4.669200,
0.505100,-4.710700,0.499700,-4.748800,0.509600,-4.795800,0.651900,-5.064500,0.798700,-5.317100,0.953900,-5.562100,1.123400,-5.808500,1.299200,-6.044000,1.481600,-6.270100,1.679900,-6.497400,1.882500,-6.712500,2.090800,-6.917400,2.311300,-7.118600,2.542000,-7.313300,2.774300,-7.494600,3.016100,-7.669100,3.269700,-7.837600,3.526700,-7.994500,3.788300,-8.140800,4.052400,-8.275600,
4.330600,-8.404500,4.610500,-8.521300,4.893300,-8.626800,5.176800,-8.720600,5.468800,-8.805000,5.769900,-8.879700,6.067600,-8.941500,6.364200,-8.991400,6.668700,-9.030800,6.977900,-9.058900,7.285600,-9.074800,7.592300,-9.079100,7.895700,-9.071800,8.204800,-9.052600,8.512500,-9.021700,8.824100,-8.978200,9.128700,-8.923700,9.427800,-8.858400,9.734000,-8.779300,10.033700,-8.689400,
10.328500,-8.588500,10.616200,-8.477800,10.905300,-8.353700,11.193300,-8.216800,11.467900,-8.073100,11.736100,-7.923100,11.789600,-7.922900,11.816600,-7.934800,11.838900,-7.954000,11.854600,-7.978900,11.862400,-8.007300,11.854400,-8.060200,11.820200,-8.101400,11.580600,-8.268100,11.304900,-8.444300,11.022100,-8.610100,10.736200,-8.763400,10.440600,-8.907600,10.135600,-9.041900,9.828700,-9.163100,
9.520500,-9.271400,9.200500,-9.370100,8.880200,-9.455500,8.556200,-9.528600,8.232900,-9.588600,7.899400,-9.637300,7.567500,-9.672700,7.237800,-9.695100,6.903200,-9.705000,6.564000,-9.701900,6.228400,-9.685800,5.897100,-9.657100,5.558900,-9.614700,5.225800,-9.559700,4.894600,-9.491800,4.569500,-9.412100,4.243400,-9.318700,3.917000,-9.211400,3.598200,-9.092700,3.283600,-8.961500,
2.977300,-8.819800,2.672700,-8.664500,2.373900,-8.497300,2.081300,-8.318400,1.795300,-8.128000,1.516500,-7.926500,1.242200,-7.711600,0.979000,-7.488300,0.726900,-7.257400,0.478100,-7.011100,0.241300,-6.757800,0.016500,-6.498100,-0.200900,-6.226500,-0.410200,-5.943200,-0.606500,-5.654800,-0.792800,-5.357100,-0.816200,-5.330100,-0.867500,-5.303300,-0.926600,-5.302700,-1.187800,-5.417100,
-1.224200,-5.448000,-1.245900,-5.489200,-1.251500,-5.527000,-1.242000,-5.573800,-1.065500,-5.914500,-0.881300,-6.237700,-0.686000,-6.551600,-0.473400,-6.865200,-0.251800,-7.166100,-0.020900,-7.455600,0.228500,-7.744400,0.484600,-8.018700,0.748900,-8.280500,1.027700,-8.536200,1.318900,-8.783100,1.613900,-9.014000,1.920400,-9.235300,2.240500,-9.448100,2.566000,-9.646400,2.897600,-9.831200,
3.233200,-10.001600,3.584400,-10.163100,3.938700,-10.309500,4.297000,-10.441500,4.657000,-10.558500,5.026400,-10.663000,5.405900,-10.754500,5.782500,-10.829800,6.158400,-10.890000,6.542700,-10.936400,6.932000,-10.968000,7.319900,-10.984300,7.706700,-10.985500,8.089900,-10.971900,8.478700,-10.943000,8.869500,-10.898500,9.255900,-10.839100,9.638300,-10.765000,10.014400,-10.677000,10.396600,-10.571700,
10.771200,-10.452500,11.139700,-10.319400,11.499600,-10.173400,11.859400,-10.010900,12.216500,-9.832500,12.558400,-9.644800,12.890200,-9.449100,12.943100,-9.447500,12.970200,-9.458500,12.992900,-9.476800,13.009300,-9.500800,13.018200,-9.528600,13.018600,-9.557700,13.010600,-9.585800,12.980800,-9.623700,12.677600,-9.836300,12.332100,-10.058700,11.981000,-10.265700,11.625100,-10.457300,11.258000,-10.636800,
10.880000,-10.803600,10.498800,-10.954100,10.115300,-11.088600,9.718800,-11.210400,9.321100,-11.315600,8.919000,-11.405400,8.517000,-11.478800,8.104200,-11.537600,7.692700,-11.579800,7.283200,-11.605700,6.868600,-11.615800,6.449400,-11.609500,6.034200,-11.586900,5.623500,-11.548400,5.206300,-11.492800,4.795000,-11.421500,4.386200,-11.333900,3.984300,-11.231400,3.582500,-11.112000,3.181500,-10.975400,
2.789300,-10.824500,2.402800,-10.658000,2.026100,-10.478100,1.652800,-10.281600,1.286900,-10.070300,0.929100,-9.844600,0.580000,-9.604700,0.240100,-9.351100,-0.093100,-9.081400,-0.412900,-8.801100,-0.719000,-8.510900,-1.019500,-8.202900,-1.305300,-7.885800,-1.576400,-7.560400,-1.837400,-7.221200,-2.087400,-6.868300,-2.319500,-6.512000,-2.541400,-6.140400,-2.564900,-6.111300,-2.617500,-6.082600,
-2.677400,-6.081700,-2.939100,-6.196100,-2.975300,-6.226900,-2.997400,-6.269000,-3.002200,-6.316300,-2.989500,-6.360900,-2.785100,-6.760800,-2.563800,-7.154800,-2.323600,-7.545300,-2.070100,-7.923100,-1.802800,-8.289600,-1.523400,-8.642600,-1.222900,-8.993000,-0.913100,-9.326600,-0.592900,-9.645500,-0.255700,-9.955900,0.096200,-10.255100,0.453900,-10.535600,0.825100,-10.804000,1.212000,-11.061000,
1.605800,-11.300800,2.007600,-11.524200,2.414800,-11.730200,2.839200,-11.924400,3.267900,-12.100300,3.701800,-12.258700,4.138400,-12.399000,4.585400,-12.523600,5.043300,-12.631800,5.498900,-12.720700,5.954200,-12.791100,6.418400,-12.844400,6.887800,-12.879500,7.355900,-12.896000,7.822800,-12.894000,8.286000,-12.873900,8.754400,-12.835200,9.224400,-12.777600,9.689400,-12.701700,10.149600,-12.607900,
10.602600,-12.497000,11.057100,-12.366700,11.505700,-12.218700,11.948600,-12.052900,12.384200,-11.870000,12.818200,-11.667400,13.236500,-11.451600,13.649000,-11.217800,14.105900,-10.934200,14.134200,-10.926900,14.163400,-10.928100,14.211100,-10.951500,14.240000,-10.996000,14.244800,-11.024800,14.240900,-11.053800,14.226200,-11.084400,14.205900,-11.105500,13.901600,-11.311000,13.645700,-11.473500,13.256200,-11.704400,
12.859600,-11.920200,12.589000,-12.056800,12.179900,-12.247900,11.901400,-12.367700,11.621300,-12.480200,11.197200,-12.635500,10.620800,-12.818900,10.185000,-12.937300,9.890200,-13.007700,9.594900,-13.070600,9.150600,-13.151100,8.551300,-13.233300,8.250900,-13.263300,7.800400,-13.294300,7.497500,-13.305900,7.045900,-13.309300,6.441300,-13.287800,5.991200,-13.252400,5.689900,-13.219400,5.390700,-13.179100,
4.945200,-13.105300,4.353200,-12.980800,3.915700,-12.868900,3.625600,-12.785200,3.336500,-12.694100,2.910200,-12.545100,2.348300,-12.321200,2.072100,-12.199300,1.664800,-12.004200,1.130900,-11.719800,0.869900,-11.568100,0.486600,-11.329300,-0.012600,-10.987800,-0.374100,-10.717000,-0.611000,-10.527900,-0.842200,-10.333900,-1.179000,-10.033100,-1.398800,-9.824400,-1.716600,-9.503500,-2.123500,-9.055800,
-2.412500,-8.708900,-2.598600,-8.471200,-2.953600,-7.981400,-3.121600,-7.730600,-3.361400,-7.347900,-3.660300,-6.821900,-3.799600,-6.554200,-3.995700,-6.147400,-4.118900,-5.870500,-4.262700,-5.521000,-4.268300,-5.467700,-4.245600,-5.419200,-4.214700,-5.395000,-4.082800,-5.336100,-4.053200,-5.317200,-4.018800,-5.269200,-4.009700,-5.219300,-4.015800,-5.183500,-4.158700,-4.732600,-4.281700,-4.283900,
-4.387800,-3.827500,-4.475800,-3.367700,-4.546000,-2.901500,-4.596900,-2.441300,-4.630000,-1.976000,-4.644700,-1.506500,-4.641100,-1.045100,-4.619200,-0.580900,-4.578700,-0.114500,-4.520300,0.345500,-4.444000,0.802200,-4.349900,1.255100,-4.239300,1.699500,-4.110300,2.142600,-3.964200,2.579600,-3.799700,3.013800,-3.621600,3.433300,-3.425700,3.848600,-3.212000,4.258900,-2.984400,4.656500,
-2.743900,5.041000,-2.486600,5.418700,-2.214900,5.785400,-1.926900,6.143800,-1.627800,6.487100,-1.318600,6.815200,-0.994400,7.133300,-0.655400,7.440600,-0.311000,7.728900,0.047100,8.005500,0.418700,8.269800,0.793200,8.514600,1.180000,8.746300,1.578600,8.964100,1.977900,9.162300,2.387800,9.346100,2.807800,9.514900,3.226100,9.664100,3.653100,9.797800,4.088400,9.915500,
4.486900,10.006400,4.535100,10.003100,4.535100,10.003100,$1*%
%AMFreePoly3*
4,1,711,-2.957400,9.699500,-2.520300,9.485700,-2.122000,9.270400,-1.859900,9.118100,-1.476600,8.879300,-1.224400,8.711300,-0.977400,8.537800,-0.615900,8.267000,-0.148700,7.884700,0.299100,7.479800,0.726600,7.053500,1.034000,6.719400,1.422500,6.258900,1.788700,5.779000,2.048400,5.406500,2.371400,4.897900,2.669700,4.373000,2.941900,3.834100,3.128900,3.420500,3.353800,2.860200,
3.550600,2.290700,3.680300,1.855600,3.827400,1.271400,3.946000,0.679400,4.016000,0.230800,4.083200,-0.367900,4.114400,-0.820900,4.130000,-1.423200,4.116000,-2.026700,4.086000,-2.479700,4.020400,-3.078600,3.951600,-3.527400,3.834500,-4.119700,3.688900,-4.704300,3.560400,-5.139800,3.365100,-5.709800,3.199700,-6.132600,2.955700,-6.684800,2.685600,-7.223300,2.388700,-7.749000,
2.066400,-8.259500,1.719500,-8.753600,1.448300,-9.104900,1.410300,-9.127300,1.361400,-9.130300,1.325000,-9.115700,1.207900,-9.030800,1.176700,-9.014600,1.118000,-9.008800,1.070300,-9.025900,1.042300,-9.049100,0.723200,-9.398300,0.396100,-9.729100,0.053900,-10.049300,-0.300300,-10.355300,-0.668900,-10.649200,-1.042000,-10.923500,-1.428400,-11.184700,-1.827700,-11.432300,-2.229100,-11.659800,
-2.642000,-11.873000,-3.066200,-12.071100,-3.493700,-12.250500,-3.927400,-12.412800,-4.366600,-12.557800,-4.806900,-12.684100,-5.255000,-12.794000,-5.706600,-12.886000,-6.164800,-12.960600,-6.617300,-13.016100,-7.074900,-13.054100,-7.537000,-13.074200,-7.995100,-13.075900,-8.448400,-13.059900,-8.904100,-13.025800,-9.357600,-12.974000,-9.812000,-12.903700,-10.258800,-12.816400,-10.697500,-12.712600,-11.135100,-12.590900,
-11.570700,-12.450900,-11.992600,-12.296800,-12.411300,-12.125000,-12.822300,-11.937100,-13.228600,-11.731500,-13.619200,-11.514300,-14.003800,-11.280100,-14.381700,-11.029000,-14.745700,-10.765900,-15.095600,-10.491400,-15.437100,-10.201200,-15.769300,-9.895500,-16.083200,-9.583000,-16.360700,-9.284200,-16.381100,-9.251100,-16.387400,-9.217700,-16.382100,-9.184100,-16.365900,-9.154200,-16.336300,-9.128900,-16.304300,-9.117600,
-16.270200,-9.117600,-16.238200,-9.129100,-15.928400,-9.418500,-15.604900,-9.702000,-15.263400,-9.978500,-14.914800,-10.238500,-14.561700,-10.481200,-14.196600,-10.711800,-13.821500,-10.928600,-13.435200,-11.132000,-13.050500,-11.315700,-12.655900,-11.485600,-12.249100,-11.642200,-11.842500,-11.780500,-11.436000,-11.901400,-11.021900,-12.007100,-10.602600,-12.097000,-10.176700,-12.170700,-9.758600,-12.226400,-9.335200,-12.266200,
-8.909200,-12.289400,-8.479300,-12.295800,-8.059800,-12.285700,-7.637600,-12.259100,-7.215400,-12.215800,-6.791900,-12.155400,-6.381300,-12.080400,-5.970600,-11.988800,-5.562400,-11.880800,-5.156600,-11.756100,-4.759200,-11.616700,-4.373600,-11.464300,-3.991100,-11.295600,-3.609900,-11.109300,-3.246200,-10.913500,-2.887500,-10.702100,-2.536200,-10.476000,-2.191300,-10.234300,-1.864400,-9.985500,-1.544700,-9.722100,
-1.231000,-9.442200,-0.936700,-9.158000,-0.651300,-8.860200,-0.374200,-8.547400,-0.109500,-8.222900,-0.093000,-8.188500,-0.088200,-8.141200,-0.100900,-8.096500,-0.129900,-8.058800,-0.362000,-7.892200,-0.420300,-7.880600,-0.477500,-7.897300,-0.506500,-7.920400,-0.776500,-8.205600,-1.051800,-8.474900,-1.342800,-8.738100,-1.640500,-8.986900,-1.944000,-9.221300,-2.259100,-9.445700,-2.585500,-9.659400,
-2.912800,-9.856100,-3.250400,-10.041500,-3.598000,-10.215100,-3.948000,-10.373200,-4.303500,-10.517300,-4.663700,-10.647300,-5.028200,-10.763100,-5.396400,-10.864500,-5.763900,-10.950500,-6.137800,-11.022900,-6.513600,-11.080600,-6.894700,-11.124000,-7.272900,-11.152200,-7.647300,-11.165500,-8.025400,-11.164300,-8.402600,-11.148500,-8.782200,-11.117700,-9.152000,-11.073100,-9.523200,-11.013700,-9.895000,-10.939300,
-10.259300,-10.851400,-10.615700,-10.750700,-10.971100,-10.635200,-11.324800,-10.504800,-11.665600,-10.364000,-12.003600,-10.208600,-12.334900,-10.040500,-12.662300,-9.858000,-12.975200,-9.667200,-13.283300,-9.462600,-13.585800,-9.244100,-13.876100,-9.016800,-14.154100,-8.781200,-14.425100,-8.532900,-14.688700,-8.271700,-14.915000,-8.029200,-14.936400,-7.985200,-14.938200,-7.955700,-14.931300,-7.927000,-14.898500,-7.884500,
-14.848400,-7.865100,-14.818900,-7.866600,-14.791100,-7.876600,-14.533500,-8.108500,-14.266500,-8.334800,-13.983900,-8.556200,-13.696400,-8.764000,-13.406500,-8.957000,-13.106600,-9.140600,-12.798600,-9.313200,-12.481200,-9.475100,-12.167000,-9.620400,-11.844400,-9.754900,-11.512000,-9.878600,-11.180100,-9.987700,-10.843800,-10.083900,-10.510300,-10.165700,-10.170600,-10.235400,-9.827100,-10.292100,-9.479300,-10.335800,
-9.133500,-10.365600,-8.793200,-10.381900,-8.449100,-10.385100,-8.099000,-10.374800,-7.755900,-10.351400,-7.419300,-10.315400,-7.081000,-10.266100,-6.743400,-10.203500,-6.405400,-10.127100,-6.080400,-10.040400,-5.755700,-9.940300,-5.433900,-9.827400,-5.113600,-9.700800,-4.804200,-9.564400,-4.503400,-9.417800,-4.202200,-9.256300,-3.910400,-9.085000,-3.630700,-8.906000,-3.355300,-8.714600,-3.082600,-8.508900,
-2.826700,-8.299900,-2.576500,-8.079000,-2.331200,-7.845100,-2.101600,-7.608400,-1.879600,-7.361300,-1.660300,-7.096600,-1.643500,-7.062100,-1.638500,-7.014600,-1.651100,-6.969700,-1.680200,-6.931700,-1.913300,-6.764600,-1.963600,-6.753400,-2.022100,-6.767200,-2.052700,-6.789300,-2.272400,-7.009700,-2.498600,-7.220000,-2.735100,-7.423700,-2.972900,-7.613200,-3.220300,-7.795400,-3.477200,-7.969800,
-3.733700,-8.130000,-3.998900,-8.282000,-4.272600,-8.425200,-4.544300,-8.554300,-4.823600,-8.674400,-5.106900,-8.783500,-5.393500,-8.881600,-5.683200,-8.968500,-5.975500,-9.044100,-6.269900,-9.108500,-6.569800,-9.162000,-6.867300,-9.203400,-7.165500,-9.233400,-7.464200,-9.251900,-7.759000,-9.259000,-8.057100,-9.254900,-8.354300,-9.239500,-8.654000,-9.212300,-8.944300,-9.174800,-9.236200,-9.125700,
-9.529200,-9.064800,-9.815500,-8.993800,-10.094600,-8.913200,-10.373700,-8.821000,-10.652000,-8.717000,-10.918700,-8.605600,-11.183900,-8.482800,-11.443700,-8.350300,-11.701200,-8.206200,-11.946000,-8.056700,-12.187600,-7.896200,-12.425600,-7.724600,-12.653400,-7.546700,-12.871000,-7.363100,-13.083800,-7.169200,-13.288800,-6.967700,-13.462200,-6.783600,-13.487100,-6.736400,-13.484200,-6.683200,-13.470900,-6.657100,
-13.450500,-6.635900,-13.401200,-6.615700,-13.371900,-6.616600,-13.344100,-6.625900,-12.929800,-6.968500,-12.706300,-7.135000,-12.480100,-7.290500,-12.253600,-7.434100,-12.019000,-7.570800,-11.778200,-7.699200,-11.529900,-7.819700,-11.286200,-7.926900,-11.035700,-8.026000,-10.776900,-8.117400,-10.519700,-8.197200,-10.259300,-8.267400,-10.002500,-8.326500,-9.740500,-8.376500,-9.475500,-8.416900,-9.206800,-8.447400,
-8.940500,-8.467400,-8.679800,-8.477300,-8.415700,-8.477400,-8.145700,-8.467200,-7.882500,-8.447300,-7.625400,-8.418100,-7.366300,-8.378900,-7.107600,-8.329800,-6.847800,-8.270100,-6.600000,-8.203200,-6.351800,-8.126200,-6.105400,-8.039400,-5.859400,-7.942200,-5.623000,-7.838200,-5.393600,-7.726900,-5.161600,-7.603200,-4.939800,-7.474000,-4.725800,-7.338400,-4.510500,-7.190300,-4.308900,-7.040200,
-4.110500,-6.880600,-3.913800,-6.709600,-3.731600,-6.538700,-3.553600,-6.358900,-3.379000,-6.168700,-3.209900,-5.968600,-3.194400,-5.937200,-3.188300,-5.902700,-3.201700,-5.841800,-3.231400,-5.803800,-3.396300,-5.679800,-3.418400,-5.631600,-3.414400,-5.583400,-3.398200,-5.553500,-3.246400,-5.370400,-3.105000,-5.186500,-2.884500,-4.868300,-2.762200,-4.672000,-2.646900,-4.470700,-2.471500,-4.126400,
-2.317200,-3.771300,-2.235600,-3.554900,-2.161800,-3.335000,-2.056700,-2.962400,-2.004800,-2.736400,-1.961400,-2.509200,-1.916300,-2.202600,-1.881400,-1.818300,-1.870400,-1.508700,-1.878000,-1.122900,-1.901200,-0.813900,-1.951300,-0.431300,-2.024800,-0.051900,-2.100500,0.248600,-2.215500,0.617600,-2.352600,0.978300,-2.478600,1.261400,-2.654900,1.605300,-2.851700,1.937200,-3.068800,2.257000,
-3.256700,2.503300,-3.507800,2.797200,-3.666900,2.965900,-3.831700,3.128300,-4.120000,3.385700,-4.423500,3.625000,-4.741700,3.845500,-4.938600,3.968100,-5.139300,4.083100,-5.483600,4.258500,-5.838700,4.412800,-6.284100,4.575700,-6.305500,4.595700,-6.320200,4.621100,-6.326900,4.649600,-6.323900,4.683600,-6.312300,4.710500,-6.293400,4.732900,-6.268800,4.748800,-6.240700,4.757000,
-6.206600,4.755800,-6.041500,4.712500,-5.807000,4.641400,-5.578300,4.562700,-5.348800,4.473900,-5.122300,4.376300,-4.895700,4.268300,-4.676300,4.153300,-4.464200,4.031900,-4.249900,3.898200,-4.043500,3.758300,-3.845200,3.612800,-3.646100,3.454800,-3.455600,3.291500,-3.273700,3.123500,-3.092600,2.943000,-2.920700,2.758100,-2.757900,2.569400,-2.597300,2.368400,-2.446400,2.164000,
-2.305000,1.956800,-2.167200,1.737700,-2.039500,1.516200,-1.921700,1.293000,-1.810400,1.061700,-1.706200,0.822400,-1.612400,0.582400,-1.528700,0.342000,-1.451700,0.091000,-1.385100,-0.159700,-1.327900,-0.413100,-1.280800,-0.665400,-1.242600,-0.923500,-1.213600,-1.187100,-1.195000,-1.448400,-1.186100,-1.710800,-1.187200,-1.973800,-1.198100,-2.237100,-1.218700,-2.496600,-1.249400,-2.759500,
-1.290100,-3.021500,-1.341500,-3.285900,-1.402100,-3.545100,-1.471600,-3.798800,-1.553000,-4.057300,-1.643000,-4.309500,-1.741100,-4.555100,-1.850200,-4.800900,-1.971000,-5.047700,-1.982900,-5.093400,-1.975800,-5.143800,-1.949200,-5.187200,-1.718700,-5.356700,-1.674500,-5.372200,-1.627700,-5.370300,-1.583900,-5.350600,-1.556200,-5.323800,-1.394600,-5.066300,-1.249300,-4.812800,-1.114700,-4.555900,
-0.986100,-4.285900,-0.870000,-4.016000,-0.765400,-3.744900,-0.667700,-3.459500,-0.582700,-3.176500,-0.509400,-2.893700,-0.445500,-2.602100,-0.392200,-2.305000,-0.351300,-2.013100,-0.321100,-1.716500,-0.302000,-1.412700,-0.294600,-1.111600,-0.298800,-0.811900,-0.314000,-0.515800,-0.341500,-0.210500,-0.380300,0.090300,-0.430300,0.388100,-0.490900,0.680500,-0.563700,0.975600,-0.649600,1.273700,
-0.745000,1.562400,-0.850000,1.844200,-0.968100,2.127600,-1.098400,2.409400,-1.238400,2.683900,-1.388100,2.951600,-1.546100,3.210700,-1.717300,3.468800,-1.898000,3.719900,-2.091400,3.968000,-2.290900,4.204500,-2.497000,4.430900,-2.718600,4.656500,-2.946300,4.871100,-3.181100,5.076000,-3.420800,5.269700,-3.672800,5.458100,-3.935400,5.639000,-4.197100,5.805000,-4.461200,5.962200,
-4.479000,5.985700,-4.489200,6.013300,-4.485700,6.066700,-4.455200,6.110700,-4.430100,6.126000,-4.401500,6.133300,-4.348800,6.124300,-4.084600,6.000000,-3.794100,5.849400,-3.509100,5.687500,-3.233400,5.516400,-2.960800,5.332500,-2.692000,5.135600,-2.433500,4.930400,-2.185700,4.717700,-1.940200,4.489900,-1.706100,4.255100,-1.480800,4.011100,-1.267200,3.761100,-1.058200,3.496700,
-0.861600,3.227000,-0.677400,2.952700,-0.501500,2.667800,-0.334600,2.372400,-0.180700,2.073800,-0.039900,1.772500,0.092500,1.458400,0.211300,1.142500,0.318100,0.821700,0.411700,0.500300,0.493800,0.171200,0.564100,-0.165100,0.620700,-0.500600,0.664400,-0.838600,0.694900,-1.174700,0.712600,-1.516200,0.717200,-1.858600,0.708600,-2.201400,0.686700,-2.544200,0.651600,-2.886500,
0.602600,-3.231500,0.540900,-3.571100,0.466900,-3.904800,0.378100,-4.243400,0.277100,-4.575200,0.164600,-4.899700,0.038100,-5.223700,-0.102600,-5.546700,-0.254300,-5.860900,-0.418900,-6.171100,-0.430600,-6.204800,-0.428200,-6.262700,-0.399100,-6.314100,-0.169400,-6.483200,-0.124500,-6.499200,-0.077900,-6.497500,-0.034300,-6.478200,-0.006600,-6.451800,0.200200,-6.128600,0.388000,-5.807400,
0.562100,-5.481400,0.727500,-5.140400,0.877300,-4.798100,1.012500,-4.453300,1.138000,-4.093000,1.247400,-3.734000,1.342000,-3.374300,1.424100,-3.004900,1.492200,-2.629300,1.544700,-2.258400,1.583200,-1.882300,1.607300,-1.498700,1.616400,-1.117700,1.610600,-0.738000,1.590400,-0.362200,1.554600,0.022700,1.504200,0.402700,1.439400,0.779000,1.360700,1.149300,1.266500,1.521500,
1.156000,1.895800,1.033000,2.259600,0.897100,2.615300,0.745200,2.971300,0.577900,3.324300,0.398100,3.668300,0.205700,4.003900,0.002300,4.328900,-0.217200,4.651200,-0.451100,4.967400,-0.695700,5.272300,-0.951100,5.566500,-1.215300,5.848100,-1.497600,6.126500,-1.788100,6.391400,-2.087700,6.643900,-2.394100,6.882500,-2.714700,7.112900,-3.047700,7.333000,-3.381200,7.535300,
-3.716600,7.724700,-3.744500,7.769800,-3.748500,7.798700,-3.744000,7.827500,-3.731400,7.853700,-3.711800,7.875300,-3.686800,7.890200,-3.658500,7.897400,-3.610700,7.890500,-3.275000,7.734200,-2.909600,7.546200,-2.554800,7.345700,-2.211000,7.133200,-1.871900,6.905000,-1.538500,6.661100,-1.217600,6.406300,-0.909400,6.141300,-0.605600,5.858900,-0.315600,5.567000,-0.036800,5.263700,
0.227800,4.952300,0.485100,4.624200,0.727400,4.288900,0.954600,3.947300,1.170600,3.593200,1.374700,3.227100,1.562800,2.856100,1.734800,2.481300,1.895300,2.092200,2.039100,1.700200,2.167700,1.302400,2.279800,0.903200,2.377300,0.495500,2.459600,0.079900,2.524900,-0.335200,2.574000,-0.753200,2.606600,-1.169300,2.623000,-1.591000,2.623000,-2.013400,2.606400,-2.436100,
2.573300,-2.858400,2.523500,-3.279600,2.456600,-3.703000,2.373700,-4.120100,2.275500,-4.530300,2.158900,-4.944500,2.027300,-5.350600,1.881000,-5.748100,1.717800,-6.143700,1.537200,-6.536700,1.344600,-6.915800,1.133800,-7.293800,1.120300,-7.328600,1.121700,-7.388600,1.150900,-7.440900,1.379900,-7.609700,1.415100,-7.624200,1.461400,-7.626600,1.496800,-7.616200,1.533700,-7.590200,
1.792900,-7.194700,2.026300,-6.800800,2.241500,-6.402800,2.439500,-5.999600,2.626000,-5.578600,2.793500,-5.156400,2.943100,-4.731200,3.079000,-4.290500,3.195200,-3.852800,3.295000,-3.407500,3.378300,-2.952200,3.442500,-2.502200,3.489300,-2.046600,3.518500,-1.583000,3.529200,-1.122000,3.521800,-0.662300,3.496600,-0.206700,3.452500,0.258000,3.390500,0.717200,3.310700,1.172200,
3.214000,1.620400,3.098300,2.069800,2.963100,2.520400,2.812300,2.959400,2.645600,3.389000,2.459700,3.817600,2.255400,4.241800,2.035600,4.655300,1.800500,5.058700,1.551500,5.449800,1.281400,5.839300,0.998200,6.215000,0.701300,6.578300,0.392600,6.927100,0.066800,7.267600,-0.273400,7.596000,-0.628800,7.913000,-0.990800,8.211200,-1.367000,8.497000,-1.759500,8.771500,
-2.155600,9.025900,-2.564300,9.266300,-3.042200,9.521100,-3.069400,9.548700,-3.084000,9.584700,-3.083900,9.623500,-3.068900,9.659300,-3.049300,9.680900,-3.019800,9.697700,-2.986300,9.703600,-2.957400,9.699500,-2.957400,9.699500,$1*%
%AMFreePoly4*
4,1,710,-3.845000,6.396700,-3.392600,6.377900,-3.090300,6.356000,-2.641100,6.309500,-2.295800,6.260300,-2.255500,6.233100,-2.234100,6.194700,-2.230200,6.160700,-2.245100,6.016900,-2.243600,5.981800,-2.224900,5.935900,-2.181600,5.895800,-2.146500,5.882600,-1.684600,5.780900,-1.234500,5.663100,-0.782300,5.525500,-0.344000,5.373000,0.091300,5.202300,0.522500,5.013100,0.938400,4.810700,
1.349000,4.590700,1.753500,4.352800,2.141200,4.103800,2.521700,3.837900,2.890900,3.557500,3.248500,3.263200,3.593700,2.955400,3.926100,2.634600,4.245300,2.301400,4.553400,1.953300,4.844500,1.596800,5.118800,1.232800,5.380500,0.855500,5.626900,0.468600,5.859500,0.069400,6.074100,-0.334700,6.272300,-0.746400,6.454000,-1.165100,6.617500,-1.586400,6.765400,-2.017000,
6.896200,-2.452600,7.010400,-2.896200,7.105400,-3.335800,7.183600,-3.782100,7.244600,-4.234400,7.287200,-4.684400,7.311900,-5.131200,7.319100,-5.582000,7.308500,-6.036100,7.280500,-6.481000,7.234800,-6.927900,7.170900,-7.375900,7.090200,-7.816700,6.992400,-8.253400,6.878600,-8.681600,6.757000,-9.075900,6.740200,-9.105400,6.714400,-9.127600,6.687400,-9.138800,6.653400,-9.141300,
6.616200,-9.130200,6.586100,-9.105700,6.567600,-9.071600,6.563400,-9.033000,6.658800,-8.629700,6.742600,-8.207800,6.811200,-7.773800,6.861700,-7.346800,6.895700,-6.915800,6.913000,-6.478400,6.913000,-6.046100,6.896100,-5.613800,6.862400,-5.183900,6.812600,-4.761100,6.745900,-4.337300,6.662400,-3.915000,6.561600,-3.493000,6.447100,-3.085300,6.315800,-2.679100,6.168200,-2.277100,
6.004100,-1.878900,5.825800,-1.490700,5.635400,-1.115500,5.429000,-0.745000,5.204900,-0.377600,4.970000,-0.024600,4.724800,0.314600,4.464500,0.646600,4.190500,0.969300,3.901800,1.283400,3.608200,1.578600,3.300900,1.864500,2.978600,2.141500,2.653100,2.399900,2.315800,2.646800,1.964600,2.883300,1.608200,3.103400,1.245600,3.308100,0.878500,3.497000,0.496700,3.674800,
0.117800,3.833600,-0.270100,3.978700,-0.669400,4.110400,-1.062700,4.223300,-1.463300,4.321500,-1.872700,4.405000,-2.274200,4.470600,-2.311100,4.471500,-2.355300,4.457200,-2.384800,4.434900,-2.406500,4.404900,-2.419700,4.361700,-2.446200,4.088100,-2.427100,4.031700,-2.384100,3.990600,-2.349600,3.977000,-1.967500,3.885800,-1.596700,3.782000,-1.223200,3.661600,-0.859000,3.528200,
-0.504200,3.382500,-0.152300,3.221900,0.196000,3.046100,0.529900,2.860900,0.859300,2.661300,1.183500,2.447000,1.495400,2.222900,1.797900,1.987200,2.090600,1.740200,2.373100,1.482400,2.645000,1.214200,2.903300,0.939000,3.152900,0.651400,3.390800,0.354800,3.619000,0.046400,3.832400,-0.267000,4.031200,-0.584600,4.219200,-0.912600,4.394100,-1.247200,4.557200,-1.591300,
4.703500,-1.933900,4.837700,-2.285000,4.959100,-2.644300,5.065100,-3.003700,5.156100,-3.362700,5.233800,-3.728200,5.297800,-4.099800,5.346200,-4.465300,5.380700,-4.835700,5.400700,-5.206600,5.406300,-5.581400,5.397500,-5.947800,5.374400,-6.316900,5.336500,-6.688200,5.284800,-7.053300,5.219700,-7.411700,5.140200,-7.770700,5.045800,-8.129400,4.948900,-8.446700,4.921600,-8.487300,
4.873400,-8.511100,4.843900,-8.512300,4.815300,-8.504800,4.790200,-8.489200,4.770700,-8.467000,4.754800,-8.415800,4.826800,-8.076700,4.889300,-7.732400,4.939800,-7.376900,4.976000,-7.024100,4.998200,-6.676400,5.007200,-6.324900,5.002700,-5.971900,4.984200,-5.616000,4.953000,-5.271300,4.908100,-4.924700,4.849100,-4.574900,4.777600,-4.233000,4.692800,-3.893600,4.596800,-3.563800,
4.487300,-3.234800,4.364700,-2.909000,4.228600,-2.586000,4.081600,-2.271600,3.925500,-1.968700,3.756300,-1.669200,3.572300,-1.371100,3.380400,-1.085700,3.180900,-0.812100,2.969100,-0.543800,2.746100,-0.282800,2.511000,-0.028200,2.273300,0.209900,2.024400,0.441000,1.765600,0.663200,1.495800,0.877300,1.223100,1.077000,0.945700,1.264200,0.655200,1.444400,0.360900,1.611500,
0.066100,1.764200,-0.237400,1.907000,-0.551800,2.040300,-0.860800,2.157400,-1.177200,2.263600,-1.502400,2.359100,-1.822200,2.439600,-2.147100,2.508300,-2.486100,2.565900,-2.524400,2.563200,-2.568100,2.543800,-2.600600,2.510400,-2.618900,2.466200,-2.647100,2.180800,-2.631600,2.131600,-2.590500,2.087800,-2.556000,2.072300,-2.255300,1.992300,-1.960000,1.901600,-1.665400,1.798600,
-1.382400,1.687400,-1.100900,1.564300,-0.821400,1.429000,-0.554400,1.287000,-0.290200,1.133300,-0.029300,0.967800,0.218300,0.797100,0.462000,0.615200,0.698100,0.424500,0.926400,0.225300,1.146500,0.017900,1.358100,-0.197400,1.561000,-0.420300,1.757400,-0.653200,1.941900,-0.890100,2.117000,-1.133400,2.282400,-1.382800,2.436000,-1.634500,2.581500,-1.894700,2.716700,-2.159900,
2.843000,-2.433000,2.955700,-2.703200,3.059100,-2.980500,3.152900,-3.264700,3.234500,-3.548100,3.304300,-3.830200,3.364000,-4.117900,3.413100,-4.411000,3.449900,-4.697600,3.476200,-4.988700,3.491300,-5.280000,3.495300,-5.575000,3.488200,-5.861700,3.470100,-6.151300,3.440500,-6.443100,3.400300,-6.729400,3.350100,-7.009600,3.288500,-7.290900,3.216500,-7.569200,3.143800,-7.811400,
3.115400,-7.856500,3.091000,-7.872900,3.063000,-7.881500,3.010100,-7.875100,2.984900,-7.860100,2.965100,-7.838500,2.948100,-7.787900,3.037700,-7.257900,3.070200,-6.981100,3.091700,-6.707500,3.102800,-6.439400,3.103900,-6.167900,3.094700,-5.895200,3.074900,-5.619900,3.045900,-5.355300,3.006500,-5.088800,2.956200,-4.818900,2.896800,-4.556300,2.827400,-4.295700,2.750100,-4.043800,
2.662500,-3.791800,2.564900,-3.542100,2.457000,-3.294200,2.341200,-3.053600,2.219400,-2.822900,2.087400,-2.594100,1.943600,-2.365400,1.794700,-2.147400,1.640900,-1.939300,1.477500,-1.734500,1.305500,-1.535100,1.123900,-1.339900,0.942100,-1.158800,0.751300,-0.982300,0.553000,-0.812300,0.345800,-0.647900,0.137500,-0.495200,-0.073600,-0.352200,-0.296700,-0.213100,-0.519500,-0.085600,
-0.743900,0.032000,-0.979800,0.144400,-1.210700,0.243900,-1.448100,0.335900,-1.694500,0.420800,-1.933600,0.493200,-2.178300,0.557400,-2.430300,0.613400,-2.688100,0.659900,-2.723100,0.657600,-2.756000,0.645600,-2.801400,0.604600,-2.820100,0.558900,-2.845100,0.354000,-2.875600,0.310800,-2.924000,0.289300,-2.953100,0.289100,-3.367400,0.353700,-3.752300,0.388700,-3.984000,0.398300,
-4.215300,0.399400,-4.602100,0.382300,-4.833000,0.360700,-5.062300,0.330600,-5.443200,0.261600,-5.668500,0.209200,-5.892400,0.148500,-6.260500,0.028800,-6.619500,-0.112700,-6.901000,-0.242100,-7.242200,-0.422400,-7.572300,-0.623600,-7.827500,-0.799200,-8.132900,-1.035100,-8.423600,-1.289700,-8.645100,-1.506400,-8.906000,-1.791500,-9.148600,-2.091700,-9.329800,-2.343000,-9.538100,-2.668600,
-9.725800,-3.005700,-9.892800,-3.354300,-10.038000,-3.712500,-10.138400,-4.005600,-10.243300,-4.377600,-10.295200,-4.603600,-10.338600,-4.830800,-10.392600,-5.214200,-10.422800,-5.599500,-10.429400,-5.985900,-10.422000,-6.217100,-10.406100,-6.448500,-10.360600,-6.832300,-10.282500,-7.274800,-10.289000,-7.303400,-10.303600,-7.328900,-10.324900,-7.349000,-10.351200,-7.362100,-10.380100,-7.367000,-10.413900,-7.361900,
-10.440000,-7.348600,-10.461200,-7.328300,-10.477200,-7.298100,-10.522500,-7.133000,-10.578200,-6.894300,-10.624300,-6.656900,-10.662200,-6.413700,-10.690900,-6.168700,-10.710700,-5.918600,-10.720800,-5.671100,-10.721700,-5.426600,-10.713100,-5.174200,-10.695100,-4.925500,-10.668200,-4.681000,-10.631000,-4.429600,-10.584800,-4.183000,-10.530200,-3.941400,-10.464400,-3.694300,-10.390300,-3.453000,-10.308300,-3.217700,
-10.214500,-2.978100,-10.113000,-2.745200,-10.004200,-2.519200,-9.883300,-2.290300,-9.755400,-2.069000,-9.621000,-1.855300,-9.476400,-1.643300,-9.321200,-1.433400,-9.160200,-1.232100,-8.993900,-1.039500,-8.815000,-0.847300,-8.631200,-0.664300,-8.440300,-0.488000,-8.245400,-0.321100,-8.041000,-0.158900,-7.827200,-0.002100,-7.610200,0.144800,-7.387400,0.283600,-7.159100,0.414200,-6.925600,0.536400,
-6.690600,0.648300,-6.447600,0.753100,-6.200400,0.848900,-5.945600,0.936600,-5.690800,1.013700,-5.436500,1.080400,-5.171900,1.139200,-4.908500,1.187300,-4.646700,1.225100,-4.379300,1.253600,-4.105100,1.272400,-4.059600,1.284900,-4.019500,1.316300,-3.995200,1.361000,-3.963700,1.645300,-3.972400,1.691400,-3.997400,1.731000,-4.027800,1.754700,-4.073400,1.769600,-4.377200,1.780800,
-4.669500,1.779900,-4.959200,1.768000,-5.257300,1.744400,-5.549100,1.709900,-5.836200,1.665000,-6.132200,1.607000,-6.419800,1.539000,-6.701400,1.461100,-6.985800,1.370700,-7.269800,1.268300,-7.543000,1.157700,-7.815000,1.035500,-8.087700,0.900200,-8.352100,0.756100,-8.609600,0.602600,-8.858400,0.441400,-9.109100,0.264900,-9.350200,0.080900,-9.583000,-0.111300,-9.806000,-0.309900,
-10.025100,-0.520600,-10.240300,-0.744000,-10.442700,-0.970900,-10.634200,-1.202800,-10.820600,-1.446800,-10.999500,-1.700500,-11.167200,-1.959000,-11.324200,-2.222500,-11.469500,-2.488900,-11.607500,-2.766200,-11.734600,-3.048200,-11.852700,-3.339800,-11.957800,-3.630800,-12.050900,-3.922500,-12.135400,-4.227200,-12.207400,-4.531700,-12.267400,-4.837400,-12.315400,-5.142000,-12.352500,-5.454300,-12.377900,-5.772200,
-12.390800,-6.081800,-12.394900,-6.389200,-12.421600,-6.435600,-12.445300,-6.453000,-12.473100,-6.462700,-12.502600,-6.463900,-12.531000,-6.456400,-12.572900,-6.423000,-12.591500,-6.372900,-12.615900,-6.082000,-12.630800,-5.755100,-12.633000,-5.427300,-12.622700,-5.103000,-12.599800,-4.774900,-12.563600,-4.443700,-12.515200,-4.117300,-12.454800,-3.796300,-12.380300,-3.469800,-12.294100,-3.149600,-12.195400,-2.832500,
-12.085700,-2.522500,-11.961200,-2.209300,-11.825900,-1.904200,-11.680500,-1.607500,-11.521700,-1.312700,-11.349400,-1.020500,-11.167700,-0.738000,-10.977200,-0.465400,-10.771300,-0.193700,-10.557200,0.067200,-10.332800,0.320100,-10.101100,0.561800,-9.857200,0.797500,-9.601100,1.026500,-9.338900,1.243300,-9.068000,1.450200,-8.792200,1.644600,-8.505400,1.830700,-8.211100,2.005800,-7.909900,2.169800,
-7.602100,2.322300,-7.288100,2.463000,-6.964800,2.593100,-6.639900,2.709400,-6.313900,2.812200,-5.976200,2.904600,-5.638400,2.983000,-5.301100,3.047800,-4.957200,3.100300,-4.607200,3.139900,-4.259200,3.165700,-3.908300,3.178200,-3.873200,3.184900,-3.824300,3.216000,-3.794300,3.266900,-3.762800,3.550300,-3.771400,3.597300,-3.796100,3.636700,-3.826100,3.660400,-3.871400,3.675600,
-4.254700,3.693100,-4.626700,3.695200,-4.996100,3.682900,-5.374100,3.655600,-5.745500,3.614200,-6.111600,3.559000,-6.486400,3.487400,-6.852000,3.402700,-7.210900,3.304800,-7.571700,3.191200,-7.931200,3.062400,-8.278600,2.922400,-8.623500,2.767600,-8.967900,2.596700,-9.302300,2.414100,-9.628200,2.219300,-9.943500,2.013900,-10.259100,1.790400,-10.562900,1.556800,-10.856400,1.312500,
-11.137700,1.059200,-11.413000,0.791500,-11.681900,0.508700,-11.935500,0.220200,-12.175600,-0.075300,-12.407900,-0.384900,-12.629900,-0.706200,-12.838000,-1.034000,-13.032400,-1.368400,-13.212200,-1.707100,-13.381500,-2.058200,-13.538400,-2.418900,-13.680200,-2.783200,-13.807300,-3.151500,-13.919100,-3.521100,-14.018100,-3.901000,-14.102000,-4.283100,-14.172200,-4.675400,-14.226100,-5.064000,-14.264700,-5.452000,
-14.288800,-5.850500,-14.297200,-6.240400,-14.291800,-6.616000,-14.309400,-6.661000,-14.350400,-6.694600,-14.402800,-6.702500,-14.451900,-6.682500,-14.477400,-6.653400,-14.490100,-6.616800,-14.522800,-6.244000,-14.542500,-5.837500,-14.546200,-5.433900,-14.533900,-5.022000,-14.505700,-4.614300,-14.462000,-4.211400,-14.401900,-3.806000,-14.326000,-3.402800,-14.234100,-3.002300,-14.125500,-2.601400,-14.002200,-2.208300,
-13.863400,-1.819800,-13.710800,-1.440100,-13.541700,-1.062600,-13.356000,-0.688100,-13.157200,-0.324000,-12.944100,0.032400,-12.716900,0.380700,-12.476000,0.720300,-12.224000,1.047600,-11.954100,1.371200,-11.673900,1.681500,-11.384200,1.978200,-11.077000,2.269100,-10.761100,2.545500,-10.437300,2.807300,-10.096800,3.061200,-9.749400,3.299600,-9.395800,3.522500,-9.029900,3.733700,-8.655500,3.930700,
-8.273200,4.113100,-7.883600,4.280700,-7.487200,4.433100,-7.080900,4.571200,-6.672700,4.692200,-6.263300,4.796500,-5.842000,4.886400,-5.420800,4.959100,-5.000400,5.014900,-4.569800,5.055000,-4.145200,5.077800,-3.712400,5.084200,-3.675400,5.090000,-3.624300,5.121100,-3.593500,5.172600,-3.561800,5.456400,-3.566900,5.493000,-3.588000,5.534300,-3.614600,5.559800,-3.656800,5.579100,
-4.131700,5.605600,-4.584600,5.610700,-5.037900,5.598000,-5.487000,5.567800,-5.938000,5.519700,-6.394200,5.452700,-6.841100,5.368800,-7.281100,5.268300,-7.723100,5.149000,-8.163300,5.011200,-8.595500,4.856900,-9.020000,4.686300,-9.434300,4.500500,-9.846900,4.295800,-10.249900,4.075700,-10.649400,3.836500,-11.036300,3.583600,-11.411800,3.316400,-11.773800,3.036800,-12.128900,2.739800,
-12.473100,2.427900,-12.807200,2.100300,-13.125800,1.762100,-13.431200,1.411200,-13.723400,1.047400,-14.000400,0.673500,-14.260500,0.291900,-14.509000,-0.105100,-14.743300,-0.514700,-14.960100,-0.931100,-15.159700,-1.354400,-15.341400,-1.782200,-15.508400,-2.222700,-15.657500,-2.668100,-15.790600,-3.125300,-15.904800,-3.584100,-16.000500,-4.045700,-16.077600,-4.507300,-16.137200,-4.977000,-16.178400,-5.450200,
-16.201000,-5.928200,-16.204700,-6.403300,-16.186700,-6.920600,-16.191600,-6.959200,-16.210800,-6.993000,-16.241400,-7.017000,-16.278900,-7.027400,-16.317500,-7.022700,-16.347600,-7.006800,-16.373200,-6.977500,-16.385600,-6.940600,-16.414400,-6.519100,-16.428900,-6.067800,-16.429300,-5.764700,-16.416000,-5.313300,-16.372300,-4.709900,-16.339400,-4.409900,-16.276500,-3.962700,-16.225000,-3.664000,-16.134800,-3.221500,
-15.988600,-2.634500,-15.814100,-2.056500,-15.611400,-1.487900,-15.441700,-1.069400,-15.319800,-0.793200,-15.055700,-0.250300,-14.765300,0.279000,-14.448700,0.794400,-14.107800,1.292600,-13.742800,1.773600,-13.354700,2.236000,-12.944400,2.678800,-12.512800,3.101000,-12.061100,3.501500,-11.590200,3.879300,-11.101400,4.233600,-10.596800,4.562800,-10.075600,4.867500,-9.540100,5.146300,-8.991600,5.398400,
-8.431300,5.623400,-7.860700,5.820600,-7.281100,5.989500,-6.693900,6.129800,-6.100600,6.241100,-5.502500,6.323200,-5.200900,6.353300,-4.749100,6.384400,-4.297800,6.398900,-3.845000,6.396700,-3.845000,6.396700,$1*%
G04 Aperture macros list end*
%TA.AperFunction,SMDPad,CuDef*%
%ADD10FreePoly0,0.000000*%
%TD*%
%TA.AperFunction,SMDPad,CuDef*%
%ADD11FreePoly1,0.000000*%
%TD*%
%TA.AperFunction,SMDPad,CuDef*%
%ADD12FreePoly2,0.000000*%
%TD*%
%TA.AperFunction,SMDPad,CuDef*%
%ADD13FreePoly3,0.000000*%
%TD*%
%TA.AperFunction,SMDPad,CuDef*%
%ADD14FreePoly4,0.000000*%
%TD*%
%TA.AperFunction,ViaPad*%
%ADD15C,0.600000*%
%TD*%
%TA.AperFunction,Conductor*%
%ADD16C,0.150000*%
%TD*%
%TA.AperFunction,Conductor*%
%ADD17C,0.200000*%
%TD*%
G04 APERTURE END LIST*
D10*
%TO.P,SW3,1*%
%TO.N,EG*%
X-12300000Y7100000D03*
%TD*%
D11*
%TO.P,SW1,1*%
%TO.N,EB*%
X-1200000Y1800000D03*
%TD*%
D12*
%TO.P,SW2,1*%
%TO.N,E0*%
X-7180000Y1010000D03*
D13*
%TO.P,SW2,2*%
%TO.N,E1*%
X8170000Y1440000D03*
D14*
%TO.P,SW2,3*%
%TO.N,E2*%
X4130000Y5900000D03*
%TD*%
D15*
%TO.N,EB*%
X-1200000Y1800000D03*
%TO.N,E0*%
X-5050000Y1050000D03*
X3750000Y-2700000D03*
X-7180000Y1010000D03*
%TO.N,E1*%
X8170000Y1440000D03*
%TO.N,E2*%
X4130000Y5900000D03*
%TO.N,EG*%
X-12300000Y7100000D03*
%TO.N,GND*%
X1450000Y-4150000D03*
X-4400000Y-2700000D03*
X5050000Y-2400000D03*
%TO.N,3V3*%
X5300000Y650000D03*
X2950000Y-1700000D03*
%TO.N,SDA*%
X1050000Y-3400000D03*
X4500000Y-3550000D03*
X-700000Y-3850000D03*
%TO.N,SCL*%
X-1400000Y-5500000D03*
X-3250000Y-4750000D03*
X-200000Y-5750000D03*
X3850000Y-4150000D03*
%TD*%
D16*
%TO.N,E0*%
X-1250000Y-2500000D02*
X-1150000Y-2500000D01*
X-700000Y-2650000D02*
X-650000Y-2700000D01*
X-1750000Y-2200000D02*
X-1700000Y-2200000D01*
X-1150000Y-2500000D02*
X-1100000Y-2550000D01*
X-2250000Y-1700000D02*
X-1750000Y-2200000D01*
X-1100000Y-2550000D02*
X-1050000Y-2550000D01*
X-2300000Y-1700000D02*
X-2250000Y-1700000D01*
X-1350000Y-2450000D02*
X-1300000Y-2450000D01*
X-1450000Y-2350000D02*
X-1350000Y-2450000D01*
X-1550000Y-2350000D02*
X-1450000Y-2350000D01*
X-650000Y-2700000D02*
X-450000Y-2700000D01*
X-450000Y-2700000D02*
X-400000Y-2750000D01*
X-900000Y-2600000D02*
X-850000Y-2650000D01*
X-1300000Y-2450000D02*
X-1250000Y-2500000D01*
X3700000Y-2750000D02*
X3750000Y-2700000D01*
X-1000000Y-2600000D02*
X-900000Y-2600000D01*
X-1050000Y-2550000D02*
X-1000000Y-2600000D01*
X-850000Y-2650000D02*
X-700000Y-2650000D01*
X-400000Y-2750000D02*
X3700000Y-2750000D01*
X-1700000Y-2200000D02*
X-1550000Y-2350000D01*
X-5050000Y1050000D02*
X-2300000Y-1700000D01*
%TO.N,GND*%
X5050000Y-2400000D02*
X5050000Y-2350000D01*
X1450000Y-4150000D02*
X1100000Y-4300000D01*
X5000000Y-1500000D02*
X4900000Y-1400000D01*
X5050000Y-2350000D02*
X5000000Y-2300000D01*
X5000000Y-2300000D02*
X5000000Y-1500000D01*
D17*
%TO.N,3V3*%
X2950000Y-1700000D02*
X5300000Y650000D01*
D16*
%TO.N,SDA*%
X600000Y-3850000D02*
X-700000Y-3850000D01*
X1050000Y-3400000D02*
X600000Y-3850000D01*
X4500000Y-3550000D02*
X900000Y-3550000D01*
%TO.N,SCL*%
X-1400000Y-5500000D02*
X-2500000Y-5500000D01*
X600000Y-5750000D02*
X-200000Y-5750000D01*
X2200000Y-4150000D02*
X600000Y-5750000D01*
X3850000Y-4150000D02*
X2200000Y-4150000D01*
X-2500000Y-5500000D02*
X-3250000Y-4750000D01*
%TD*%
%TA.AperFunction,Conductor*%
%TO.N,GND*%
G36*
X-5336410Y578990D02*
G01*
X-5326584Y574023D01*
X-5262489Y537018D01*
X-5262488Y537018D01*
X-5262485Y537016D01*
X-5122475Y499500D01*
X-5122474Y499500D01*
X-5000835Y499500D01*
X-4942644Y480593D01*
X-4930831Y470504D01*
X-2560465Y-1899862D01*
X-2560466Y-1899862D01*
X-2516815Y-1943512D01*
X-2499862Y-1960465D01*
X-2425638Y-2003318D01*
X-2425629Y-2003320D01*
X-2419640Y-2005802D01*
X-2419987Y-2006638D01*
X-2381434Y-2028893D01*
X-2010467Y-2399859D01*
X-2010465Y-2399862D01*
X-1949862Y-2460465D01*
X-1916894Y-2479499D01*
X-1909349Y-2483855D01*
X-1875641Y-2503317D01*
X-1869641Y-2505802D01*
X-1869988Y-2506638D01*
X-1831435Y-2528893D01*
X-1749863Y-2610464D01*
X-1749858Y-2610468D01*
X-1675643Y-2653316D01*
X-1675642Y-2653316D01*
X-1675639Y-2653318D01*
X-1607510Y-2671572D01*
X-1582854Y-2681918D01*
X-1572023Y-2688304D01*
X-1549862Y-2710465D01*
X-1475638Y-2753318D01*
X-1450195Y-2760134D01*
X-1450188Y-2760139D01*
X-1449862Y-2760465D01*
X-1415952Y-2780043D01*
X-1375639Y-2803318D01*
X-1312670Y-2820191D01*
X-1292861Y-2825499D01*
X-1292860Y-2825499D01*
X-1292853Y-2825501D01*
X-1292846Y-2825501D01*
X-1287727Y-2826175D01*
X-1259855Y-2834122D01*
X-1255387Y-2836142D01*
X-1225639Y-2853318D01*
X-1205420Y-2858735D01*
X-1198061Y-2862063D01*
X-1196325Y-2863644D01*
X-1189353Y-2866532D01*
X-1169830Y-2877804D01*
X-1125639Y-2903318D01*
X-1060359Y-2920810D01*
X-1042861Y-2925499D01*
X-1042860Y-2925499D01*
X-1042853Y-2925501D01*
X-1042846Y-2925501D01*
X-1037727Y-2926175D01*
X-1001143Y-2938592D01*
X-975639Y-2953318D01*
X-892853Y-2975501D01*
X-850346Y-2975501D01*
X-800846Y-2988765D01*
X-778573Y-3001624D01*
X-775639Y-3003318D01*
X-692853Y-3025501D01*
X-692851Y-3025501D01*
X-601084Y-3025501D01*
X-601068Y-3025500D01*
X-600348Y-3025500D01*
X-550847Y-3038764D01*
X-525639Y-3053318D01*
X-442856Y-3075500D01*
X-442854Y-3075501D01*
X-442853Y-3075501D01*
X-351084Y-3075501D01*
X-351068Y-3075500D01*
X438011Y-3075500D01*
X496202Y-3094407D01*
X532166Y-3143907D01*
X533637Y-3200121D01*
X517538Y-3260207D01*
X499500Y-3327525D01*
X499500Y-3425500D01*
X480593Y-3483691D01*
X431093Y-3519655D01*
X400500Y-3524500D01*
X-205969Y-3524500D01*
X-264160Y-3505593D01*
X-275967Y-3495509D01*
X-361985Y-3409491D01*
X-361988Y-3409489D01*
X-361990Y-3409487D01*
X-487512Y-3337017D01*
X-487511Y-3337017D01*
X-517104Y-3329087D01*
X-627525Y-3299500D01*
X-772475Y-3299500D01*
X-834210Y-3316041D01*
X-912490Y-3337017D01*
X-1038011Y-3409487D01*
X-1140513Y-3511989D01*
X-1212983Y-3637510D01*
X-1212984Y-3637515D01*
X-1250500Y-3777525D01*
X-1250500Y-3922475D01*
X-1242664Y-3951719D01*
X-1212983Y-4062489D01*
X-1140513Y-4188010D01*
X-1140511Y-4188012D01*
X-1140509Y-4188015D01*
X-1038015Y-4290509D01*
X-1038013Y-4290510D01*
X-1038011Y-4290512D01*
X-912489Y-4362982D01*
X-912488Y-4362982D01*
X-912485Y-4362984D01*
X-772475Y-4400500D01*
X-772474Y-4400500D01*
X-627526Y-4400500D01*
X-627525Y-4400500D01*
X-487515Y-4362984D01*
X-487513Y-4362982D01*
X-487511Y-4362982D01*
X-361990Y-4290512D01*
X-361990Y-4290511D01*
X-361985Y-4290509D01*
X-275971Y-4204494D01*
X-221456Y-4176719D01*
X-205969Y-4175500D01*
X642851Y-4175500D01*
X642853Y-4175500D01*
X725639Y-4153318D01*
X725641Y-4153316D01*
X725643Y-4153316D01*
X799862Y-4110465D01*
X847842Y-4062485D01*
X930829Y-3979496D01*
X985345Y-3951719D01*
X1000833Y-3950500D01*
X1122474Y-3950500D01*
X1122475Y-3950500D01*
X1262485Y-3912984D01*
X1304435Y-3888763D01*
X1353936Y-3875500D01*
X1775165Y-3875500D01*
X1833356Y-3894407D01*
X1869320Y-3943907D01*
X1869320Y-4005093D01*
X1845169Y-4044504D01*
X494169Y-5395504D01*
X487051Y-5399130D01*
X482356Y-5405593D01*
X460307Y-5412756D01*
X439652Y-5423281D01*
X424165Y-5424500D01*
X294031Y-5424500D01*
X235840Y-5405593D01*
X224033Y-5395509D01*
X138015Y-5309491D01*
X138012Y-5309489D01*
X138010Y-5309487D01*
X12488Y-5237017D01*
X12489Y-5237017D01*
X-17104Y-5229087D01*
X-127525Y-5199500D01*
X-272475Y-5199500D01*
X-334210Y-5216041D01*
X-412490Y-5237017D01*
X-538011Y-5309487D01*
X-640514Y-5411990D01*
X-640989Y-5412610D01*
X-641450Y-5412926D01*
X-645096Y-5416573D01*
X-645773Y-5415896D01*
X-659327Y-5425210D01*
X-675160Y-5440838D01*
X-684026Y-5442182D01*
X-691417Y-5447262D01*
X-735653Y-5450014D01*
X-785487Y-5441786D01*
X-839821Y-5413651D01*
X-864986Y-5369734D01*
X-887016Y-5287515D01*
X-887018Y-5287512D01*
X-887018Y-5287510D01*
X-959488Y-5161989D01*
X-959490Y-5161987D01*
X-959491Y-5161985D01*
X-1061985Y-5059491D01*
X-1061988Y-5059489D01*
X-1061990Y-5059487D01*
X-1187512Y-4987017D01*
X-1187511Y-4987017D01*
X-1232385Y-4974993D01*
X-1327525Y-4949500D01*
X-1472475Y-4949500D01*
X-1534210Y-4966041D01*
X-1612490Y-4987017D01*
X-1738011Y-5059487D01*
X-1738016Y-5059491D01*
X-1809039Y-5130514D01*
X-1863556Y-5158291D01*
X-1913915Y-5153165D01*
X-2101726Y-5082478D01*
X-2107711Y-5079999D01*
X-2429640Y-4934135D01*
X-2435451Y-4931269D01*
X-2647169Y-4818102D01*
X-2689575Y-4773996D01*
X-2699500Y-4730792D01*
X-2699500Y-4677525D01*
X-2706979Y-4649613D01*
X-2737016Y-4537515D01*
X-2737018Y-4537512D01*
X-2737018Y-4537510D01*
X-2809488Y-4411989D01*
X-2809490Y-4411987D01*
X-2809491Y-4411985D01*
X-2911985Y-4309491D01*
X-2911988Y-4309489D01*
X-2911990Y-4309487D01*
X-3037512Y-4237017D01*
X-3037511Y-4237017D01*
X-3091782Y-4222475D01*
X-3177525Y-4199500D01*
X-3322475Y-4199500D01*
X-3443336Y-4231885D01*
X-3459312Y-4231047D01*
X-3474788Y-4235086D01*
X-3489094Y-4229487D01*
X-3504437Y-4228683D01*
X-3531764Y-4212786D01*
X-3623899Y-4137172D01*
X-3628756Y-4132913D01*
X-3886723Y-3891302D01*
X-3891304Y-3886721D01*
X-3993577Y-3777525D01*
X-4132917Y-3628752D01*
X-4137174Y-3623897D01*
X-4361389Y-3350691D01*
X-4365333Y-3345551D01*
X-4398333Y-3299500D01*
X-4571208Y-3058252D01*
X-4574781Y-3052906D01*
X-4761441Y-2752733D01*
X-4764664Y-2747149D01*
X-4931268Y-2435455D01*
X-4934134Y-2429645D01*
X-5080001Y-2107709D01*
X-5082480Y-2101724D01*
X-5118268Y-2006638D01*
X-5206983Y-1770927D01*
X-5209055Y-1764823D01*
X-5311655Y-1426596D01*
X-5313324Y-1420369D01*
X-5393589Y-1076132D01*
X-5394845Y-1069816D01*
X-5452424Y-721064D01*
X-5453264Y-714682D01*
X-5487908Y-362944D01*
X-5488331Y-356481D01*
X-5494006Y-183128D01*
X-5499894Y-3238D01*
X-5499894Y3240D01*
X-5498084Y58523D01*
X-5488331Y356487D01*
X-5487907Y362947D01*
X-5487658Y365475D01*
X-5474606Y497993D01*
X-5450088Y554048D01*
X-5397301Y584987D01*
X-5336410Y578990D01*
G37*
%TD.AperFunction*%
%TA.AperFunction,Conductor*%
G36*
X5378951Y100023D02*
G01*
X5401722Y98832D01*
X5428302Y99699D01*
X5431910Y97253D01*
X5436266Y97025D01*
X5456935Y80291D01*
X5478948Y65369D01*
X5480430Y61268D01*
X5483820Y58523D01*
X5499743Y7826D01*
X5499893Y3229D01*
X5499893Y-3239D01*
X5488329Y-356481D01*
X5487905Y-362946D01*
X5453264Y-714662D01*
X5452419Y-721084D01*
X5394847Y-1069796D01*
X5393583Y-1076151D01*
X5313326Y-1420354D01*
X5311649Y-1426611D01*
X5209058Y-1764807D01*
X5206976Y-1770942D01*
X5082478Y-2101724D01*
X5079999Y-2107709D01*
X4934132Y-2429645D01*
X4931266Y-2435455D01*
X4764670Y-2747135D01*
X4761431Y-2752746D01*
X4637042Y-2952779D01*
X4624988Y-2962937D01*
X4616642Y-2976309D01*
X4603401Y-2981131D01*
X4590257Y-2992210D01*
X4559923Y-2999256D01*
X4556457Y-2999500D01*
X4427525Y-2999500D01*
X4381583Y-3011810D01*
X4372096Y-3012478D01*
X4351183Y-3007274D01*
X4329665Y-3006146D01*
X4322130Y-3000044D01*
X4312721Y-2997703D01*
X4298860Y-2981200D01*
X4282115Y-2967640D01*
X4279605Y-2958275D01*
X4273370Y-2950851D01*
X4271856Y-2929354D01*
X4266280Y-2908540D01*
X4269126Y-2890567D01*
X4269074Y-2889816D01*
X4269304Y-2889447D01*
X4269517Y-2888103D01*
X4300500Y-2772475D01*
X4300500Y-2627525D01*
X4262984Y-2487515D01*
X4262982Y-2487512D01*
X4262982Y-2487510D01*
X4190512Y-2361989D01*
X4190510Y-2361987D01*
X4190509Y-2361985D01*
X4088015Y-2259491D01*
X4088012Y-2259489D01*
X4088010Y-2259487D01*
X3962488Y-2187017D01*
X3962489Y-2187017D01*
X3899910Y-2170249D01*
X3822475Y-2149500D01*
X3677525Y-2149500D01*
X3600090Y-2170249D01*
X3537511Y-2187017D01*
X3488387Y-2215379D01*
X3428539Y-2228100D01*
X3372643Y-2203213D01*
X3342051Y-2150224D01*
X3348447Y-2089374D01*
X3368883Y-2059640D01*
X3390509Y-2038015D01*
X3395776Y-2028893D01*
X3462982Y-1912489D01*
X3462982Y-1912487D01*
X3462984Y-1912485D01*
X3500500Y-1772475D01*
X3500500Y-1686190D01*
X3519407Y-1627999D01*
X3529496Y-1616186D01*
X5216186Y70504D01*
X5270703Y98281D01*
X5286190Y99500D01*
X5372475Y99500D01*
X5375165Y100221D01*
X5377159Y100117D01*
X5378909Y100347D01*
X5378951Y100023D01*
G37*
%TD.AperFunction*%
%TD*%
M02*
