%TF.GenerationSoftware,KiCad,Pcbnew,9.0.9-9.0.9~ubuntu24.04.1*%
%TF.CreationDate,2026-10-04T10:42:00+00:00*%
%TF.ProjectId,klickrad,6b6c6963-6b72-4616-942e-6b696361645f,rev?*%
%TF.SameCoordinates,Original*%
%TF.FileFunction,Drillmap*%
%TF.FilePolarity,Positive*%
%FSLAX45Y45*%
G04 Gerber Fmt 4.5, Leading zero omitted, Abs format (unit mm)*
G04 Created by KiCad (PCBNEW 9.0.9-9.0.9~ubuntu24.04.1) date 2026-10-04 10:42:00*
%MOMM*%
%LPD*%
G01*
G04 APERTURE LIST*
%ADD10C,0.100000*%
%ADD11C,0.200000*%
G04 APERTURE END LIST*
D10*
X11600000Y-10000000D02*
G75*
G02*
X8400000Y-10000000I-1600000J0D01*
G01*
X8400000Y-10000000D02*
G75*
G02*
X11600000Y-10000000I1600000J0D01*
G01*
D11*
D10*
X8659410Y-10449660D02*
X8689410Y-10479660D01*
X8689410Y-10449660D02*
X8659410Y-10479660D01*
X8713370Y-10521870D02*
X8743370Y-10551870D01*
X8743370Y-10521870D02*
X8713370Y-10551870D01*
X8817460Y-10881700D02*
X8847460Y-10911700D01*
X8847460Y-10881700D02*
X8817460Y-10911700D01*
X9000570Y-11066220D02*
X9030570Y-11096220D01*
X9030570Y-11066220D02*
X9000570Y-11096220D01*
X9368520Y-11222920D02*
X9398520Y-11252920D01*
X9398520Y-11222920D02*
X9368520Y-11252920D01*
X9535000Y-9985000D02*
X9565000Y-10015000D01*
X9565000Y-9985000D02*
X9535000Y-10015000D01*
X9535550Y-10073170D02*
X9565550Y-10103170D01*
X9565550Y-10073170D02*
X9535550Y-10103170D01*
X9551200Y-9865330D02*
X9581200Y-9895330D01*
X9581200Y-9865330D02*
X9551200Y-9895330D01*
X9590990Y-9767620D02*
X9620990Y-9797620D01*
X9620990Y-9767620D02*
X9590990Y-9797620D01*
X9685000Y-10445000D02*
X9715000Y-10475000D01*
X9715000Y-10445000D02*
X9685000Y-10475000D01*
X9806260Y-9661040D02*
X9836260Y-9691040D01*
X9836260Y-9661040D02*
X9806260Y-9691040D01*
X9855000Y-10425000D02*
X9885000Y-10455000D01*
X9885000Y-10425000D02*
X9855000Y-10455000D01*
X9863460Y-10330000D02*
X9893460Y-10360000D01*
X9893460Y-10330000D02*
X9863460Y-10360000D01*
X9885000Y-10235000D02*
X9915000Y-10265000D01*
X9915000Y-10235000D02*
X9885000Y-10265000D01*
X9886610Y-9628320D02*
X9916610Y-9658320D01*
X9916610Y-9628320D02*
X9886610Y-9658320D01*
X9915000Y-10485000D02*
X9945000Y-10515000D01*
X9945000Y-10485000D02*
X9915000Y-10515000D01*
X9985000Y-9615000D02*
X10015000Y-9645000D01*
X10015000Y-9615000D02*
X9985000Y-9645000D01*
X9999780Y-9999780D02*
X10029780Y-10029780D01*
X10029780Y-9999780D02*
X9999780Y-10029780D01*
X10075000Y-10555000D02*
X10105000Y-10585000D01*
X10105000Y-10555000D02*
X10075000Y-10585000D01*
X10083400Y-9628320D02*
X10113400Y-9658320D01*
X10113400Y-9628320D02*
X10083400Y-9658320D01*
X10095000Y-10315000D02*
X10125000Y-10345000D01*
X10125000Y-10315000D02*
X10095000Y-10345000D01*
X10155000Y-9845000D02*
X10185000Y-9875000D01*
X10185000Y-9845000D02*
X10155000Y-9875000D01*
X10157640Y-10208500D02*
X10187640Y-10238500D01*
X10187640Y-10208500D02*
X10157640Y-10238500D01*
X10163700Y-9661040D02*
X10193700Y-9691040D01*
X10193700Y-9661040D02*
X10163700Y-9691040D01*
X10259380Y-10490790D02*
X10289380Y-10520790D01*
X10289380Y-10490790D02*
X10259380Y-10520790D01*
X10309000Y-9806260D02*
X10339000Y-9836260D01*
X10339000Y-9806260D02*
X10309000Y-9836260D01*
X10341700Y-9886610D02*
X10371700Y-9916610D01*
X10371700Y-9886610D02*
X10341700Y-9916610D01*
X10341700Y-10083400D02*
X10371700Y-10113400D01*
X10371700Y-10083400D02*
X10341700Y-10113400D01*
X10355000Y-9985000D02*
X10385000Y-10015000D01*
X10385000Y-9985000D02*
X10355000Y-10015000D01*
X10389550Y-10238080D02*
X10419550Y-10268080D01*
X10419550Y-10238080D02*
X10389550Y-10268080D01*
X10770260Y-11156740D02*
X10800260Y-11186740D01*
X10800260Y-11156740D02*
X10770260Y-11186740D01*
D11*
X8655777Y-11916484D02*
X8655777Y-11716484D01*
X8655777Y-11716484D02*
X8703396Y-11716484D01*
X8703396Y-11716484D02*
X8731967Y-11726008D01*
X8731967Y-11726008D02*
X8751015Y-11745055D01*
X8751015Y-11745055D02*
X8760539Y-11764103D01*
X8760539Y-11764103D02*
X8770063Y-11802198D01*
X8770063Y-11802198D02*
X8770063Y-11830769D01*
X8770063Y-11830769D02*
X8760539Y-11868865D01*
X8760539Y-11868865D02*
X8751015Y-11887912D01*
X8751015Y-11887912D02*
X8731967Y-11906960D01*
X8731967Y-11906960D02*
X8703396Y-11916484D01*
X8703396Y-11916484D02*
X8655777Y-11916484D01*
X8855777Y-11916484D02*
X8855777Y-11783150D01*
X8855777Y-11821246D02*
X8865301Y-11802198D01*
X8865301Y-11802198D02*
X8874824Y-11792674D01*
X8874824Y-11792674D02*
X8893872Y-11783150D01*
X8893872Y-11783150D02*
X8912920Y-11783150D01*
X8979586Y-11916484D02*
X8979586Y-11783150D01*
X8979586Y-11716484D02*
X8970063Y-11726008D01*
X8970063Y-11726008D02*
X8979586Y-11735531D01*
X8979586Y-11735531D02*
X8989110Y-11726008D01*
X8989110Y-11726008D02*
X8979586Y-11716484D01*
X8979586Y-11716484D02*
X8979586Y-11735531D01*
X9103396Y-11916484D02*
X9084348Y-11906960D01*
X9084348Y-11906960D02*
X9074824Y-11887912D01*
X9074824Y-11887912D02*
X9074824Y-11716484D01*
X9208158Y-11916484D02*
X9189110Y-11906960D01*
X9189110Y-11906960D02*
X9179586Y-11887912D01*
X9179586Y-11887912D02*
X9179586Y-11716484D01*
X9436729Y-11916484D02*
X9436729Y-11716484D01*
X9436729Y-11716484D02*
X9503396Y-11859341D01*
X9503396Y-11859341D02*
X9570063Y-11716484D01*
X9570063Y-11716484D02*
X9570063Y-11916484D01*
X9751015Y-11916484D02*
X9751015Y-11811722D01*
X9751015Y-11811722D02*
X9741491Y-11792674D01*
X9741491Y-11792674D02*
X9722444Y-11783150D01*
X9722444Y-11783150D02*
X9684348Y-11783150D01*
X9684348Y-11783150D02*
X9665301Y-11792674D01*
X9751015Y-11906960D02*
X9731967Y-11916484D01*
X9731967Y-11916484D02*
X9684348Y-11916484D01*
X9684348Y-11916484D02*
X9665301Y-11906960D01*
X9665301Y-11906960D02*
X9655777Y-11887912D01*
X9655777Y-11887912D02*
X9655777Y-11868865D01*
X9655777Y-11868865D02*
X9665301Y-11849817D01*
X9665301Y-11849817D02*
X9684348Y-11840293D01*
X9684348Y-11840293D02*
X9731967Y-11840293D01*
X9731967Y-11840293D02*
X9751015Y-11830769D01*
X9846253Y-11783150D02*
X9846253Y-11983150D01*
X9846253Y-11792674D02*
X9865301Y-11783150D01*
X9865301Y-11783150D02*
X9903396Y-11783150D01*
X9903396Y-11783150D02*
X9922444Y-11792674D01*
X9922444Y-11792674D02*
X9931967Y-11802198D01*
X9931967Y-11802198D02*
X9941491Y-11821246D01*
X9941491Y-11821246D02*
X9941491Y-11878388D01*
X9941491Y-11878388D02*
X9931967Y-11897436D01*
X9931967Y-11897436D02*
X9922444Y-11906960D01*
X9922444Y-11906960D02*
X9903396Y-11916484D01*
X9903396Y-11916484D02*
X9865301Y-11916484D01*
X9865301Y-11916484D02*
X9846253Y-11906960D01*
X10027205Y-11897436D02*
X10036729Y-11906960D01*
X10036729Y-11906960D02*
X10027205Y-11916484D01*
X10027205Y-11916484D02*
X10017682Y-11906960D01*
X10017682Y-11906960D02*
X10027205Y-11897436D01*
X10027205Y-11897436D02*
X10027205Y-11916484D01*
X10027205Y-11792674D02*
X10036729Y-11802198D01*
X10036729Y-11802198D02*
X10027205Y-11811722D01*
X10027205Y-11811722D02*
X10017682Y-11802198D01*
X10017682Y-11802198D02*
X10027205Y-11792674D01*
X10027205Y-11792674D02*
X10027205Y-11811722D01*
D10*
X8365000Y-12230000D02*
X8395000Y-12260000D01*
X8395000Y-12230000D02*
X8365000Y-12260000D01*
D11*
X8693872Y-12136484D02*
X8712920Y-12136484D01*
X8712920Y-12136484D02*
X8731967Y-12146008D01*
X8731967Y-12146008D02*
X8741491Y-12155531D01*
X8741491Y-12155531D02*
X8751015Y-12174579D01*
X8751015Y-12174579D02*
X8760539Y-12212674D01*
X8760539Y-12212674D02*
X8760539Y-12260293D01*
X8760539Y-12260293D02*
X8751015Y-12298388D01*
X8751015Y-12298388D02*
X8741491Y-12317436D01*
X8741491Y-12317436D02*
X8731967Y-12326960D01*
X8731967Y-12326960D02*
X8712920Y-12336484D01*
X8712920Y-12336484D02*
X8693872Y-12336484D01*
X8693872Y-12336484D02*
X8674824Y-12326960D01*
X8674824Y-12326960D02*
X8665301Y-12317436D01*
X8665301Y-12317436D02*
X8655777Y-12298388D01*
X8655777Y-12298388D02*
X8646253Y-12260293D01*
X8646253Y-12260293D02*
X8646253Y-12212674D01*
X8646253Y-12212674D02*
X8655777Y-12174579D01*
X8655777Y-12174579D02*
X8665301Y-12155531D01*
X8665301Y-12155531D02*
X8674824Y-12146008D01*
X8674824Y-12146008D02*
X8693872Y-12136484D01*
X8846253Y-12317436D02*
X8855777Y-12326960D01*
X8855777Y-12326960D02*
X8846253Y-12336484D01*
X8846253Y-12336484D02*
X8836729Y-12326960D01*
X8836729Y-12326960D02*
X8846253Y-12317436D01*
X8846253Y-12317436D02*
X8846253Y-12336484D01*
X8922444Y-12136484D02*
X9046253Y-12136484D01*
X9046253Y-12136484D02*
X8979586Y-12212674D01*
X8979586Y-12212674D02*
X9008158Y-12212674D01*
X9008158Y-12212674D02*
X9027205Y-12222198D01*
X9027205Y-12222198D02*
X9036729Y-12231722D01*
X9036729Y-12231722D02*
X9046253Y-12250769D01*
X9046253Y-12250769D02*
X9046253Y-12298388D01*
X9046253Y-12298388D02*
X9036729Y-12317436D01*
X9036729Y-12317436D02*
X9027205Y-12326960D01*
X9027205Y-12326960D02*
X9008158Y-12336484D01*
X9008158Y-12336484D02*
X8951015Y-12336484D01*
X8951015Y-12336484D02*
X8931967Y-12326960D01*
X8931967Y-12326960D02*
X8922444Y-12317436D01*
X9170063Y-12136484D02*
X9189110Y-12136484D01*
X9189110Y-12136484D02*
X9208158Y-12146008D01*
X9208158Y-12146008D02*
X9217682Y-12155531D01*
X9217682Y-12155531D02*
X9227205Y-12174579D01*
X9227205Y-12174579D02*
X9236729Y-12212674D01*
X9236729Y-12212674D02*
X9236729Y-12260293D01*
X9236729Y-12260293D02*
X9227205Y-12298388D01*
X9227205Y-12298388D02*
X9217682Y-12317436D01*
X9217682Y-12317436D02*
X9208158Y-12326960D01*
X9208158Y-12326960D02*
X9189110Y-12336484D01*
X9189110Y-12336484D02*
X9170063Y-12336484D01*
X9170063Y-12336484D02*
X9151015Y-12326960D01*
X9151015Y-12326960D02*
X9141491Y-12317436D01*
X9141491Y-12317436D02*
X9131967Y-12298388D01*
X9131967Y-12298388D02*
X9122444Y-12260293D01*
X9122444Y-12260293D02*
X9122444Y-12212674D01*
X9122444Y-12212674D02*
X9131967Y-12174579D01*
X9131967Y-12174579D02*
X9141491Y-12155531D01*
X9141491Y-12155531D02*
X9151015Y-12146008D01*
X9151015Y-12146008D02*
X9170063Y-12136484D01*
X9360539Y-12136484D02*
X9379586Y-12136484D01*
X9379586Y-12136484D02*
X9398634Y-12146008D01*
X9398634Y-12146008D02*
X9408158Y-12155531D01*
X9408158Y-12155531D02*
X9417682Y-12174579D01*
X9417682Y-12174579D02*
X9427205Y-12212674D01*
X9427205Y-12212674D02*
X9427205Y-12260293D01*
X9427205Y-12260293D02*
X9417682Y-12298388D01*
X9417682Y-12298388D02*
X9408158Y-12317436D01*
X9408158Y-12317436D02*
X9398634Y-12326960D01*
X9398634Y-12326960D02*
X9379586Y-12336484D01*
X9379586Y-12336484D02*
X9360539Y-12336484D01*
X9360539Y-12336484D02*
X9341491Y-12326960D01*
X9341491Y-12326960D02*
X9331967Y-12317436D01*
X9331967Y-12317436D02*
X9322444Y-12298388D01*
X9322444Y-12298388D02*
X9312920Y-12260293D01*
X9312920Y-12260293D02*
X9312920Y-12212674D01*
X9312920Y-12212674D02*
X9322444Y-12174579D01*
X9322444Y-12174579D02*
X9331967Y-12155531D01*
X9331967Y-12155531D02*
X9341491Y-12146008D01*
X9341491Y-12146008D02*
X9360539Y-12136484D01*
X9512920Y-12336484D02*
X9512920Y-12203150D01*
X9512920Y-12222198D02*
X9522444Y-12212674D01*
X9522444Y-12212674D02*
X9541491Y-12203150D01*
X9541491Y-12203150D02*
X9570063Y-12203150D01*
X9570063Y-12203150D02*
X9589110Y-12212674D01*
X9589110Y-12212674D02*
X9598634Y-12231722D01*
X9598634Y-12231722D02*
X9598634Y-12336484D01*
X9598634Y-12231722D02*
X9608158Y-12212674D01*
X9608158Y-12212674D02*
X9627205Y-12203150D01*
X9627205Y-12203150D02*
X9655777Y-12203150D01*
X9655777Y-12203150D02*
X9674825Y-12212674D01*
X9674825Y-12212674D02*
X9684348Y-12231722D01*
X9684348Y-12231722D02*
X9684348Y-12336484D01*
X9779586Y-12336484D02*
X9779586Y-12203150D01*
X9779586Y-12222198D02*
X9789110Y-12212674D01*
X9789110Y-12212674D02*
X9808158Y-12203150D01*
X9808158Y-12203150D02*
X9836729Y-12203150D01*
X9836729Y-12203150D02*
X9855777Y-12212674D01*
X9855777Y-12212674D02*
X9865301Y-12231722D01*
X9865301Y-12231722D02*
X9865301Y-12336484D01*
X9865301Y-12231722D02*
X9874825Y-12212674D01*
X9874825Y-12212674D02*
X9893872Y-12203150D01*
X9893872Y-12203150D02*
X9922444Y-12203150D01*
X9922444Y-12203150D02*
X9941491Y-12212674D01*
X9941491Y-12212674D02*
X9951015Y-12231722D01*
X9951015Y-12231722D02*
X9951015Y-12336484D01*
X10341491Y-12126960D02*
X10170063Y-12384103D01*
X10598634Y-12136484D02*
X10617682Y-12136484D01*
X10617682Y-12136484D02*
X10636729Y-12146008D01*
X10636729Y-12146008D02*
X10646253Y-12155531D01*
X10646253Y-12155531D02*
X10655777Y-12174579D01*
X10655777Y-12174579D02*
X10665301Y-12212674D01*
X10665301Y-12212674D02*
X10665301Y-12260293D01*
X10665301Y-12260293D02*
X10655777Y-12298388D01*
X10655777Y-12298388D02*
X10646253Y-12317436D01*
X10646253Y-12317436D02*
X10636729Y-12326960D01*
X10636729Y-12326960D02*
X10617682Y-12336484D01*
X10617682Y-12336484D02*
X10598634Y-12336484D01*
X10598634Y-12336484D02*
X10579587Y-12326960D01*
X10579587Y-12326960D02*
X10570063Y-12317436D01*
X10570063Y-12317436D02*
X10560539Y-12298388D01*
X10560539Y-12298388D02*
X10551015Y-12260293D01*
X10551015Y-12260293D02*
X10551015Y-12212674D01*
X10551015Y-12212674D02*
X10560539Y-12174579D01*
X10560539Y-12174579D02*
X10570063Y-12155531D01*
X10570063Y-12155531D02*
X10579587Y-12146008D01*
X10579587Y-12146008D02*
X10598634Y-12136484D01*
X10751015Y-12317436D02*
X10760539Y-12326960D01*
X10760539Y-12326960D02*
X10751015Y-12336484D01*
X10751015Y-12336484D02*
X10741491Y-12326960D01*
X10741491Y-12326960D02*
X10751015Y-12317436D01*
X10751015Y-12317436D02*
X10751015Y-12336484D01*
X10884348Y-12136484D02*
X10903396Y-12136484D01*
X10903396Y-12136484D02*
X10922444Y-12146008D01*
X10922444Y-12146008D02*
X10931968Y-12155531D01*
X10931968Y-12155531D02*
X10941491Y-12174579D01*
X10941491Y-12174579D02*
X10951015Y-12212674D01*
X10951015Y-12212674D02*
X10951015Y-12260293D01*
X10951015Y-12260293D02*
X10941491Y-12298388D01*
X10941491Y-12298388D02*
X10931968Y-12317436D01*
X10931968Y-12317436D02*
X10922444Y-12326960D01*
X10922444Y-12326960D02*
X10903396Y-12336484D01*
X10903396Y-12336484D02*
X10884348Y-12336484D01*
X10884348Y-12336484D02*
X10865301Y-12326960D01*
X10865301Y-12326960D02*
X10855777Y-12317436D01*
X10855777Y-12317436D02*
X10846253Y-12298388D01*
X10846253Y-12298388D02*
X10836729Y-12260293D01*
X10836729Y-12260293D02*
X10836729Y-12212674D01*
X10836729Y-12212674D02*
X10846253Y-12174579D01*
X10846253Y-12174579D02*
X10855777Y-12155531D01*
X10855777Y-12155531D02*
X10865301Y-12146008D01*
X10865301Y-12146008D02*
X10884348Y-12136484D01*
X11141491Y-12336484D02*
X11027206Y-12336484D01*
X11084348Y-12336484D02*
X11084348Y-12136484D01*
X11084348Y-12136484D02*
X11065301Y-12165055D01*
X11065301Y-12165055D02*
X11046253Y-12184103D01*
X11046253Y-12184103D02*
X11027206Y-12193627D01*
X11331967Y-12336484D02*
X11217682Y-12336484D01*
X11274825Y-12336484D02*
X11274825Y-12136484D01*
X11274825Y-12136484D02*
X11255777Y-12165055D01*
X11255777Y-12165055D02*
X11236729Y-12184103D01*
X11236729Y-12184103D02*
X11217682Y-12193627D01*
X11446253Y-12222198D02*
X11427206Y-12212674D01*
X11427206Y-12212674D02*
X11417682Y-12203150D01*
X11417682Y-12203150D02*
X11408158Y-12184103D01*
X11408158Y-12184103D02*
X11408158Y-12174579D01*
X11408158Y-12174579D02*
X11417682Y-12155531D01*
X11417682Y-12155531D02*
X11427206Y-12146008D01*
X11427206Y-12146008D02*
X11446253Y-12136484D01*
X11446253Y-12136484D02*
X11484348Y-12136484D01*
X11484348Y-12136484D02*
X11503396Y-12146008D01*
X11503396Y-12146008D02*
X11512920Y-12155531D01*
X11512920Y-12155531D02*
X11522444Y-12174579D01*
X11522444Y-12174579D02*
X11522444Y-12184103D01*
X11522444Y-12184103D02*
X11512920Y-12203150D01*
X11512920Y-12203150D02*
X11503396Y-12212674D01*
X11503396Y-12212674D02*
X11484348Y-12222198D01*
X11484348Y-12222198D02*
X11446253Y-12222198D01*
X11446253Y-12222198D02*
X11427206Y-12231722D01*
X11427206Y-12231722D02*
X11417682Y-12241246D01*
X11417682Y-12241246D02*
X11408158Y-12260293D01*
X11408158Y-12260293D02*
X11408158Y-12298388D01*
X11408158Y-12298388D02*
X11417682Y-12317436D01*
X11417682Y-12317436D02*
X11427206Y-12326960D01*
X11427206Y-12326960D02*
X11446253Y-12336484D01*
X11446253Y-12336484D02*
X11484348Y-12336484D01*
X11484348Y-12336484D02*
X11503396Y-12326960D01*
X11503396Y-12326960D02*
X11512920Y-12317436D01*
X11512920Y-12317436D02*
X11522444Y-12298388D01*
X11522444Y-12298388D02*
X11522444Y-12260293D01*
X11522444Y-12260293D02*
X11512920Y-12241246D01*
X11512920Y-12241246D02*
X11503396Y-12231722D01*
X11503396Y-12231722D02*
X11484348Y-12222198D01*
X11598634Y-12136484D02*
X11598634Y-12174579D01*
X11674825Y-12136484D02*
X11674825Y-12174579D01*
X11970063Y-12412674D02*
X11960539Y-12403150D01*
X11960539Y-12403150D02*
X11941491Y-12374579D01*
X11941491Y-12374579D02*
X11931968Y-12355531D01*
X11931968Y-12355531D02*
X11922444Y-12326960D01*
X11922444Y-12326960D02*
X11912920Y-12279341D01*
X11912920Y-12279341D02*
X11912920Y-12241246D01*
X11912920Y-12241246D02*
X11922444Y-12193627D01*
X11922444Y-12193627D02*
X11931968Y-12165055D01*
X11931968Y-12165055D02*
X11941491Y-12146008D01*
X11941491Y-12146008D02*
X11960539Y-12117436D01*
X11960539Y-12117436D02*
X11970063Y-12107912D01*
X12027206Y-12136484D02*
X12151015Y-12136484D01*
X12151015Y-12136484D02*
X12084348Y-12212674D01*
X12084348Y-12212674D02*
X12112920Y-12212674D01*
X12112920Y-12212674D02*
X12131968Y-12222198D01*
X12131968Y-12222198D02*
X12141491Y-12231722D01*
X12141491Y-12231722D02*
X12151015Y-12250769D01*
X12151015Y-12250769D02*
X12151015Y-12298388D01*
X12151015Y-12298388D02*
X12141491Y-12317436D01*
X12141491Y-12317436D02*
X12131968Y-12326960D01*
X12131968Y-12326960D02*
X12112920Y-12336484D01*
X12112920Y-12336484D02*
X12055777Y-12336484D01*
X12055777Y-12336484D02*
X12036729Y-12326960D01*
X12036729Y-12326960D02*
X12027206Y-12317436D01*
X12341491Y-12336484D02*
X12227206Y-12336484D01*
X12284348Y-12336484D02*
X12284348Y-12136484D01*
X12284348Y-12136484D02*
X12265301Y-12165055D01*
X12265301Y-12165055D02*
X12246253Y-12184103D01*
X12246253Y-12184103D02*
X12227206Y-12193627D01*
X12579587Y-12336484D02*
X12579587Y-12136484D01*
X12665301Y-12336484D02*
X12665301Y-12231722D01*
X12665301Y-12231722D02*
X12655777Y-12212674D01*
X12655777Y-12212674D02*
X12636730Y-12203150D01*
X12636730Y-12203150D02*
X12608158Y-12203150D01*
X12608158Y-12203150D02*
X12589110Y-12212674D01*
X12589110Y-12212674D02*
X12579587Y-12222198D01*
X12789110Y-12336484D02*
X12770063Y-12326960D01*
X12770063Y-12326960D02*
X12760539Y-12317436D01*
X12760539Y-12317436D02*
X12751015Y-12298388D01*
X12751015Y-12298388D02*
X12751015Y-12241246D01*
X12751015Y-12241246D02*
X12760539Y-12222198D01*
X12760539Y-12222198D02*
X12770063Y-12212674D01*
X12770063Y-12212674D02*
X12789110Y-12203150D01*
X12789110Y-12203150D02*
X12817682Y-12203150D01*
X12817682Y-12203150D02*
X12836730Y-12212674D01*
X12836730Y-12212674D02*
X12846253Y-12222198D01*
X12846253Y-12222198D02*
X12855777Y-12241246D01*
X12855777Y-12241246D02*
X12855777Y-12298388D01*
X12855777Y-12298388D02*
X12846253Y-12317436D01*
X12846253Y-12317436D02*
X12836730Y-12326960D01*
X12836730Y-12326960D02*
X12817682Y-12336484D01*
X12817682Y-12336484D02*
X12789110Y-12336484D01*
X12970063Y-12336484D02*
X12951015Y-12326960D01*
X12951015Y-12326960D02*
X12941491Y-12307912D01*
X12941491Y-12307912D02*
X12941491Y-12136484D01*
X13122444Y-12326960D02*
X13103396Y-12336484D01*
X13103396Y-12336484D02*
X13065301Y-12336484D01*
X13065301Y-12336484D02*
X13046253Y-12326960D01*
X13046253Y-12326960D02*
X13036730Y-12307912D01*
X13036730Y-12307912D02*
X13036730Y-12231722D01*
X13036730Y-12231722D02*
X13046253Y-12212674D01*
X13046253Y-12212674D02*
X13065301Y-12203150D01*
X13065301Y-12203150D02*
X13103396Y-12203150D01*
X13103396Y-12203150D02*
X13122444Y-12212674D01*
X13122444Y-12212674D02*
X13131968Y-12231722D01*
X13131968Y-12231722D02*
X13131968Y-12250769D01*
X13131968Y-12250769D02*
X13036730Y-12269817D01*
X13208158Y-12326960D02*
X13227206Y-12336484D01*
X13227206Y-12336484D02*
X13265301Y-12336484D01*
X13265301Y-12336484D02*
X13284349Y-12326960D01*
X13284349Y-12326960D02*
X13293872Y-12307912D01*
X13293872Y-12307912D02*
X13293872Y-12298388D01*
X13293872Y-12298388D02*
X13284349Y-12279341D01*
X13284349Y-12279341D02*
X13265301Y-12269817D01*
X13265301Y-12269817D02*
X13236730Y-12269817D01*
X13236730Y-12269817D02*
X13217682Y-12260293D01*
X13217682Y-12260293D02*
X13208158Y-12241246D01*
X13208158Y-12241246D02*
X13208158Y-12231722D01*
X13208158Y-12231722D02*
X13217682Y-12212674D01*
X13217682Y-12212674D02*
X13236730Y-12203150D01*
X13236730Y-12203150D02*
X13265301Y-12203150D01*
X13265301Y-12203150D02*
X13284349Y-12212674D01*
X13360539Y-12412674D02*
X13370063Y-12403150D01*
X13370063Y-12403150D02*
X13389111Y-12374579D01*
X13389111Y-12374579D02*
X13398634Y-12355531D01*
X13398634Y-12355531D02*
X13408158Y-12326960D01*
X13408158Y-12326960D02*
X13417682Y-12279341D01*
X13417682Y-12279341D02*
X13417682Y-12241246D01*
X13417682Y-12241246D02*
X13408158Y-12193627D01*
X13408158Y-12193627D02*
X13398634Y-12165055D01*
X13398634Y-12165055D02*
X13389111Y-12146008D01*
X13389111Y-12146008D02*
X13370063Y-12117436D01*
X13370063Y-12117436D02*
X13360539Y-12107912D01*
M02*
